/* XPM */
static char *_4closed_door1738162250[] = {
/* columns rows colors chars-per-pixel */
"64 64 256 2 ",
"   c #030300",
".  c #0E0301",
"X  c #080B04",
"o  c #140301",
"O  c #1B0401",
"+  c #140B03",
"@  c #1C0A03",
"#  c #140C0B",
"$  c #1C0D0A",
"%  c #09140B",
"&  c #19130A",
"*  c #0E1812",
"=  c #1B1B1A",
"-  c #181713",
";  c #100E11",
":  c #220400",
">  c #230C04",
",  c #2B0C02",
"<  c #230E0A",
"1  c #2B0D0B",
"2  c #370D04",
"3  c #2B130B",
"4  c #251207",
"5  c #3C1405",
"6  c #34140C",
"7  c #3B140B",
"8  c #3C1A0C",
"9  c #361806",
"0  c #221513",
"q  c #291814",
"w  c #3C1512",
"e  c #341912",
"r  c #3C1B14",
"t  c #361815",
"y  c #0D2113",
"u  c #142314",
"i  c #192618",
"p  c #182D18",
"a  c #20240C",
"s  c #3B2506",
"d  c #242718",
"f  c #3B2319",
"g  c #1D2922",
"h  c #163C23",
"j  c #232422",
"k  c #2A2524",
"l  c #2C2C2A",
"z  c #252B26",
"x  c #362B28",
"c  c #28362B",
"v  c #33322E",
"b  c #343334",
"n  c #333B35",
"m  c #3B3C3C",
"M  c #353A39",
"N  c #313432",
"B  c #480E03",
"V  c #431404",
"C  c #4C1304",
"Z  c #441C04",
"A  c #43140B",
"S  c #4B150B",
"D  c #431B0B",
"F  c #4B1B0C",
"G  c #4C1906",
"H  c #54180A",
"J  c #421C13",
"K  c #4D1B12",
"L  c #451B18",
"P  c #571C12",
"I  c #510D05",
"U  c #621D0E",
"Y  c #621D13",
"T  c #492409",
"R  c #57250B",
"E  c #43231B",
"W  c #482418",
"Q  c #542414",
"!  c #5B2314",
"~  c #5B2C1B",
"^  c #572918",
"/  c #463718",
"(  c #573717",
")  c #4F370C",
"_  c #622215",
"`  c #632C15",
"'  c #652B1B",
"]  c #6B2C1C",
"[  c #692A16",
"{  c #722D1D",
"}  c #6C321C",
"|  c #653318",
" . c #73331C",
".. c #60240A",
"X. c #4B2A24",
"o. c #472723",
"O. c #562C22",
"+. c #5A2D24",
"@. c #582A25",
"#. c #483B26",
"$. c #593226",
"%. c #473C3A",
"&. c #642D22",
"*. c #6A2D22",
"=. c #662F28",
"-. c #712E22",
";. c #6C3322",
":. c #663528",
">. c #743323",
",. c #773827",
"<. c #743E34",
"1. c #673831",
"2. c #411F20",
"3. c #1C5132",
"4. c #27582B",
"5. c #2B4732",
"6. c #374738",
"7. c #295837",
"8. c #385639",
"9. c #2F4C2A",
"0. c #2B6538",
"q. c #336B3B",
"w. c #376839",
"e. c #39743A",
"r. c #30642D",
"t. c #254F1A",
"y. c #544618",
"u. c #4A4929",
"i. c #45413E",
"p. c #455A36",
"a. c #595528",
"s. c #734136",
"d. c #4E703B",
"f. c #706B32",
"g. c #6A5518",
"h. c #3B3D41",
"j. c #3C4943",
"k. c #3A5B44",
"l. c #2C5D45",
"z. c #346244",
"x. c #3A654A",
"c. c #3B6B4B",
"v. c #376846",
"b. c #3B7443",
"n. c #3A7749",
"m. c #3B6752",
"M. c #2D6C48",
"N. c #3B7968",
"B. c #434343",
"V. c #4C4C4C",
"C. c #484946",
"Z. c #534B4B",
"A. c #445D4A",
"S. c #475849",
"D. c #4D5751",
"F. c #525353",
"G. c #5A5C5B",
"H. c #555A56",
"J. c #525051",
"K. c #655E5B",
"L. c #634E4B",
"P. c #446B4C",
"I. c #4B6C4C",
"U. c #466748",
"Y. c #43734A",
"T. c #437B4B",
"R. c #4B7C4C",
"E. c #477647",
"W. c #537A4B",
"Q. c #486953",
"!. c #5C635D",
"~. c #556957",
"^. c #447252",
"/. c #4B7453",
"(. c #4B7C54",
"). c #477A57",
"_. c #537C55",
"`. c #567859",
"'. c #53674B",
"]. c #64625E",
"[. c #787945",
"{. c #5C5F60",
"}. c #615F63",
"|. c #5C6762",
" X c #597764",
".X c #4B7365",
"XX c #646364",
"oX c #66696B",
"OX c #6B6C6C",
"+X c #686866",
"@X c #746B6A",
"#X c #667869",
"$X c #73736E",
"%X c #6B7772",
"&X c #737474",
"*X c #737A75",
"=X c #7B7B7B",
"-X c #797777",
";X c #6E6E71",
":X c #816539",
">X c #827C7B",
",X c #508232",
"<X c #6C9328",
"1X c #488549",
"2X c #4B8253",
"3X c #4C8A55",
"4X c #4A8557",
"5X c #538B5C",
"6X c #568658",
"7X c #569557",
"8X c #508D4A",
"9X c #62875A",
"0X c #78944C",
"qX c #5FA35B",
"wX c #64A65D",
"eX c #5A8764",
"rX c #5B9666",
"tX c #498972",
"yX c #668769",
"uX c #66946A",
"iX c #6B8975",
"pX c #778778",
"aX c #6E9777",
"sX c #769679",
"dX c #788D68",
"fX c #5FA261",
"gX c #6AA26D",
"hX c #969038",
"jX c #8D9255",
"kX c #92A749",
"lX c #A8B34D",
"zX c #81847D",
"xX c #8B9662",
"cX c #ABB576",
"vX c #96AD70",
"bX c #B6C562",
"nX c #C6CF7E",
"mX c #7C7D81",
"MX c #817F83",
"NX c #7B8683",
"BX c #7A9784",
"VX c #6F8A83",
"CX c #73A58C",
"ZX c #519389",
"AX c #868788",
"SX c #859788",
"DX c #969795",
"FX c #8E908F",
"GX c #85A48A",
"HX c #90A39F",
"JX c #A8A995",
"KX c #A6A7A6",
"LX c #B3B1B1",
"PX c #98A4A4",
"IX c #B6C688",
"UX c #C1CD89",
/* pixels */
"q.q.n.n.3XtX3X4X4X4X4X4X).c.m.c.U.w.p.w.k.x.m.m.l.m.m.m.k.P.Q.I.`.`.6XyXuX7X3Xb.q.0.0.z.x.c.l.m.x.k.z.v.z.c.c.).4X4X4XtXrXrX8X1X",
"n.n.).n.n.3X4X4X4X4X4X1Xc.c.c.c.Y.E.Y.P.U.k.m.Q..X.X.X.X.X`.Q.`.`.yXyXuXuXuX6X2X(.2X).^.m.c.x.x.z.x.m.m.^.c.c.c.n.m.).4XrXrX3X1X",
"3X3X4Xn.e.M.n.3X4X3X4Xb.q.z.n.).6X_./.I.Q.x.k.m..XVXmXmXiXyX X#XyXaXaXaXsXyX6XyXuXaXyXeX).m.x.x.z.c.^.(.eX).b.0.0.0.b.1XrX7X4Xn.",
"rXrX5Xn.M.M.M.n.3X3Xn.q.q.M.1XeXeXyXuX6X/.A.k.D. XVXVXZXNXiXyXiXpXpXdXpXaXyX#XeXiXsXyXeXyXeX^.l.l.m.).eXuXeXE.r.r.0.q.1X3X3Xn.q.",
"fXrX3X4Xn.M.1X3X7X8XT.q.e.1X3XrXeXuXaXuX~.A.S.D.{.mXNXHXVXmXpXyXyX%X*X#X#X#X#X!.#X~.~.#XaXaX`.k.l.c.^.eXeX5X2XE.e.e.e.1X3X3XM.0.",
"rX3X3X1X3X3X3X3X7X8X1Xe.1X3X5XrXyXaXBXiXQ.5.n j.D.oXNXFXVXmXpXBXpX#X*X*X$XpXpX*XG.j.6.A.pXCXBXeX^.n.^.Y.(.4X8X7X8X8X1X8X3Xn.M.3.",
"M.q.q.n.3XfX7X7X3X8X,X1X8X5X5X6XeXiXpX#X6.i i m |.AXPXDX&X&XSXDXAXzX=XNX=XFXDXAXXXj.n A.#XBXGXCXiX4Xm.z.0.v.2X7XqXqXqX8X1XM.0.3.",
"0.4.r.e.7XfXfX7X8X1X1X7XuXuX6XI.A.A.k.j.6.l l i.{.NXDXMX;X%XAXFXAX>X=X=X-XAXFXAX&X|.G.H.D.~.#XVXBXeXc.7.4.7.T.7XqXqXqX8X1Xn.0.0.",
"4.4.4.e.7XfXqX7X8X1X3XuXsXsXI.5.y y * g j.D.J.F.XXOX;X&X=X=X&X$X$X@X+X+X+XOX-XMXAXFXFX;Xm g c ~.iXiX.Xl.7.7.q.T.8XqXwXqX8XE.b.U.",
"I.Y.w.w.1X8X7X8X8X8X7X9X9XI.5.u * = z n j.S.G.oX+X}.}.@X=X-XOX].+X].K.XX@X>XMXAXKXKXKX;Xh.= z S.#XiX%X X/.m.z.0.e.8X8XqX8XR./.I.",
"yX6XR.b.e.e.1X8X7XfXrXE.6.p % * N H.oXJ.z z S.oX+X}.G.XXOXOXXXK.].].].@X>XFXDXKXLXPXmX}.G.G.G.G.~. XBXBXVX Xx.7.r.e.1X7X6X_.W.I.",
"aXuX5XT.e.r.1X9XwXgXY.c %   ; l J.mXFXmXB.v 6.Z.C.Z.Z.C.i.i.Z.C.%.1.i.Z.K.@X>X>XMXXXZ.Z.@XAXAX&XH.H.|.;X.XQ.k.l.0.0.e.8X9X_.U.z.",
"rX5XrXW.w.w.2XgXGXiX5.%   * M J.}.;X&XMX>XK.x - 0 0 q 0 0 0 0 - q q 0 q k x x x 2.x x %.K.&XMX&XG.M c g g c j.x.U.Y._.6X6X/.w.7.",
"E.6X5X6XE.(.uXsXuXI.6.c c n m V.}.}.Z.L.@XK.x o o o O O O O o o O O O o o O o . . # - l b J.;X&X|.j.N z z n j.~.#XyXyXeX(.x.7.3.",
"b.1X3X5X_.eXaXyX8.6.!.pX>XF.l x J.L.%.q f x e > 1 1 1 6 1 1 1 : 1 q 1 1 1 4 < > O @ $ $ $ l J.XXG.V.G.oX&X&XOX#XiXsXiX`.).l.7.3.",
"q.n.(.5X6X`.yXA.c n *XLXKX=Xi.v %.%.< o > , 1 L L @.X.Q o.L t t t 2.2.2.r f E f t 3 > o . ; l h.j.J.&XFXKXDXNXpXvXzXuX.Xm.M.l.3.",
"M.M.n.).eX.X8.c n m.oXAXDXDX>XZ.o.1 : > J E A K ^ 1.=.+.+.^ A w L L L L J J J W 8 7 3 @ . . # = j h.}.MXDXFX>XzXSXpXyXI.x.c.M.M.",
"n.M.m.^. Xk.g y j.{.{.XX-X>X-XL.2.1 7 W 1.$.K S >.,.-.*.&.@.S A L @.Q F F D F A 8 7 6 , O .   . ; N J.;XMXMX-X@XpXpXiXeX^.c.n.M.",
").N.v.^..Xj.y % z j.G.G.Z.%.X.X.X.^ ~ :.s.=.F H  . . .[ ' ^ C C P ! R D A S K J A 7 9 6 3 $ .   # k Z.$XMX>X;X}.!.#XdXsXeX.Xc.c.",
"5X4X6XeXeXQ.g % * h.G.F.x : : 7 +.<.s.,.,.' S H [  . .[ ] ! S C R ` R G Z F S L 7 7 9 e q 3 # . . f Z.$XMX&XoXJ.m D.pXSXBXeXm.z.",
"7XuXaXsXpX|.6.g = h.V.h.t : : A -.<.:X,.,.*.H I  . . .[ ] P B S R ~ R G S L K L A 7 7 J r q @ o . - %.XX@X}.G.h.N 6.|.BXGXpX/.7.",
"rXuXGXsX#XH.j.j.h.h.h.j x 7 2 S -.-.-.>.,.' H H [  . .| ;.@.S S ^ ~ ! Q K P K S 7 7 w J r 3 > @ + 4 x %.Z.Z.V.V.B.j.D.oXVXiXD.5.",
"5XaXCXyX6.c V.oXoXV.k 0 r E S H Y -.>.,.,.` C C |  .| | | ( D A ~ ~ ~ ^ ^ Q K A A w 7 A t t e 3 4 $ $ 0 k h.C.G.oX|.D.S.'.D.k.6.",
"E.yXBX~.* * V.mXmXV.0 @ o.+.F C Y -.>.,.,.` G C | | R Z Z 9 , , 9 Z 8 Z T T R S 2 A w w r t s e e @ o . = b V.;XAXmXXX6.n 6.8.A.",
"8.I.iXQ.y % j.%X;XC.$ $ E +.F C P [  . .,.( D D ~ O.9 : & + @ @ @ O : , 8 T T D 7 w w w L f 9 9 q > o . j h.D.;XFXNX|.j.6.9.p.'.",
"3.8.~.U.5.g 6.!.G.C.0 > W O.S G U [ [ } ,.| T 2 6 D T / / #.u.x #./ / W s T T 8 A 7 7 J E J 8 9 e $ o # k h.F.;XAXAXoXj.9.6.'.#X",
"h 5.k.Q.Q.j.c n V.i.q < E +.S C R  .[  .:.$.T > : W [.xXxXjXdXxXxXxXxX[.y.T s 9 9 8 8 J 8 s 8 9 q > o ; l B.G.;XmXmXH.j.9.6.d.`.",
"3.7.k. XiXQ.g * v v < > W $.F C ..[ [ } =.^ 9 , 9 f.cXUXvXxX0XgXxXvXIXcXjXa.s , 9 8 8 8 9 9 7 e e @ o $ l V.oX&X;XF.N g c 8.'.W.",
"x.c.~.eXiXH.g   % # . < X.$.K B ..[ } ] =.W > s f.cXUXcX7Xr.0.0.r.d.vXUXcX[.f @ : 6 8 8 8 9 8 r t > o ; x K.=X&XJ.l % % d 8.I.2X",
"eXeXuXiX~.6.*   ; % . 0 o.$.K S U [ [ [ &.D @ s jXnXcX<Xd.r.3.3.t.4.d.vXcXjX/ o O , 6 8 8 8 r t q < o @ k Z.G.V.l * % z 9.p.U.Y.",
"5XuXsXyX6.u % g 6.b - 0 o.@.S I Y { [ [ ~ 8 > y.kXlXkX,X8XtXtXtXx.7.t.d.0X[./ @ O : , 9 8 f r e e < o . ; k l = ; - m !.`.~.w.7.",
"E.uXsX`.p X * j.{.V.0 $ x @.S S _ -.[ [ Q 9 s y.hXlX<X,XrXCXCXZXtX7.t.r.f.0Xa.s , : : , r 8 w e q < o + $ j k = ; j G.pXiX6XU.4.",
"7.Y.iX~.u X c !.OXC.- $ E +.F C Y {  .H A 9 y.f.lXlX<X,X7XrXN.N.z.r.r.f.<XjXf.a.s , , 2 e r r 6 6 > o @ k V.}.J.b b !.dXyX`.E.r.",
"5.U.#XQ.i * 6.+X+XB.0 @ E +.S I Y { ] ! D T ) g.hXbXlXkXW.M.l.3.7.r.d.0XkXjXf.( 9 9 6 6 7 r 8 7 6 > o $ v XXAX;Xh.m !.$X#X6XR.b.",
"8.`.iX'.i * C.OXOX6.- > E $.S H Y *.] ' ^ D s y.hXlXbXkXd.r.7.5.9.p.0XxXvX:Xy.s 9 9 6 7 r J 7 7 6 > o + k G.-XOXB.b K.*XpX6XR.b.",
"6XiXsX~.i g !.zX|.k + $ o.$.K I Y { { } +.K , 9 g.hXlXjXd.u.8.8.6.a.a.[.:Xg.T 2 , 5 7 7 J J 7 7 , > o # k V.oXG.h.b F.*XpXyX2XT.",
"yXsXvX!.i v pXFXJ.- . > X.$.K S U ] ] { =.Q 2 9 ) g.g.f.a.u.u.u.u.u.y.y.y.) ) T Z A 5 A K D 5 6 6 < o + z D.oXG.v v H.$XyX6X/.E.",
"yXsXSX~.i z @XFX&Xb $ $ X.$.K I U { ] ] =.~ Z 5 G ..) y.y.#.#./ y./ T T T R ..` F A 5 A J D A 7 e 3 o . - n J.C.k c !.#XyX`.Y.v.",
"9XsXGX#Xd % m MXKX-Xx < E @.S C U ] ] ] ;.^ V V R | ....( ) s T ( ~ ( R R ..| ` P Z V Z D D D J t 3 O . + i b b z v !.#X#X^.z.0.",
"~.uXzX#Xz   j ;XLXDX%.O r $.A S U { ] *.| ! C G |  .| | ~ R 5 5 T | }  .} { ] ! H S A Z D F T J r q @ . . - j i = c !.yX XQ.7.3.",
"U.`.sX#Xz X l &XDX=Xx @ f ~ P C Y *.] ] ' Q C G *.,.-.' _ K C V P ]  . .{ { ] _ P S V Z D Z D D 2.1 O $ 0 x M k * d D.%X Xx.7.3.",
"5./.pX#Xz % n =XDXAXx @ f ^ F C Y *.*.*.~ P C G ] ,.-.] ] P C B P  .>.>.>.{ ] P S V V Z Z D 8 J t 1 O $ k i.V.b % = S.yX Xx.7.7.",
"5.x.iX Xg X n AXLXDX%.O f / F F _ *.*.&.' Q V G _ ,.>.] } _ I B U { ,.,.{ { _ P B V 5 Z Z D D J L 1 : $ x C.F.i.= p D.%X Xx.l.0.",
"h k.yX~.g X b mXLXFX%.o r ^ F C _ *.*.*.&.R V G [ ,.>.] *._ H I U { ,.,.>.] P S 5 V 5 8 D D J J 2.1 : < k C.K.F.B.B.~.|.~.Q.x.z.",
"3.x.#X~.g % M OXMXK.k O E +.F C Y ] ' &.&.Q V G ] ,.} ] *.P S I U { ,.,.{ [ P S V 2 5 D J J J J t 1 O $ k C.}.;X&X#X!.H.A.Q.m.^.",
"z.`.iX'.g * B.oXG.b O 1 E O.H C ! ] ' ] &.Q V S | ,. .` ' P S I H ] -.>.>._ P S B 7 7 D J J J w w 1 O $ x Z.}.&X&X%XXXD.D.P.Q.P.",
"eXaXCX`.g - C.XXV.k # < X.~ F C P [ ] *.&.Q A F } >. .` ' P S B I Y *.>.;.' P S 7 2 w w J J J w t < O $ x J.}.}.V.V.!.#X X~.k.k.",
"aXsXGX#Xg % b B.b = o < X.$.H I U  .-.*.+.Q A F }  .} ' *.~ B 2 I P *.>.>.' P J 7 7 w w J J w w 1 1 O ; q h.V.b = d F.pXpX#XA.5.",
"yXBXCX Xg   * = = ; o < X.=.P I U { { -.*.P B H ] >.} [ } ^ S B B P | >.} | Q S 7 7 w r r r 8 6 6 < o o $ = j = ; = J.zXDXpX'.c ",
").eXBX|.i   * z b j # < X.@.L I Y { -.-.*.P C H ] ,. .] ' ! S V B ! ' ;.} ~ Q A 7 7 w w r r 8 e t 1 o o ; j l l l h.H.$XzXpX+X'.",
"l..XiXQ.g ; %.}.-XJ.q $ L @.P I U { >.-.*.P I H ] ,. .] ' ! C V C R ` } | ( T D 5 2 w J L r 8 7 e < o # k B.{.XXoXoX+X+X].#XpXSX",
"A..X XV.j x }.KXLX-Xx : L @.P I U { ,.>.*.P C C ' >. .] ' P V V C H ^ ` ^ R R D 5 7 8 J J r 8 9 3 > o $ b G.&XNXMXMX-X+X].#XHXKX",
"VX#Xm.b b J.>XKXKX-Xx @ L +.S I U { ,.,.} R C C ` >.>.] } ! S 2 V H ! ~ Q T F D V 5 7 J J 8 7 6 3 < o # l J.OX;X&X;X&X&X*XNXDXHX",
"HXoXh.z B.oX>XMXFXK.f > 2.@.F C Y -.>.,.*.! C C ' >.;.' *.^ B 2 B K ~ ~ Q T F Z 5 7 7 8 J D 7 9 3 < o # k B.F.|.oX;X&XmX*X*X*XpX",
"PX|.l = B.@X@X@X@Xi.q > E O.P S ' ,.<.,.*.! C F ' >.;.| &.^ A 2 A K ^ ~ ^ T D 8 7 7 7 J L J r 7 e > o # k B.F.oXmXmX;X}.D.D.D.|.",
"HX{.j ; V.@X;X}.K.%.& $ o.$.W F =.<.<.1.=.^ A F :.s.:.:.&.O.L 7 7 W ^ ~ Q W W 7 7 6 7 r E J J 6 q @ o # k B.G.=XFXAXoXj.h.M j.A.",
"DX}.j i C.@X@X+XK.i.& & o.X.L J :.<.s.L.1.W s J $.s.s.$.$.X.r r r r W W W f f s e e e r f L r t q @ o + k 6.|.-XAXmX|.j.h.n j.l.",
"FX{.i + v i.C.i.i.x + + d x q 1 f X.X.X.o.6 , , f / W f f r 3 > < 3 3 3 3 3 3 3 4 4 4 4 3 3 < 1 > + . X - l m S.G.F.h.N N j.j.j.",
"AX~.p X % a u u a - X + & & @ + , 9 3 > 4 & @ + & & > @ < & @ o + @ + + + + + + @ + + @ + + o + + + X X % * u p g y * y n k.l.k.",
"pX~.9.u y y y p p p p p d i - a a a d a d a a a a a a a a - = i d d d a p d d d i a d d z d d d d i a u p u y % * * g c k./.~.Q.",
"#X`.k.9.9.8.w.U.P.~./.U.U.8.6.8.p.a.'.d.d.p.p.8.p.p.p.6.6.5.6.i.'.'.'.p.d.'.'.p.8.p.S.'.'.'.U.S.8.8.8.p.k.8.7.5.5.8.U.~. X`.`._.",
"_.(./.I.b.1X(.eXuXuXuXeX(.I.I.I.W.9X9X9X9X9X1XW.W.W.W.W.U.A.A.Q.`.yX9X`.6X9X9X_.W.R._.9X#XyX`.`.I.I./.`._./.x.8.8.I.#XdXyX6XW.W.",
"(.2X(.T.q.q.n.1X3X5X5X2X/.b.b.E.1X8X1X,XW.W.d.e.W.6X6XW./.k.l.k.W.6X2X1XR.1X2XW.R.R.2X2XE.Y././.Y.c.).5X3XR.v.7.7.w.W.`.6XE.d.e.",
"(.2X/.e.0.r.0.e.n.1XT.n.b.q.q.e.,X,Xe.r.d.e.e.e.d.1X_.R.^.l.5.7.r.d.T.b.d.w.e.E.e.E.E.e.4.4.w.c.q.q.).4X2Xb.0.4.7.9.w.U.E.d.d.r."
};
