/* XPM */
static char *_d86cbdec2034c82c1ddd6fcabebc80faEUB0RaJ7xPMLyGE[] = {
/* columns rows colors chars-per-pixel */
"64 64 252 2 ",
"   c #372D0E",
".  c #3B3224",
"X  c #3B3827",
"o  c #3C362B",
"O  c #103D25",
"+  c #492D19",
"@  c #45311A",
"#  c #462408",
"$  c #78260A",
"%  c #6F2B0F",
"&  c #433324",
"*  c #473628",
"=  c #553729",
"-  c #563D33",
";  c #452E24",
":  c #683B28",
">  c #471A03",
",  c #17421A",
"<  c #1D572B",
"1  c #1B4D30",
"2  c #224D2A",
"3  c #3A452A",
"4  c #27572A",
"5  c #35572A",
"6  c #394837",
"7  c #235C33",
"8  c #2B5C3C",
"9  c #285736",
"0  c #365939",
"q  c #244C37",
"w  c #256133",
"e  c #2B6434",
"r  c #2C643B",
"t  c #2D6A3A",
"y  c #2C6A34",
"u  c #34643D",
"i  c #336C3B",
"p  c #3B6C3B",
"a  c #366735",
"s  c #35723D",
"d  c #3B743C",
"f  c #39783C",
"g  c #2C632D",
"h  c #68471C",
"j  c #594B27",
"k  c #454538",
"l  c #5A4838",
"z  c #465839",
"x  c #585635",
"c  c #4A4C2C",
"v  c #664826",
"b  c #6D572C",
"n  c #674637",
"m  c #734B3A",
"M  c #735736",
"N  c #6E5630",
"B  c #46683A",
"V  c #576A39",
"C  c #48743C",
"Z  c #54783D",
"A  c #40652E",
"S  c #6A6E3D",
"D  c #2D5B43",
"F  c #335C44",
"G  c #375849",
"H  c #394F47",
"J  c #2C6343",
"K  c #2E6942",
"L  c #336444",
"P  c #3C6443",
"I  c #346B43",
"U  c #3B6C44",
"Y  c #33644B",
"T  c #3A644B",
"R  c #356B4A",
"E  c #3A6B4B",
"W  c #367343",
"Q  c #3B7444",
"!  c #3C7B44",
"~  c #3B734B",
"^  c #3D7A4B",
"/  c #367549",
"(  c #396952",
")  c #3D7352",
"_  c #3D7954",
"`  c #475846",
"'  c #59594A",
"]  c #755A43",
"[  c #6B4F41",
"{  c #456948",
"}  c #437444",
"|  c #427B45",
" . c #4B7C45",
".. c #43744B",
"X. c #437C4B",
"o. c #4A7C4C",
"O. c #4C7646",
"+. c #567949",
"@. c #456A53",
"#. c #536852",
"$. c #437454",
"%. c #447C53",
"&. c #4B7D54",
"*. c #457C5B",
"=. c #4B7D5A",
"-. c #487558",
";. c #547A58",
":. c #536A46",
">. c #667745",
",. c #766F46",
"<. c #4A7D62",
"1. c #517C60",
"2. c #852612",
"3. c #A42C14",
"4. c #952623",
"5. c #B32D2E",
"6. c #8D1C17",
"7. c #C4302D",
"8. c #965432",
"9. c #A65837",
"0. c #A94D35",
"q. c #8A6638",
"w. c #996D39",
"e. c #9A6A32",
"r. c #A9763B",
"t. c #A56A39",
"y. c #C4593A",
"u. c #C9623F",
"i. c #8C5D45",
"p. c #B8564A",
"a. c #876247",
"s. c #867848",
"d. c #957647",
"f. c #9A754F",
"g. c #A57648",
"h. c #BA7847",
"j. c #A67553",
"k. c #B4714D",
"l. c #D95646",
"z. c #D0584F",
"x. c #D17952",
"c. c #E77C5C",
"v. c #3B843B",
"b. c #3D8248",
"n. c #428245",
"m. c #44824C",
"M. c #4B834C",
"N. c #4C8B4D",
"B. c #498947",
"V. c #51854E",
"C. c #528B4C",
"Z. c #5A8548",
"A. c #54934D",
"S. c #458352",
"D. c #4B8453",
"F. c #4D8A53",
"G. c #4C845B",
"H. c #4D8A5B",
"J. c #468557",
"K. c #528454",
"L. c #528C54",
"P. c #52855B",
"I. c #538B5B",
"U. c #5A8C5C",
"Y. c #5A8855",
"T. c #4E9154",
"R. c #549254",
"E. c #599555",
"W. c #54935B",
"Q. c #5A935C",
"!. c #5A995A",
"~. c #68854A",
"^. c #678553",
"/. c #768951",
"(. c #7B9356",
"). c #6F8E50",
"_. c #62A15B",
"`. c #4D8362",
"'. c #4D8962",
"]. c #548B62",
"[. c #578864",
"{. c #559361",
"}. c #5C9363",
"|. c #5A9767",
" X c #5D9A72",
".X c #659965",
"XX c #6B9267",
"oX c #65A164",
"OX c #5B843E",
"+X c #8C9253",
"@X c #A9844A",
"#X c #B88648",
"$X c #B9965C",
"%X c #B18957",
"&X c #AFA65D",
"*X c #8C9D64",
"=X c #B69765",
"-X c #A49D63",
";X c #91A971",
":X c #A7AA69",
">X c #B8A766",
",X c #B5B979",
"<X c #B3AF74",
"1X c #C48B49",
"2X c #C99349",
"3X c #CA8B59",
"4X c #CA9758",
"5X c #D4965A",
"6X c #D39253",
"7X c #CCA35A",
"8X c #D5A559",
"9X c #D89865",
"0X c #D29165",
"qX c #E79C79",
"wX c #ED946B",
"eX c #C6A668",
"rX c #D9A869",
"tX c #D8B66A",
"yX c #DCA876",
"uX c #CBB875",
"iX c #DBB976",
"pX c #CAB06F",
"aX c #E8A86C",
"sX c #E2B66B",
"dX c #E7A974",
"fX c #E5B876",
"gX c #F4B37B",
"hX c #F3A676",
"jX c #E4875C",
"kX c #BBC17F",
"lX c #D8C479",
"zX c #CBC878",
"xX c #E9C77A",
"cX c #F3C77D",
"vX c #B8BC84",
"bX c #CDB883",
"nX c #EDB884",
"mX c #F29D80",
"MX c #B3C387",
"NX c #D3C788",
"BX c #EACB84",
"VX c #F7C888",
"CX c #EDD58A",
"ZX c #F7D58C",
"AX c #FECA98",
"SX c #E6D896",
"DX c #FED394",
"FX c #F9D897",
"GX c #F3E39C",
"HX c #FED9A6",
"JX c #EFE7A8",
"KX c #DBE5A1",
/* pixels */
"K I / _ G.I.H.H.S.D.H.G.^ I R R U U R L Y ( ( Y Y L L E E ~ $.&.M.C.L.W.!.!.N.b.s t t t u L R R Y Y Y L Y E $.-.=.=.G.{.|.!.B.v.",
"/ ^ ~ ^ %.%.S.D.D.D.D.X./ I R ~ %...~ E R Y Y Y ( ) ) ~ ~ U U Q o.N.R.E.!.H.b.f s ! ^ ~ ~ E E Y Y Y ( ) $.$.E E E ~ %.H.}.W.N.v.",
"H.H.S.^ W i Q m.F.D.X.s i I ~ %.G.G.%.) E J J Y *.`.`.*.X.i e e | N.Q.!.!.F.s i ! D.I.G.=.$.E D Y R $.<.`.&.U r r u / S.W.W.B.! ",
" X|.H.X.i y d m.R.L.! i i ~ %.I.{.{.I.G.~ r r R `. X X].D.Q y y | C.E.|.W.X.s s S.].|.}.].=.E L F T -.[.}.P.} i e e i X.I.I.X.W ",
" X|.I.M.f d f B.!.R.n.s ! D.I.].{.{.W.H.S.W i I G.|.|.].I.S.! n.B.R.E.R.S.Q W X.I.}.|.[.[.G.$.R L E &.].[.U.M.| ! f f m.I.F./ r ",
"'.H.D.M.N.B.B.C.E.T.n.! D.I.I.I.S.m.m.D.D.m.^ / %.J.J.G.H.I.W.!.R.A.N.n.W W ^ G.].G.%.%.%.*.%.*.$.....%.%.D.I.W.R.L.N.M.D.X.r < ",
"R I W n.R.!.E.A.N.B.n.m.F.L.D.X.i t s | m.F.F.%./ K K W ^ F.|..XE.N.n.f t W %.H.%.~ I J I ~ J.].].D./ r e Q F..XoX_.!.L.D./ 8 7 ",
"7 7 w f E._._.A.B.B.m.F.F.D.} i e e i } | L.U.F.i < < 7 r X.}..X!.B.n.s i ! D.H.~ r r K / %.H.{.|.D.I < < e X.W.oXoXoXE.M.U r r ",
"8 7 7 s N._._.E.A.N.F.F.F.X.i e e p | o.D.K.I.D.i 7 < < 7 U &.U.!.E.B.f f n.I.D.I e i X.D.H.H.S.F.m.s 7 < 7 s | L.!.oX!.L.X./ ~ ",
") R i i | N.E.E.R.R.F.F.D.| p a p  .K.K.o.o.o.o.Q a e 4 4 8 u C Z.A.B.C d | M.} p a p | D.D.M. .m.m.X.~ / I t e d M.R.E.U.D.X...",
"|.].%.Q s f m.R.W.W.F.S.X.| } }  .M.o.O.O.O.O.O.+.+.+.O.B 5 5 5 C OXZ.Z C C C C C C C C C B B O. .o.K.].[.=.I 7 7 i M.U.U.F.X./ ",
" X|.].X.i y ! F.W.T.m.! ! X.M.D.F.o.B C ~.^.~./.*X*X*X*X(.^.>.S /.+X+X(.).).).(.(.(.(.~.>.>.~.~.C B O.[.XX[.{ 8 7 r X.L.I.&.Q u ",
"{.}.}.F.Q t ! H.{.J.W y s X.K.I.I.| a Z *X;X:X<XbXNXNXvXvX,X<X<X,XkX,X,X,X,X,XkXMXMXMX,X:X:X:X+XV 3 3 :.;.[.$.L 8 I X.G.G...L 9 ",
"D.I.{.I.X./ %.H.{.S.t w i o.I.U.D.i 5 V *X,XuXlXCXFXGXSXSXSXSXSXSXGXGXSXSXSXSXSXSXSXSXSXNXNXNX-Xx     3 :.;.;.$.E ~ =.P.&.U 8 2 ",
"! M.I.I.S._ J.H.H.b.y w i o.I.Q.D.p 5 V -XuXiXfXVXDXDXDXFXZXZXZXFXFXFXFXZXCXCXCXCXCXCXCXBXBXBX=XM     X z #.;.=.$.$.`.`.-.L 9 q ",
"i Q S.D.J.*.J.J.J./ r e I X.K.U.XX^.>.+X>XlXfXfXaXaXaXgXVXVXZXxXyXrXrXfXBXCXBXxXcXZXCXiXeX$X$Xf.M + * c k ` #.-.$.$.<.`.-.T F 9 ",
"i W / / _ _ *.) E E R R ~ E { XX;XMX,XuXlXBXVXaXx.y.y.x.hXDXDXiX%X8.8.h.yXZXCXxXcXZXZXpXd.b b M n n l l k k k ` T $.<.<.) E T L ",
"W I I I R ) ) ) R E R R R L 0 ^.vXKXGXCXCXZXZXdXy.3.3.y.aXDXDXrX8.% % 8.yXDXZXCXcXZXZXeXb   # = n [ [ l - * o 6 G ( ) _ $.$.) E ",
"%.^ ~ I R L R R E E ) E Y 9 4 +.vXJXGXCXCXZXDXdXu.3.3.y.aXDXDXrX8.% % 8.yXAXZXCXcXZXFXeXb     = n [ ] n = & o 6 0 L Y ) *.=.$.E ",
"I.G.&...I r J R $.%.) R J 4 5 >.<XNXCXxXxXBXVXdXx.y.y.x.aXVXVXrXk.8.8.k.yXVXBXxXxXCXBX>XM + + = n m m n = * * 6 0 L L E =.=.$.L ",
"}.}.I.o.U r I ~ %.%.~ K r a A ~.:XzXlXtXiXiXfXdXdXdXhXdXsXfXfXiXyXyXyXyXiXfXiXtXtXlXlX=XM + + = n m m n - ; & 3 0 P I ~ =.=.E 8 ",
".X.XQ.V.Q i W X.D.%./ K / } Z (.&XpXtXtXsXsXfXgXAXAXAXAXfXrXtXfXAXHXHXAXnXiXtXtXtXtXuX%XM + ; - n [ [ n - & . 3 B { ~ ~ $...F 9 ",
"}.U.K.M.X.| ^ X.X.^ / ^ X.V.~.+X:XpXtXrXaXdXdXnXAXAXAXAXgXaXaXgXAXHXHXAXnXdXrXtXtXiXuX%XN + ; - l [ [ l - & X 6 { &.X.~ ..U 8 9 ",
"&...} X.D.F.D.m.^ Q ^ J.G.U.^.+X<XlXxXrX9X0X0X0XqXmXhXhXjXjXjXjXwXqXqXqX0X3X3X4XiXxXNX=XM @ ; - l ' ' l k * 3 z o.I.F.X.X.U L 0 ",
"G F F U G.|.W.S.! Q J.'.'.;.+.(.,XSXAXyXk.0.0.z.z.z.z.l.l.l.l.z.z.p.p.p.p.0.8.h.rXDXFX>X] @ & k ' #.' ` 6 6 z { K.U.Q.I.G...U U ",
"1 1 9 I G.|.W.S.s ! J.'.G...p >.vXJXHXyX9.2.6.4.5.5.7.7.7.7.7.5.5.4.4.4.4.2.2.8.rXHXHXpX] @ . k ` @.` H 6 0 { &.D.H.W.W.F.D.o...",
"O 1 9 R J.H.J.b.f ! S.G.~ 8 5 +.,XJXHXyX9.2.6.4.5.5.7.7.7.7.7.7.5.4.4.4.4.2.2.9.rXFXHXbX] @ . k H F F 9 9 0 U ..X.S.F.F.I.L.D.o.",
"1 8 L ~ / / ! b.! b.m.^ I 4 5 >.<XSXFXdXh.9.0.p.z.z.z.l.l.l.l.l.y.0.0.0.p.9.9.h.dXDXHX<X] & . 6 H F Y L L U I i i s / m.U.U.D.X.",
"U ..o.^ t y W b.F.D.^ s e g A ~.<XNXiXiXyXyXqXqXhXhXqXwXwXjXjXc.x.x.x.x.qXqXrXdXBXFXFX<XM & . 6 H T -.=.G.%.i e w w t X.}.}.D.! ",
"U.}.Q.D.t w s S.Q.L.! i y d Z (.:XpXpXiXVXDXDXAXAXAXAXVXgXhXhXwXwXjX9XdXnXAXVXVXCXFXFXpX] @ . 6 H @.=.[.}.I...i e e r X.].Q.m.i ",
"Q.Q.Q.F.^ W ! S.}.R.! s d  .~.+X>XtXtXiXBXZXZXZXDXDXDXAXgXaXdXaX9X5X9XdXVXAXDXZXCXZXSX<XM @ . k ` @.=.P.U.U.K.X.Q ~ ~ &.I.D.s g ",
"X.X.M.D.D.S.F.W.R.R.n.n.m. .+./.>XtXtXtXxXxXxXxXiXrXaXaXaXaXaX9X3Xh.h.0XnXDXZXBXxXCXBX>XM @ . k ` @.@...X.D.G.K.P.G.G.P.I. .i g ",
"7 7 u Q D.R.E.E.R.N.N.N.N.C B >.&XtXtXtXsXsXfXrXh.9.9.h.9XdXdX5Xp.8.8.h.dXDXZXxXxXfXiX=XM @ . k #.;.{ u u L ~ &.F.W.|.}.L. .d a ",
"7 7 7 i M.R.E.E.R.T.T.F.N.C A S -XiXsXsXsXsXsX3X8.$ $ 8.3XgXgX0X0.$ $ 9.rXDXDXxXiXiXiX=XM @ . k #.;.{ u r r L I X.L.|.}.I.M.| C ",
"R R r I X.D.F.L.R.R.R.R.N.p a S -XiXfXtXrXsXyX3X8.$ $ 8.3XnXgX3X0.$ $ 9.rXDXDXcXtXtXtX%XM @ . k { @.{ } ~ I L r s X.W.}.W.F.M.o.",
"H.G.%.Q d W | N.R.R.R.L.M.C B >.+XeXrX7X8XrXrX3Xk.8.8.t.3XdXaX3Xk.9.9.h.rXVXBXxXtXtXpX%XM @ . 6 z :.o.P.].%.R 7 w s m.I.W.I.M. .",
"Q.Q.L.X.i y ! N.L.R.R.N.M.O.:.>.s.@X@X#X2X5X9X4Xx.x.h.1X4X4X5X5X9X9XyXyXdXiXiXtX7X7XeX@Xb @ . k ` O.Y.}. XG.R 7 7 t X.H.I.G. .Q ",
"E.Q.Y.M.s y Q F.L.R.C.B.B. .+.>.s.q.e.r.#X4X4X4X5X5X6X6X2X1X2X8XgXDXFXVXfXtXtXrX7X7X7Xg.b + & k z +.[..X X'./ w 7 t X.G.I.%.Q p ",
"C.R.E.V.Q i Q D.L.L.B.n.|  .+.>.s.q.e.r.#X4X4X4X6X5X6X6X2X2X2X8XcXZXDXVXfXtXrX7X4X4X4Xg.v + & k ` ;.[.|.].J./ r e i X.P.G...u e ",
"C V.Y.L.| s ! F.W.L.| f f  .Z./.s.d.w.r.#X1X1X1X6X6X6X6X2X2X2X6XtXxXxXfXtXrXrX7X2X2X3Xg.v + & k ` @.=.=.%._ _ / i Q &.P.=.E 8 < ",
"a O.U.U.X.I ^ H.].D.Q y s  .Z.~.s.d.d.t.r.r.r.h.1X6X6X2X2X2X2X2X8X8X8X8X4X5X4X4X#Xr.g.w.v @ o k ` @.@.( R _ S.%.Q ..&.[.&.I 8 1 ",
"4 a &.P.%.^ %.G.].X.e 4 a Z Z.~.s.d.w.w.e.e.e.r.1X6X2X2X2X2X2X2X2X2X4X4X4X4X4X#Xr.t.w.q.v * * 6 H G G D J / S.D.X.X.=.P.$.L 8 q ",
", 4 } &.%.%.J.I.Y.o.a 5 A Z Z /.s.d.w.w.e.e.e.r.#X4X2X2X2X2X2X2X2X2X4X4X4X0X3X#Xr.w.w.q.v * * 6 H G G D J R %.S.X.$.&.=.$.E L D ",
", 2 a Q %.D.G.[.XXXX^.~.~./.+X+X@X@X@X@X#Xh.h.#X2X5X4X4X8X8XrX4X#Xr.g.#X%X3X%Xh.g.g.g.q.v & o 6 H G G D J J / ~ ~ ~ $.$.$.) ( T ",
"2 2 4 a X.S.K.XX;XMXkX:X:X:X&X&X>XeX4X4X5X5X4X4XrXrX8XrXsXcXcXeXw.h : 8.d.j.j.g.g.g.g.a.v & o 6 H G G Y Y K I I R R R ~ $.$.$.$.",
"p p p p / I } XXMXKXJXKXzXzXtXtXiXiXfXfXfXfXfXfXfXiXiXxXVXFXFXpXM # > : q.j.j.j.j.j.j.a.j @ . o 6 G G ( ) ) I r J J J ) *.=.$.E ",
"U.U.I.%.I e a ^.MXKXJXSXlXtXtXiXiXiXfXfXfXfXfXfXiXiXtXxXBXFXFXpXM # > : i.j.j.j.f.j.j.a.l . X 6 6 F ( *.`.`.%.R J J J ) G.=.E L ",
".X.X|.G./ e e Y.;XMXNX<X>X>X7X4X$X$X4X4X4X4X4X$X$X$X$XeXpXnXnX=Xa.: : m q.i.i.i.i.a.a.] l k 6 6 F T $.<.[.|.G.) ~ R J / %.$.L 9 ",
".X}.I.%.Q W d O.^././.+X@X@X@Xg.w.q.q.q.q.q.q.q.q.q.q.w.@X%X%Xg.w.q.q.q.m : : : n n l l ' ` ` G T ) <.[.[.`.G.D.D.S.~ / Q U 0 9 ",
"&.%.Q Q S.F.D.o.C B V S s.d.d.q.b v h v v v h h v h h b q.d.d.d.f.f.f.a.v + + = ; & & k #.#.@.T ) *.`.`.-.) %.D.I.I.F. .} U u 0 ",
"u r r W F.|.{.M.d B V >.,.s.s.q.N j j j v v j j j j j b S s.s.d.d.f.f.,.j @ @ & * . X 6 #.@.@.Y ) -.*.) R J ~ %.H.Q.}.U.D...} { ",
"1 1 7 I J.{.{.S.Q } +.^.>.,.,.S x c c c x x x x x c c x ,.,.,.,.s.s.,.,.x x c c 3 3 3 6 G P T Y T R Y D 7 7 J / m.F.Q.Q.L.K.o.o.",
"O , 7 I S.H.J.b.! ! o.+.:.B x z z z z z z z z z 5 5 5 z V V V V >.>.>.>.>.+.:.0 6 6 6 6 0 0 F Y D D 8 9 7 7 r / ^ n.N.N.L.V.+.o.",
"9 8 I ^ ^ ! b.b.n.n.| } B B B B { { { { P { 0 0 F { { { B { B C Z +.+.Y.Y.Y.o.{ { { P P P L F L D 8 8 J R R / / / ! f n.L.L. .C ",
"-.=.G.D.^ W ! B.F.N.X.Q Q ..O.&.=.=.=.&.-.$.E E $.=.=.=.&.o.o.| M.C.L.K.D.X.X.&.=.=.&.-.-.-.$.E Y Y R ) *.J.J.S.! ! f n.L.V.C a ",
"1.[.[.G.D.n.n.N.R.T.| Q X.P.[.[.`.`.G.G.G.%.~ ) *.<.`.`.].U.L.L.L.R.F.m.! W ^ D.H.G.G.=.G.=.*.$.) ) _ *.J.G.H.H.T.N.n.M.V. .a 4 ",
"T E ..K.I.R.R.N.A.B.n.| M.U.I.=.) ) %.J.D.G.P.%.) E ) $.=.I.Q.Q.W.F.m.! s Q S.D.D.%.~ ~ ~ %.*.G.*.%.) ~ / ^ J.W.}.!.R.N.M.} a 4 ",
"2 2 8 ..Q..X_.E.A.B.B.B.N.F.&...J J U X.o.D.I.G.I D 8 L E &.I..XQ.L.X.f s Q m.D.~ I r I ~ %.J.`.].J.~ r 7 t ^ W.oXoX.XQ.M.C u 4 ",
", , 4 U U.oX_.E.A.C.B.C.N.M.Q i r I W |  .V.I.F.I 7 q 9 8 U o.}.}.W.m.f d | M.M.W i r U %.D.I.].].J.~ r < w W D.Q..XoX.XK.} P u ",
"2 2 4 p K..X_.E.A.A.A.R.V.| p i I X.M.N.N.L.L.M./ r 7 8 8 u ..P.}.{.F.| | M.K.M.Q U Q &.P.P.I.Y.P.%.~ I r r i Q m.U..X.XU.&...{ ",
"U u u U  .L.R.E.E.E.E.R.L.| U W  .F.I.U.L.L.N.| ! Q ~ I I L P ..I.{.W.F.M.F.L.D.| } o.U.U.Y.Y.K.&.X.~ ~ ~ U I u U o.}..X.XI.D.X.",
"&.&...Q U Q m.N.R.R.R.L.D...U Q M.L.L.L.L.N.| ! ^ m.S.%.~ L F L %.L.L.M.M.M.N.M.| | &.K.&.o.+.o.} Q } %.=.$.L 9 8 U &.U.}.I.D.X.",
"G.D.%./ r t W n.m.M.m.m.X.~ I U o.M.| |  .| Q s ^ S.F.%.) L D D U o.M.| | | | | | ! o.o.p p } } p p } ;.[.-.L 9 4 8 } o.D. .! s ",
"G.G.%.I e w t W ! b.! ! ~ / L I | | p a d s i i ! m.D.%.) F q 9 u } } d d f f f f f | d 5 5 p B a p } P.[.-.Y 9 2 9 u } | f i y "
};
