/* XPM */
static char *_89648fd8a8149a2bcf9acfab5fcab6aHLlxwJtwDyZgwGtz[] = {
/* columns rows colors chars-per-pixel */
"64 64 256 2 ",
"   c #030301",
".  c #0C0402",
"X  c #040C02",
"o  c #0B0C03",
"O  c #0A0D09",
"+  c #1D0300",
"@  c #130B03",
"#  c #170905",
"$  c #0C1A0D",
"%  c #091507",
"&  c #13130C",
"*  c #1A150C",
"=  c #121C0C",
"-  c #1A1809",
";  c #0C1A12",
":  c #151B14",
">  c #1B1C14",
",  c #191817",
"<  c #170A11",
"1  c #240201",
"2  c #280704",
"3  c #360A08",
"4  c #26170B",
"5  c #39160C",
"6  c #231B13",
"7  c #281A16",
"8  c #371915",
"9  c #340B13",
"0  c #0A2408",
"q  c #15250D",
"w  c #0C2513",
"e  c #182616",
"r  c #1B3618",
"t  c #2C231B",
"y  c #28241A",
"u  c #33241C",
"i  c #39251A",
"p  c #30351D",
"a  c #1A3025",
"s  c #282925",
"d  c #352A24",
"f  c #283528",
"g  c #39362A",
"h  c #373534",
"j  c #2C3A32",
"k  c #1E1D22",
"l  c #450804",
"z  c #4A170D",
"x  c #4B1C1C",
"c  c #471815",
"v  c #551C18",
"b  c #55100B",
"n  c #681A17",
"m  c #4A231A",
"M  c #56261B",
"N  c #4A2E17",
"B  c #66261C",
"V  c #78241E",
"C  c #531E22",
"Z  c #4D1E21",
"A  c #4C2324",
"S  c #472827",
"D  c #582726",
"F  c #453829",
"G  c #463D36",
"H  c #57382E",
"J  c #672A25",
"K  c #772A25",
"L  c #653829",
"P  c #78332B",
"I  c #793635",
"U  c #6D3632",
"Y  c #6B1F21",
"T  c #12461B",
"R  c #1E572A",
"E  c #184A2B",
"W  c #264529",
"Q  c #25582B",
"!  c #294936",
"~  c #364838",
"^  c #255B33",
"/  c #2B5D33",
"(  c #2C5C3D",
")  c #275638",
"_  c #365638",
"`  c #32522D",
"'  c #1F622C",
"]  c #25632E",
"[  c #2B6334",
"{  c #2C633C",
"}  c #2C6B3B",
"|  c #296635",
" . c #32643C",
".. c #336B3C",
"X. c #3A6C3D",
"o. c #356736",
"O. c #34733D",
"+. c #3B733D",
"@. c #3C7A3D",
"#. c #377334",
"$. c #2E6E35",
"%. c #474439",
"&. c #564838",
"*. c #44563C",
"=. c #5A543B",
"-. c #56472B",
";. c #664A3D",
":. c #6B4D36",
">. c #44763D",
",. c #43683F",
"<. c #384845",
"1. c #2A5A44",
"2. c #345D43",
"3. c #3A5A47",
"4. c #3A5C57",
"5. c #2B5248",
"6. c #2D6342",
"7. c #2D6848",
"8. c #336444",
"9. c #346B43",
"0. c #3B6D44",
"q. c #35644B",
"w. c #3A644A",
"e. c #346B4B",
"r. c #3C6C4B",
"t. c #3B6345",
"y. c #357244",
"u. c #3B7445",
"i. c #3D7B44",
"p. c #3C744C",
"a. c #3D7A4A",
"s. c #367549",
"d. c #3A6B53",
"f. c #366753",
"g. c #3D7452",
"h. c #3D7A54",
"j. c #3B7757",
"k. c #2F7344",
"l. c #3D7561",
"z. c #4A4746",
"x. c #574B45",
"c. c #465845",
"v. c #55554B",
"b. c #5A5955",
"n. c #4D5553",
"m. c #7A5346",
"M. c #655C54",
"N. c #6F5249",
"B. c #416E4C",
"V. c #466747",
"C. c #53694A",
"Z. c #427444",
"A. c #437C45",
"S. c #43744C",
"D. c #437B4C",
"F. c #4A7D4D",
"G. c #4A7946",
"H. c #466956",
"J. c #556955",
"K. c #447453",
"L. c #447B53",
"P. c #4B7C54",
"I. c #4C7459",
"U. c #457B5A",
"Y. c #4B7C5B",
"T. c #477557",
"R. c #527C5C",
"E. c #557858",
"W. c #537C4D",
"Q. c #6E6B59",
"!. c #4F5F61",
"~. c #4E7F63",
"^. c #597C65",
"/. c #5A6A6A",
"(. c #747268",
"). c #8B271E",
"_. c #8B2B2B",
"`. c #882926",
"'. c #863329",
"]. c #873634",
"[. c #8F2D2B",
"{. c #8F6758",
"}. c #8F766C",
"|. c #A77C72",
" X c #865D51",
".X c #48843E",
"XX c #3D834D",
"oX c #458145",
"OX c #45824C",
"+X c #4A844C",
"@X c #4C8A4C",
"#X c #4B8945",
"$X c #528D4D",
"%X c #52884C",
"&X c #57944B",
"*X c #468253",
"=X c #4B8453",
"-X c #4D8A54",
";X c #45835A",
":X c #4C845C",
">X c #4C8A5B",
",X c #448B55",
"<X c #528554",
"1X c #528B54",
"2X c #53845C",
"3X c #538C5B",
"4X c #5B8C5C",
"5X c #5A8659",
"6X c #549254",
"7X c #5B9555",
"8X c #54925B",
"9X c #5B935D",
"0X c #5A9A57",
"qX c #4E9257",
"wX c #619B57",
"eX c #628B59",
"rX c #5FA25D",
"tX c #65A15A",
"yX c #4C8461",
"uX c #4C8866",
"iX c #538562",
"pX c #548C63",
"aX c #598967",
"sX c #5A9362",
"dX c #589567",
"fX c #549069",
"gX c #658A65",
"hX c #65966A",
"jX c #6E9173",
"kX c #5DA36A",
"lX c #61A56F",
"zX c #89877C",
"xX c #98857B",
"cX c #93816D",
"vX c #A9837B",
"bX c #B2827A",
"nX c #898B83",
"mX c #9B9589",
"MX c #978E86",
"NX c #B38A83",
"BX c #A29489",
"VX c #B99889",
"CX c #AA958D",
"ZX c #AAA298",
"AX c #BAB0A6",
"SX c #9BA09A",
"DX c #C89C90",
"FX c #CCA498",
"GX c #CAADA1",
"HX c #CAB6A7",
"JX c #D9B9B3",
"KX c #CEBAB2",
"LX c #D2C6BB",
"PX c #E2C6BA",
"IX c #D3CEC8",
"UX c #F0D5C2",
/* pixels */
"} k.y.h.yXfXuX;XD.OX-X-XD.9.e.e.e.e.6.7.e.f.f.4.!./.(.x.7 + + 1 + + 1 1 1 + . 6 c.I.K.6.6.7.7.d.r.8.2.6.e.p.h.h.L.*X>X8XsX8X=XOX",
"a.a.p.g.L.U.;X;X*X=X=XOXu.9.e.g.j.j.s.e.7.f.d.4.<.<.%.F 8 3 3 3 3 3 3 3 c 9 8 7 g c.T.T.g.e.7.e.q.q.q.e.g.g.p.9.y.u.D.>XsX8X-XD.",
"8X>X*Xp.9.9.a.=X-X-XD.O...9.p.U.uXuX;Xj.d.d.4.<.k , 4 8 M D D D J D J J J J D i 4 f V.gXaXT.e.6.7.e.p.Y.:X*Xy.{ | } y.=X8X9X+Xi.",
"dXdX>Xa.....u.=X9X1XA.$...u.L.pXfXfXfXyXU.w.5.f : # 2 z J I I I I P P ].].].I D 9 7 ~ E.gX2Xp.{ { 9.L.pXfX3Xu.| | | ..OX8X3XD.X.",
"dXdX8XOXi.+.A.1X9X6XA.#.i.=X3XpXfXfXpXuXyX2.a e u m M B P ].]._._._._._._.].].U D 8 t ~ J.aXP.9.{ 9.L.3XdX3X*Xa.a.i.i.OX3X<XZ.o.",
">X=X=X@X@X@X@X$X7X1XA.A.+X3X3X3X;X;XL.:XaX3.q @ m U '.'.'._._.`.`._._._.`.`.'.P I x + - *.eX5XK.u.u.a.L.=X=X3X3XsX8X-X*X=XD.o.Q ",
"O.O.O.oX6X0X7X6X$X+XOX+X1X8X-XD.y.9.0.F.R.*.- + M '.'.`._._.[._.`.`._._.`.`.V K P v 1 # g C.5X3X=X*Xu.X.o.u.=XsXlXkXdX-XOX+./ Q ",
"] ' ] @.6XtX0X6X@X+X+X-X3X-Xa.} |  .X.V.c.~ 4 5 B '.).).`.`._.[._.K V n n n B K J v 5 4 p *.E.aXsX=Xu./ Q / p.3XkXlXkX8X+X+./ Q ",
"] R ' $.@XrXrX0X6X1X-X1X3XD.} ] ] X.W.C.p 4 m B `.).).).`.`._.].].K b l 3 l B B B B M 8 - r V.aXpXL.0./ Q / ..a.>XdXkXkXqXA.+.o.",
"u.O.$.$.XX@X6X0X8X8X3X-X-Xa...| o.W.E.=.4 1 v P '.).[.[._.`.Y n B M M D M x z v M L L i @ = 3.aXiXK.S.0.0.......y.XX8XdX8X+XA.@.",
"sX>XoX@.O.i.,XqX8X3X-X=X*XD.i.A.F.5XQ.-.4 1 v ]._.`.[.[.].K b l 3 m m.}.}.;.c 2 z L L i @ = _ ^.R.T.Y.iXiXY.9.| ' } XXqXqXOXD.+.",
"hXsX>XoXO.$.i.,X8X>XL.a.D.OX=X1X4XW.*.g 5 z B `.`.`._.'.K B v v m L  X}.}.N.S 5 z N M i @ > <.E.R.Y.iXhXhXaXp.[ R | a.>X>XD.u.[ ",
"9X9X8X*XO.} a.>XdX>Xp.9.u.D.-X3X4XV.p 4 z B K `.K K K n b v :.{.{.m.:.-.-.;.N.;.m 5 c 8 # & ~ I.I.I.R.aXaXiXg.{ ^ } h.>X;Xa...^ ",
"G.1X9X>Xa.k.XXuXfX:X9.[ ..D.3XsX4X_ - + c K '.`.V Y n b l M {.DXDX{.-.N ;.cXBX{.A 2 3 8 4 * f <.V.H.T.T.Y.Y.L.p.7.s.U.uX;Xp.{ R ",
"+.F.3X3X*Xs.XXuXfXL.6.^  .D.4XhX5X_ - + v P ).V K v l 3 z :.|.DXFX|.:.m.VXPXJX}.S 1 3 i u 6 : e ~ V.B.w.r.K.Y.U.h.h.:XyXU.9.) E ",
"o.Z.=X>X;Xh.h.;XU.g.6.{ 9.L.3XsXR.*.- + z K V K K v 3 1 m m.|.DXDX|.m. XFXUXPXxXS 1 9 S S 7 X % j 3.3.2.2.r.T.Y.U.U.yXyXg.8.) ) ",
" .0.S.L.L.h.j.g.d.f.e.e.e.p.K.R.I.~ * 1 x J K K J x 3 1 x m.vXFXFXbXm.U  XVXGXvXD 1 3 A S 8 . & j c.3.3.2.q.d.g.g.U.U.h.g.9.8.8.",
"r.r.r.r.e.e.e.d.e.d.e.e.e.e.w.2.<.f 6 3 M J J B v x Z D N.{.NXDXDXbX{.m.m.{.}.m.A 3 c A S 8 . & j 3.3.3.q.f.f.q.r.d.g.g.K.g.p.r.",
"T.K.S.0.9.9.e.g.g.g.e.7.8.8.( W a > 7 m D J J z 5 A m.|.NXNXNXvXNXbXvXNXvX}.;.m c c Z A A 8 # & j 3.3.f.d.K.d.6.8.8.e.g.Y.Y.K.r.",
"iX2XY.S.9.{ 9.p.U.T.e.6.6.w._ f % @ i H L J v 3 1 A |.JXJXFXNXvXvXNXDXHXJX|.A 1 3 Z A A S 8 @ & f 2.w.K.Y.~.K.q.2.( { p.:X2XS. .",
"hXgXaXP.9.[ { p.Y.U.r.8.8.S.V.W % @ m L J D v 3 1 S vXJXJXFXVXVXVXVXFXHXJX|.A 1 3 C C A S 8 @ % W w.g.U.iXiXU.r.8.( ( r.Y.Y.0./ ",
"hXhXsX=Xu.} 9.p.U.T.r.r.S.R.5X*.q # 8 D D v x 5 2 i N.BXZXGXGXGXHXGXGXVXvXN.x 3 c C C A S 7 @ $ W r.Y.yXaXaXiXU.B.0.8.0.P.S.( Q ",
"hX4X<X=XD.a.a.p.K.K.S.D.P.gXgXC.t + 5 M v v M x 8 4 i x.xXGXKXHXGXHXGXxX;.8 5 c x C C A A 7 @ = ! K.:X:X:X2XiX2XR.P.K.S.S.0./ Q ",
"P.S.u.p.*X-X-X*XD.D.D.=X<XgXjXC.t + 3 x v v M D S 4 . 4 &.}.}.}.(.}.}.M.F 5 5 x C C C A A 7 . = _ P.:XL.p.S.P.<XaXaX3X=XD.+.o.[ ",
" .{ { 9.*XdX8X@X@.A.F.<X5XgXR.c.6 # 9 Z v v v m S 8 . . 4 d d u u u u %.N.;.c 3 c v C x S 7 . ; ! T.U.r.9.{ 0.K.<X4XsX3X=XA.i.+.",
"E E R ..*X8X8X@X@.@.oX=X=XR.H.W & . 8 A C C x c 8 8 u u t 6 6 6 6 - 4 &.xX}.H 2 3 z x A S 7 X $ ! B.r.{ ^ ^  .0.F.<X8X3X-XOXA.A.",
"T E ^ 9.OX,X@X#X>.@.A.+XD.Z._ f X . 7 S A A Z 5 2 u x.Q.Q.M.M.M.M.M.v.(.ZXMXH + 1 3 c S S 7 X $ W 2.8.^ ^ ^  .0.S.F.=X=X+X+X+X+X",
"R ^ 9.u.i.i.i.oXoXA.A.@... . ._ f e 6 8 S S 8 4 + d M.xXBXBXZXZXZXZXBXmXMX(.F 2 + 1 5 8 t > ; e ! 2.8.8.9.9.9.....+.i.OX-X1X@XoX",
"9.p.D.a.O.$.O.OX@X@X@.$.[ [ Z.W.E.~ e * 8 d 7 # 7 g x.(.mXAXAXAXAXAXAXmXM.g 6 * * # 2 # o $ a ! _ t.B.Y.:XL.9.[ ^ [ X.+X9X9X<X>.",
"-X3X3X*XO.| O.OX1X1Xi.$.$.O.F.hXjXE.~ e 6 7 6 7 g g u &.xXKXKXZXmXxXMX(.d o o & & @ . o % f 3.w.2.w.Y.fXhXiXp.} [ [ ..+X9X9XF.o.",
"9XsXsX=Xa.y.i.+X6X1XoX@.i.D.<XgXhXgXE.~ > & 6 h G s * g cXKXKXBXM.&.&.g *   X & , o   & ~ H.I.B.w.r.U.pXfXpX:X*Xa.u.i.D.1X<XZ./ ",
"D.*X*X=XOX@X-X1X6X$X+X+XOX=X<XF.F.4XgXc.e   , h s , o t Q.BXBXQ.F - 6 - o O s z.z.f X = c.gXaXK.B.r.g.g.h.;X:X>X3X=XOX+X<XF.X.` ",
"[ [ | +.@X7X0X&X&X$X@X@X-XOXu.X.X.W.gXC.e   & , : o & y F x.&.F u 6 - o X e /.SXSXQ.> % c.jXgX<XP.K.9.6.6.e.a.*X-X6X7X6X1XA.X.o.",
"R R Q $.oX&X0X0X&X&X@X-X=Xi...[ X.W.eXc.= X y s & X , > 6 6 7 8 t t 6 o   f nXIXIXSXb.g ~ C.W.<X<XD.9.( { { 9.u.A.1X7X0X6X+XZ.Z.",
"9...$.$.@.oX$X&X6X6X6X6X=Xi.$.o.Z.4XgX*.= > v.b.s   X & 6 4 7 7 7 t y o   g nXIXIXKXZXQ.W r X.W.P.S.r.p.r.9.{ [ ..A.6X9X9X1XP.P.",
":X=XD.+.#.+.oX@X6X6X8X6X+Xi.+.i.F.5XC._ g c.(.(.f X o , t u u u 7 7 6 .   g MXLXIXIXIXnXf % ` E.K.p.T.pXpXK.{ Q [ O.+X3X4X3X<XF.",
"dXsX=XA.....A.+X1X8X9X8X+XA.A.OX3XS.W W J.zXnXb.e X & y d d d d 7 6 * .   g nXKXKXKXLXzXf % _ R.T.K.:XhXhX3X9.Q ^ ..D.3X3X2XP.Z.",
"dXsX3XD.u.X.u.+X1X3X8X1X+XoXoX%X4X .0 r (.mXzXz.,   & y g %.G F t 6 6 # . t M.zX}.}.(.v.f r 3.I.T.T.iXhXhX3Xu.^ Q [ D.2XiXP.S.8.",
"3X3X9X<XZ.0.D.=X3X>X=XOXOXOX+X1X<X_ 0 q v.zX(.v.>   o > G x.&.&.F d d t # # 7 d d s s s f ~ c.H.S.K.:XpXiX:XD.} Q { K.iX2XS.w.( ",
"D.1XsX3Xp.9.S.:XpX:Xa.O.@.OX$X1X5X` 0 0 *.(.(.b.k     & G x.N.&.&.G F t @   o o : = $ e W 3.w.B.B.p.K.K.S.K.L.u.{ ..K.iXY.r.2.) ",
"$.D.4X3XS.9.K.pXfX:XX.[ +.+X1X9X5X` 0 0 *.jXnXb.k     * F =.&.&.&.&.F t o o : j <.3.! ! ! 2.w.r.r.r.r.9.8.p.L.L.0.p.Y.iXI.w.) ) ",
"R o.=X2XU.K.Y.aXfX;X..[ +.+X1X4X5X_ r r ~ b.b.z.s < . * F =.-.-.-.-.F 6 o % j J.^.^.I.w.( ( 8.r.w.8.6.6.6.e.L.;XL.P.2XiXT.8.) ) ",
"T Q 0.P.Y.Y.iXpXpXL...{ u.1X4X3XF.X.` W e e k s h s & # g =.:.-.F F F y % ; ! I.aXaX~.e.6.{ { 8.( ( 1.1.6.e.h.U.L.P.R.R.K.w.2.1.",
"T R / 0.Y.iXpXyXL.p.9.y.D.=X=XD.0.V.V._ e % ; s n.<., @ g =.=.-.N g g y O ; ~ H.~.d.e.e.e.9.6.( ) 1.1.7.7.7.d.g.p.S.T.T.K.B.r.q.",
"R Q / 0.U.iX2XL.g.p.u.u.p.L.K.0. .X.S.V._ ! ~ c.!.z., O g =.=.-.F g F d O ; ~ H.f.8.7.e.g.p.9.6.1.1.1.7.e.e.7.7.8.9.r.K.I.I.K.d.",
"0.0.0.r.p.S.K.L.L.p.u.9.6.9.e.8./  .S.E.E.E.J.n.c.j , , g &.&.-.F F G g > : f ! ( ( ^ 7.g.L.g.7.5.5.1.f.j.j.e.6.( ( 8.K.Y.Y.T.r.",
"sXpXiXK.9.{ 9.S.;XL.u.{ ^ ( 6.6.{ ..S.2XiXE.J.~ s : , s G %.F F F g g g g s e a ! 8.( 6.g.U.U.f.4.5.f.l.uXuXj.e.6.( 8.K.Y.I.r. .",
"hXhXhX2X9./ ..D.=XL.u.9.{ e.g.L.p.p.K.I.R.E.H.j % X s %.%.g g g F %.G G z.f % w _ U.K.u.p.K.U.d.f.f.l.uXfXfXyXh.e.w.r.T.Y.S. .Q ",
"dXdXpX=XS.u.u.a.D.u.u.u.L.>XpXdXsX2XT.B.H.H.H.! ; X s %.%.F i i F &.&.x.x.h $ w V.hXhX=XP.K.w.q.f.T.uXfXuXyX;X;XL.L.D.D.D.0.^ R ",
"Y.K.S.p.P.-X-XOXu.u.p.=X3XdXdXdXhXpXK.q.5.4.H.<.; X e g F d 4 t F &.&.x.x.s O q C.jXhX3X=XS.8.2.H.I.~.Y.L.h.L.*X:X3X:X=XD.O.| ] ",
"8.{ [ ..=XsXsX3XD.a.D.>X3X>X-X*X=XL.p.q.2.f.H.<.e X = s d 6 # 4 F &.x.x.z.s o q _ <X5X=XD.0.8.w.H.K.K.r.{ { p.L.>XpXpX3XOXu.+.@.",
"E E Q { D.sXsX-Xa.a.*X>X-Xa.O.} } 9.9.8.2.f.w.! w X % y y * . # u &.&.&.G y X % W t.0.0. .8.8.q.w.w.8./ Q ^ ..S.P.iXpX3X=XOXOX@X",
"T T Q X.=X3X-XD.O.u.OX-XD...] R ] { 6.7.6.q.3.j $ X : y s > . @ t F G G G s % % r _ 8.6.( ( 6.q.2.2.( / / [  .X.D.P.:X:X-X=X+XoX",
"^ ( 9.D.+XOXA.@.@.i.OXD.u.} } } } 9.9.e.e.r.3.W $ X : s s , . . * 6 y y s : X $ W r.K.e.6.6.7.q.( (  .0.u.u.X.X.D.D.D.=X-X-XoX@.",
"T.Y.:X=XA.@.@.oX@X#XD.i.u.a.*X;X;X;Xh.h.g.K.r.! $ X : s s ,   X   o o % % X X w w.^.~.U.j.g.g.e.2.8.0.S.F.D.A.D.+XF.D.+X-X+X+.$.",
"aXiX2X=XOX.X.X#X&X$XOXi.a.=XpXfX>X:X;X;X;X:XI._ w % y h h 7 O X = e e 0 0 0 w ! I.aX~.U.yXyXL.g.r.r.K.P.P.F.+X1X1X$XOX+X=XD.$.R ",
"4.d.K.=X$X&X&X&X&X#XoXD.*X>X>X;Xg.p.h.:X:XpXaX_ q % s z.z.s O : ` V.V.` W W ( B.I.T.K.p.p.=X=X>X;XU.T.p.9.u.<X9X9X6X$X1X+Xu.| R ",
"E ) 8.D.6XwXtX&X&X#XoX+X>X>XL.e.{ 9.p.;X:XpXgXc.q % g v.b.h & e C.gXeXG.X.Z.<X2Xp.8.8.9.u.D.=X>XpX:Xg.{ ^  .F.1XwXwXwX7X+Xu.{ ^ ",
"a E ) u.6XtXwX&X&X#X#X+X3X:Xa.9.( 8.p.L.L.2XaXV.e o s x.b.h & e V.hX4XG.Z.<XpX2X0.( { 0.D.OX+X1XfX;Xe.) ^ / Z.+X&XwXtXwX-Xi.9.{ ",
"5.) ( 0.%X7X7X&X&X&X$X1X1X=Xu.9.9.L.;X*X*X=X5XV.e o s z.x.g & e ,.wX1XF.A.=XsX2Xp.8.0.P.2X3X@X=X;XL.9.6.8.8.X.>.G.&XtXtX6XOXp.p.",
"f.w.w.0.A.+X$X&X&XwXwX7X1XA.X.9.D.3XsX8X>X3X2X_ e o 7 G G s o q V.hX9X1X+X=X9X3XS.B.P.5XsXsX-X=X*Xh.r.r.K.B.t.o.X.+XwXwX9X-X*XD.",
"I.T.K.r.0.+.A.@X&X7X7X&X+X+...y.=X3X3X>X8X3XP._ = . , d d , X q X.4X9X%XA.OX<X=XS.G.R.5X5X3X=XL.a.p.p.I.~.I.t./ [ +.+X6X6X-XOXi.",
"P.P.U.r. . .+.A.#X#X.X.X>.#...u.+X+Xi.i.OX+XS.W =   < < < o   q _ W.%XF.A.A.A.>.>.G.W.G.0.0.u.p.y.0.S.R.iXR.t.! Q / +.oX+XA.@.#.",
"P.P.P.B. ./ ..Z.>.>.#.#.@.#.$.+.A.i.$.$.i.A.0.W $   . . .     q ` >.G.>.>.@.#.#.>.>.G.X.Q /  .u.0.X.S.R.^.I.t.! W Q $.@.@.#.$.$."
};
