/* XPM */
static const char *NjRqbnl4ZTM__679a400d3d5c4[] = {
/* columns rows colors chars-per-pixel */
"64 64 256 2 ",
"   c #381705",
".  c #341709",
"X  c #392916",
"o  c #383616",
"O  c #332A0B",
"+  c #393923",
"@  c #4D0300",
"#  c #460A00",
"$  c #540300",
"%  c #5A0805",
"&  c #461806",
"*  c #57170A",
"=  c #591B13",
"-  c #471A13",
";  c #660B09",
":  c #66170C",
">  c #6A1A12",
",  c #791C17",
"<  c #6A1210",
"1  c #46250B",
"2  c #58270D",
"3  c #472917",
"4  c #582615",
"5  c #463719",
"6  c #58361B",
"7  c #682716",
"8  c #752718",
"9  c #633116",
"0  c #433B27",
"q  c #4F382A",
"w  c #7A2824",
"e  c #683526",
"r  c #77352A",
"t  c #74352A",
"y  c #7B1F20",
"u  c #37421B",
"i  c #1D572B",
"p  c #16492A",
"a  c #394929",
"s  c #24562C",
"d  c #295936",
"f  c #375B38",
"g  c #365031",
"h  c #2B6538",
"j  c #33643C",
"k  c #336B3B",
"l  c #396939",
"z  c #39753C",
"x  c #306A30",
"c  c #184419",
"v  c #44471B",
"b  c #484727",
"n  c #574A29",
"m  c #47562A",
"M  c #55562A",
"N  c #474A36",
"B  c #584C36",
"V  c #485936",
"C  c #575A38",
"Z  c #65492C",
"A  c #66572D",
"S  c #65573A",
"D  c #734D34",
"F  c #46663A",
"G  c #56663A",
"H  c #47753C",
"J  c #516F3B",
"K  c #66663C",
"L  c #385D42",
"P  c #2E5F44",
"I  c #2E6645",
"U  c #356343",
"Y  c #346B43",
"T  c #3C6C44",
"R  c #3B6D4C",
"E  c #376648",
"W  c #3C7444",
"Q  c #3D7B44",
"!  c #3B734B",
"~  c #3D7A4B",
"^  c #357446",
"/  c #356751",
"(  c #3D7352",
")  c #3C7A51",
"_  c #565A42",
"`  c #4A5943",
"'  c #695842",
"]  c #775642",
"[  c #6F4D43",
"{  c #466848",
"}  c #586944",
"|  c #427345",
" . c #427B45",
".. c #44734B",
"X. c #447C4C",
"o. c #4B7C4C",
"O. c #4B7647",
"+. c #537C4C",
"@. c #577649",
"#. c #447453",
"$. c #447C53",
"%. c #4B7C54",
"&. c #447B59",
"*. c #4A7757",
"=. c #577B56",
"-. c #4F6C51",
";. c #656747",
":. c #786649",
">. c #657649",
",. c #687955",
"<. c #737254",
"1. c #607A63",
"2. c #851E1B",
"3. c #8F291D",
"4. c #821D22",
"5. c #842324",
"6. c #8A2926",
"7. c #9B2D2C",
"8. c #972A27",
"9. c #88352C",
"0. c #94332C",
"q. c #9C322D",
"w. c #963628",
"e. c #8B3933",
"r. c #953332",
"t. c #9C3332",
"y. c #9B3A35",
"u. c #9D2E31",
"i. c #A42D2D",
"p. c #AB2D2D",
"a. c #A42E27",
"s. c #A5322D",
"d. c #AA322E",
"f. c #A5372B",
"g. c #AB2E31",
"h. c #A22D30",
"j. c #B12F34",
"k. c #A53533",
"l. c #AC3333",
"z. c #A43A34",
"x. c #A93838",
"c. c #B13234",
"v. c #B33639",
"b. c #B12F2E",
"n. c #83493A",
"m. c #9A423A",
"M. c #865439",
"N. c #A7433D",
"B. c #98544B",
"V. c #A9554A",
"C. c #B4544D",
"Z. c #AB5754",
"A. c #B45653",
"S. c #A84844",
"D. c #8E6B52",
"F. c #AA6954",
"G. c #B66659",
"H. c #B37659",
"J. c #AC7253",
"K. c #B86863",
"L. c #B67A63",
"P. c #AB726A",
"I. c #937363",
"U. c #C47166",
"Y. c #3C8645",
"T. c #4A844C",
"R. c #4C8B4C",
"E. c #458348",
"W. c #55854D",
"Q. c #458254",
"!. c #4C8353",
"~. c #4C8A54",
"^. c #4C835B",
"/. c #498858",
"(. c #538453",
"). c #538C53",
"_. c #52835B",
"`. c #528B5B",
"'. c #5C885A",
"]. c #549354",
"[. c #54935C",
"{. c #5A935C",
"}. c #5A995A",
"|. c #4E9352",
" X c #658658",
".X c #698F59",
"XX c #4D8762",
"oX c #578962",
"OX c #5B9463",
"+X c #599568",
"@X c #668963",
"#X c #748A67",
"$X c #649866",
"%X c #71976D",
"&X c #65A266",
"*X c #6DA077",
"=X c #92875B",
"-X c #918B6A",
";X c #A98A67",
":X c #B89B75",
">X c #B28F6F",
",X c #AFA175",
"<X c #B9A277",
"1X c #A8825D",
"2X c #CD8A7D",
"3X c #C89678",
"4X c #D5877E",
"5X c #C7A17A",
"6X c #B7A887",
"7X c #B09F85",
"8X c #D88B84",
"9X c #D09586",
"0X c #E18A85",
"qX c #CBA789",
"wX c #C9B289",
"eX c #D7B38A",
"rX c #D2AB91",
"tX c #E3AB8A",
"yX c #E4B28B",
"uX c #E8AD9B",
"iX c #ECBD9B",
"pX c #E8B896",
"aX c #F2BD98",
"sX c #F0AD9D",
"dX c #D7B3A3",
"fX c #EAACA4",
"gX c #F5ACA6",
"hX c #EBB7A7",
"jX c #F7B7AB",
"kX c #FBB8B1",
"lX c #E7BAB4",
"zX c #DAC399",
"xX c #EBC195",
"cX c #EDC39C",
"vX c #E7C79A",
"bX c #F3C395",
"nX c #F3C39B",
"mX c #F4C79B",
"MX c #EDC38F",
"NX c #ECC7A3",
"BX c #F3C5A2",
"VX c #F2CCA4",
"CX c #F4CBAA",
"ZX c #FAC8A7",
"AX c #EBD1A5",
"SX c #F2D2AB",
"DX c #FAD4B8",
"FX c #F3D1B4",
"GX c #FFDCCC",
"HX c #FFD5C7",
"JX c #FFDDD3",
"KX c #FFD9D6",
"LX c #FFCFC2",
"PX c #FFE0CE",
"IX c #FFE4D5",
"UX c #FFEFE0",
/* pixels */
"I I ^ ) /.XXXX/./.Q./.Q.! Y E E R / I P P E E { L E E E ( ( ( $.T.R.).).{.}.~.Y.h h Y Y E E / / / / I I I Y ! #.$.^./.`.[.|.R.Y.",
") ) ~ ~ ) $.Q./.Q.Q.Q.~ ! Y R ( &.&.( R R E E E R *.#.#.( / E ! X.R.).{.$X{.E.z k ^ ~ ..#.( / / / / / ( ( ( ! ^ ! ~ X.~.[.[.R.Y.",
"XX/.Q.~ Y k W !./.~.Q.^ Y Y ! $.^.XX&.( ^ I h Y #.XXXX&.#.R U U X.).{.{.$X).z x Q !._._.*.#.E I I / ( &.^.&.! h h h z Q.{.[.T.z ",
"+X+X`.X.k h z !.).).E.k k W $.oX+X+XXXQ.) Y h Y ^.+X$XoX=...{ { o.OX$X$X.Xo.z W T.{.$XOXoX^.! Y I / &.XX+XoX$.k h h k T.OX{. .k ",
"+X+X[.!.Q k z R.].].T.z Q T.`.oXOXOX+X`.!.W j k !.$X%X@X X=.@.,.=.@X#X@X,.J F O.(.$X$X XoX_.! Y I R &.XX+X+X^.X.W W W !.'._.T d ",
"~.~.~.).~.T.R.).}.].E. .T.).'.'.(.(.(.(.=.+.O.+.@.@.} } } C V V V _ C V m V } ,. X X@.+.+.+.%.%.%.*.#.#.&.^.oXoX[.).T.!.(...f s ",
"z z z T.].}.}.].).E. .o.(. X X@.F F } } >.,.,.,.;.b o o X o o O O O O . . 5 C <.>.G V V F @.,.@XoX=.#.T E R _.$X$X$X{.(.o.R f d ",
"x s x z ].&X&X].].T.W. X X,.G a u o n ' ' :.<.:.B 5 1 & & 3 n Z B S S n 1 6 S :.' B b b b N C V } { { L f f ..'.$X&X$X{.!.| E d ",
"h i i k T.}.&X}.].W. X.X,.K 5 . . 3 Z D ] ] ] D Z e e e 9 n.>XrXqXrXqX;XM.e D D D Z Z n B B X X O b N V ` g { O.'.$X&X$X(.X.#.( ",
"W k h k Q R.].}.$X X@.G C n 3   & 4 r n.r n.D.I.I.B.n.r 9.Z.9XhXjXCXZX9XF.9.e.n.r D D.I.I.I.[ q X X 0 0 0 a V f H O.).}.{.^.#.R ",
"`./.Q.Q W z o.'..X>.m O 1 4 9 t r w e.e.r B.>XdXdX9XB.9.9.S.G.U.K.G.U.G.m.r.r.e.9.B.:XdXdXdXrX>X] 3 - . . X N V F H W.).`.!...! ",
"+X+X+X!.l l O.>.>.M O   # 4 r m.y.r.y.S.Z.2XhXGXHXlX2XV.y.r.0.0.y.0.y.y.q.q.0.y.V.2XlXGXIXJXJXlXP.t = - - 3 5 b a F o.(.).$.T U ",
"OXOXOX(.F F >.;.n O   2 7 9.m.y.y.t.t.C.0XkXLXHXHXHXkX8XC.r.0.6.8.8.q.q.s.7.q.C.0XkXDXGXPXIXJXhXP.9.w w t 4 - X b F @.(.!.$.U s ",
"/.!.'.'.@.} K n 1   & 8 r e.y.r.t.k.k.C.0XkXLXGXGXLXkX0XC.t.q.0.7.q.7.8.7.8.7.C.8XkXDXGXPXIXJXhXK.r.9.e.e.e &   o V =.@X%.T d s ",
"~ Q.'. X>.C b 1 & * 7 w 9.r.r.r.t.q.t.z.A.4XkXGXGXjX4XA.x.r.q.y.0.0.6.0.t.q.y.m.V.2XCXPXGXGXHXgXA.r.t.z.m.e.e 1 . + } @X*.U d i ",
"Y $.=.=.;.b 1 & * 7 8 9.Z.K.A.A.S.t.t.t.6.V.8XuXhX9XV.6.7.q.0.N.Z.G.G.G.G.V.S.6.9.V.2XuXuXfXgX8XA.7.k.N.V.G.P.D.' N ` -.{ L f s ",
"I R -._ 0 1 & * > 8 8 B.8XgXgX8XZ.r.7.7.7.y.V.G.H.V.m.8.i.q.0.V.2XuXfXfXfX8XZ.6.6.w.V.G.G.G.G.C.v.i.0.A.8XfXhXdXrX-XB + g { T U ",
"! ( { N 3 # * 8 , 8 9.K.jXKXKXjXK.r.7.x.x.z.0.6.3.6.f.d.d.7.w.G.hXGXGXJXKXfXK.r.q.f.w.w.3.w.q.s.l.i.q.G.gXGXIXIXUXrX' X N -.*.E ",
"&.*.} B 6 * < , 8.8.0.K.gXKXKXjXK.0.8.l.i.l.q.w.w.8.d.d.p.8.q.G.sXGXJXJXKXkXK.y.8.s.8.3.w.q.8.8.i.i.q.G.jXGXGXIXJXdXD.B _ =.*.( ",
"oX@X,.' e 7 , 3.l.s.t.C.8XgXgX8XA.7.h.c.g.l.k.z.z.s.a.b.c.a.q.C.4XsXfXfXfX8XZ.t.s.d.s.a.f.l.l.l.i.i.t.A.8XuXfXfXfX9XD.' ;.,.-.E ",
"@X#X#X:.e 8 6.s.p.d.l.N.A.K.G.V.S.k.g.g.c.c.i.s.s.s.b.b.c.a.s.N.A.G.G.K.Z.Z.S.k.d.a.d.d.a.d.l.p.g.i.k.S.A.G.K.G.K.B.B.] <.<.` L ",
"#X X<.S e 8 8.l.g.c.l.f.q.0.0.6.t.k.g.p.c.c.d.k.l.c.b.p.b.d.s.z.q.6.0.y.6.r.k.x.i.a.d.v.d.d.l.i.j.g.l.k.0.0.0.6.9.9.n.] [ _ N g ",
"#X>.b 3 4 8 0.x.k.l.l.s.q.8.w.q.q.k.x.v.c.g.s.s.i.s.a.p.c.l.f.7.s.8.7.7.8.u.h.k.l.d.d.d.s.s.d.p.g.g.l.i.8.8.q.7.t.0.e.r 4 3 0 N ",
",.C X   * w r.z.x.s.d.d.f.s.s.f.x.k.h.l.p.p.v.k.d.l.d.d.d.s.f.f.l.p.p.g.g.v.l.x.i.s.s.f.v.x.i.l.g.c.g.i.i.i.s.s.7.y.m.r - . 0 _ ",
"_ 0 .   * w y.t.k.h.l.l.l.d.d.k.k.k.l.l.l.l.d.s.d.d.d.d.d.d.f.k.d.b.p.g.l.v.l.l.s.s.s.k.l.l.x.l.l.l.g.i.s.s.s.s.f.z.m.t   . B <.",
"+ X .   = w y.x.l.g.l.l.l.d.d.d.l.l.l.l.l.l.l.k.d.l.d.d.l.d.k.k.d.b.j.c.c.v.l.l.k.k.k.l.l.l.l.l.l.l.l.x.k.k.k.d.l.z.m.t & X _ <.",
"+ X . & = 5.u.l.c.j.c.j.l.c.v.l.l.l.l.l.l.g.l.l.l.l.l.d.l.l.d.d.i.i.l.l.g.d.i.i.k.k.k.g.l.l.g.g.l.l.l.l.l.l.d.d.d.z.m.t & X _ <.",
"N + . & = , 8.g.j.v.v.j.g.l.l.l.c.j.j.l.l.l.l.l.l.l.l.l.l.l.l.l.k.k.k.l.l.l.k.k.k.k.l.v.c.c.g.g.v.l.l.l.l.l.l.v.k.z.0.7 & 3 B <.",
"} N X & = > 2.8.g.c.v.l.g.l.l.l.c.c.l.l.l.l.l.l.l.l.l.l.l.l.g.l.x.z.k.l.l.l.l.k.k.k.l.c.l.j.l.c.l.l.g.g.l.l.x.v.z.w.8 : & 3 B <.",
"-X' X   * > , 2.8.8.i.i.k.x.x.x.l.c.l.l.l.x.k.k.k.k.k.x.l.l.l.l.x.z.k.l.c.l.x.k.k.k.l.l.g.g.l.x.l.l.l.l.l.k.i.7.0.6.8 *     b ;.",
"-X;.X   = 7 > , , 2.2.8.t.x.x.x.l.l.l.x.x.x.z.z.z.z.z.x.x.x.l.x.x.k.l.c.c.c.l.x.z.z.x.l.l.l.x.x.x.x.x.z.z.t.6.2.8 8 7 &   . 0 C ",
"<._ 0 X 3 4 : 7 > < < , 6.t.t.7.h.h.u.t.q.0.r.r.r.r.r.0.0.7.7.7.7.r.i.i.i.i.7.t.r.r.0.7.t.t.r.0.7.7.0.r.r.6., : > 7 2 1 3 o b V ",
"N N N 0 5 6 4 7 : > > > 8 w 5.4.6.2.5.6.5.5.5.w w 5.5.5.4.2.4.5.5.5.5.2.2.2.5.6.8 8 w y 6.6., 5.5.5.5.w w w > 7 2 4 1 5 M C F F ",
"g g ` N N q e D t e 4 & * * ; < < ; ; ; ; ; % % : % ; % ; ; ; ; ; ; ; ; ; ; ; ; ; ; : % % < < > ; ; * * * = 4 e 6 6 5 M >. X@.} ",
"{ { { { C C ' :.D.D 4     # # % % % $ $ $ $ @ @ @ $ $ $ $ $ $ $ $ $ $ $ $ $ $ $ @ @ @ @ @ $ $ @ @ # #       6 Z Z S ;.,.#X X+.O.",
"oX=.#.{ } } ;.<.I.:.n o O 1 1 * # % > 8 8 8 7 7 7 7 8 8 8 8 8 8 8 8 8 8 8 8 8 8 8 8 8 7 7 2 # # & 3 3 3 X 5 B B n } ,.#X@X'.o.o.",
"oXoX`.o.F F @.,.#X,.>.G M C A 6 1 9 M.H.H.H.H.J.H.J.F.J.H.H.H.J.J.J.J.H.H.H.J.J.H.H.H.H.J.M.9 1 6 S _ ;.;.} _ V m V @. X@X'.%...",
"`.+X+X~.z l | W. X X X X>.>.>.A D M.>XtXtXtXyXyXyXtXtXtXtXyXpXaXaXpXyXtXtXyXaXaXaXpXyXyXpX:XD.D S ,.,.%X%X@X{ g f f .._.oX^...U ",
"`.[.OX/.^ k Q (.'.).W.+.W. X>.<.=X;X5XeXyXpXbXbXbXbXbXaXaXaXnXZXCXVXcXiXiXnXZXZXZXZXiXBXVXvXwX;X<.@.,.%X$XXX..d d j .._.^.( E I ",
"E.~.`./.~ k Q ~.[.).z x H @.>.-X,XwXeXeXxXmXbXmXbXbXmXZXZXpX3X1X;X:XpXCXVXpX3X1X>X3XpXCXVXSXSXwX#X` .._.&.$.) R Y T &.XXQ.R I d ",
"k Q ~./.~ ^ ~ /.[.~.k x l @. X=X,XwXeXxXxXmXnXbXbXmXmXZXZX3XD 2 1 D <XDXDX3XM.2 2 M.qXCXCXSXFXwX<.V { T Y ( ^.^.( ~ XXXX( I d i ",
"s k X./.Q.~ $./.OX~.h h l J >.#X,XeXvXmXbXmXbXbXnXaXtXtXtX>XD 1 1 D <XDXDXqXM.& # 9 L.pXBXSXCX6X<.a g f L R &.XX&.&.^.XX! I d d ",
"c s W !.Q.Q.^.`.OX$.k l F F m K ,XvXmXmXnXnXbXnXnXyX3XH.L.>X>X>X;X>XeXCXNXdX3XD.M.n.F.3XpXFXSX6X;.+ a f f E *.&.&.#.^.^.( Y U d ",
"c s j ! !.^.^.^.!...W | { V o M ,XAXVXvXaXbXxXmXnXyX3XL.H.3XpXFXFXNXNXNXvXCXCXhX9XL.L.3XpXFXSX:XS o a V L E R #.R R $.&.$.( R E ",
"s s s h #.^.^.%.$.W ....O.V o S :XVXVXcXiXnXcXBXnXpXtXtXtXyXhXCXCXCXNXNXNXNXBXCXpXtXtXtXpXBXSX:XS o a { { E E U E Y R ( #.$.#.R ",
"T T Y Y Y ! ~ $.%...| { F a o S :XSXVXvXcXnXcXcXCXiXnXBXBXBXcXcXcXVXcXcXBXNXiXCXZXZXZXBXiXcXVX<XS o a { *.#.R d d j Y ! $.&.#.! ",
"oXoXoXQ.Y h Y X.%.%.| l f a o S :XAXVXBXBXBXBXcXcXBXZXZXZXnXxXxXaXnXnXcXBXBXhXBXiXZXBXCXBXVXAX:XS o N -.oXoX&.E d h I ! Q.Q.! j ",
"*X*X+X/.W h k W $.%.W l F a o S :XAXcXcXcXcXcXpXcXBXnXaXaXnXmXmXnXaXnXcXcXBXBXiXBXBXiXiXBXNXAX<XC o V =.oXoXXX#.R Y Y ^ ) ~ k s ",
"$X+X`.Q.Q z ^ ~ ~ ! ! ..@.F u M ,XAXAXmXMXMXxXxXxXnXBXcXcXcXnXmXbXnXxXxXvXvXxXnXnXnXaXcXBXAXAX,XG u F  XoXoX^.%.$.X.~ ~ ! k s i ",
"%...|  .T.~.~.Y.^ ^ #._. X@.m K ,XAXAXvXbXbXMXMXxXcXBXcXcXcXnXbXbXbXxXxXvXxXxXnXnXaXnXnXNXSXFX6X>.a F =.....%.!.`.`.!.X.W k h h ",
"U j h k !.OX[./.~ ! $.'.@X@.G >.,XzXvXvXbXbXbXbXaXiXBXVXBXcXxXpXnXnXnXnXcXvXcXnXnXaXaXcXvXAXFX6X,.f F O.j j W X.!.OXOX`.Q.~ W ^ ",
"p i s k X.[.[.~.~ ~ !._.=.@.F G <.,XwXvXbXbXbXbXiXiXCXCXCXVXmXnXZXVXZXZXVXVXnXnXnXaXnXnXvXzX6X-X>.F f f s d h W X.`.OX{.`.^.Q.$.",
"p p d k X.).~.Q W ~ %.o.| F f a v K ,XvXvXbXnXaXiXBXBXCXCXVXVXVXmXmXVXVXNXnXBXnXnXmXmXcXzX,X<.C V F f s s s h W  .!.!.Q.`.`.^.Q.",
"d P R ..Q  . .Q Q X.X.| | F l g v M D.<XeXcXBXBXBXpXqX:X:X:X:X<X:X:X:X:X:X5XpXpXaXaXiXeX:X:.b u a f j f T T k W  . .| X.!.`.$...",
"#.&.XX^. .z  .T.).~.X.W | O.+.@.} M n D.<XCXZXCXCXrXI.Z Z A A A A A A A Z D.:XeXyXyXeX>X:.b b m f U T .._._.$.X.X. . .X.`.!.! j ",
"&.XXXX`.!.E.E.R.}.).Q Q o.(.'.@X XC o n :XDXDXDXDXrX] O o v v v v v 5 O O Z ;XeXeXqXeX=Xn o V } { T .._.^.^.oX`.`.!.T.!.(.X.j s ",
"I R $.^.`.].].).].R.E.Q T.`.'.(.@.a O M 6XFXDXFXLX6X:.b b C } } J M M v o A ;XwXeXwXwX;Xn o V =.=.....R T X._.OX+XOX{.`.!.| j s ",
"p i h X.[.$X&X].|.R.E.E.R.~.X.| f a u C -X6X6X7X7X-X;.V ` =.#X%X#X X@.G M K =X;X;X;X=X<.C m }  X@X%.R d d U %.oX$X$X$X{.T.W j s ",
"p p s W `.$X&X].|.R.R.R.R.E.z l f V V G C S S S } V V f f ..oX@X$X.XW.@.J G M M M M M M } @.=.@XOX!.T d s d T %.+X$X&XOXT. .l l ",
"i i s T (.$X&X}.].|.|.].~. .k k F +.,.} m u u u a a g f f U #.=.{.{.(.W.@.J m u o u u m >. X X'._.%.| j j j j R %.{.$XOX).T. .z ",
"Y k k T X.(.].}.].].].].). .z l | (.@X X} V V m V F F | T U R #.`.$X`.+.W.+.@.F m m G @. X X'.=.o.X.| { ....U U T !.OXOX}.).T.H ",
"%.%.o.| z z  .R.|.|.].].T.| z W T.).'. X'.@.@.J +.+.+.O.{ f d U X.{.(.o.+.W. X@.J J  X.X+.+.=...W W ..%.=.*.U d h W !.{.].R.E.H ",
"=.%.%.| l l z E.E.R.R.E.| l l T T.T.o.O.O.O.H H O.W.W.| ..L d L T T.o.o.o.O.+.@.H H W.+.F l | | k k O._.oX*.U s s h W E.E. .H z ",
"=.=.o.T d s x z  .E.E.z l l l | Q  .z l H H l l H W.W. ...f s d j | T | | l | H H H H l x d k W l l ..=.=.*.U s i s k Q H z x x "
};
