/* XPM */
static const char *NjRqbnl4ZTE__679a400b1f0bc[] = {
/* columns rows colors chars-per-pixel */
"64 64 256 2 ",
"   c #391806",
".  c #371507",
"X  c #38250A",
"o  c #3A2A15",
"O  c #3A3817",
"+  c #2E310F",
"@  c #363C23",
"#  c #143415",
"$  c #490A02",
"%  c #510500",
"&  c #570A03",
"*  c #471707",
"=  c #58150B",
"-  c #4E1C12",
";  c #630C09",
":  c #64150C",
">  c #681915",
",  c #751A14",
"<  c #791817",
"1  c #7D180F",
"2  c #47250B",
"3  c #472816",
"4  c #552817",
"5  c #453518",
"6  c #563A1A",
"7  c #4F2C0E",
"8  c #682619",
"9  c #75261D",
"0  c #643219",
"q  c #483A26",
"w  c #5A3825",
"e  c #502D21",
"r  c #683628",
"t  c #783629",
"y  c #712F29",
"u  c #35421D",
"i  c #1B4E29",
"p  c #264B2A",
"a  c #384A27",
"s  c #25562D",
"d  c #38552B",
"f  c #295936",
"g  c #375A36",
"h  c #224D34",
"j  c #2B6537",
"k  c #34633C",
"l  c #346C3C",
"z  c #3B6B3C",
"x  c #396438",
"c  c #3B733D",
"v  c #38763B",
"b  c #316A30",
"n  c #1A451E",
"m  c #44451B",
"M  c #56451D",
"N  c #63481D",
"B  c #494628",
"V  c #564B29",
"C  c #47552B",
"Z  c #58522A",
"A  c #484D36",
"S  c #584835",
"D  c #475937",
"F  c #575938",
"G  c #685635",
"H  c #6D4D31",
"J  c #48653A",
"K  c #55663C",
"L  c #43733D",
"P  c #666439",
"I  c #305B42",
"U  c #2D6543",
"Y  c #346444",
"T  c #356C42",
"R  c #3B6C44",
"E  c #33654C",
"W  c #346C4B",
"Q  c #3C6D4C",
"!  c #3B6545",
"~  c #3C7344",
"^  c #3C7A44",
"/  c #3B744B",
"(  c #3C7B4A",
")  c #347345",
"_  c #3A6C52",
"`  c #3D7452",
"'  c #3C7A50",
"]  c #565C44",
"[  c #505640",
"{  c #675946",
"}  c #765445",
"|  c #486A47",
" . c #596946",
".. c #447445",
"X. c #427A44",
"o. c #43734B",
"O. c #4A754C",
"+. c #437C4B",
"@. c #4B7B4C",
"#. c #4B7845",
"$. c #55784A",
"%. c #427354",
"&. c #447C53",
"*. c #4B7C53",
"=. c #4C7C5B",
"-. c #477957",
";. c #537B53",
":. c #597A57",
">. c #4D6D52",
",. c #666648",
"<. c #66784C",
"1. c #657956",
"2. c #756F54",
"3. c #597F62",
"4. c #717A65",
"5. c #8C1D1C",
"6. c #841918",
"7. c #911C1D",
"8. c #88231B",
"9. c #83301E",
"0. c #8E1D21",
"q. c #872824",
"w. c #942D2B",
"e. c #9C2D2B",
"r. c #982A26",
"t. c #883429",
"y. c #94322D",
"u. c #9A322D",
"i. c #93362B",
"p. c #893B32",
"a. c #983534",
"s. c #9A2932",
"d. c #A32C2C",
"f. c #AC2E2D",
"g. c #A82C26",
"h. c #B12E2D",
"j. c #A5332D",
"k. c #AB322D",
"l. c #A7362B",
"z. c #B2322E",
"x. c #AC2E33",
"c. c #A92D35",
"v. c #A53432",
"b. c #AB3333",
"n. c #AE3439",
"m. c #A63A36",
"M. c #B13333",
"N. c #B3363A",
"B. c #B22E35",
"V. c #98443A",
"C. c #8B4339",
"Z. c #A7423D",
"A. c #83673A",
"S. c #953E41",
"D. c #95564A",
"F. c #A6564B",
"G. c #B3564D",
"H. c #A75B54",
"J. c #B65855",
"K. c #B04A49",
"L. c #976754",
"P. c #8C7352",
"I. c #B5645A",
"U. c #A96F58",
"Y. c #B76863",
"T. c #AC7965",
"R. c #9A7666",
"E. c #C36664",
"W. c #C35F5E",
"Q. c #44843E",
"!. c #3F8046",
"~. c #45824C",
"^. c #4B834D",
"/. c #4C8B4B",
"(. c #468444",
"). c #53864B",
"_. c #468253",
"`. c #4B8453",
"'. c #4C8B52",
"]. c #4C845B",
"[. c #4A895B",
"{. c #528354",
"}. c #548B54",
"|. c #53845B",
" X c #538B5B",
".X c #5B8A5B",
"XX c #5B8856",
"oX c #55945C",
"OX c #5B935C",
"+X c #579657",
"@X c #4F914F",
"#X c #65885A",
"$X c #67955E",
"%X c #6F8556",
"&X c #4D8562",
"*X c #538B62",
"=X c #5A8963",
"-X c #5B9562",
";X c #5A9767",
":X c #668964",
">X c #798867",
",X c #639965",
"<X c #73956D",
"1X c #5EA062",
"2X c #64A266",
"3X c #59A156",
"4X c #99865C",
"5X c #A8825C",
"6X c #8E906E",
"7X c #A68768",
"8X c #BA9878",
"9X c #B08E70",
"0X c #AAA479",
"qX c #C6977B",
"wX c #CF8B7C",
"eX c #B2AC86",
"rX c #B69488",
"tX c #D88B84",
"yX c #C99786",
"uX c #CF9286",
"iX c #D5A987",
"pX c #DAB58C",
"aX c #DBB994",
"sX c #CBAB8E",
"dX c #E8AB9C",
"fX c #E9BC97",
"gX c #F4BD9A",
"hX c #C6B5A7",
"jX c #EAB3A7",
"kX c #F6B6AB",
"lX c #EFAFA7",
"zX c #E78A86",
"xX c #ECC395",
"cX c #ECC39B",
"vX c #E8C598",
"bX c #F2C49C",
"nX c #F3C69A",
"mX c #CECAA8",
"MX c #EDC9A6",
"NX c #F4C5A3",
"BX c #F4CAA4",
"VX c #FACCAB",
"CX c #F6C9A9",
"ZX c #F5D1AA",
"AX c #F8CCB5",
"SX c #FAD3B8",
"DX c #EBCFB1",
"FX c #EEE0BD",
"GX c #FED8C7",
"HX c #FFDDD3",
"JX c #FFCFC3",
"KX c #FFE4D4",
"LX c #FFE7DB",
"PX c #F8E7CA",
"IX c #FFEEE2",
"UX c #BBC89D",
/* pixels */
"c l T ~ =.*X*X[.[._.[.[.' W W W W W W E E E E E E E W Q / ~ ~ +.`. X}.@X3X3X/.v b j U W Y E W E _ E I I E Q %.&._._.'.'.oXoX'.~.",
"~ ~ ( +.&.&.&._.]._._._./ W W Q ' ` ` Q E E E _ _ %.` / / l l ~ +.'.'.@X+X+X(.v ^ ( ' ` _ W W Y E E Q _ %.%.Q Q T ~ !.'.+XoX'._.",
"[.[.].&.~ l ~ _.`.'.~.v l T / -.*X&X&.` _ E U E %.&X&X-.( T j l c '.+X1X+X/.v v ( [. X].-.` W Y I ! %.&X=X-.R k j j v ~.oXoX`.+.",
";X;X*X&.T j ~ `.}.@X^ b b ~ *.*X;X;X[.&.%.W Y Q =.;X;X*X_.) j j v @X+X+X}.^ l ( ].;X;X;X=X_.T k f R =.=X;X|./ j j j v ~.oX X+.z ",
";X;X*X].~ c X.'.+X+X(.b c ^.}.OXoX*X X[.&.R ! o.|.:X:X|. X`.( ~./.@X@X/.`.o.Q -.=X:X;X=X=X|.( l k R *.=X=X.X_.+.^ ^ ^ (. X{.R f ",
"[.[._._.`.'.'.@X@X/.Q.v (.}.XX}.`.+.~.`.|.;.>.>.:.:.:.:.XX.X}.}.).).^...R ! >.3.3.3.:.;.{.{.@.O.o.o.o.o.+.`.|.oX+X@X(.^.`.+.k p ",
") ) ) ( oX-X+X@X/.Q.Q.Q.).}.{.#.z z R ;.:.:X:X1. .F F  . .1.$X$X#X).L J g | 1.4.1. .| J J | ;.#X=X*.Q k k c `.-X1X1X+X}.^.R g s ",
"j j j ) oX2X2X+X/.(.(.).).).@.L x g |  .| ] ,.] B O O B Z 2.0XeX0X6X>X>X4.4.2.[ S q O @ u D 1.>X<X=X| g p f +.oX;X2X2XoX`...k g ",
"j s s l '.,X2X+X@X/.).).).$.| D D  .1.,.B o o 3     . 3 w P.sXDXDXmXmXmXmXrX} X   X   . # @ { >X>X:.| g d g z +.`.,X,X;X X..o.| ",
") c l l X.'.OXOX+X}.XX#X$.J d a @ S { S e   * * * $ . * r L.qXCXGXPXLXKXJXrXt $ . *     X o q [ ] A A A [ | x z l ^.}.,X,X{.O.! ",
" X X~.~ c ~ ^.OXOXXXXX#X1.K O X X 3 3 e r y y 8 8 y 8 8 t V.F.wXkXKXKXAXuXD.t 9 y r 6 6 w e o 3 o X o q ,.4.| d g L ^.OX=X{.O.o.",
",X;X X+.z z ..{.$X#X<. .F V o   . * - 8 p.S.S.D.H.T.Y.H.V.t.q.F.wXkXjXwXH.t i.V.p.D.D.R.R.L.} w 3 . . e { ,.] d d x ..|.|.*.o.T ",
"oX-X X^.~ z ..:.%X%X,.V 5 3 4 r y y y t.a.a.a.J.tXkXlXuXH.t.w.a.F.I.I.F.C.q.a.y.a.H.yXjXDXjXdXT.D.r r w e q F ] D D O.|.|.%.Y f ",
"~.'. X|.o...;.1.<. .Z 5   - y p.C.p.a.a.Z.a.a.I.kXKXHXkXI.t.w.w.y.t.t t.t.i.m.w.a.I.jXHXHXKXKXkXY.p.p.y 4 2 S S a d >..X;.! f h ",
"^ +. X.X*.;.:. .C 5 3 7 * > t.p.p.p.m.m.v.w.a.I.lXKXHXjXY.p.w.u.y.q.9.9.q.i.a.w.y.Y.kXHXKXKXKXkXY.p.p.p.t r H q + @ | .X;.! f h ",
") ) ]..X;.;. .A + . * 4 8 t F.I.I.F.V.u.u.u.a.G.tXkXkXuXH.p.u.Z.G.J.I.I.I.G.a.w.a.H.uXdXjXjXdXwXG.t.p.V.H.R.R.2.{ A ] >.| | I f ",
"U W / O.:.| @ o   3 - = 8 D.uXjXdXuXF.t.w.u.m.m.G.J.E.G.V.i.u.G.tXdXlXdXdXuXD.t.t.V.G.I.I.I.I.G.Z.w.t.H.uXjXjXhXhX6XA @ D | | ! ",
"W / Q | >.A X . * 8 8 t D.uXAXKXKXAXwXH.V.a.u.v.u.r.w.u.m.u.u.I.gXGXKXHXGXkXwXH.V.i.u.u.r.r.u.u.m.w.y.Y.kXHXLXIXIXhXS + a :.:.| ",
"' / o.| ] B   $ = , q.F.tXkXJXGXGXJXkXwXG.u.d.b.v.r.r.r.m.r.r.I.dXKXGXHXHXJXkXtXG.u.r.d.g.f.d.j.j.u.y.J.kXHXHXLXLXhXS . A 1.:.| ",
"[.[.{.| A 5 * = , 8.w.J.zXlXlXdXdXlXlXzXG.d.d.b.b.b.m.j.j.r.d.G.wXjXdXdXdXdXlXtXJ.e.d.h.h.z.g.g.j.j.u.F.tXlXdXlXjX9XH 3 q ] ]  .",
";X;X:X .5   = , q.v.b.K.W.E.Y.Y.I.I.W.J.N.v.b.b.b.k.b.k.j.j.k.m.G.I.I.Y.Y.Y.E.J.K.d.M.h.h.z.g.k.k.v.a.Z.G.Y.Y.Y.Y.D.H w 3 O B F ",
";X;X:XK 5 * = q.v.n.n.n.v.e.y.y.y.w.w.e.v.n.M.b.M.f.k.M.k.k.k.k.u.w.a.a.a.a.a.m.b.d.x.g.g.k.g.k.b.j.m.v.w.w.a.y.t.p.C.t 4 3 q B ",
"-XOX#XK 5 * : 8.e.b.x.n.b.e.e.w.e.e.d.b.n.n.x.M.f.f.k.M.k.f.h.z.n.d.d.e.s.c.s.d.n.N.N.M.k.l.l.l.j.j.v.b.e.e.d.e.d.m.V.p.r w S S ",
"^.O.$.F 6 4 8 8.e.x.M.N.b.d.v.v.v.b.b.x.n.x.f.M.f.N.M.k.M.M.k.g.h.h.x.c.c.N.c.c.c.N.n.f.b.k.l.l.j.j.b.b.b.b.x.f.d.v.a.p.D.H S S ",
"k x D B w 4 > 6.r.b.n.n.b.b.v.b.b.b.x.x.b.b.b.f.M.b.f.k.M.M.k.f.z.k.f.f.c.c.c.c.B.x.x.f.k.k.k.k.k.b.j.k.b.M.M.M.h.k.m.V.C.H } } ",
"i p a B w 8 , 6.d.n.n.b.b.b.b.b.b.b.b.b.b.b.k.x.b.b.k.k.b.b.k.k.l.l.k.b.b.b.n.n.n.x.x.x.x.b.b.b.b.b.b.b.b.M.h.h.h.k.m.i.p.H } 2.",
"n p A S r > < 0.d.M.n.f.d.j.j.j.b.b.b.b.b.v.k.b.b.b.b.b.b.b.b.j.d.l.l.b.b.b.n.n.n.n.x.x.x.x.x.x.b.b.b.b.n.b.M.h.M.b.m.i.9 r } P.",
"p g ] { r > < 0.e.c.b.b.v.v.v.b.b.b.b.b.b.v.b.b.b.b.b.b.b.b.b.m.l.l.l.m.m.b.n.n.n.b.b.n.n.n.x.x.b.b.b.b.b.b.M.M.M.b.u.q.8 r G P.",
"! >.1.{ r > , < 5.r.v.v.m.v.v.b.v.v.m.m.b.b.b.n.b.b.b.b.b.v.v.m.m.j.j.j.v.b.b.b.v.v.v.b.b.b.n.b.b.b.v.v.v.v.v.m.m.u.9.8 4 r G 2.",
"=X:X>X,.e * : , < q.w.u.u.e.r.e.r.e.e.e.e.e.e.d.e.d.e.e.e.e.e.e.u.r.r.r.r.e.e.r.r.r.r.r.e.e.e.e.e.e.e.e.e.e.u.a.a.t.9 : * 7 S { ",
"=X:X>X,.3 * = 8 > 9 9 9 q.q.0.0.5.5.5.5.5.5.5.7.7.7.5.5.5.5.5.8.8.6.6.5.5.5.5.5.5.8.8.8.5.5.5.5.5.5.8.q.q.q.q.q.9 9 9 = * X q F ",
"*.;.1. .q 3 3 - = = = = > < 6.6.6.6.1 1 1 1 6.6.6.6.6.6.6.6.< < < < < 6.6.6.1 1 1 1 1 1 1 1 6.6.6.6.6.< , > : : = = = 2 2 5 B Z ",
"f g |  .,.F 3 . . . $ $ = 9 < < < < < < < < , , < < < 6.< < < , , < < < < < < , , , , , , , , < 1 < < , 9 > = * . .   o V F J J ",
"f s f | 1.1.A o 5 5 3 2 - = = ; > : : ; ; ; ; & ; ; ; ; ; ; ; ; : : ; & ; ; & ; : : = & = ; & ; : > = = - - - 2   X X B  .1.$.#.",
"T k f R ;.:. .K  .,.,.Z 3 . . $ % % & & % % % % % & % % % % % % = & % % % % % % & & % % % % % % & % $ . . o q q B A F  .#X#X;.O.",
"|.`.+.~ z ..;.#X%X>X>X<.B X X * $ $ 8 9 9 8 0 y t t t t t t t 8 * $ 8 t t t t 8 $ $ 8 t t t t 8 * * 3 3 5 q A A D  .1.:X:XXX`.`.",
"-X-X[.( l l @..X$X$X#XXX .F Z 6 7 0 D.U.T.T.9XqXqXwXwXwXwXwXyXL.- - L.yXyXyXyXL.- - L.yXyXyXyXU.w 3 S { ,. .D D g J ;.:X=X|.&.) ",
"-X-X-X'.l j ^ `.}.}.).XXXX1.<.Z 6 H 5XiXfXfXcXVXVXNXVXVXCXSXSX9Xe e 9XJXGXJXSX9X4 4 9XSXSXSXSXyXG q ,.6X6X:X| g s k O..X=X_.W j ",
"}..X-X Xv b X.`. X X^.@.$.<.2.G 6 N 5XpXcXnXnXZXZXBXVXCXVXSXSX9X5 3 9XGXGXGXJX9X4 3 9XSXSXSXSXyXG 5 ,.>X<X:XO.k f k o.|.|.%.W f ",
"O.@. X X+.^ ~.`. X|.X.L L <.%XG 6 6 U.iXxXnXxXxXxXcXcXfXCXCXZX7XX   7XDXSXSXDX7X* 2 7XDXSXAXAX8XG O F <.1.O.O.R R T +.|.=.Q I h ",
"x ..{. X~.~ ^ _. X X~ x J <.2.P 5 N U.pXxXnXxXxXxXxXxXBXfXZXZX7X2   7XDXSXAXAX7X7   T.DXAXMXCX8XG o B  .| | O.&.o.~ *.=X=.Q f h ",
"p x @.{.~.( +. X|.*.l g J  .,.G H A.8XfXnXnXxXxXvXvXxXnXcXBXMX8XG G 8XMXAXMXMX8XH H 8XMXZXBXMXsXP.Z B C d R *.].&.%.=.&X-.E I h ",
"n s ~ _._._.[. X*X=.R k | K Z G P.9XiXxXxXnXnXnXxXxXxXcXnXcXcXpX8X8XaXvXBXcXcXpXqXqXaXcXMXBXcXvXsX4XF u a ..&.&.' &.].].%.! Y I ",
"n s j ~ _.[. X].&X&./ R | D O V 4XpXcXnXnXxXnXxXcXxXxXvXvXvXxXMXMXMXMXfXxXcXcXnXBXVXcXfXxXBXcXZXDXeXG + p ! / / / ` &.&.` _ _ Q ",
"s s s l ( _.[.].&./ ` o.O.C + Z 4XaXnXBXbXbXnXfXcXxXcXxXfXcXcXMXCXZXMXcXcXbXxXnXBXBXcXcXxXBXxXZXDXeXP O d ! Y T W W W W / ` %.%.",
"R R T l l ) ( %.=.` ` Q | d + Z 4XaXcXnXgXgXbXxXcXvXcXcXxXcXcXcXvXvXcXcXbXnXbXfXcXcXcXNXfXcXcXZXZXeXG u D >.! f j U U W -.=.%./ ",
"=X=X|.+.c j T / ].-.` Y g u + V 7XpXcXnXgXgXbXcXxXcXcXcXnXcXxXvXcXvXxXcXcXnXnXnXbXcXcXcXfXcXcXBXZX8XG O K :.=.Q f U U / ].=.W j ",
"<X,X-X'.~ j l / -.-./ T x d C P P.9XiXgXgXgXbXnXxXMXvXxXnXxXvXcXcXcXcXcXbXxXnXxXxXxXcXcXNXBXcXcXsX7XG Z  .:X=X%.Q W Y Q =.&.j s ",
";X;X*X~.+.) ) ( / _.W / @.;.<.P Z A.9XpXgXbXbXnXnXvXvXcXcXxXbXbXcXnXxXnXnXcXxXcXnXfXcXcXCXCXCXsXR.G P ,.$.XX[.[.&.&.%.%.%.R f s ",
"].&.~ ~ `.'._.( ) ( ( [..X:X<X<.m N 5XfXBXBXbXnXnXcXcXvXfXcXNXbXfXxXxXxXgXfXcXNXcXNXCXNXCXAXSXyXV O F 1.$.X.+._.*X*X].*.o.R k k ",
"W j j l ^.-X-X'.( ( _..X}.XX#XC O M 4XaXCXBXbXbXfXfXcXcXcXNXNXgXnXnXnXbXgXgXbXgXgXNXNXNXcXCXAX8XG + C  .g j ~ _. X*X-X X_.o.~ ~ ",
"i i s l ~.oX+X'.^ ^ _.|.@.#.#.a O M P.7X9XiXfXbXnXcXNXVXVXCXCXVXVXNXCXCXCXVXVXNXBXbXfXcXcXaXsXR.F O a g s s l ( +.'.OX-X X`.&.+.",
"n n s l ~.}.'.!.v ^ +.`.@.z g d m B Z M N L.iXNXCXNXNXCXVXCXNXCXZXNXCXNXCXVXCXCXNXfXiXpXaX8XP.Z a a g f f f j ) ( ~.^.}.'.`._.&.",
"h f R +.X.X.~.!.^ ~.( X...x d J K C 5 X 6 P.yXVXVXNXiX8X8X8X8X9X8X8XqX8X8XqXqXiXfXfXpX8X7XP.M m a D ! g Y W ) ( ^ v v (./.'.+.( ",
"%.=.|.].X.v v /././.X.c X.#.@.#X1.D u B P.sXaXAXSXsXP.H H G G G G G G G G H H L.qXaXpX7XP Z m C g ! ! %.=.&X[._.^ v v (./.`.( l ",
"=.&X|.|.'.(.(./.@X@X(.c X.{..X#X#XD u F eXFXFXDXsX4XV o 5 B B B m m m O 5 X   6 P.9X7X2.B m D  .| ..Q -.&X&X*X[.'.(.Q.Q.^.+.T f ",
"! Q &.[. X}.@X@X@X/.(.(.^.}..X{.| d + K eXPXPXeXP.B B B C F  . .K K C C m O + + m Z F C C J  .:.{.*.o.Q _ ` &X-XOX+X+X/.#.~ j s ",
"p p f +.-X2X2X+X/./.(.^.{.{.*...x d p K 6XUXmX0XF + a D  .1.:X<X$X#X$.$.J C C u + + + u J $.XX#X.X`.Q j f U &.*X,X2X$X+X^.~ k f ",
"n n s R  X2X2X+X@X/.^.}.}.^.~ k g x J $.%X<X6X%XD p a g | O.:.#X$XXX).#.#. . .J C a a J $.:.XX.X.X`.R f h f R *.OX,X2X$X}...T k ",
"p p f l ^.+X;XOX+X}.}.}.}.@.R k R @.;.{.$.$.$.$.| x g g g k R {.+X+X).#.#.;.XX:.#.J | $.XX:.;.|.}.@.~ Y j k T ~ +.}.,X,XOX`.o.o.",
"! ! R R ^ `.+XOXOXOX+XXX}.O.R R O.|..X.X).#.#.#.O.O.>.o.! Y Y @.OX$XXX).^. X:X.X#.#.@.XX.X.X|.*.*.o.R Q o.o.R l z ^.-X,X,X X@.O.",
":.;.O.~ ~ ~ ~./.OXOXOX}.{...R o.*.|..X}.}.(.L X.o.|.=.-.Q k f z ^.XX{.^.`.{. X{.@.@.).XX{.{.{.O.o.R o.*.=.*.R j j ~ `.OXOX}.@.X.",
":.;.O.~ l j c X.^.}.).#.O.R k R *.;.@.X.(.X.c c o.].=.=.%.Y f g ..$.;.O...+.+...c L @.@.z z X...R R o.|.|.*.Y s s j ~ ~.^.#.L z ",
":.:.@.~ j s j c c #.X.L ..z k ..O.O.c b v v b l o.=.-.=.%.Y s p g L O...z z ..+.c c L L b b z z k R o.=.|.o.k s i s l ~ X.c z b "
};
