/* XPM */
static const char *NjRqbnl4ZTI__679a400b1f232[] = {
/* columns rows colors chars-per-pixel */
"64 64 256 2 ",
"   c #3C0D01",
".  c #291A06",
"X  c #391505",
"o  c #391A10",
"O  c #39250D",
"+  c #392815",
"@  c #373719",
"#  c #2B2D12",
"$  c #383C25",
"%  c #3B2F21",
"&  c #123D21",
"*  c #490501",
"=  c #520400",
"-  c #590A06",
";  c #481609",
":  c #56150B",
">  c #481B13",
",  c #571A12",
"<  c #630A09",
"1  c #661814",
"2  c #771A19",
"3  c #68110F",
"4  c #47250D",
"5  c #442815",
"6  c #542516",
"7  c #473819",
"8  c #4D3014",
"9  c #68251B",
"0  c #77241D",
"q  c #62341C",
"w  c #4A3926",
"e  c #583727",
"r  c #4F2C21",
"t  c #672A23",
"y  c #7B2723",
"u  c #6A3729",
"i  c #773728",
"p  c #793B34",
"a  c #7F1F21",
"s  c #31451C",
"d  c #1C4F2C",
"f  c #384B28",
"g  c #25582A",
"h  c #37532B",
"j  c #295936",
"k  c #375A37",
"l  c #2C4B31",
"z  c #2C6434",
"x  c #2C633C",
"c  c #296735",
"v  c #33643C",
"b  c #3B643C",
"n  c #336C3C",
"m  c #3B6C3C",
"M  c #366834",
"N  c #2C723C",
"B  c #35723C",
"V  c #3C733D",
"C  c #3A773A",
"Z  c #31682C",
"A  c #205B23",
"S  c #48492A",
"D  c #56482C",
"F  c #484A35",
"G  c #574835",
"H  c #455937",
"J  c #565738",
"K  c #4F5529",
"L  c #68492B",
"P  c #665537",
"I  c #724C35",
"U  c #47673A",
"Y  c #55663A",
"T  c #46763A",
"R  c #4F7039",
"E  c #6A673C",
"W  c #474316",
"Q  c #315943",
"!  c #2D6444",
"~  c #336444",
"^  c #356C43",
"/  c #3B6C44",
"(  c #33644B",
")  c #3C6C4B",
"_  c #386748",
"`  c #357343",
"'  c #3B7344",
"]  c #3C7A45",
"[  c #3C734A",
"{  c #3D7C4A",
"}  c #35754A",
"|  c #3B6C52",
" . c #3C7554",
".. c #287541",
"X. c #585943",
"o. c #495942",
"O. c #655A45",
"+. c #715845",
"@. c #446C44",
"#. c #496A47",
"$. c #576947",
"%. c #437443",
"&. c #4B7444",
"*. c #437B45",
"=. c #43754C",
"-. c #437C4C",
";. c #4B7C4B",
":. c #4B7749",
">. c #55784A",
",. c #456C52",
"<. c #447553",
"1. c #447C53",
"2. c #4B7C53",
"3. c #4A7C5B",
"4. c #497758",
"5. c #567A57",
"6. c #586A54",
"7. c #666747",
"8. c #637948",
"9. c #687856",
"0. c #747152",
"q. c #557D62",
"w. c #787D61",
"e. c #841A1B",
"r. c #86231E",
"t. c #871E21",
"y. c #842222",
"u. c #892927",
"i. c #9B2D2C",
"p. c #962C27",
"a. c #88332A",
"s. c #94332C",
"d. c #9C332D",
"f. c #94382C",
"g. c #9D2D33",
"h. c #8A3A33",
"j. c #9C3432",
"k. c #963733",
"l. c #A82D2C",
"z. c #A4332C",
"x. c #AB332C",
"c. c #AA3529",
"v. c #B1322B",
"b. c #AA2D35",
"n. c #B22F36",
"m. c #A53333",
"M. c #AB3334",
"N. c #A33A35",
"B. c #AA3934",
"V. c #AD3339",
"C. c #A53A3A",
"Z. c #B23338",
"A. c #904338",
"S. c #A34138",
"D. c #97574A",
"F. c #985249",
"G. c #AA554A",
"H. c #AB5A53",
"J. c #B35654",
"K. c #A74A45",
"L. c #926957",
"P. c #A9655A",
"I. c #B6655B",
"U. c #AE785A",
"Y. c #937564",
"T. c #B96664",
"R. c #AA7367",
"E. c #47813C",
"W. c #3E8149",
"Q. c #3E8B58",
"!. c #44824C",
"~. c #4B834C",
"^. c #4C8B4D",
"/. c #468445",
"(. c #53874C",
"). c #448253",
"_. c #4B8453",
"`. c #4C8A54",
"'. c #4D835B",
"]. c #498859",
"[. c #538454",
"{. c #538B54",
"}. c #5B8C55",
"|. c #53845C",
" X c #5B865B",
".X c #538C5B",
"XX c #5B8C5B",
"oX c #5A8555",
"OX c #55925B",
"+X c #5A945C",
"@X c #599657",
"#X c #519254",
"$X c #65875A",
"%X c #76875A",
"&X c #64995A",
"*X c #73915F",
"=X c #4B8762",
"-X c #558963",
";X c #5B9463",
":X c #579566",
">X c #4C9663",
",X c #688962",
"<X c #649867",
"1X c #77926A",
"2X c #778C68",
"3X c #64A268",
"4X c #5CA265",
"5X c #8E905C",
"6X c #889668",
"7X c #8E8868",
"8X c #B99A78",
"9X c #AE8A71",
"0X c #ACA379",
"qX c #87A87B",
"wX c #C88A78",
"eX c #C99479",
"rX c #D08B79",
"tX c #D3A27F",
"yX c #B8B986",
"uX c #B6AC88",
"iX c #BA9883",
"pX c #D88A86",
"aX c #CD9587",
"sX c #DBA988",
"dX c #D9B893",
"fX c #CBAD8F",
"gX c #E9BB96",
"hX c #F3BE98",
"jX c #E8AD94",
"kX c #DAAFA3",
"lX c #E9ACA4",
"zX c #F4ACA4",
"xX c #E7B3A5",
"cX c #F7B5AA",
"vX c #BDC295",
"bX c #DBCF9C",
"nX c #EBC196",
"mX c #ECC49B",
"MX c #E7C79B",
"NX c #F3C39B",
"BX c #FAC49E",
"VX c #F1C297",
"CX c #E1D49F",
"ZX c #D4D1A8",
"AX c #E9C9A3",
"SX c #F3C5A2",
"DX c #F7CAA8",
"FX c #E7D1A5",
"GX c #FCD3B6",
"HX c #F3D0B3",
"JX c #FED7CA",
"KX c #FFDCD2",
"LX c #FFD7D0",
"PX c #FFCEC4",
"IX c #FEE8D3",
"UX c #FCF1D2",
/* pixels */
"n B ` { ].=X=X=X=X).].'. ._ / _ ) ) ~ ~ _ ~ _ ( ! ( ! ! }  .<.2._.^.^.#X@X@X^.] n n ^ ~ ! ( | ( ( ( ( ~ ~ ^ [ =.3.'.|.-X;X+X^./.",
"{ { ] } {  .).].].].).1.} ~ / ) <.<.) _ ) ~ ~ ( _  . .[  .) ) =.-.{.{.@X@X@X/.C B } 1.<.| _ ( ( ( ( _ ) [ [ ` ` ) [ 1.|.;X+X^./.",
"].].).{ ` ^ [ ).'.'.).` n n [ 2.'.'.3.[ ) ~ j } 3.=X=X3. .x j z %.{.@X@X@X^.C N { ].-X-X3. .( ~ ( _  .'.'._.' n x v / _.;X+X/.C ",
">X>X>XW.` n ^ _..X.X!.B n V -..X:X:X:X'.=.~ j [ '.:X:X-X'.[ v n %.}.+X@X#XW.N B ].:X:X:X-X3.) ( ~ ^ 1.-X;X.X=.n z x ~ _.;XOX*.M ",
"4X>X>X).] B *.}.+X@X/.B C /.^.OXOX>X:X-X'.[ x / '.;X;X.X.X_.-.-.~.}.+X}.~.B B !..X:X:X-X-X-X<.) v / =.'..X.X_.=.[ ` ` _.;X{.` z ",
"Q.Q.].].`.~.(.}.}.(./.C /.^.#X#X).W.!.1._.2.=.=.=.2.2.2.[..X+XOXXX}.(.~.V n ` _.'.'.1. .<.'.3.1.=.[ -.-.-.~..X;X-X.X]._._.-.z g ",
"N ..` !.+X+X@X}.(./.E.E.^.#X`.W.N N n %.2. X,X5./ b b @.;.XX<X3X+X{.;.T M / ;.[.3.[ ^ ~ ~ =._.|.'.).} n c B _.;X<X3X;X`.-.m g g ",
"A A c B #X3X&X@X^.E./.^.^.^.*.c c c n ;.5.,X1X5.@.h h k k U [.XXXX~.%.U U >.$X5.#.b ~ / ) =._..X-X].` z A c { OX;X3X3XOX!.V M z ",
"c A c B ^.<X3X@X^./.^.{.~.*.V Z z m :.5.9.,X,X9.U h f h f H &.>.}.oX:.&.$.9.%X9.$.H o.4.|.|.|.|.].).` g A z n W.`.:X3X+X`.:.m m ",
"] B c c C ^.@X@X@X^.{.}.~.:.&.@.&.&.$.J X.X.X.H f $ @ S 7.%X2X1XqXqX1X%X$.J O.J S $ f #.5.,X X2.|.3.=.' ` n c c B ^.+X+XOX_.:.%.",
".X`.!.] B C /.{.@X}.(.>.>.$.$.6.9.$.S + + + + # # . . D iXZXZXvXZXZXZX0XJ O + 5 O . # $ H >.5.>.>.>.5. X X2.M g g B !.OXOX_.=.%.",
";X;X;X_.B Z C ~.+X}.>.$.$.7.X.X.O.G 8 o X X . O . . . e iXJXIXUXUXUXUXdXI   X > o o . . # $ F h H Y 9.2X1X$X@.j g c ] `..X;./ b ",
"-X;X;X`.V Z T }.$X$X$.J 7.O.w O 4 6 u u u t r e e r e u D.aXHXIXIXIXIXjXD.9 9 u t e e r O . . . # 7 7.w.%X9.$.b z n *.`.'.=.~ j ",
"]..X-X.X*.' :.$X,X9.J D P P 8 X ; , p F.T.R.R.L.Y.Y.R.D.p F.aXxXxXgXjXrXH.h.h.F.P.R.R.L.+.G P e 5 8 L +.0.0.9.$.U %.~..X1.) j l ",
"} ).]..X[.;.>.9.%X7.S w L I u t t y h.J.pXzXxXkXkXkXlXpXF.h.D.P.P.P.I.H.S.f.h.H.aXxXxXkXfXfXfX9XI u L I +.+.0.9.#.;.|..X<.~ Q l ",
"N } )._.3.5.5.9.7.D 7 8 L I I h.h.a.k.J.pXcXPXJXKXKXJXzXT.h.a.a.a.i a.a.f.s.f.G.rXcXPXJXLXKXGXaXD.I p I I L G J $.:.|.|.| ( Q Q ",
"N ` } <.<.5.9.J w O 4 q u p A.A.h.k.j.C.J.rXcXJXJXKXJXcXT.s.u.a.a.y a.a.f.d.d.N.G.rXcXJXJXGXpXH.A.A.A.A.I e + $ H 5.5.4.,.,._ ( ",
"` ` ~ ) ,.6.X.w o X 6 I D.P.P.P.P.H.K.p.u.K.wXxXxXlXlXpXJ.s.s.S.G.I.I.G.N.z.B.z.p.K.wXzXzXwXF.a.f.f.h.F.L.L.+.w F o.,.5.,.,.,.| ",
"] -.) #.X.F r > ; , t D.wXlXxXlXlXpXJ.u.u.S.G.P.P.P.T.J.K.s.f.H.rXzXzXrXG.j.m.i.d.k.G.I.I.G.j.j.i.p.s.H.aXxXfX7XG # F 6.q.q.4._ ",
").{.|.6.F + ; : 1 9 i P.lXJXKXKXLXzXT.k.s.j.f.f.a.a.k.j.j.p.f.I.xXJXJXzXI.s.j.B.d.j.f.a.s.d.B.M.M.i.p.J.zXKXIXkX+.o % X.6.q.<.( ",
";X+X,X6.w > : : 2 2 u.I.zXLXLXLXJXlXT.k.p.z.d.d.d.p.i.p.i.p.f.P.cXJXJXcXT.s.i.N.B.m.j.d.d.z.l.v.Z.l.p.I.zXJXIXxXL.6 o w $.5._ ! ",
"<X<X1X$.+   , 0 r.r.u.G.pXlXlXlXlXpXJ.j.m.B.c.z.c.z.x.x.m.d.f.G.rXlXzXpXJ.k.j.m.m.m.m.m.z.l.l.v.n.l.i.J.rXjXzXaXP.t   o X.6.~ d ",
";X$X$XJ O X : y s.s.d.S.J.I.T.T.P.H.K.N.m.l.x.x.z.x.x.v.Z.m.z.S.G.I.I.G.C.j.m.m.m.m.B.B.m.x.x.x.n.Z.B.S.G.P.P.H.F.y * > G 6.k d ",
"5.>.$.S 5 ; : 0 s.N.N.N.j.k.k.s.k.k.m.V.M.b.M.x.M.M.x.x.v.x.c.z.s.s.d.i.i.m.m.V.M.M.m.m.z.z.c.x.l.Z.B.j.f.f.a.k.k.a.1 6 w F k v ",
"H H $ + 5 , 1 0 p.z.B.z.z.i.i.i.d.z.m.b.Z.Z.V.m.M.M.x.v.v.v.x.c.i.p.i.l.M.b.M.V.V.M.M.M.m.M.m.M.M.M.N.N.d.s.s.j.j.k.h.t 5 $ H #.",
"F @ . X , 9 0 r.p.z.B.M.M.m.M.M.M.M.b.b.n.V.V.Z.M.b.l.v.v.x.v.c.c.c.c.x.M.M.M.V.V.V.V.V.M.M.m.B.B.M.B.B.B.B.B.B.j.C.A.u > + F 9.",
"% o X ; 1 2 2 e.z.m.M.x.x.x.x.x.x.x.l.b.b.b.V.V.b.b.l.l.v.c.c.c.c.c.c.x.b.b.M.M.b.b.b.M.b.b.m.m.M.M.m.l.m.M.M.M.m.C.K.p > + J w.",
"w r o ; 1 2 e.t.i.M.m.x.m.x.x.c.c.x.M.M.V.V.V.V.b.M.Z.v.x.x.x.x.c.c.x.x.M.M.m.m.b.b.n.n.n.M.m.m.M.M.M.M.M.M.b.l.M.g.a.9 ; 4 J 0.",
"O.G 4 ; , 0 e.e.e.p.i.B.B.B.z.z.c.c.M.M.V.V.b.b.V.V.Z.M.x.z.x.z.x.x.x.M.m.B.N.m.m.M.M.n.n.M.m.N.m.N.B.M.M.V.M.m.p.t.y 1 X O J 0.",
"7XO.5   : 9 2 2 2 e.u.p.m.m.z.c.x.x.B.N.V.V.V.M.V.V.M.m.m.x.m.m.M.M.M.M.B.C.N.m.m.B.V.Z.b.M.N.C.m.N.B.N.m.V.m.i.e.2 1 : X O S 7.",
"6X7.+ . ; 6 9 0 2 2 y.u.d.m.B.B.B.B.N.N.C.C.C.C.B.B.B.B.B.V.V.V.V.V.Z.V.V.C.C.j.N.N.M.M.M.B.N.N.C.B.C.C.N.j.p.t.2 2 1 ; . . f H ",
"9.H @ + e e 6 : : 1 2 y a.s.i.d.d.i.p.i.k.j.k.s.p.p.d.j.j.g.g.g.g.m.g.i.g.j.k.k.s.i.i.i.i.i.s.s.d.i.s.k.k.u.2 < - 9 u e 7 @ f H ",
"H h f F 7.O.8     ; 9 9 0 0 r.y.u.r.r.y.y.y.u.0 y 0 e.u.u.e.u.y y.y.y.t.y.u.y.y y.y.2 y.y.2 a u.y.y.u.y y t , *   r +.0.7.U U U ",
"s h k $.w.9.S + 4 4 4 ; : : - 3 3 < < < < < - - - < < < < - - 1 3 3 < < < < 1 1 3 - - - - 3 3 3 3 3 : : > > > o o G w.6X1XoXR R ",
"m / / @.5.6.$.7.7.G 7 X X   * * = = = = = = = = * = = = = = * = - - * * * * - - = * = * * = = = * *     X O r w F X.9.,X$XoX(.:.",
"'.'.1.[ / @.>.%X2X0.S # O O 4 ; ; : 9 0 i i i i i i i i i p i 9 * : t p p t : * 9 i i i i 9 : ; ; 4 5 @ @ $ F J o.$.5. XXX{.~.*.",
".X:X].1.` ^ :.$X,X$X$.Y Y J J 7 4 q D.R.wXwXwXeXwXeXrXwXwXeXaXL.> > L.fXfXL., , D.eXeXaXaXU.u 4 w J X.7.$.#.H k k b ;..X.X`.!.' ",
";X:X:X).^ n =. X X$X$X$X$X9.9.J 7 I 9XxXDXDXDXDXDXDXDXDXGXGXJX9X4 o 9XKXKX9X> 6 9XGXGXGXGXaXI 5 D 9.%X2X1X5.@.k j x [ ].].).[ n ",
".XOX-X].` ^ =.[.XX X;.>.>.8.%XJ 7 L 8XDXGXGXDXDXDXDXDXDXGXGXGX9X4 5 9XIXIX9X5 4 9XGXGXGXHXfXI 7 D 9.$X,X<X|.:.b j n 1..X'.1.~ j ",
";._..X_.[ ` ;.|.<X[.%.T &.>.%XY 7 L 8XDXDXSXmXmXmXNXSXjXsXgXAX8XP P 8XHXJXiXI I U.sXdXgXMX8XL 5 S 6.>.5.|.2.2./ v ^ 1.'.3.) k j ",
"U :.[.{.-.' ;.|.<X|./ M &.>.%XE W L 8XSXNXBXNXnXnXNXBXsX9XeXdXdXfX8XfXHXHXdXaX9X9XU.9XeXjX8XI 4 S X.$.#.@./ |.2.[ ) 3.-X3._ j d ",
"g b ;.{.2.=.2.|.-X2.v j U >.8.Y D E tXSXNXBXNXnXVXVXBXjXeXeXdXAXDXDXAXMXgXDXDXjXeXU.U.eXgXsXL.P F F H k k ~ 4.4.<.<.=X=X3.( Q l ",
"& g ' ~._.)._.|.-X2./ v @.U H J L.8XdXNXBXVXNXVXVXgXhXhXsXsXgXNXSXSXSXMXmXDXDXhXjXsXsXjXNXgXfXY.X.$ l l v ) 3.3.<.1.=X=X .| ( Q ",
"& g z B -.]..X|.'.=.) / &.H s K 5XdXMXNXBXhXNXgXgXnXhXVXBXBXNXgXNXgXnXmXmXnXNXBXhXSXSXhXNXDXHXuXO.# l k ~ / ) [  . . . . .| | | ",
"g g g c ` ).'.'.1.[ =.=.:.H @ K 5XdXMXNXDXhXNXgXgXmXVXgXNXBXNXNXNXNXNXmXnXmXNXNXBXBXhXBXDXDXHXuXO.# l _ _ ~ v ~ ~ _ }  . .4.<.| ",
"m m B B N ` { 1.3.1.=.=.#.h # K 5XbXmXNXBXNXNXmXnXmXnXVXNXhXVXNXhXNXNXNXmXMXnXgXNXNXhXNXSXHXHXuX7.@ h #.<.=./ x j x ! } 3.3.<.) ",
"XX.X{.!.N c ^ [ 3.4.) ~ k f @ S 5XfXMXNXNXhXNXNXmXnXnXNXNXVXVXnXNXNXgXmXMXnXnXSXnXNXNXgXMXHXHXuXJ @ h #.|.|.<._ x ! ! } '.3.) _ ",
"<X<X;X].B z x ` '.3.) / b H S P 0.8XdXmXSXNXmXmXMXMXMXnXgXVXNXnXVXNXmXmXMXMXnXnXNXNXNXSXDXAXfX7XJ f U  X<X-X-X<.) ) ~ [ 3.<.~ j ",
"<X:X.X).{ B n ] { { ` ] ;.>.$XE K E fXSXSXSXmXmXMXMXnXnXnXNXNXVXNXNXNXmXmXmXmXgXhXNXDXSXHXfXw.J H U &.oX;X|.3.|.'.3.=./ [ ^ x g ",
"'.1.[ } _..X_.*.] { W.^.}.&X*X8.W P 8XAXSXmXgXMXMXMXnXnXnXNXNXmXNXmXmXMXmXAXSXNXNXhXSXMXfX7XF @ H >.$X2.=.[ 1.|.-X-X|.=.[ ^ x c ",
"^ v x n 1.;X;X_.` ] W.`.}.}.$XY K E 9XdXmXAXMXMXMXMXMXMXmXMXMXnXnXnXMXMXAXMXAXmXSXDXDXfXY.D w F H >.2.=.v v [ 1.|.;X;X.X_.=.` ` ",
"d d j n -.;X<X_.{ ` !..X~.&.U H K 0.9XfXAXDXHXFXFXFXFXFXFXMXMXMXMXMXFXFXFXFXFXDXSXGXDX8XL 5 w X.#._ b k j j n ` 1..X;X+X.X_.-.-.",
"& d g / _..X.X;.' ` !.].*.M h h S E 7XfXAXFXFXbXFXCXCXCXbXCXFXFXCXCXCXbXbXbXFXFXFXHXAX9Xe + w X.o.k j j j g x [ -.!.~._.{.`._._.",
"l j / =.=.*.;.;.*.{ { ] n m b f f E 0XdXfX0X0XuXyXvXvXbXyXyXyXyXyXyXyXyXyXyXyXuXuX8X9XY.+.G G o.k Q Q ~ ~ } [ [ ] ] ] *.`.`.-.' ",
",.3.-X'.-.' *.~.{.`.W.` ` -.5.U s $.uXyX7XY Y %X%X6X6X6X6X6X%X%X5X5X6X6X%X%X%X0.7.D D +.7XY.J $ k _ ,.,.3.'.).{ { ] C /.{._.' M ",
"3.-X-X|._.!.;.~.{.#XW.W.-._.;X:.h Y 6X6XY S h U &.>.>.8.8.>.>.>.8.oX8.R R R Y U f @ @ J w.2XX.F Q 4.3.4.'.'.]..X`.^./.~.`.;.n g ",
"_ ,.4.'.{.#X{.{.{.`.!.W.!..X|.:.k k H Y U U &.&.U k U #.:.oX}.$XoX(.>.T M M R R U h f S H $.$.#.5.2.<.=.) [ ].:X+X+X@X^.!.' M g ",
"l l j =.+X3X3X@X{.^.!.).`.].2.@./ h s h #.$X,X2.m g j k / 2.XX<X&X}.:.V Z m (.>.&.R U h s h >.$X-X3.=.v j z -.OX3X3X3X#X!.V M g ",
"d d g ^ #X3X3X@X#X/.!.`..X).` v b b b U &.oX,X_.^ j g g j / _.;X<XXX~.V m *.{.[.:.b M b U :.[.oXXX[.' j g g ` _.;X3X3X+X~.%.m M ",
"l l j n ~.@X&X&X@X^.^.#X.X-.^ / v :.5.oXoXoX.X1.[ ! j j j v ` _..X+X(.*.*.~.}.~.m b m :.oXXX}.[.[.;.' n v v n ' !.OX;X<X.X~.%.%.",
"_ _ / ` C /.#X&X&X&X@X{.`.-./ / =.|. X$XXX[._.-.{ [ <.) _ v ~ -..X+X{.~.~.{.}.[.%.%.2. X;XXX[.~.;.%.' ' / / n v ^ !.;X<X;X}.;.:.",
"3.3.<.' B C E.(.(.&X@X(.~.*./ @.2. X X}.oX;.*.] 1.3.q.4.,.v j n ~.}.{.~.~.~.(.;.;.:.2. X X[.;.%.` ` ' 1.2.<.~ j z ` _..XOX}.;.:.",
"q.3.2.` Z Z C T E.(./.*.*.V m @.;.;.&.&.(.*.V V 1.'.q.4.,.k g g M /./.*.*.*.&.%.@.:.5.:.b b %.;.n n [ '.-X3._ j g z ` !.~.;.%.T ",
"q.q.2.V Z A Z Z T T T V T m b @.:.;.U m m M M n =.3.q.4.,.~ g g Z T T T T V T T @.:.2.@.j j b ' n ^ [ 3.-X4.~ j d j n ` *.' m M "
};
