/* XPM */
static char *_def1ea9675c43469334a76085f425aa1PZ9fG47Ol56HVEx[] = {
/* columns rows colors chars-per-pixel */
"64 64 201 2 ",
"   c #102516",
".  c #18251B",
"X  c #1D3A1B",
"o  c #0E2522",
"O  c #132320",
"+  c #162C20",
"@  c #1B3124",
"#  c #1F3825",
"$  c #1D342C",
"%  c #1E3A2C",
"&  c #193632",
"*  c #1E3B33",
"=  c #203B2C",
"-  c #223D38",
";  c #2E462E",
":  c #2B4C2F",
">  c #314329",
",  c #234132",
"<  c #284435",
"1  c #274837",
"2  c #21423A",
"3  c #284839",
"4  c #2C543C",
"5  c #2D5B3F",
"6  c #355830",
"7  c #31563F",
"8  c #375F3C",
"9  c #26623E",
"0  c #2E633E",
"q  c #366B37",
"w  c #396831",
"e  c #30643E",
"r  c #3C603A",
"t  c #326C3E",
"y  c #396D3D",
"u  c #36713E",
"i  c #3D743F",
"p  c #3E793E",
"a  c #41673D",
"s  c #47683D",
"d  c #44753E",
"f  c #417B3E",
"g  c #1C4549",
"h  c #1E4B48",
"j  c #1F5444",
"k  c #1F5149",
"l  c #1F4F51",
"z  c #254D44",
"x  c #2A4D47",
"c  c #254D4B",
"v  c #294D49",
"b  c #245444",
"n  c #2A5545",
"m  c #265A44",
"M  c #2B5C45",
"N  c #25544A",
"B  c #2A554B",
"V  c #265A4B",
"C  c #2C5C4B",
"Z  c #305746",
"A  c #335D45",
"S  c #325D4C",
"D  c #3B5E4A",
"F  c #224D52",
"G  c #255352",
"H  c #2A5252",
"J  c #2D5C52",
"K  c #2F5C59",
"L  c #325D54",
"P  c #325F58",
"I  c #276243",
"U  c #2D6445",
"Y  c #2E6A44",
"T  c #2E634B",
"R  c #2C684C",
"E  c #326445",
"W  c #3A6544",
"Q  c #346C45",
"!  c #396E46",
"~  c #33644C",
"^  c #39654C",
"/  c #346B4B",
"(  c #3A6C4C",
")  c #367344",
"_  c #3B7445",
"`  c #3D7A45",
"'  c #36724A",
"]  c #3C734B",
"[  c #3D794B",
"{  c #2E6251",
"}  c #336353",
"|  c #396652",
" . c #356B52",
".. c #3B6C53",
"X. c #356258",
"o. c #39645A",
"O. c #366C59",
"+. c #3D6F5A",
"@. c #357252",
"#. c #3C7352",
"$. c #3E7B51",
"%. c #3C7259",
"&. c #3D7858",
"*. c #436C4A",
"=. c #427646",
"-. c #487345",
";. c #427C45",
":. c #4C7F44",
">. c #41754C",
",. c #437C4C",
"<. c #497D4D",
"1. c #416E53",
"2. c #427552",
"3. c #447C52",
"4. c #497D53",
"5. c #43765B",
"6. c #467C5A",
"7. c #497D5B",
"8. c #42853E",
"9. c #4D833F",
"0. c #4B8E3F",
"q. c #4F933E",
"w. c #579D3D",
"e. c #3F8243",
"r. c #3E814E",
"t. c #458245",
"y. c #4A8545",
"u. c #468946",
"i. c #4D8B45",
"p. c #45824B",
"a. c #4A844C",
"s. c #47884B",
"d. c #4D8B4C",
"f. c #518147",
"g. c #508E45",
"h. c #56864C",
"j. c #528D4D",
"k. c #4E9244",
"l. c #4E914B",
"z. c #539446",
"x. c #569A47",
"c. c #599C44",
"v. c #53924D",
"b. c #59954E",
"n. c #55994D",
"m. c #5A9B4D",
"M. c #468153",
"N. c #4B8452",
"B. c #478852",
"V. c #4D8A51",
"C. c #4E8A56",
"Z. c #4D8A52",
"A. c #44805E",
"S. c #46845A",
"D. c #498758",
"F. c #4B8259",
"G. c #4D8958",
"H. c #518654",
"J. c #528E52",
"K. c #568E53",
"L. c #528E56",
"P. c #528D53",
"I. c #598E53",
"U. c #538659",
"Y. c #538C59",
"T. c #4E9151",
"R. c #4F905A",
"E. c #4E905A",
"W. c #539252",
"Q. c #559553",
"!. c #539057",
"~. c #569357",
"^. c #559655",
"/. c #549353",
"(. c #599351",
"). c #5A9651",
"_. c #599554",
"`. c #579A51",
"'. c #569952",
"]. c #5B9852",
"[. c #5A9D51",
"{. c #5C9B53",
"}. c #579258",
"|. c #579459",
" X c #559359",
".X c #599559",
"XX c #599458",
"oX c #5B9C5A",
"OX c #5B9959",
"+X c #619B54",
"@X c #5CA346",
"#X c #58A845",
"$X c #5DA34B",
"%X c #55A244",
"&X c #5CA152",
"*X c #61A747",
"=X c #63A946",
"-X c #62A54D",
";X c #62A848",
":X c #61A352",
">X c #64A950",
/* pixels */
"g h C  .@.S.R.V.>.,.i.v.B.#.{ B N N N H H L L L N N F F J ( ,.a.d.t.;.;.i.J.A.O.J B G F l G B X.J K H c c B S ..M.B.V.p.;.;.a.!.",
"B C / / R @.M.p.>.a.v.v.p./ T } ~ ~ } L ~ L L J C C J } } ~ Q ] p.t.;.y.v.J.3.} T T } } { T C L L J J L E E ~ / / [ ,.t.t.t.d.~.",
">.>.>.( C V / >.;.v.n.v.[ U E #.3.<.2.] ( ^ S S ( ] >.3.#.T M C ( ,.y.v.m.d.' I Q _ <.<.=._ ( E S S | 2.<.,.( T M ~ ' t.0.q.v.v.",
"j.J.V.>.~ m U _ i.`.&Xd.' Y ! N.L.}.L.N.<.! E S ( N.W.^.D.@.C m U [ v.{.].p.Q Q ` d.v.v.j.a.,./ S ~ #.C.Q.v.<./ M U Q t.x.c.l.s.",
"b.(.W.d.3.' y f z.m.n.e.) ] p.K..X.X|.~.L.<./ E ] N.Q.'.!.N.,.i u p.^.oXL.[ ) =.i.b.).).(.K.C.3.E E ] C.^.`.j.p._ ) _ a.[.[.M.' ",
"<.a.d.Z.}.J.y.i.z.z.u.) _ N.j.W.V.p.,.s.d.V.3.] ] ,.a.a.C.Y.W.z.y.i.^.R.3.' =.d.v.l.a.p.p.a.V.N.>.] ] ,.M.d.j.j.W.j.d.d.v.d.] U ",
"S ~ ' p.Q.{.m.x.v.t.) Q ,.Z.J.a.' Q Q ) ` p.B.V.>./ ^ ^ ( V.n.@Xw.z.T.M.( ' p.J.J.,.Q Q Q ] ,.a.J.a.] / ~ / >.d.{.$Xm.v.d.p./ I ",
"N N m ' d.&X:X$Xv.;.Q ' p.J.V._ U M t ) ` t.T.!.3.E 4 b M ] v.$X=Xc.d.[ Q ] d.j.<.Q U U Q _ ` s.W.d.] m z b ~ ,.n.-X:Xb.d.` Q Q ",
"B B V I ) i.n.:X).a._ ,.d.d.[ Y U ( p.d.s.u.d.d.] ^ Z n n E [ T.$X-Xj.p.` p.J.a.' U U _ M.B.t.t.J.a.( A B B C / ,.v.:Xm.d.;.;.;.",
".. .} M 0 ` d.Q.).d.;.a.j.d.' I Q a.L.^.Z.s.s.,.] / ^ ^ S C / [ v.m.v.a.y.d.Z.p./ U ] V.!.^.d.d.p.,.! ! ~ } J C Q p.].m.i.t.y.g.",
"d.p.2.^ M U _ s.v.g.y.d.v.a./ U <.P.P.V.~.L.a._ ) >.a.a.#.T C ~ ,.d.g.i.i.d.Z.<.Q Q p.j.d.T.W.J.,.! _ <.N.4...C M ( a.v.i.y.g.(.",
"'.W.H.>.M m Q p.i.g.y.a.J.a.] ' V.d.` _ C.Y.4._ =.a.).W.M./ C C ' s.j.i.y.a.V.M.] =.a.d.` ` d.P.>._ ;.W.^.L.3.E M E =.d.i.y.d.P.",
"'.^.K.>.M b T M.j.g.p.>.3.3.>.a.C.M.( / 3.4.>.=.a.W.m.n.V.( M M ) a.j.d.<.[ >.<.<.y.N.<.Q / 3.a.,.=.a.OX'.W.p.Q N C >.j.d.a.a.4.",
"B.Z.j.<.E M / M.Q.v.3./ ( ] p.J.V.[ R C / ] ] >.C.J.v.l.V.,.U M ) V.~.d.] Q / >.h.j.N.] C C ' ] ] ,.V..XW.j.a.' M T >.L.J.p.] / ",
"( ,.g.d.>./ ' M.W.d.>.M M ( a.v.T.) C V T  .( @.3.3.,.p.J.N.' Q _ V.W.s.( M M ] K._.N./ C V ~ ( / ' >.<.<.a.d.p.' Q ,.W.j.<./ m ",
"C ( d.j.N.>.[ V.j.a.( b b ( d.`.Z.) T J J } } R / / / ] L.L.,.] ,.C.Z.,.~ b n #.L..XN./ J J J } { R ~ E Q ,.J.L.[ ` a.J.a.] R N ",
"B ~ F.L.V.p.p.s.a.[ ~ M M ..V.W.B.' J J P X.} C V C M ( H.L.N.,.M.N.4.' U m M #.L.L.4./ J K } } } B B C E #.C.L.p.;.a.C.3./ T V ",
"B S #.3.>.[ ,.,._ Q ~ } } ..,.,._ ( } X.o.} S C V C C ^ >.>.] 3.M.3./ U / /  ...3.4.#./ } X.| } S B J J C  .3.<.[ ,.N.3./ T  .%.",
"E ~ ~ / / ( #.' ^ ^ ..%.../ / / ~ ~  ...1...~ B J L } ~ / E ~ ..%.( E U ' %...} | ~ ~ ~ | ....} J B B ~ ~ ~  . ./ ( #.( U Q ] 4.",
"] ' / ~ C C ~ ~ ( 2.7.6...~ C V M C / 2.4.2.| B B X...#.( E C ~ ~ ( ( ] M.6. .V C n N E ( 3.4.#.} B M / @.@. .T T T ~ ( ' ,.3.3.",
"8.u.p.,.( C C ~ 2.F.U.6. .V C B N M / 4.Y.F.( M B | 4.C.a._ ~ C S / ,.N.G.3.~ m M m m U ] N.C.<.~ n M ] N.V.<.) U M T %.F.N.6.2.",
"k.z.Q.~.N.( E ^ 4.H.F.' ~ ~  .%...( ] N.C.4.( E ~ 2.L.OX_.V.>./ E ( a.H.3./ ~ / ' ] ( ' ,.V.V.,.~ C Q 4.~.{.W.a.) E T %.F.C.%.~ ",
"T.W.W.v.V.,.' ' <.,.' T / $.d.W.~.d.p.,.>.' / ( ,.a.v.v.v.d.V.,.! ] 4.,.Q U ( 4.J.v.d.a.p.,.>.( ( ( ,.P.j.v.~.P.p.` ! ] 3.3./ V ",
"F.M.,.,.V.V.p.p.` ) U U ] C.b.{.{.~.V.,./ U ~ ' N.d.d.;.` p.d.d.p.,.] ! 0 E 3.Y.].:X'.!.a.' ^ E ^ 2.H.P.p.,.<.p.d.d.p.,.] / U U ",
"| S }  .] B.^.T.p.u Q ] a.!.T.d.d.C.F.%.} C T @.3.3.@.T T / ` l.W.d.[ Q t ,.L.L.J.d.C.N.4.#.S C } 2.3.2. .T R @.a.j.(.a.' ( ] ,.",
"2 2 c J  .S.^.W.;._ ,.V.C.N.[ ) ) Q  .} L J L  . .} V k B T _ d.'.Z.[ ) ;.J.Z.p.] ) ' ( / ~ B J } | / T N k V ~ 3.L._.a._ ' t.j.",
"o & x L  .3.d.d.` ,.a.L.F.2.T M m m M B L L L K J B c c J ~ ( 4.C.V.,.` d.W.M.' T V C C C B J K } C V b j b C  .5.7.C.p.,.;.i.n.",
"@ < D ..} / _ ` ;.a.(.}.3.~ C R ~ / E S L P L K J J ~ | ..} ~  .] ,.p.d.n.l.[ U C T ~ ^ E ~ } } J C M T / / / / }  .] ;.a.d.k.z.",
"6 a -.>.C m T [ p.Q.+X(.] 0 E ] p.d.y.=.2.| J J / >.a.a.,./ C N  .3.d.n.&Xi.) 9 t =.y.y.;.,.@.~ J T / <.V.N.' T V C Q t.v.v.v.l.",
"f.h.h.a./ m T ] d.{.{.d.) Q ] V.~.oXb.g.C.2.T T ] a._.].d.>.^ M / ,.v.:Xn.t.Q Q ;.g.m.m.v.P.M.( C E >.L.OX.XM.' U I t y.m.[.T.p.",
"y.d.K.L.N.,.[ ;.z.n.d.` ) ` V.~.!.!.l.d.Z.p.' Q ' p.W.Q.v.d.a.=.i a.b.).a._ _ M.d.b.^.!.L.V.V.<.Q ! >.C.L.~.L.V.p.p p y.].'.p.Y ",
"q _ <.L.OXQ.l.k.z.z.` ) ` p.J.J.p.` ` t.p.a.p.` ] ] [ ,.a.W.).b.i.g.v.d.` ) <.C.W.Z.$.$.>.<.d.a.<.=.] >.>.3.P.W.m.z.i.g.v.d.] I ",
"% 1 ~ 3.^.&X#X%Xl.t.! ! ;.J.J.p./ U Q _ ` p.T.Z.<./ S C / N.n.$X@Xc.l.;.Q ] a.J.V.[  .{ E ) ;.y.g.j.2.~ T E ] P.m.-Xm.z.d.,.( T ",
"O $ z / N.`.#X#Xn.t.! >.p.P.p.! E E ) _ ` p.d.W.>.E B c B ( d.@X;X@Xl.` ) ` d.j.,./ V T ( [ ` u.Q.J.2.M N b M _ v.:X:Xm.i.` ' ( ",
"# , z C ..S.'.$Xn.i.f <.Z.B.' U E >.a.d.a.s.d.N.>.^ B B G V ' d.m.m.v.t.;.t.d.a.Q U Q >.Z.Z.y.a.N.4.( C B B M ~ ] W.&Xm.i.;.t.a.",
"r W E C {  .p.l.n.z.t.a.!.M./ I ] H.XX^.Q.j.p._ ) / ..+.X.V T ] d.Q.j.d.d.d.l.t.Q E ` J._.Q.j.d.<.] ( ( ..( T C U [ v.n.d.y.g.v.",
"9.:.,.( C C ) s.v.d.y.d.W.s.) Q N.P.N.a.v.v.t.i i ,.N.V.] U V } [ Z.d.d.d.V.T.p.Q ! a.J.a.a.W.J.,.) i y.j.a.( T m / t.g.d.d.g.v.",
"g.v.J.[ C M / <.j.d.y.a.l.s.[ ] V.a.) ) a.j.;.=.:.j.].Q.p.Q M C / V.d.d.V.p.a.p.] ,.N.V.) _ P.P.=._ y.b.+X(.<.~ m I ` d.a.a.a.d.",
"a.J.W.<.U b U 3.J.g.y.;.a.a.p.a.N.,.Q U ] ,.>.=.d.v.m.n.d.] B B ( V.v.d.3.' ] ,.p.a.V.>.U U #.3.>.,.j.{.{.W.a.Q V C [ V.d.p.;.=.",
"! a.W.d.( M / 3.j.j.a.=.,.<.a.d.a.] U M ^ ( ( 2.V.d.l.i.d.,.~ ~ ] V.v.d.' T ~ >.j.v.a.' M M / @.( ] N.K.P.L.a.] T T 3.Y.L.p.! 0 ",
"n >.j.W.M.Q Q [ j.j.<.W ^ ] a.j.V.] T C } X.}  .] [ _ ;.j.d.>.( =.d.v.a. .b m ] v.].N./ M C }  . .| %.#.] 3.P.V.' ( <.Y.Y.3./ m ",
"* 7 <.W.Y.>._ t.v.P.>.M M ( d.b.Y.#.C C L X.} { R U U ' j.K.N.>.p.d.d.[ R N M ] j.b.F./ C J } X.} } } { ~ 2.P.J.<.>.a.L.F.' T N ",
"o , *.U.U.<.p.s.j.a.~ b V @.W.].G.@.C J L |  .R { V C ( a.j.<.>.N.V.3./ R C T #.P.P.6.} J J T ~ T B B B T #.C.L.<.<.a.a.#.~ { { ",
"o = A 1.#.] p.d.d.<./ C { &.V.V.$./ ~ } | |  .~ { J J ~ ] =.] ] 4.3.( ~ /  . ...2.>...X.}  .( ^ C C J J T ( ] ,.' >.<.>.~ T  .5.",
"% 2 B B S ..M.d.t.` ] %.%.&.3.[  .~ / ] ] (  .~ J { { ~ E E ~  .%. .~ / >.3...} ~ ~ C } @.%.#.E M M J } } U U U ~  .( ( / / #.S.",
"8 W } } S ~ @.[ ` p.N.M.%./ / ^ M M Q <.F.3.( C C } %.3.' E C C { / ' 3.F.4./ C M n N T ' 4.F.>.E n C ..2.] / U T C E ( 2.4.M.3.",
"9.i.d.a.] E ~ / 3.C.C.3. .C E E S E ! M.L.V.] E C ( a.v.d.<.( E U / <.C.C.2.^ C C C C ~ ] N.P.F.^ C E 2.P.v.d.` / C U ( F.C.,.' ",
"n.m.`.^.C.( U / 3.F.3.Q E / ] >.>.] ] p.V.3.( E ( 3.v.m.].J.3./ E ' N.N.2.Q E ( 3.3.2.>.=.a.N.>.^ ~ ] N.W.{.].d.>.( ^ #.C.V.' 0 ",
"T.T.Z.Z.C.<.] ' %.%./ U Q ;.g.].b.d.d.M.] /  ...3.C.Z.d.d.d.V.<.) _ 3.#.~ U _ a.Q.)._.J.a.,.( | ~ ..p.Z.Z.Z.d.a.a.<.] ] >.] / M ",
"4.] _ [ V.C.d.p.3. .T E ,.W.m.m.].Q.C.3.T M ~ ..F.N.<._ ) [ V.L.d.p.] / U / p.^.{.{._.L.a.' E M ~ 2.C.V.3.' ] p.d.d.N.<.' Q / ( ",
"D Z C T _ d.b.b.3.' / >.N.L.L.N.M.F.4...C C } ..5.2.| M C / ,.Z._.d.>.Q ) p.V.W.a.p.M.F.3.( E M ~ %.5.+.P B C ' s.l.|.C._ Q ] V.",
"$ - v B / p.z.v.<.] <.C.C.3.' / U ^ ^ E L K ~ ~ ~ S B B B S ] V.Q.d.,.[ a.J.d.` Q Y T ~ ~ T C T T / } B H c N T [ d.^.B.[ _ a.v.",
"  $ n X.O.&.p.t.p f i.~.C.' T m M M M M J L T C B B B B S } ( 3.V.t.` ;.d.W.<.Q I M V V V V J } { C B B B B C  .] r.p.p.` t.i.z.",
"X : ^ ..} R ' ` f i.x.b.,.U T R ( ( / ~ } ~ C C C ~ ( ....~ T U ' ,.t.d.m.j.] I I /  ... .} } } J B S ^ ..1.| ~ U Y ) r.s.d.z.z.",
"w d <.2.~ V T [ d.m.:Xg.) I Q ,.d.v.V.M.3.( C M ( <.J.J.N.' I m ~ 3.W.{.{.d.( T ' p.J.J.C.4.] ^ S S ( N.P.L.3./ m C / p.b.x.v.i.",
"h.h.I.N.] U Y [ l.{.].y.) Q ,.W.`.{.^.Z.V.] ^ ^ ] V.'.'.Z.,.Q U / M.Q.{.b.t. . .p.W.{.].~.Y.N.] ~ ^ ,.XXOX|.V._ / U / M.m.m.d.;.",
"4.N.H.I.I.y.e.t.l.^.B._ ) <.d.W.W.s.s.Z.d.p.>.! _ ,.B.R.C.Z.P.t.` t.b.Q.p._ #.F.j.b.g.d.a.N.V.<.( ( ] a.Y.J.g.g.a.p.;.y.x.Q.3.~ ",
"7 W -.K.m.m.z.k.l.d.] / ,.d.v.Z.[ ) ) ` p.a.a.<.' /  .#.,.J.{.{.z.k.v.a._ ) ,.L.g.y.` ) _ ,.a.N.N.,.] / ' ] p.v.{.m.v.z.g.y.( C ",
"+ = 7 >.v.-X;X@Xv.t.Q Q t.j.V.>.U I Q ) _ N.J.L.7.} J B e ;.W.:X*X@Xj.` Q ' a.~.a._ U U Q ) ,.V.W.V.>.E B M ( a.{.:X-Xc.i.;.Q ~ ",
". @ 3 W ;.z.$X-Xx.y.) ] i.d.>.Q I / >.<.=.p.j.L.6.} H z 4 y ;.].;X$Xv.,.) ,.d.d.>.U U ( >.,.` s.v.d.#.C N N M Q d.m.>Xm.i.f _ >.",
"> ; 4 A Q [ W.{.b.i.;.p.i.y.' U Q >.P.g.y.y.y.p.' ~ L S 5 0 Q V.b.m.v.a.;.a.j.a./ U ) p.J.v.a.t.u.t.( E S S C T ) d.m.m.i.t.p.N.",
"s a W ^ T / [ Z.b.g.p.a.v.a./ U [ V.j.j.v.g.t.i ) ] 2.2./ U M ( V.W.v.i.y.d.j.<./ / ,.P.j.v.l.d.` _ ! ] >.2.} C I _ d.v.d.a.d.~.",
"y.a.<.] { V / p.W.j.p.a.j.a.' / V.V.p.p.J.K.<._ _ a.J.J.<./ J C ] d.d.i.a.a.j.<.' ] V.C.,.p.v.d.=._ ,.V.j.a.2.T M / p.d.d.t.d.j.",
"i.Q.L.3.{ V T ,.Z.j.p.p.j.a._ [ B.a.' ) a.J.<.,.<.J.n.`.V.' J B / p.i.i.y.a.d.;.] >.N.N.Q ) l.v.,.>.a._.{.v.7...N V ] d.d.u.i.d."
};
