/* XPM */
static char *cbe6976338fd4621f4daa65c0868f96cMuqBtzrk947VJP2h[] = {
/* columns rows colors chars-per-pixel */
"64 64 252 2 ",
"   c #020302",
".  c #0B0301",
"X  c #020B02",
"o  c #080A08",
"O  c #150301",
"+  c #1B0201",
"@  c #130B05",
"#  c #190E0A",
"$  c #05140C",
"%  c #0B130B",
"&  c #0B1B0C",
"*  c #061704",
"=  c #111D0C",
"-  c #18140B",
";  c #0C1B12",
":  c #091513",
">  c #141312",
",  c #1C1613",
"<  c #131B13",
"1  c #1B1B14",
"2  c #191A1A",
"3  c #140C11",
"4  c #230301",
"5  c #2B0102",
"6  c #290A07",
"7  c #3A0C09",
"8  c #27170C",
"9  c #370E11",
"0  c #221D1A",
"q  c #261B17",
"w  c #381714",
"e  c #311110",
"r  c #0C230A",
"t  c #13230A",
"y  c #0D2416",
"u  c #132313",
"i  c #182719",
"p  c #1A371A",
"a  c #28220C",
"s  c #24221C",
"d  c #2C231D",
"f  c #282819",
"g  c #36261B",
"h  c #26371D",
"j  c #162C23",
"k  c #1B3828",
"l  c #1D3B34",
"z  c #0F2723",
"x  c #2B2523",
"c  c #282826",
"v  c #342A24",
"b  c #362C27",
"n  c #263727",
"m  c #383628",
"M  c #273834",
"N  c #383737",
"B  c #2E2B31",
"V  c #291F27",
"C  c #460B08",
"Z  c #48140D",
"A  c #471615",
"S  c #5A1A18",
"D  c #56130B",
"F  c #631A14",
"G  c #681916",
"H  c #761C18",
"J  c #6A170E",
"K  c #4E241B",
"L  c #79211E",
"P  c #65221C",
"I  c #651D21",
"U  c #43382B",
"Y  c #463D35",
"T  c #53302C",
"R  c #792524",
"E  c #652C2B",
"W  c #25421B",
"Q  c #1D4437",
"!  c #1D4128",
"~  c #28462A",
"^  c #364A29",
"/  c #35582C",
"(  c #23453A",
")  c #2B4B3C",
"_  c #274936",
"`  c #344B37",
"'  c #2A5439",
"]  c #34593A",
"[  c #2F592D",
"{  c #31632D",
"}  c #3B643C",
"|  c #396738",
" . c #396E31",
".. c #45462E",
"X. c #4A4637",
"o. c #544938",
"O. c #48573B",
"+. c #48542E",
"@. c #6C4B3A",
"#. c #426C3B",
"$. c #46763C",
"%. c #1E4A43",
"&. c #274B43",
"*. c #364945",
"=. c #245444",
"-. c #2C5444",
";. c #2B5C45",
":. c #2C5C4B",
">. c #265748",
",. c #335C44",
"<. c #325D4A",
"1. c #385744",
"2. c #2C5C52",
"3. c #285651",
"4. c #335D53",
"5. c #355B52",
"6. c #2D6345",
"7. c #2E624B",
"8. c #2F6A46",
"9. c #336444",
"0. c #3B6442",
"q. c #346B45",
"w. c #3C6C44",
"e. c #33644C",
"r. c #3A644C",
"t. c #346B4C",
"y. c #3B6C4C",
"u. c #367146",
"i. c #3C7445",
"p. c #3C7A45",
"a. c #36724B",
"s. c #3C744C",
"d. c #3D7A4C",
"f. c #2E6255",
"g. c #346353",
"h. c #396553",
"j. c #356B52",
"k. c #3B6C53",
"l. c #37695B",
"z. c #3C7352",
"x. c #3E7A52",
"c. c #3D7459",
"v. c #3B7264",
"b. c #434546",
"n. c #475548",
"m. c #5B5948",
"M. c #544D46",
"N. c #685B48",
"B. c #725A4E",
"V. c #426C45",
"C. c #446947",
"Z. c #576647",
"A. c #437345",
"S. c #447B45",
"D. c #4B7D45",
"F. c #42744C",
"G. c #437C4C",
"H. c #4A7C4C",
"J. c #4A7547",
"K. c #557548",
"L. c #436B57",
"P. c #437453",
"I. c #447C53",
"U. c #4B7E55",
"Y. c #47795A",
"T. c #537358",
"R. c #776957",
"E. c #6B6950",
"W. c #4C7463",
"Q. c #7B6F63",
"!. c #851C1B",
"~. c #89231E",
"^. c #95271C",
"/. c #892824",
"(. c #9A2324",
"). c #942A24",
"_. c #9B2B24",
"`. c #972B29",
"'. c #92332C",
"]. c #A22828",
"[. c #92453A",
"{. c #90544D",
"}. c #856F5C",
"|. c #A9675A",
" X c #887A68",
".X c #947C68",
"XX c #8A7E71",
"oX c #AD786A",
"OX c #AB5C55",
"+X c #4F823F",
"@X c #3F834A",
"#X c #458246",
"$X c #4A8445",
"%X c #4B8A45",
"&X c #45834B",
"*X c #4A844C",
"=X c #4C8B4C",
"-X c #468A4A",
";X c #518D4C",
":X c #538749",
">X c #4D924B",
",X c #4C9442",
"<X c #539446",
"1X c #54944C",
"2X c #559A4D",
"3X c #5A9B4D",
"4X c #589848",
"5X c #458252",
"6X c #4B8452",
"7X c #4C8B52",
"8X c #4B845B",
"9X c #498958",
"0X c #518C53",
"qX c #538D5A",
"wX c #548757",
"eX c #4E9154",
"rX c #4E9558",
"tX c #549353",
"yX c #599553",
"uX c #549A53",
"iX c #5A9B53",
"pX c #58995A",
"aX c #629C59",
"sX c #5DA34C",
"dX c #5EA356",
"fX c #63A54A",
"gX c #63A556",
"hX c #528A62",
"jX c #649464",
"kX c #8D8273",
"lX c #978B78",
"zX c #92866D",
"xX c #A78A77",
"cX c #A6937D",
"vX c #B28874",
"bX c #C58A78",
"nX c #AB9B85",
"mX c #AF9091",
"MX c #B7A289",
"NX c #BBAC94",
"BX c #B7A991",
"VX c #BEB7A5",
"CX c #C99B9A",
"ZX c #C4AB95",
"AX c #C6B39A",
"SX c #C4A48A",
"DX c #CAB8A4",
"FX c #D4BBA8",
"GX c #DEA8A8",
"HX c #E2B2A7",
"JX c #D7C4AE",
"KX c #F3CAC0",
/* pixels */
"l.l.j.c.8XqX7X=X-X#X8X8XY.l.j.e.g.l.g.g.h.h.l.f.g.g.v.v.v.v.Y.8XqXpXiXdXdXrX9Xx.t.r.r.e.g.g.f.l.g.g.4.4.g.l.v.W.Y.8X9XtXyXiX=X#X",
"c.c.z.z.x.I.&X-X-X-X6XI.k.j.t.a.c.P.k.r.h.g.g.l.Y.c.-.) ) _ ' ' ] |  .$.pXpX9Xx.a.s.F.P.P.l.g.g.g.g.g.k.z.z.l.l.j.s.d.7XuXtX=X#X",
"=X=X&Xd.j.t.a.-X%X%XG.u.t.t.s.&X-X-X-Xi.t.e.:.c.8XC.h & & & < ; u = t W H.hXY.a.G.*X%X=X6Xs.k.5.4.g.s.6X=X#Xy.e.7.8.u.&XuX1X$X$.",
"3XiXtXG.t.6.u.&X1X>XG.q.q.a.#X>XuX2X>X-Xd.k.e.r.V.^ 8 4 4 4 6 4 6 4 4 a ^ ,.' ] H.pXuXuXtXI.L.<.<.g.G.tX2X;XF.9.6.6.8.@XtX>XS.| ",
"iXiXtX*Xd.u.p.=XiX1X#Xu.a.&X;X1X2X1X>X7X6XI.L.] p a Z F G G G G F G F S 8 = = h J.pXpXtXrX9XG.w.e.r.G.7X1X1X=XG.A.i.p.&XeX6Xy.] ",
"7X7X7X7X7X=X%X>X1X=X#Xp.5X0XtX;X$X#X#X7X6XF.1.n # 7 H )._._.`.`.).`.`.L C 5 4 a / F.G.d.&X&X#XG.F.F.d.G.#X*X0XyX1X<X%X-X6XI.9.' ",
"j.j.a.G.1X3X4X4X;X$X#X#X7X0X6XG.q.q.q.5X6X} n - Z H /._._._.]._.^.^._./.H J F Z a k -.t.u.p.*X;X7XI.z.e.8.a.*XiXfXfX4X>XG.y.;.=.",
"3.>.;.i.2XfXfX4X%X#X#X%X7X6XG.q.;.;.q.U.qX{ = + G `._.^.^.^.(.^.^.^.(.(.^._.'.S + $ l l.a.p.=X1XyX6Xt.=.%.>.G.1XfXfXfX4X$Xy.e.:.",
"2.>.=.q.%XgXfX3X2X%X%X=X7XG.q.6.;.t.I.hXqX/ @ 4 G '.`.).^.^._.^.^.^.(.(.(.].`.J 5 @ _ U.qX7X=X;X0XG.q.;.=.:.t.G.=X3XgXgX;XS.s.y.",
"c.j.8.q.S.=X1X4X2X2X;X=X6XG.q.9.u.I.8X6XV.^ a 7 D J G H ~._.`.).^.(.(.(.(.]._.H C 8 n C.6XqX6X*X*XG.i.a.t.t.e.6.a.$X3X3X1X=XH.F.",
"qX7X&Xi.u.a.-X1X4X2X0X6X&XG.s.i.&X7X5X} p a K S 7 5 5 C H '.).).`.(.(.(.^.^.^./.H A 8 p ] I.G.G.S.S.$XtXqXI.t.;.;.q.*X1X1X=XH.V.",
"pXpXtX&Xt.8.p.=X4X1X&Xd.d.G.*X=X=X=Xd._ * O A T K g g A S G G L /.`.(.(.^.~.^._.'.F + X k r.P.G.A.S.;XiXpXqXs.;.=.7.d.=X7X#XV.0.",
"1X1X2X=Xa.t.d.=XyX=Xa.6.q.G.;X1X>X#XL.M $ . 6 K @.}. X@.w 5 5 C L `._.(.~.).).).`.G 5 . k 5.L.P.F.G.*X1XtX6XF.9.;.e.d.9X6XP.r.-.",
"-X=X1X=XI.s.G.0XyX*Xt.;.q.G.;XyX7Xd.h.M : . . 8 @..X.XB.T w e 5 C J ~.`.).~.^.).).H C e c &.4.l.k.s.d.G.G.G.G.F.t.a.5X9XY.r.-.&.",
"d.5X7X7X5Xd.#X=X0XG.e.;.q.&X0XyX9Xx.h.M :   . # T @.E @.}.R.T 5 4 7 F /./.~.!.^.)./.R A , z -.l.l.g.t.t.t.z.I.I.s.G.*X6XI.9.>.&.",
"t.z.5X7X5XG.G.&X&Xd.6.;.q.G.6X0X5Xc.h.( :   . O Z E {.oXSXvX{.E T T P F G H ~.!.~.).'.S O $ Q f.l.2.2.:.:.j.I.I.G.G.6X6XP.9.;.>.",
"e.t.s.d.x.I.I.d.y.t.j.j.t.d.G.F.z.z.k.) :   . 4 S {.CXKXHXvX{.OXCXmXT 7 D L ~.!.!././.D + % ( g.4.3.2.2.2.j.k.z.s.d.I.I.z.t.9.9.",
"k.y.t.t.a.a.y.t.t.t.j.j.j.t.e.e.7.t.k.] ;   . 5 I |.GXKXHXoX[.OXGXmXU + C R /.H ~./.R D + % ) l.4.3.:.f.g.j.e.9.t.y.z.x.I.d.a.y.",
"I.d.a.t.t.e.t.r.r.z.k.j.g.2.3.3.>.j.I.} u   . 5 F [.|.bXSXvX[.[.|.{.e O C R R L L L R D + > *.L.4.:.:.j.z.z.t.7.e.e.e.z.I.I.F.w.",
"qX7X5Xd.e.:.e.y.P.I.P.e.:.2.3.3.>.j.U.| u   O 6 Z P '.|.vXvXOX[.[.@.T g A S F L H R R F 9 q M -.:.:.e.z.5X5Xd.9.7.:.7.z.U.6XF.9.",
"uXuXtX6Xt.;.e.z.U.U.F.9.e.e.t.t.e.P.6X} u O 6 7 5 K {.vXcXxXvXoXoXxX.XB.g 6 Z G G H L R I A , j _ e.a.5X0X0X$Xu.q.6.8.z.Y.Y.y.-.",
"2XuXtX6Xs.t.t.z.6XG.y.q.y.I.5X6X6X8X8X] u O 7 7 O g .XAXMXcXMXZXZXDXFXlXg O 7 S F F G L R S + % ~ y.6X7XtXtX=XS.s.a.t.z.P.L.<.' ",
"uXeX=X*X#XG.p.d.G.d.i.i.S.=X2X2XuXtX6X' = O 7 7 O x kXVXAXMXMXZXZXFXFXkXv O 7 S S F G L R S + * _ P.0X7X=X*X6X*X*X#XG.s.z.t.,.' ",
"5Xd.u.p.*X=X%X&Xd.a.d.-X=X2X2X2XuX7XI._ & O Z C 6 q N.lXNXAXAXAXDXBXlXm.q O 9 S S F F G G Z O & _ Y.wX5Xd.s.I.6X;X;X=X#XI.y.0.] ",
"4.2.:.t.$X3X1X-Xd.a.@XeX=X=X7X5X5X5XP._ & O 7 S A 9 w o.lXAXAXDXAXcXo.8 @ + 7 S F F F F G C O & _ Y.Y.k.j.:.t.G.%X1X1X;X6XG.A.A.",
"%.%.=.e.*X3X1X*Xa.s.5XeX5Xd.u.t.8.t.l.( % O 7 S I C 5 w @. X X X XN.b - . O Z P F F S S S 7 . $ _ k.l.:.>.>.e.d.-X1XtX>X=X#XD.D.",
"l ( -.l.I.0X*X#Xs.d.I.5Xx.t.:.>.;.:.f.Q % O 7 I P S 9 e q g g g g U M.M.0 . 9 S P F S F S 9 . $ ( 5.2.=.=.>.t.a.G.&X&X7X7X0X$X$X",
"_ ] r.L.z.s.F.G.G.G.d.a.j.7.<.e.r.y.t._ i - 6 A S S w e 8 8 8 8 8 o.kXkXY O 6 9 Z Z S S A e > z ( 5.g.e.t.t.t.e.t.t.a.&XtXtX=X$.",
"#.$.H.P.t.9.a.*X=X*XI.t.7.7.w.G.*X-X#Xw.] n # 4 A 9 4 8 o.B.E.N.N. XnXlXM.q O O + 9 A A e q k -.5.g.s.6X6XG.t.:.>.:.t.&XyXyX*XS.",
"<X1X0X6Xr.6.u.#XyX;XG.t.k.P.wXpXdXiX1X*XI.] i # e w g o..XnXnXnXMXMXnXXXm.b > 3 3 e 9 6 O < ) L.g.j.G.yXpX0Xd.e.:.7.q.&XtXtXG.| ",
"tXtXtX7XG.u.p.%X3X1XG.a.s.*XtXyXyXiX1X1X9Xd.] i @ d N.xXMXSXZXNXAXnXQ.M.X.N M B B 0 # .   y ] P.y.y.G.0XyXtX6XG.F.s.p.-XtX=Xu.[ ",
"S.#X*X6X5X&X%X<X2X1X0XA.| { { { {  .$XtXrXqX8X` % 0 N.nXZXAXAXNXnXQ.X.x x B N *.b.B 2 o   y ] U.I.s.u.i.G.*X6X7X0X=X%X%X=X#Xq.[ ",
"] ] e.a.6XtXiX2X2X3XyXV.p r r r r p $.0XtXpXqX} & X b R.nXDXDXcXR.U d 1 @ 1 B b.b.N B 2 o ; ,.wXwXF.w.r.,.r.z.I.=X1X3X4X;XH.V.9.",
"_ _ -.t.&XtXiXiX2X:X$./ h f f f f h ^ / { { } ` u X @ U Q.lXcXR.U q 1 < . @ 0 N N b.b.B o X k C.U.U.w.e.,.e.7.t.G.>X3X3X1X$XJ.A.",
"w.} 9.q.d.&XeX2X3X .p h m. XXX XXXm.h t r r i i i > , d Y M.M.m d 1 0 x 1 - > 2 N b.b.N 1 X X p } U.F.a.a.t.7.7.t.G.tX3X2X%X$XD.",
"0X*XG.u.q.u.-XtXiX{ * i  XFXFXDXDXlXo.f f 1     , x x s 0 0 q 0 s x c c x 1 o   2 c B N m m f h ~ ] G.7X7X5Xj.>.:.t.&X>X1X<X+X$.",
"pXtX=X#Xq.q.d.eXuX{ * f  XDXZXZXNXBXzX XXXm.2   > c c 0 0 , q 0 s x c x x 1       > % x m. XXXm.n p  .iXiX7Xt.-.3.g.d.=X1X%XD.$.",
"pXuX1X$Xu.q.s.7X1X .p n N. XR.}.cXNXZXAXDXXXv . > c c x x d q d 0 s V x c 1   X & &   1 R.AXFXQ.i * { gXgX=Xy.:.&.4.d.7X7X#XA.} ",
"9XeX1X%Xi.q.x.9X1X:XC.~ c f f U  XnXMXZXZX Xg . > c x v v b g g d q 0 x x , X & ~ ~ * u R.DXFX Xs * / aXpX%Xs.9.-.e.G.=X7Xd.9.,.",
"d.6XtX=Xs.q.d.6XtXtXU.1.i & * h o.R.R.R.R.o.- . o 2 2 d m X...U g d d d 0 % $ n J.A.! p X.kXnX.Xo.v ^ V.G.G.G.y.e.y.G.7X5Xy.;.&.",
"} F.0X0XG.u.p.=X1X;XP.;._ ] | [ h s s s s >         . a ..Z.Z.+.m b b d - o i ,.wX0XV.n s X. XcXlXE.n p ' I.6XG.F.s.#X7XI.e.>.&.",
"_ 0.H.7X5Xd.#X=X1X-Xt.6.y.qXpXD.p & $ $ $ : : : ; $   t +.K.K.O.....U q o : l L.7XqXU.~ X , R.AXJXkXc X k k.8X6XG.G.6X9Xc.7.>.&.",
"M ] L.5X&X-X%X;X1X#X8.6.s.qXpX:X0.~ Q Q Q ( ) &.) z X = / K.K.C.m.o.X.0   : _ Y.8X8XY.! X 1 R.FXJXkXc   k k.I.I.I.I.6X8Xz.e.<.-.",
"M ) <.z.&X%X%X=X*Xp.q.t.a.G.6X6XP.j.j.j.c.j.j.L.L.) & & ^ Z.Z.Z.O.X.Y x   $ _ P.z.z.k.Q y n N.lXzXN.c z ( h.z.a.z.z.I.I.z.y.y.y.",
") ) =.7.d.6X6X6XG.d.a.c.c.P.P.P.y.y.z.x.x.z.k.L.L.*.; $ m m.m.O.....U q . ; ) L.j.:.7.e.,.` n f f n M *.e.9.9.6.e.e.t.d.G.G.F.A.",
"C.w.t.t.t.s.P.I.G.I.z.j.j.e.e.-.;.6.d.5Xd.x.z.r.1.k X   i m m m ^ ..U d - 1 n -.;.=.>.l.Y.C.n * X u &.Y.Y.s.q.;.:.:.6.a.I.6XF.w.",
"<X1X0XI.t.e.r.P.G.&Xs.e.e.e.e.:.-.e.G.7X6XU.L.1.j $     o o % s ..o.X.m g s < j ( :.7.t.I.F.,.~ k ( ,.I.7X=XI.k.<.:.7.z.5X5Xy.9.",
"fXdXyX7Xk.<.e.F.6XG.t.6.9.w.s.P.s.I.G.&X6XP.] k u y y y 2 2 i f X.M.X.Y Y a X & ' I.I.d.G.G.P.k.e.k.d.&XtXtX6XI.k.e.8.a.I.F.e.' ",
"pXuXeX*XG.s.s.s.G.d.a.u.G.;X1XiXyX=X&Xd.k.' i i M 1.1.1.1.1.n.n.n.X.Y Y Y a X r | aXpX=X&XG.k.k.z.x.6X7X7X7X6X6X#XG.s.a.s.y.,.) ",
"5Xd.i.d.*X0X6XG.s.d.d.#X;XiXiXdXyX7XI.z.e.k $ ; 1.W.W.T.T.T.T.T.b.N b v v -   r $.gXgXtX6XF.l.l.a.I.6X&Xd.s.G.*X;X=X=XG.s.w.,.1.",
"g.:.6.q.=XiXtX=Xd.d.-X>X>X>X7X6X8XI.k.j.g.l $ : *.W.L.n.n.n.n.n.b.B , @ @ .   y } wXqX6XI.z.h.g.k.P.Y.z.e.7.y.G.=XtXuXeX-Xi.w.V.",
"&.&.=.q.$X2X1X=Xp.d.-X>X-Xp.q.e.e.e.g.g.l.( : : M n.*.M c i s c B s > . . .   $ n ' ' ' ' ' ) -.<.h.g.;.>.>.e.s.#X7XtXeX=X$XH.H.",
"k l ' w.G.0X*XG.i.i.&X5Xd.8.6.;.;.;.-.e.h._ : o B b.N i % X   $ % > 2 , 0 -     $ ; < ; & & ; j &.4.5.>.=.=.e.s.I.&X&X-X=X=X*XH.",
") 1.w.F.G.p.G.G.G.G.G.G.q.8.e.t.t.t.j.r.) j < 2 c b s > u u u $     , c v 0 3 o           X   $ l 4.4.e.e.r.y.s.d.d.p.@X=X0XH.A.",
"J.H.wX*XG.i.d.&X7X*XG.s.d.I.5X5X5X8X8X0.p r n N m 1 @ = ~ C.#.~ * X > c c c 2 2 > > 3 - - @   $ ( h.P.P.U.6X$XS.S.p.p.#X7X6XF.0.",
"6X6X0X7X6X&X-X=XtX0XG.i.G.7XeXeXrX5XV.~ u p O.n.m @   t #.jXaXS.W t % < i c c c c v b v d -   ; _ P.U.I.6X*X;X;X=X%X-X-X=XG.0.' ",
"9.y.G.6XtX2X<X,X1X=X$XD.$X;X7X5XI.,.k i n O.Z.Z.m -   = } aXgXaXD.^ r X < x x b m m U b d -   y [ 6XI.a.u.i.=X1X3X3X2X=X$Xs.,.) ",
"Q _ 9.G.tXdXsX4X<X%X$X$X%X=X&Xx.t.l X * m Z.Z.O.m -   ; ' 6XiXdXaX$.W * % > - , q v U U v >   y | 0Xc.;.' 6.G.1XaXfXsX1X*Xi.,.-.",
"M ( -.k.tXfXfX4X<X%X%X=X=X*Xz.l.e.M o . s m m m x > o : ~ a.7XpXgX1X#.h * X   . @ q b U b >   i 0.hXY.>.=.>.y.6XyXdXgXsX%Xi.w.0.",
") ) -.y.*X3XsX3X4X<X<X1X7XI.k.l.L.) >   @ - - - > o   $ Q t.I.9X>XiXyX| h u t i < 1 0 0 0 o   u ] 8XY.g.2.g.g.s.&X1XdXsX2X$XJ.A.",
"#.0.r.y.G.=X2X4X4X4X<X>X7Xx.j.z.U.] t                 $ _ h.k.x.eXiXyX:Xw.} } 0.1.n ; $ o     = ] Y.Y.P.L.k.h.e.y.&X2XsX3X;X$XD.",
"D.D.F.s.w.u.#X=X2X<X1X=X*Xd.t.P.wX#.h r ; & % = = r u k ' e.e.t.*X;X;X;X6X0XqXqXU.] p & $ % = p ] V.J.H.U.P.h.;.;.w.$X2X1X;XD.$.",
"$X$XG.y.9.9.y.H.$X$X$X$XS.w.q.s.$XS.] [ ' ' ^ ^ / / | } 0.e.-.1.w.D.D.D.H.H.*X*XD.#.| ~ ~ _ _ ] ] } $.:X:XH.e.-.=.;.u.G.*XD.$.#.",
"%X$XH.y.<.-.9.V.S.S.D.$.#.| | i.S.H.J.J.U.H.J.J.:XyXyX6XF.,.&.) } A.$.| V.i. . . .S.:XK.C.r.P.P.w.| #.:X:XD.e.&.Q =.9.i.G.A.#.| "
};
