/* XPM */
static char *_4on_door1738162250[] = {
/* columns rows colors chars-per-pixel */
"64 64 256 2 ",
"   c #030400",
".  c #0D0401",
"X  c #030B01",
"o  c #0D0B03",
"O  c #0C0C0B",
"+  c #130401",
"@  c #1A0402",
"#  c #140B03",
"$  c #1C0B04",
"%  c #140C0A",
"&  c #1C0C0B",
"*  c #12030A",
"=  c #0A150A",
"-  c #1B120C",
";  c #141408",
":  c #0D1711",
">  c #191915",
",  c #110E11",
"<  c #230302",
"1  c #2C0503",
"2  c #240B05",
"3  c #2B0C03",
"4  c #230D0A",
"5  c #2A0D0A",
"6  c #250508",
"7  c #320C06",
"8  c #370C08",
"9  c #23130B",
"0  c #2B130C",
"q  c #271508",
"w  c #34140B",
"e  c #3A140C",
"r  c #3C190D",
"t  c #361508",
"y  c #2B1512",
"u  c #241A14",
"i  c #2C1B13",
"p  c #261816",
"a  c #331512",
"s  c #3A1512",
"d  c #341B14",
"f  c #3C1C14",
"g  c #3C1C19",
"h  c #361F1A",
"j  c #270C13",
"k  c #0D2212",
"l  c #142315",
"z  c #1A2B1C",
"x  c #192617",
"c  c #192B15",
"v  c #2C221C",
"b  c #252718",
"n  c #3A2215",
"m  c #34231B",
"M  c #39241A",
"N  c #203A1F",
"B  c #1E2623",
"V  c #1E3323",
"C  c #222C23",
"Z  c #2C2A24",
"A  c #292727",
"S  c #372926",
"D  c #2C342C",
"F  c #273629",
"G  c #3B322C",
"H  c #36352C",
"J  c #2E3833",
"K  c #3A3A34",
"L  c #363936",
"P  c #382F31",
"I  c #321B25",
"U  c #460D07",
"Y  c #44140B",
"T  c #431B0D",
"R  c #49160A",
"E  c #55160D",
"W  c #431C13",
"Q  c #4B1B13",
"!  c #471917",
"~  c #581B16",
"^  c #4F0F0A",
"/  c #631C18",
"(  c #661A0D",
")  c #42221B",
"_  c #4C241B",
"`  c #482617",
"'  c #572518",
"]  c #492916",
"[  c #64261C",
"{  c #7B2417",
"}  c #4B2B24",
"|  c #462824",
" . c #5C2B24",
".. c #552C27",
"X. c #43352C",
"o. c #493529",
"O. c #573629",
"+. c #463B35",
"@. c #583E35",
"#. c #592F30",
"$. c #672925",
"%. c #762A26",
"&. c #673428",
"*. c #74352A",
"=. c #753933",
"-. c #693B33",
";. c #4E1F21",
":. c #1F532D",
">. c #27482B",
",. c #28552B",
"<. c #2C4735",
"1. c #3C453C",
"2. c #364938",
"3. c #2A5735",
"4. c #365639",
"5. c #2C6636",
"6. c #37683A",
"7. c #38733D",
"8. c #2A6830",
"9. c #43433E",
"0. c #47463A",
"q. c #574539",
"w. c #42583C",
"e. c #5D4B37",
"r. c #65513D",
"t. c #684638",
"y. c #456D3C",
"u. c #413F42",
"i. c #3D4642",
"p. c #3B5C42",
"a. c #395B46",
"s. c #2A5A40",
"d. c #3C6444",
"f. c #3B6B44",
"g. c #3B654A",
"h. c #3D6C4B",
"j. c #356345",
"k. c #3A7745",
"l. c #2F6541",
"z. c #424542",
"x. c #444B44",
"c. c #4C4D4C",
"v. c #4A4745",
"b. c #554A48",
"n. c #475848",
"m. c #565449",
"M. c #4C5952",
"N. c #545C54",
"B. c #585857",
"V. c #534D52",
"C. c #674D44",
"Z. c #675647",
"A. c #785446",
"S. c #685B57",
"D. c #775850",
"F. c #43644C",
"G. c #446C4B",
"H. c #4B6C4D",
"J. c #466646",
"K. c #52664B",
"L. c #447344",
"P. c #4B734B",
"I. c #47784A",
"U. c #55784C",
"Y. c #496953",
"T. c #536453",
"R. c #536B53",
"E. c #5B635D",
"W. c #55685A",
"Q. c #4B7354",
"!. c #4A7855",
"~. c #537354",
"^. c #557C54",
"/. c #52735C",
"(. c #5A795A",
"). c #64655D",
"_. c #776559",
"`. c #617D5B",
"'. c #5B5F61",
"]. c #625E61",
"[. c #5D6763",
"{. c #5B7864",
"}. c #6B6D6B",
"|. c #666966",
" X c #786C69",
".X c #627C64",
"XX c #6B7D6C",
"oX c #667668",
"OX c #77716C",
"+X c #6B7872",
"@X c #737472",
"#X c #737B74",
"$X c #7C7D7B",
"%X c #787977",
"&X c #862D29",
"*X c #8A312B",
"=X c #833432",
"-X c #93312B",
";X c #842A1E",
":X c #835A4C",
">X c #876758",
",X c #956759",
"<X c #867669",
"1X c #887B79",
"2X c #967D73",
"3X c #937266",
"4X c #A2796A",
"5X c #3D824E",
"6X c #4A844A",
"7X c #4B8452",
"8X c #4A8758",
"9X c #5C835D",
"0X c #5B8C5D",
"qX c #548858",
"wX c #569458",
"eX c #52894E",
"rX c #65845C",
"tX c #5A8664",
"yX c #5A9665",
"uX c #4C8B60",
"iX c #63836B",
"pX c #668868",
"aX c #649467",
"sX c #6C8A72",
"dX c #698673",
"fX c #768779",
"gX c #6B9576",
"hX c #74947C",
"jX c #749878",
"kX c #70816F",
"lX c #65A168",
"zX c #77A076",
"xX c #86847C",
"cX c #998578",
"vX c #95816D",
"bX c #A98679",
"nX c #B48B7D",
"mX c #7E7F81",
"MX c #7B8983",
"NX c #7B9684",
"BX c #7DA282",
"VX c #868884",
"CX c #86968B",
"ZX c #8C9895",
"AX c #959895",
"SX c #968F8A",
"DX c #A59588",
"FX c #AE958B",
"GX c #84A48B",
"HX c #94A299",
"JX c #B7A494",
"KX c #AEADAB",
"LX c #95A3A3",
"PX c #C39C90",
"IX c #C5A89B",
"UX c #CDB6A9",
/* pixels */
"5.8.7.5X5XuXuXuXk.uX8XuXQ.h.d.j.h.f.p.p.g.g.M.a.a.a.g.g.g.g.Y./././.rXaXpXaXuXk.l.l.l.l.j.l.g.h.g.j.j.s.6.6.k.I.I.7X7XwXyXyXuX5X",
"5X5X5X5X5X5X5XuX!.uX!.!.h.f.f.f.G.Q.G.h.F.a.g.g.!./././././././.{.iXpXsXgXaXtX!.!.8Xk.!.h.g.g.g.g.j.h.h.L.L.f.7.7.k.I.8XyXyXuX5X",
"5X5X5X5X7.7.k.5XuX8X7Xk.5.6.L.!.tX^.!.Y.F.a.a.Y.!.MXMXtXtX{.{.+XdXsXgXhXjXpXtXtXgXgXdXtX/.h.g.g.j.g.!.!.qX!.k.8.8.8.7.7XyXyX8Xk.",
"lXuX5X5Xk.8.k.6X8X8Xk.f.6.L.6XqXyXtXaXtXY.n.a.W.{.MXNXNXMXMXmX+XdXhXhXhXgXiX(.iXgXgXdXdXMXuXY.s.s.g./.uXyX0XI.8.8.8.7.6XuXuXk.k.",
"lXlXqX8Xk.k.5X6XwXwXy.7.L.7XqX0X0XaXhXsX[.g.a.M.Y.mXMXNXMXMXmX@XXXXXXXiXoX.X{.(.{.W.W.{.MXNX/.a.j.g.!.{.uXyX7X5X7.7.7.6X8X6X7.8.",
"uXuX8X8X7X6X6XwXwXeX6X7.6XeX0XyXaXjXNXsXY.J J i.s.mXNXZXMXmXZXVXVX#X#X#X#XfXfXOXY.i.2.Y.MXBXNXiX/.Y.!.h.!.8XuXwXwXwX6XeXeX5X8.:.",
"h.j.k.k.8XwXwXwXeX6X6X6X6XqX0XiX{.sXNX{.i.B B i.'.MXNXZXmXmXSXFXAXxX1XxXxXSXAXxX[.i.J a.{.NXZXCXdX{.h.a.5.k.7XyXlXwXlXeX6Xy.8.,.",
"s.5.3.k.wXlXlXwXeX6XI.eXaXaX9XH.a.a.M.c.J D J i.'.MXMXmX'.V. X1X<X_.S. XOXVXSXSX+X[.'.Y.M.[.+XNXNXtXg.s.>.3.k.qXlXlXlXeX6X7.8.,.",
"5.8.,.7.eXlXlXwXeX6XeXaXzXjXP.>.V : l F z.c.V.V.].].S.b.} | ..O.} | | #.#.S. XVXSXSXVX}.1.x J W.fXfXR.3.,.3.f.I.wXlXaXaXeXL.y.y.",
"L.7.5.6.6XwXeXwXwXwXrXpXrX~.>.l : > B J i.V.S.V.b.X.| ! ! ! Y Y ^ s ! I I +.S.1XAXKXLX}.K x A x.XXsXXX(.R.f.f.6.5X6XyXaXqX6XI.I.",
"tXqXI.7.7.y.I.eXwXaXrXU.4.c ; k J B.|.V.D A u.b.} s U ! [ $.[ ( / $.$.;.! ;.C.1XJXAX1X).N.N.N.E.T.oXVXCXhX/.d.3.8.6.qX0X9XeXI.L.",
"aXaXwX6X6.6.I.aXzXlXU.>.X   = D B.%XZXmXV.A | | ! ^ ~ %.%.=X*X*X=.=X=.$.#.#.-._.<X Xm.v.|.xXVX@XN.N.(.oXW.F.p.4.3.6.P.9XtX!.G.6.",
"0XyX0XI.6.6.qXjXGXsX3.= X : L M.].}.@X1X1X].;.8 ! $.%.&X-X-X-X*X=X=X&X%.#.#.! I S S P 9.B.@XxX+XN.1.F C z N 2.n.h.!./.tX9X!.l.3.",
"6XqX0XqXI.!.sXjXsXW.<.J J L u.c.].S.V.V.1XS.;.8 / =X-X-X-X-X;X;X%.%./ %.=.$.U 6 @ * j S L m.}.oX[.1.A B C J a.R.{.dXdXuX/.h.3.:.",
"L.7XqXtX^.tXgXiX4.2.[.MXmXM.A D V.V.P I ;.;.! ~ { -X-X-X;X;X{ { / ^ ^ / $.#.;.8 < + & % , Z V.[.N.M.W.[.%X+X{.+XMXNXdX/.h.j.s.:.",
"6.k.!.9X9XtXiXF.V <.+XKXKXmXu.P u.+.y * 6 6 ! %.&X-X-X;X;X( ( ( / ^ ( ^ ~ $.;.! 7 6 @ .   , Z z.i.V.#XZXLXZXMXMXNXNXMX/.Y.a.s.s.",
"5.7.f.!.pX~.4.F <.M.{.MXAXAX%XV.| 4 6 < < U ~ %.=X-X&X;X( ^ R ' *.*.$.~ ~ '  .! w @ $ & .   * > A u.S.MXAXCXxXfXCXhXiXY.G.h.j.j.",
"k.f.f.Q.^.p.z k 1.N.[.|.@X1X@XC.S 5 6 8 U ~ %.=X&X&X%.[ ~ E ' &.A.:XA.=. .~ _ T 3 2 4 9 % . . . - S V. XxXxX#XXX$XfXsX.X/.h.h.h.",
"!.k.h.Q./.4.k = C n.B.B.b.+.+.| ..! ! Y ~ / %.%.%./ E E &.r.,X>X:X,X,X,X-.Q e 7 < 5 0 p 4 & * . % A b. X1X$XoXE.E.oXfXjXiX!.h.h.",
"uXtX{.tXiXF.N X ; 1.B.B.P @ < s &.-.$.^ ^ / %.%.{ ^ 8 U t.4XnXvXA.,XnXnX:X` 7 1 3 5 5 5 y y 4 @ @ p b.@X$XOX|.n.2.M.kXGXNXtX!.j.",
"tXyXNXNXsX{.J l x K c.+.h @ < Y -.=.$.E ^ ~ %.%.[ U 1 Y A.nXPXbX:X,XPXPX>X_ 7 7 s s 5 5 j s 6 @ * y v.S.}.|.N.9.D 2.(.xXBXgXQ.3.",
"MXNXBXNXXXM.x.i.i.K G S M s 8 Q  .&.~ E ~ / $.$.' R Q &.3XnXnXbX,X4XnXnXA.W 8 r W s 8 1 a s j 6 @ j S +.v.b.c.0.1.1.n.oXMXdXF.>.",
"uXNXBXdXi.F n.|.|.v.A y ) _ Y Q ' ~ Q E ~ / ~ ~ R ' r.3XbXnXnXnXbXbX4X:XO.r r ) ! s 1 1 a s a a j 4 4 u Z L z.N.}.E.K.n.M.n.a.<.",
"/.tXNX/.k : c.fX%Xb.p @ ) #.Q R Q T Y ^ / $.~ U Y -.4XPXIXJXPXPXPXnX,X-.Y 8 W ! ! 8 1 8 s ! s g d j * + p P v.}.xXfXW.0.H 2.4.n.",
"s.Y.dXW.k : i.#X}.v.- 4 ) ..Q Y Q Q U U / $.! 8 U @.2XIXUXUXIXUXIXnXD.' t 8 Q ' ! 8 1 1 ! g f s a 5 + . p K V.@XSXxX).0.2.2.w.R.",
"J s.W.Y.J V 1.N.[.v.p j S ..Q Y Q R U U ~ $.~ ^ 8 ..>XFXnXJXJXJXIXvXr.T t Y ! ;.! 8 1 a s s s a a 4 + % Z 9.N.}.VXxX|.0.K 0.m.oX",
"z >.a.Y.W.i.D i.V.z.p & | ..R Y T Y U U ~  .;.Y e f @._.vXvXvXvX<XZ.o.t Y !  .;.! a 1 w g g f e y & # & Z v.B.}.$X@XS.9.K w.R.oX",
">.,.n.(.+XW.B : J P > j } O.T U R Y U Y ~ / ! ! g | @.b.r.w.e.e.r.e.q.] ! ! ! ;.! e 5 5 a d d d a 4 + % Z c.|.#X}.m.L A H 0.T.`.",
"L.G.H.{.fXW.B   O , . p o.#.Q t Y R 8 U ' Q s e | b._._.e.o.0.q.r.S.S.q.g 5 ! ;.;.a 1 3 w d f f d 4 . % H [.%X%XV.Z = : b 4.Y.{.",
"0XtXpXpX(.2.l O , , * j } O.Q Y ] T U 8 _ W 1 3 | D.xXcXOXS.S._.OX2X<XC.d @ 5 g g w < 6 a d f d d - . # A x.B.c.A : , C 2.n.F.Y.",
"tXgXBXpX2.: = B L L , 4 | ..T R ' ' R t Y e < 5 S Z.OXcXbXDXDXDXDXvX_.b.h 2 4 a 5 5 < 5 s d f d i 9 + . , B D l : : L [.{./.g.s.",
"P.pXjX{.V X : i.'.c.p 4 | ..Y R ' [ ' Y w 3 5 i S +.b. XHXUXUXKXSX_.q.S v p y 4 6 < 1 w f g f a y 9 + o , B A > , C N.fXdX{.h.4.",
"4.P.sXW.k = D E.|.v.u 2 | #.Q R ' [  .T 3 3 v S S v A +.@XFXKXSX).G p A Z S u - 9 5 3 w s s W s a & + % A c.[.c.D D T.fXkX{.G.l.",
">.F..XY.c ; 9.|.|.z.> 4 | ..R Q [ *.&.` 3 $ q v p % . u v._. XS.G - o - Z Z - # q i t e e W r s y 2 + , H |.MX@Xu.L N.XXiX(.!.h.",
"p./.sXR.z : x.}.}.9.> 4 |  .Q ^ ~ *.&.] q 2 q - , # % j v G X.G A > . O x > # + 4 w t t W W e e a 9 + % A B.%X}.u.L N.kXsX{.{.k.",
"tXsXjXR.z z E.%XE.Z * 6 } ..Q R ' [ [ ] n d v b % o 9 p p p u i p p % O - u u u q 0 t r W W e 8 0 & + # v c.}.E.L J N.kXfXtXuX!.",
"iXhXGXW.z D $XAXM.;   & ....Q R ' [ ' ] O.q.q.H u . - u b b i b i > % ; v +.q.+.M 3 t ) f T r t w 4 + * A V.|.B.H D m..XsX(.!.!.",
"pXhXGX{.x C }.AX@XL & 4 }  .Y Y E [ ] ] e._.<XZ.m # # u M o.o.X.S 9 # > H ).<XS.M < 3 r T W W e d 9 + . > K V.z.F H K.kXiX^.h.f.",
"rXjXCXXXV = +.VXHX%XG & ) O.Y U ' ' ] ] r.vXcX Xm + # d ] 0.e.O.X.9 + q +.OXDX2Xo.3 3 r W ` W r d 0 + . o > L P C D T.oX.XH.f.5.",
"R.sXCXoXC   A @XKXAX+.# n ..T Y R ] ] t.<XcXcXZ.S + # M 0.e.e.e.o.d $ y o.>XSX2Xr.f 3 t r W W ) f y $ + . > A x l Z T.XX`.G.3.,.",
"w..XxXiXF X Z @XAX%XS $ h ..] t T ] ] A.bXcX_.0.m v q n q.r.r.e.o.n q q n r.3XbX<Xt.r 3 t f W n h j $ % p P K A ; z M..X(.J.3.>.",
"<.R.fX|.F ; L %XLXmXP & n ..T U T ] e.>XJXcXe.q M M q n q.r.r.&.} ] n t q o._.bXFX_.] 3 7 f W f f 5 $ & I v.V.P O x m.XX(.w.4.,.",
"N K.kX`.b O L VXKXLX+.+ M } T t T ] t.3XIXDXq.q M M i n o.e.r.e.o.n n t q } >XFXJX3X} 3 3 f W d h 5 & 4 A b.V.u.> C n.XX(.F.4.4.",
"N w.kXW.V O P $XKXAX+.@ g ..T t T ] O._.bX3Xq.d v m n M q.e.r.e.O.] n q w } D.vX2XZ.] 3 w W ) h g 0 @ & I v.].B.v.x.N.(.W.H.F.g.",
">.F.XXT.B = P }.mX'.I & ) O.Q t ` ] _ e.D.C.| y y h M | q.Z.r.e.q.n n q i ] @.C.r.O.r q t ) ) W h y @ & I v.].}.#X}.[.N.M.Y.Y.Y.",
"J.(.sXT.z > z.|.'.P , & |  .Q R ]  .' _ } | g 5 4 i S X.0.e.q.q.0.o.m q m S | | ) d q t r ) W f f 5 @ & P V.].@X@X+X[.M.M.Y.F.T.",
"(.jXBX{.B l c.].V.A % 4 }  .Q R ' ' ' _ } ) a 5 6 p G +.0.o.X.+.0.H n m m S g a 0 0 w n ` W f a a 5 @ & P V.].].c.c.B.oX{.[.M.a.",
"gXBXGX{.V , J v.L > * j .. .R R ' &.&. . .! a 4 & y G +.G m A S 0.M Z m S M h d w w w d W n e w w 4 @ @ j u.V.L > B M.MXMX{.M.<.",
"pXNXBX{.V X , > > , , j #.#.^ ^ ' &.&.&.' ] t 2 & m K +.A % % p S K Z v h S M d d w t f n r t t 0 5 @ * , p A > , B M.MXNXMXM.<.",
"Q.tXNX{.B   : A u.I j j ;.#.~ ^ ( [ &.&.&.] 0 2 i G K P > .   O b K G m i h g d a w r n W n r d a 5 @ + - p D A J u.M.mXMXmX[.M.",
"4./.dXY.B : u. XmXV.I j !  .^ ^ ( &.*.&.&.Q 3 3 m X.X.A >     o v H +.G m 9 d d t w t r ) r r r a 3 + $ i v.B.|.|.|.}.[.[.{.MXNX",
"g./.{.n.A I ].LXKXmXI j !  .E ^ ' { *.*.&.T 3 3 M +.X.v - # . # - S 0.X.d 9 0 w w t r r ` T T t w 2 @ & P B.#XVXmXmXmX[.[.+XLXLX",
"MX{.g.L L M.mXAXKX1XS 3 }  .E U E &.*.t.&.Q 3 3 | 0.G i i ; # # ; n 0.o.h q w w w t T W T T t t w 2 @ $ S m.|.@X+X+X@X#XMXMXCXHX",
"LX{.J B i.|.1XVXSXS.S 2 !  .R R ( &.*.*.' ` t n o.+.G v b i - $ $ b X.q.o.M a w 7 t r T T r r t 0 2 # $ Z x.N.E.|.}.@X#X+X+X#XdX",
"LX[.B > c.}.@X X Xb.i 2 ]  .Q R [ *.=.&._ r n o.e.q.S i n i q # # u X.e.q.o.d 5 3 w r f W T r t w 2 # # Z 1.V.|.mXmX+XB.M.M.N.[.",
"ZX'.B B c.}.}.}.S.+.- q M } ] ] &.t.t.O.f w n @.q.0.S i b n m q # u G 0.q.X.d < 5 w f n n ) f d i $ + $ Z 9.N.#XCXMX}.x.L L i.n.",
"ZX'.B l v.}.OX).].+.; ; | o.n r O.e.r.q.t q d S K m u - u m m 9 # - v G X.m 9 # q d d d n n d d i $ o ; C i.[.dXMXmX[.i.J L 1.i.",
"ZX'.B : D x.c.x.u.A o o b b q q b o.] n $ # # ; u - # # $ u - # . X # > > # . + $ - 9 - 9 9 9 9 $ # X X > C 2.M.'.M.1.F L 2.4.x.",
"MX[.B X , l x > > = X X = ; = = q q q ; o o X o X   . X o o # .   X X X o       o # # + + ; # o = o X X = : k B l k : k K w.n.n.",
"MX[.J k k l k l z V N c c c c c b c c b c b c - l x x x x l > > c z c x c x z b c b b b b b b z c c k c z k k k k k z F w.K.R.R.",
"{.~.n.,.2.4.4.J.H.R.~.G.y.4.<.4.w.e.y.K.r.w.w.w.w.w.w.0.2.2.2.4.K.R.n.w.n.K.K.J.4.w.n.K.R.K.n.w.4.4.4.p.j.4.3.F <.4.K.R.(.(.(.(.",
"^.!.P.H.P.R.(.pXpXsXaXpXU.P.K.y.U.rXrXrXrX`.U.S.U.`.(.~.H.n.n.Y.9XrXrX(.(.rXpXrXR.R.rXpXpX.X`.(.R.H.Q./.{./.F.p.p.H.`.pXpXrXU.U.",
"U.U.U.L.y.6.P.^.9X9X9X^.P.G.J.I.eXeXU.U.eXeXy.U.U.(.(.(.Q.p.4.6.P.eXeX^.^.U.^.^.U.~.^.^.~.H.~.Q.G.G.!.tX{.!.f.4.4.4.^.rX(.U.P.y.",
"6X6XU.7.6.,.6.L.I.I.P.L.G.y.6.L.U.U.y.y.y.y.y.y.U.U.^.~.G.6.<.>.4.P.L.U.L.y.y.L.y.P.H.y.8.4.6.G.6.j.!.9XuXG.6.<.,.,.4.y.P.y.y.6."
};
