/* XPM */
static char *_4opened_door1738162115[] = {
/* columns rows colors chars-per-pixel */
"64 64 240 2 ",
"   c #010101",
".  c #0A0403",
"X  c #020B01",
"o  c #0B0608",
"O  c #0C0B0B",
"+  c #080907",
"@  c #120E0E",
"#  c #100D06",
"$  c #0B140C",
"%  c #0B1A0D",
"&  c #061205",
"*  c #12120D",
"=  c #101405",
"-  c #0E0E12",
";  c #140E12",
":  c #0E1212",
">  c #0E1B11",
",  c #141312",
"<  c #1A1414",
"1  c #131C12",
"2  c #1C1B1A",
"3  c #181A18",
"4  c #211C1B",
"5  c #0E210E",
"6  c #142314",
"7  c #152A15",
"8  c #1C241D",
"9  c #1B2A1B",
"0  c #192716",
"q  c #1B331C",
"w  c #112211",
"e  c #21271D",
"r  c #23311C",
"t  c #1E1D21",
"y  c #1D2822",
"u  c #1C3723",
"i  c #242322",
"p  c #2A2525",
"a  c #232D24",
"s  c #2D2C2B",
"d  c #282829",
"f  c #332C2C",
"g  c #30272A",
"h  c #2C332B",
"j  c #273628",
"k  c #32322D",
"l  c #353B2F",
"z  c #2C3B34",
"x  c #343432",
"c  c #3A3434",
"v  c #343B34",
"b  c #3C3D3B",
"n  c #3A3938",
"m  c #2F2E32",
"M  c #443D3C",
"N  c #1D4A2C",
"B  c #27472B",
"V  c #26562A",
"C  c #2C4533",
"Z  c #344E35",
"A  c #3B443C",
"S  c #364638",
"D  c #2A5636",
"F  c #325935",
"G  c #3B553A",
"H  c #38573A",
"J  c #33552F",
"K  c #2B632B",
"L  c #2D6733",
"P  c #346535",
"I  c #35653D",
"U  c #356B3B",
"Y  c #3A683C",
"T  c #3A723C",
"R  c #35733B",
"E  c #42453D",
"W  c #42563B",
"Q  c #446D3B",
"!  c #416838",
"~  c #41713D",
"^  c #3E3E42",
"/  c #443D41",
"(  c #3E4842",
")  c #395C46",
"_  c #2B5B41",
"`  c #346244",
"'  c #3A6345",
"]  c #3C6C43",
"[  c #3B634B",
"{  c #3C694D",
"}  c #366647",
"|  c #3B7342",
" . c #3C7747",
".. c #3D6750",
"X. c #454443",
"o. c #444B44",
"O. c #4C4946",
"+. c #4C4C4A",
"@. c #484746",
"#. c #524D4D",
"$. c #455D44",
"%. c #4B524B",
"&. c #445C4C",
"*. c #4B5B4D",
"=. c #455646",
"-. c #53524E",
";. c #58504E",
":. c #4D5953",
">. c #525351",
",. c #535D53",
"<. c #5A5A56",
"1. c #5C5C5B",
"2. c #575657",
"3. c #4F4F52",
"4. c #625D5C",
"5. c #426243",
"6. c #43644C",
"7. c #446B4B",
"8. c #4C6D4C",
"9. c #496647",
"0. c #516B4D",
"q. c #53654A",
"w. c #447344",
"e. c #4B7445",
"r. c #43734A",
"t. c #4C734B",
"y. c #447C4B",
"u. c #4B7B4D",
"i. c #427B45",
"p. c #527B4D",
"a. c #55774C",
"s. c #4B6452",
"d. c #4C6B54",
"f. c #456954",
"g. c #536454",
"h. c #546A53",
"j. c #5B635D",
"k. c #536B5A",
"l. c #57675A",
"z. c #4C7355",
"x. c #4C7359",
"c. c #487855",
"v. c #537454",
"b. c #547B52",
"n. c #54735B",
"m. c #547B5A",
"M. c #5D7C5C",
"N. c #5B7957",
"B. c #63625D",
"V. c #647A5B",
"C. c #655E61",
"Z. c #5A6662",
"A. c #5D6B62",
"S. c #5D6C69",
"D. c #5C7B63",
"F. c #587664",
"G. c #4F7262",
"H. c #656362",
"J. c #6A6564",
"K. c #656A64",
"L. c #6B6B66",
"P. c #6C6C6A",
"I. c #666A6A",
"U. c #726C6B",
"Y. c #647B6B",
"T. c #697D6C",
"R. c #667668",
"E. c #73726E",
"W. c #707A6F",
"Q. c #6C7972",
"!. c #737473",
"~. c #7B7A76",
"^. c #7B7C7B",
"/. c #777775",
"(. c #6C6E71",
"). c #837D7C",
"_. c #807778",
"`. c #3F8056",
"'. c #4A834D",
"]. c #48854C",
"[. c #468355",
"{. c #4B8453",
"}. c #4B8957",
"|. c #518154",
" X c #538C55",
".X c #54835C",
"XX c #5B835C",
"oX c #548C5B",
"OX c #598B5C",
"+X c #5A8154",
"@X c #55935B",
"#X c #59965B",
"$X c #508B50",
"%X c #66835B",
"&X c #61955E",
"*X c #5C8462",
"=X c #5B8766",
"-X c #5A9365",
";X c #4C8B62",
":X c #638464",
">X c #64836B",
",X c #6A836D",
"<X c #638B6B",
"1X c #6B8D6D",
"2X c #658966",
"3X c #659668",
"4X c #6C8472",
"5X c #6A8A75",
"6X c #748379",
"7X c #7C847E",
"8X c #748C7A",
"9X c #738777",
"0X c #6D9476",
"qX c #74957B",
"wX c #779578",
"eX c #70966F",
"rX c #65A166",
"tX c #77A079",
"yX c #81867E",
"uX c #80987E",
"iX c #7F7D82",
"pX c #827F81",
"aX c #7C8982",
"sX c #7B9384",
"dX c #799884",
"fX c #7EA087",
"gX c #838583",
"hX c #848B84",
"jX c #8A8A88",
"kX c #87968A",
"lX c #979896",
"zX c #909392",
"xX c #A39C9B",
"cX c #83A18D",
"vX c #8AA396",
"bX c #8AB08B",
"nX c #A6A19E",
"mX c #97A9A3",
"MX c #A9A8A6",
"NX c #B6B1B3",
/* pixels */
"U R T ].].`.}.}.`.`.[.[.y.| ] ` ] I Y I ` { ....[ ....) ) f.s.n.v.N.%X<X3X2XXXr.} I ` ' [ ' _ [ [ } } } } ] |  .].].[.}.-X-X;X`.",
"| |  . .`.`.`.}.[.}.`.`.| } ] ] r.r.7.] [ [ ) f.f.G.S.G.G.k.k.k.D.:X1X1XwX1XM.m.F.m.c.r.7.{ [ } } [ ...... .| | T | ].}.-X-X;X`.",
"}.{.]. .R R `.].}.}.`. .U I r.c..X|.c.7.7.6.) ..G.;XaXiX4XY.F.Y.,XwXwXwXwX1X*X>X5X0X<XF.x.f...[ _ ....;X*Xc.| L K L R ].-X;X}.`.",
"3X-XoXy.R L R `.}.}.].R ` w.c.=X2X<X1X*Xn.) ) &.G.aXdXdXsX9X,X4X5X8XwX8X8X>XY.>X0X0X>X>X=X=Xx.} _ ..c.=X-XoXi.L K K R ].@X;X .| ",
"3X-XoX[. .T ].].#X@Xy.|  .b.*X=X2X1XqX1Xn.&.) [ G.iXaXaXaXaX8XT.Q.Y.T.,XT.Y.Y.M.F.G.s.D.dXdXG.[ } ..c.=X-X;X{.i.T T ~ '.}.].T L ",
"-XoX[.[.].].].$X@X}.y. .u.;X=X<X1X0XkX1X&.C z ( ..G.sXsX5XiXhXkX9XT.Q.W.T.6X6XT.f.( C f.dXfXdXF.G.....c.c..X X#X$X$X$X$X].].L V ",
"| | ]  .@X#X#X@X$X].i.y..X=X<X>X>X9X8XF.S 6 9 S Z.aXvXzXQ.Q.zXlXjXaXaX7X7XhXzXaXZ.( ^ ) F.dXfXfX<XG..._ _ | [.-XrXrX#X$X'.T V V ",
"D V K | @XrXrX@X$X].]..X3X1X*Xd.$.*.=.( v a a A Z.iXzXaXQ.!.gXjXgXiX^.~.~.gXzXhX(.Z.:.:...G.Y.sXdX=X.._ V D y.oXrXrXrX#X'.T L K ",
"L V V U  XrXrX#X$X].|.3XtX0Xv.C 0 w w a O.%.%.%.j.I.W.E.~.~.!.E.P.!.P.J.J.U.U.pXpXzXjXU.A 9 j l.8X8Xz.D V D I y.$X&XrX&X$Xe.~ T ",
"{ | ] T ]. X#X X@X@XOX2X:Xh.C 6 5 0 r k A -.B.B.J.B.H.P.~.~.U.4.H.H.C.C.U._._.jXnXMXlXE.A 9 a ) D.5X>XD.x.6.Y P Q $X&X&X+X'.u.e.",
"-X.Xu.T R T i. X#X3X2Xt.Z 7 % 5 l -.L.;.g k ;.L.L.j.1.H.P.U.J.H.C.J.C.U.).zXxXMXMXxX).j.,.<.<.g.Z.D.aXkX8Xm.' J K Q |.OXOX|.u.w.",
"eX-XoXy.U P w.3XtXeXv.B & X & h -._.jX_.O.k M #.#.+.#.+.X.X.+.#.O./ O.;.J._._.).).J.;.O.B.yXhX/.,.:.A.T.n.&.) F J ! t.|.OXc.| I ",
"-XOX-X'.U Y |.tXbX1XJ & X 1 x %.4.U._.).).B.M 3 4 4 4 2 3 3 4 2 4 4 4 4 g f f c f f c E <.E.7X!.1.A h y 9 u Z &.7.c.F.;XXXr.` D ",
"y.}.OX|.w.u.3XwX1X8.Z l z v b #.4.4.E 4._.4.p . .   X .     .   . .   . .       . # < s b -.P.E.Z.b m a y z ) l.D.<X=XG.c.{ D N ",
"T y.oXoX|.=X0X:XG S l.hXyX>.s g ;.;.f p M g < .   .             .   .             . o ; 3 p #.4.2.3.1.S.Q.Q.R.4X8XqX0X;X..} _ N ",
"U | y.oX.X=X2X5.r C W.MXMX).X.f M M < . . . . .         .                   .         . . @ f X.X.3.!.zXMXlXaX6XsXdX<XG.c.} _ _ ",
"P U | b.=Xb.Z j C %.L.hXxXlX_.;.M # . .   .                                     .           * , p / C.iXzXzXaX7XsXsX>Xx.....} } ",
"| | ` r.D.) q 5 S <.B.K.E.)._.;.4 .       .                                             .     . < s >.(.gXaX/.Q.6XaX5XF.k.f.{ 7.",
"u.r.] z.G.H > & a %.4.4.#.M M g o . . .                                             .           O p >.!.iX/.(.Z.l.Y.aXaX>Xz.7.7.",
"*X=XXX*XD.[ y % 1 n <.<.M @ . . . .                                               .             . i >.!.^.Q.S.( ( :.4XcXdX:X7.H ",
"=X0X0XqX8XS.S t 2 x X.M g ; .       +                                   X                         2 X.H.(.Z.1.( j ( l.uXkX8X0.Z ",
"<X0XfXdXY.g.+.( M n c p 2 o .                                                       .             - d ( +.3.:.( ( ( *.R.8X,X9.B ",
"=XqXdX4XS j +.I.U.#.p ; . . .     o +                                                             o - 2 s n ( :.S.Z.*.%.*.*.W S ",
"z.5XdXG.w % +.7X).;.4     .     + + +   +                         X                                     t m 3.(.aXiXl.E S E W W ",
") d.5X6.w % o./.(.O.3 .           + + +                       +     X                                 O t ^ 3.iXaXaXS.( v S W h.",
"N H x.s.z a A 1.B.O.4         X   + + +                                                               - m ^ 3.(.jXaXS.o.S A <.V.",
"q B ) s.g.( j v +.X.4           +                   +     +                                           ; d ^ 2.(.iXQ.Z.( l W q.V.",
"N J ) n.4Xg.a , k h 3 .             +           +   +     +                                     .   o ; m 3.I.(.I.3.z y j W q.V.",
"7.7.d.>X4Xg.8 X + = # X                       .       + +   + +                                 .   . ; m C.iXiX3.d $ $ q G 0.M.",
"=X2X5X4Xl.S 1 X * * +                                 + + +   +                               .   . . @ g 3.2.3.d : > a S W 9.8.",
">X0XdX>XZ 5 $ y A x 3                                       + +                                 . . . . ; d m t - : A l.n.z.W H ",
"d.1XdXV.a X > ( j.>.i                                   + +                                       . . o ; i d t - y g.9X9XM.7.F ",
"Z d.,Xh.9 & j <.K.+.8     X                                                                         . O s O.4.>.k h l.9X,Xm.7.` ",
"C s.Y.*.7 1 A V.K.o.3                   + + + +                                                       , c B.).E.E l <.,X,XD.c.{ ",
"6.n.4Xg.y 1 o.P.I.o.3                     + +   + +                                                   O f <.~.L.E l q.,X9X=Xm.r.",
"D.9X8Xh.9 y B.7X1.h O                       +   +                               .                     O p #.U.B.c k ,.,X5X=Xx.c.",
",XwXkXh.9 k ^.zX>.3       .                           +                                               * f -.L.<.k k ,.T.4XD.c.c.",
",XwXkXV.9 p P.zX!.n ,   X                                         X                                 + O 4 c ;.E h k q.T.>Xn.f.{ ",
":XwXkXR.r $ ^ iXMX/.x                                                                               @ O * 2 k g e h g.T.D.x.} D ",
"0.1XuXV.a   i (.NXlX/                                                                             + , 3 * , i e < r g.T.D.f.D D ",
"W XXwXR.r & f P.lXiX^                                                                             + 2 y i k k p * e *.T.n.) D D ",
"B 0.1XR.a * n ^.lXiXd + +                                         X                               X , i x @.%.l = 0 *.,Xn.5._ D ",
"N 7.1XM.y O v gXNXMX^                                           X                                     3 d X.<.b 3 e *.T.F.6.) D ",
"q ' >Xk.q & x pXNXxX/       +                                                               +     X   & i X.1.<.X.E ,.A.k.k.f.) ",
"N ' >Xg.y % x P.pXC.g     + o                                                             .   + +     : d X.B.P.!.L.j.,.*.6.6.f.",
"[ F.9Xs.9 1 X.J.2.c ; o +                                                                 . +         - m #.H.!.~.W.B.,.*.s.6.s.",
"=X0XfXN.a 2 @.J.3.p - o   +                                                                 o o       : f 3.H.4.O.O.j.R.S.k.s.) ",
"dXdXvXY.y $ x X.c t -     +                                                       .       . o         - 2 c O.c 3 e -.yXaXR.&.C ",
"=XdXfXS.a X @ 2 < < o .         +   +                 X               . X         .         .         - ; t t ; o y >.aXlX8X*.j ",
"G.>XdXS.8   * p c f ;           +                       X                 .             . . .   o     o ; t d d f b <.W.8X6XF.s.",
") G.aXf.8 % M L./.2.p           +                                                       X . + +       - d ^ 1.Z.I.J.J.K.Z.Y.7XkX",
":.G.S.) r k B.nXMX_.f .   +         +                                                     . + + o     - m 2.iXiXgX^.(.K.j.4XkXmX",
"sXS...^ ^ ( _.nXNX).g             +   +       .                             X   X         o o O +     - m 3.(.iX(.P.(.W.6XaXkXvX",
"mXS.z y ^ S._.jXjXJ.p .     +   +       . .                                               o o +     + - m ( 2.C.L.P.!././.W.6X6X",
"mXS.d y ( I.E.E.U.;.4       O         . .   . .     .                         X             o + + o - : m ^ 3.S.iX^.(.1.:.:.,.Z.",
"fXS.t : +.(.J.J.B.E 3     o - - .     . o o . .             .     o                             + o - t m ^ 2.iXjXjX(.@.v b ( %.",
"vXZ.y 3 o.U.U.B.B.E 1 .   X O O     . + * < < *             .           X     X                 O - : t s ( 1./.jXiXH.@.n v A o.",
"zXZ.y $ h E W E E r & X   X & .   .     # * = #       .                           X             + O $ : t s ( >.<.3.b h v A ( o.",
"aXZ.9 X = 6 6 6 0 = & X X X & X . . # # = = = # X X X X X X   X   X X X X X X X X X X X X X X   & & $ & % > 6 9 y 6 > 0 v o.*.=.",
"4Xk.B w w w 7 0 r r q q q 7 7 7 0 r r r r r 0 w r 0 0 0 6 1 3 y a a 9 9 9 q q 9 7 7 0 r r 9 9 9 y 7 7 7 7 w 6 5 % 5 6 j =.0.g.h.",
"D.v.) Z Z J G 5.8.d.t.7.Y H Z H ! q.q.q.q.! ! W W W W J Z S S W q.0.q.9.9.8.0.$.G G ! 0.h.q.9.W H H H H G H Z B B Z 9.h.M.V.N.v.",
"n.v.v.t.8.8.N.=X2X3X1XXXb.t.w.t.+X%X%X%X%XV.a.a.a.%XN.a.9.$.$.0.V.,X:XM.%X%X%XN.t.v.V.2X2X:XV.v.d.7.8.v.m.v.7.H G 8.:X1X2XXXb.v.",
"t.b.b.t.7.Y r.b.OXOXOXb.u.e.Y e.a.%Xa.a.a.a.Q a.p.+Xb.p.t.' H ' 0.M.N.p.p.b.|.p.e.e.|.b.a.e.a.8.9.w.u.XX.Xu.Y J F Y a.+X+Xb.w.w.",
"u.p.p.w.P J P w.i.u.y.w.w.T Y Y a.a.Q ! Q Q ! Q e.p.p.u.t.H J J H e.8.e.Q Q ~ e.~ u.e.Q J J Y 7.Y Y u.XX|.w.F V V J Y w.r.w.Y P "
};
