/* XPM */
static char *_4right1738162116[] = {
/* columns rows colors chars-per-pixel */
"64 64 256 2 ",
"   c #020401",
".  c #020B01",
"X  c #0A0B03",
"o  c #0A0806",
"O  c #120502",
"+  c #1B0401",
"@  c #120B03",
"#  c #1B0B02",
"$  c #170C0A",
"%  c #031202",
"&  c #0B130B",
"*  c #091708",
"=  c #14130C",
"-  c #131B0C",
";  c #19160A",
":  c #0A1913",
">  c #151C13",
",  c #1A1A14",
"<  c #181816",
"1  c #0F0F11",
"2  c #270604",
"3  c #360804",
"4  c #26150C",
"5  c #231B13",
"6  c #281916",
"7  c #361A16",
"8  c #37140C",
"9  c #0C240C",
"0  c #11250E",
"q  c #0D2114",
"w  c #142313",
"e  c #1B2414",
"r  c #1C241B",
"t  c #172A18",
"y  c #1A371B",
"u  c #23241D",
"i  c #2B241B",
"p  c #26291B",
"a  c #34261D",
"s  c #26321D",
"d  c #302A10",
"f  c #1A3A24",
"g  c #1C3229",
"h  c #2B2522",
"j  c #242B23",
"k  c #2B2B23",
"l  c #292827",
"z  c #352B26",
"x  c #233223",
"c  c #293728",
"v  c #34342B",
"b  c #373729",
"n  c #2B3933",
"m  c #393B36",
"M  c #291D21",
"N  c #471918",
"B  c #54191A",
"V  c #470E0A",
"C  c #6D1B1B",
"Z  c #49231A",
"A  c #562419",
"S  c #652519",
"D  c #571B22",
"F  c #671E25",
"G  c #781F23",
"H  c #492726",
"J  c #582627",
"K  c #44362C",
"L  c #483B34",
"P  c #55342D",
"I  c #682729",
"U  c #772727",
"Y  c #793429",
"T  c #6C3133",
"R  c #1B4825",
"E  c #1E562A",
"W  c #1C5336",
"Q  c #28462A",
"!  c #36472C",
"~  c #26532B",
"^  c #28572C",
"/  c #294837",
"(  c #364939",
")  c #2B5D3C",
"_  c #285937",
"`  c #325D3C",
"'  c #385739",
"]  c #33512E",
"[  c #27632D",
"{  c #2B6435",
"}  c #2C633C",
"|  c #2C6B3B",
" . c #276534",
".. c #336D3C",
"X. c #3B6B3D",
"o. c #356639",
"O. c #34723D",
"+. c #3A733E",
"@. c #367B3C",
"#. c #2F7032",
"$. c #1A4A1B",
"%. c #46463A",
"&. c #56473B",
"*. c #44573D",
"=. c #4D4A33",
"-. c #754E3A",
";. c #446C3A",
":. c #394A44",
">. c #2D5C42",
",. c #2B5746",
"<. c #325C43",
"1. c #3B5C43",
"2. c #325D4A",
"3. c #3A5647",
"4. c #3A5D52",
"5. c #2A4A41",
"6. c #2D6442",
"7. c #2C6843",
"8. c #336444",
"9. c #3B6444",
"0. c #346C43",
"q. c #3B6C43",
"w. c #34644B",
"e. c #3B644B",
"r. c #356B4B",
"t. c #3B6B4C",
"y. c #347244",
"u. c #3B7443",
"i. c #3C7B44",
"p. c #34734B",
"a. c #3C744C",
"s. c #3C7B4B",
"d. c #377A48",
"f. c #3C6C52",
"g. c #376754",
"h. c #3D7453",
"j. c #3D7B52",
"k. c #3B7458",
"l. c #2B7541",
"z. c #474942",
"x. c #574B45",
"c. c #455848",
"v. c #595549",
"b. c #515D54",
"n. c #775C57",
"m. c #6A534C",
"M. c #426C44",
"N. c #426D4C",
"B. c #46664A",
"V. c #427345",
"C. c #427B45",
"Z. c #43744B",
"A. c #4B754B",
"S. c #437C4C",
"D. c #4A7C4C",
"F. c #4C7745",
"G. c #52794A",
"H. c #446453",
"J. c #446B53",
"K. c #4B6A56",
"L. c #566655",
"P. c #437353",
"I. c #4B7354",
"U. c #447C53",
"Y. c #4A7B53",
"T. c #437459",
"R. c #457C5B",
"E. c #4C7B5B",
"W. c #4D755B",
"Q. c #537C53",
"!. c #567758",
"~. c #53694B",
"^. c #6A6A59",
"/. c #4A7C62",
"(. c #577963",
"). c #4D6965",
"_. c #6A6C64",
"`. c #647965",
"'. c #797A6C",
"]. c #7B7C73",
"[. c #776B63",
"{. c #605F62",
"}. c #89291B",
"|. c #93251C",
" X c #841D21",
".X c #882926",
"XX c #952824",
"oX c #86352A",
"OX c #8D3331",
"+X c #8A6955",
"@X c #8C726E",
"#X c #8B665B",
"$X c #3B8448",
"%X c #3E8153",
"&X c #448344",
"*X c #44834C",
"=X c #4A834D",
"-X c #4B8B4D",
";X c #498A48",
":X c #54864C",
">X c #448353",
",X c #4B8453",
"<X c #4C8B54",
"1X c #4C835B",
"2X c #4C8B5A",
"3X c #458858",
"4X c #538254",
"5X c #528C54",
"6X c #53845B",
"7X c #538C5B",
"8X c #5A8D5B",
"9X c #5A8557",
"0X c #4D9256",
"qX c #539355",
"wX c #54925B",
"eX c #5B945C",
"rX c #5B9A5D",
"tX c #569758",
"yX c #50924D",
"uX c #638A5B",
"iX c #61985E",
"pX c #5BA15D",
"aX c #4D8563",
"sX c #498A62",
"dX c #548C64",
"fX c #5B8C64",
"gX c #588666",
"hX c #5B9363",
"jX c #5A9766",
"kX c #658A68",
"lX c #649C64",
"zX c #659468",
"xX c #6E8D73",
"cX c #5EA166",
"vX c #62A267",
"bX c #858578",
"nX c #968778",
"mX c #A78779",
"MX c #AD8A73",
"NX c #997E83",
"BX c #6E9A83",
"VX c #998C85",
"CX c #A7998C",
"ZX c #AC948E",
"AX c #BDA999",
"SX c #B3A391",
"DX c #B8B5A8",
"FX c #B1B0A9",
"GX c #C5AB97",
"HX c #C9AF96",
"JX c #CAB6A7",
"KX c #CEB5A9",
"LX c #D5ABA3",
"PX c #C7C5B7",
"IX c #F1C1BD",
"UX c #EEC5C3",
/* pixels */
"l.l.l.p.2XaXaXsXk.sXsXsXk.p.8.8.e.t.9.8.8.t.t.r.w.9.f.f.g.).).`.BXkXxXBXBXBXgXK.B.M.' ` B.e.r.g.g.2.2.>.w.t.h.a.R.1X7XfXzXuX:X:X",
"$X$X$Xj.j.R.1X3X%XsX3X%Xp.p.q.N.P.I.N.q.t.w.w.e.P.W.W.K.3.( :.4.3.4.1.J.J.W.W.K.I.~.~.I.N.f.w.w.e.e.e.e.Z.P.a.0.0.a.Y.9XuXuXuX;.",
"sX%X%Xd.y.0.a.3XsX%Xj.l.7...u.E.gX(.U.P.r.8.} 9.W.kX`.L.c = - - > > e e e c 3.~.!.!.gXgXE.a.0.8.8.e.P.E.aXR.y.{ { } u.,XiXuX:X;.",
"cXjX3Xd.0...i.<XsXsXd.| | u.S.8XjXfXgX1XU.Z.9.` c.L.b.%.i # # # $ # $ # # ; p *.!.xXzXzXfX>Xy.} } 8.U.dXhX7Xa.| { | O.S.eXiX;.;.",
"cXjXwX>Xu.+.;.qXrXqX$X@.i.*X2XwXeXdXdXdX6X,XV.' j 6 M a N Z Z Z Z A A Z Z d 4 d ~.kXzXzXhX2XS.O. .0.U.1XhX7X,Xi.i.i.i.*X5X4Xu.{ ",
"sXsX,X=X=X=X:XyXtXqX&X;.*XwXwX7X=XS.>X1X1XD.*.s , 2 3 V A Y Y oXY Y Y Y Y A 8 d =.F.G.Y.>X*X=XS.y.u.i.>X>X,X2XwXtX0X<X-X:XC.| ^ ",
"y.y.u.*XeXeXtXyXyX&X&X;X0XqX<Xs.....q.S.Y.X.s e 7 H I I U .XoXoXoX}.}.}.oXY S Z d s ] X.q.C.D.=X,X>Xi.0.| y.,XjXvXvXrX0X*XO.[ E ",
"_ ^ { V.tXvXiXyX;X&X&X;X5X<Xs.#.[ [ ..Y.!.' - O Z T OXOXXX|.}.|.|.|.}.}.}.oX-.Z # X c B.N.D.,X7XwX<Xy. .E  .i.2XjXvXvXtX;XO.[ [ ",
"] ~ ^ ..<XpXpXtXyX;X;X-X5X&X#.[ [ X.F.9XkX*.; 2 D OXXXXXXXXX|.|.|.|.}.}..XOX-.A # @ ! !.gXgXdX2X2X>Xy. .E _ 0.s.0XwXvXrXqX&XO.#.",
"B.X.o...&XyXtX0XyXyX-X-X=XC...{ #.F.:XuXL.L 7 N F .XXXXXXXXXXX|.|.|.|.oXC B A 8 4 p ! K.(.dXaX1X>X>Xa.r.y.7.0...y.*XtXjXqX-X&Xu.",
"zX9XD.+.O.@.*X0XyXqX<X=X*XC.u.V.F.Q.G.*.b 5 N T U .X|.|.XXXXXX.XOXOXoXY B 3 3 M K v k c ,.k.%X%XS.U.sXaXdX>Xr.{ [ O.>XwXwX*Xi.+.",
"zXzX8XC.....i.<XtX0X*Xi.S.>X,X4XuXQ.G.! @ 2 B T OXXXXX|.|.XXXXU U S S S D H H H L l & % f g.k.k.h.U.gXjXzXdXa. .E | C.2X2XC.q.{ ",
"eXhXwX,Xy...s.2XhX1Xi.| u.S.,X6X6X!.~.! + 2 D OXOXXXXXXX}.oXoXU B 3 3 N m.@XNXm.z <   : f 2.g.k.h.k.1XdXhX7Xa.{ _ | k.aX1Xj.8._ ",
"&X<XwX2XS.a.>XdXjX3X0._ ..U.7XfX9XA.%.s 4 N I .XXX.X XOXoXU B V 3 3 N &.n.NXNX{.M     : f 2.g.g.f.p.T.U.S.S.S.u.| r.3XsXE.f.>.W ",
"@.$X0X2X>XS.R.dXaXR.7._ ..U.8XzXgX*.s 5 Z I U .X X X X.XY A V 2 3 P n.#Xn.n.n.x.6     : / ,.g.g.r.w.0.0...V.*XS.i.j.sX/.k.g.,.5.",
"#.@.3X2X>Xa.P.R.E.k.7.) 0.U.1XgX!.' * # Z T oX.X X XG C S J T P P -.MXSXZX@Xm.L $ o   : n g.g.g.w.>.>.) { +.S.U.U.U././.k.g.,.,.",
"| l.p.k.k.k.k.f.t.w.r.r.f.f.T.W.K.( > O Z T U .X XG C V V T ZXSX+X+XMXIXUXAX@XH $     : / H.H.2.2.>.) ) } 9.t.P.h.T./.R.k.r.w.w.",
"p.p.p.p.p.p.t.r.t.t.r.r.t.g.e.H.H./ = O N I U U  XU U V 3 P CXAX+XOX@XLXIXLX@XP 2     > :.K.J.4.,.,._ <.8.e.t.w.w.g.f.T.T.h.q.r.",
"%X%Xp.l.} 8.q.I.Z.a.r.0.8.>.<.3.c.m , 2 N I T G G I U B 2 8 n.+XoX-.MXLXNX#Xm.J $ o   > 3.).W.4.,.,.,.1.t.N.e.8.8.8.9.P.E.E.T.0.",
"sXsX3Xj.7.} 0.U.Y.I.0.} 6.>.<.<.( l 4 4 D T T F G B J B B P -.-.-.+XMXZX@XT H z 4 O   , c.(.).e.>.>.8.h.E.E.N.o.` ` <.N.E./.J.8.",
"jXjXsX>Xy.} o.a.Y.U.r.} 0.q.q.] l 6 M H J T F D F D 3 H -.MX+XMXMXMXMXMXmX#XH 2 4 $ o > 3.(.W.f.6.} p.1XfXaXI.q.o.o.` N.E./.J.,.",
"jXjXhX3Xa.0.0.q.U.U.u.y.a.6X6X' = $ 7 L T D D D D 3 2 D MXKXLXHXGXMXMXHXLXmXH O 4 6 @ , z.(.W.e.7.l.j.dXhXfX,XD.Z.M.9.N.J.J.2._ ",
"jXwX7X>XU.s.a.S.s.s.d.s.*XfXzX~., 2 D T D D D D D 8 2 H MXKXKXHXHXSXGXHXKX@XH + 6 6 X e c.W.J.7.7.s.3X2XaX1X1X6X6X4XS.Z.N.e.,./ ",
"E.Z.y.a.>X2X2X>Xs.i.$X*X,XzXkXB.i + M J D D D D H 8 + d m.MXGXLXLXHXHXGXmXn.a 2 7 6 O r 3.!.f.} y.i.>XU.s.a.>X1XdX7X7X,XZ.0.} } ",
"} ) ) 0.3XjXtX%X$X@.$X0X7X6XgX*., 2 7 J B B B J H 6 # $ 6 x.mXJXKXKXJXnX-.N 7 7 H M O < :.K.t.8.p.k.k.p.7.7.p.j.>XwXrX7X=XC.+.X.",
"Q R ~ ..3XjXtX-X@.@.$X$X,XE.K.! = O 8 H A B J H H 7 O O $ K n.@X@XnX@Xm.7 2 8 H H 7 o 1 n c.t.0.7.p.p.7.W W 7.d.%X<XqX0X-X;X&X&X",
"f R _ 0.>X<X0X$X@.@.$X$XS.Z.9.c & O 4 Z H Z H J H 6 O u x.v.L 7 z z H 7 4 8 H H z 6 o & x ` 8...7.7.W W W 7.7.p.d.$X%X-XyXyX&X;X",
"~ _ 0.u.u.@.$X$X$X$X$X$X..X.' ! k u 6 7 Z Z 7 7 5 $ = L NXNXx.6 6 6 6 7 4 7 H Z 7 4 , x _ 9.} 7.6.>.>.7.p.p.p.0.0.O.d.&XqXqX;X&X",
"X.V.S.V.0.| y.*X$X$Xd.#.[ } M.!.L.*.i ; 6 7 4 O O @ 5 v.VXCX@X{.m.^.n.&.7 2 7 d ; e ! ~.W.P.r.} _ >.r.R.1XU.q.) ~ { y.,XtXrX;X@.",
"5X8XwX*XO.{ y.S.jX0Xd.#.{ u.=XxXxX^.p . O ; ; @ @ - v v.NXCXAXZXCXSXCXnXx.a 5 4 4 ! G.xXkXaXj.r.6.f.aXhXxX6XN.o._ ) ..S.hXjXC.#.",
"eXeXeX,XC.u.u.,XtX0X>Xd.u.D.4XxXxX~.p     = j l v k m %.z.[.ZXKXAXDXGXSXnXm.d ; %.~.uXkXfX6XR.t.w.f./.kXkXuX!.G.A.V.M.A.7X2Xu. .",
"D.D.*XD.*X*X<X5XwX0X3X<X,X<X,X9X`.c.w . . , v :.z.( v i l x.@XVXAXJXJXDXSXm.u ; =.kXkXuXkXW.w./ R / / 1.G.!.Q.!.9X9X4XD.,XC.O. .",
"{ ` ^ ..;X0XtX0X0X0X<X5X7X,Xu.M.W.:.q . q l m :.:.v , @ < 7 L n.CXPXKXCX[.z X - ( !.`.uX`.!.Q * * % : t *.~.;.F.Q.8XlX8X4XS.+.X.",
"] ^ ^ #.*X0XpXpX0XyX<XqX5X=Xq.` / r % : c :.:.m m j 1 1 < 6 6 K ^.mXnX[.%.= . - c ( ( ( c.*.c p j j k s b ! *.;.G.8XjXrX5X=XZ.V.",
";.o.o...i.-X0XyXtXtX5XqXD.D.M.] t % . > n c.z.n < 1 1 5 6 6 5 7 K =.&.K i , ; - - - & > - c L.xX@XxXbXv.s 0 Q ;.V.=X8XhXwX,X,XD.",
"4X4XS.u.O.d.*X-XyXtXeX5XQ.M.^ Q x c v v n n l r   o < h z z M M 4 4 4 d i a p , . X r l p *.bXDXDXDXPXbXs % y ' X.+.S.7XdX7XE.Y.",
"kX9X5XZ...O.i.-XqXeX:X:XuX*.y Q L.bX].b.l : =     o = l h l h 6 6 ; 4 4 d p p ; o j b.BXxXxXSXFXDXDXPXbXs % f ` ` | j.1X2X1XU.Z.",
"iXzX8X>Xy...y.*XqX5X9XuXuX] % t xXKXFX_.,   & & .   , h h h 6 M a a i 7 6 a a =   z @XDXJXDXFXCX@X'.'.^.b y ] 1._ } h.2XaXU.P.0.",
"4X9XhX1Xa.y.i.2X8X8XuXuX`.! % p '.PXDX_.r . u x - X e p M M M h z H z z a a 6 X   l ].FXFXFXSXbX%.p p c ' H.K.9.} } h.aXaXU.8.) ",
"A.6XhX7XS.0.s.2X8X8X~.;.*.! b c.bXCXbXv.l j ( c.c - - e j h M z z =.L K a 5 $ @   $ z._._._._.z.p % % g c.(.(.Z.8.0.>XdXE.t.<._ ",
"o.A.fX7Xj.y.s.2XdX6XN.Q e c ^.VXCX'.%.h n ( c.b.( x - @ e k v L &.-.x.K 6 O o O   . < u j j r j l n / / H.E.E.T.r.a.1XdXR.w.) / ",
"~ 9.1X6XU.y.j.sXfXgX1.t . s nXPXDX[.; . c K.H.c.c.Q - . 5 b L &.&.&.x.L 4 o $ < 5 < : & & . & r 3.4.H.g.w.J.P.>XS.U.1XgXP.8._ / ",
"R _ a.>X>X>X3XsXaXaXe.y . s bXPXKX_.r . c H.H.H.H./ : . i L &.&.&.*.m.L 4 O M ( v.z.( c x g c :.4.4.2.2.2.f.h.U.U.U.1X1XJ.8.2.>.",
"R R ) 0.>XsXsXaXaXE.H.( t c L.bXVXL.Q x ' H.J.J.K.( & . a %.L &.&.-.v.K $ < m {._.).b.H.4.H.H.4.,.,.,.,.w.f.p.r.p.a.U.U.P.f.t.g.",
"E E E } j.sXsXR.U.P.J.K.' Q c c s c ( *.J.J.N.K.).5.< & i K K K &.&.v.b ; , ( {.).c.c.K.).K.J.<.,.,.2.4.g.w.7.6.7.} 0.h.P.T.P.h.",
"..| l.0.p.p.j.T.P.I.I.I.~.^ t % % y B.gXgXP.e.e.,.n < < i K L K K ! b u X & r :.3.4.3.e.W./.J.8.5.,.2.g./.k.w.7.} ) } r.R.R.k.f.",
"wX0X2X%X7.6.r.h.E.!.N.M.9.' / y y ~ N.gXkX/.f./ q q j l v L =.K p ; = X     * g :.4.e.4.T.E.P.9.8.<.g.T.aXaXT.r.6.} 6.p./.aXp.7.",
"vXvXjX2Xp.} 8.Z.6XI.X.` 9.Z.Z.Y.I.I.I.6X/./.J.f : : l m m L =.K p w - > > w : g n 5.e.T./.T.R.t.e.4.T.aXgXgXaXR.p.7.7.k.3Xk.7.W ",
"jXjXdXsXU.a.q.Z.D.M.u.+.S.5XeXlXjXgX/.g.).).).n 1 1 l n =.L %.! ( %.:.( ( :.c.! g f f.aXsXk.g.w.w.P.aXgXgXaXaX>X>X>Xd.s.j.r.6.W ",
"R.k.h.s.>X6X1XE.Z.u.u.=X5XtXcXjXvXdX/.g.4.).).:.: 1 1 l s z b %.v.L.L.b.b.)._.c.q t e.xXaXk.7.w.f.R.aX(.U.h.U.3X2X2X<X>Xs.p.>._ ",
".. .{ 0.U.dXfX8XS.u.S.<X<X<X<X,XaX!.T.4.4.4.).:.<   o 1 $ , v z.( c.c.' :.L._.b.t q ,.(./.g.w.w.f.k./.r.6.7.p.>X2X0X0X3X*XZ.u.q.",
"$.R ^ ..U.dXhX2XC.i.=X<X=Xi.O.o.( ) 5.5.5.5.m n :   o o X 1 u k x p t s c %.b.%.> : 5.).g.g.>.6.w.w.6.) W  .0.d.%X0X0X2X,X,XY.4X",
"$.$.^ q.1XdX2XS.O.+.=X-Xi...{ ~ t q q q q : : 1 1 o < < < < > & * % % * e b %.v & : ( H.2.>.) 6.>.>.) )  . .} y.$X%X3X-X<X:X:XF.",
"^ ^ ;.D.Y.>XC.i.@.$X&X&X+.X.0.Q 9 . . % : . 1 o 1 1 M n l < .   * 0 t 0 - p k i , < l / 3.t.t.<._ ) 6.r.p.7.l.l.d.$X$X*X:X:X&X;.",
"F.G.:X4XD.C.C.*X-X-X&X@.+.*X1X9.w . . & : < < < < < l l M :   % Q ~.~.%.- X 5 z m h < g 3.W.I.9.>.8.t.U.>X%Xs.$X$X$X;.;XyX:X;.#.",
"Q.`.9XQ.,XS.*X;XtXyX&X+.i.6X7XN.t % * e p l z v l l l < : : q ( ~.xXxX~.r   O z x.z.h w ! H.!.Q.f.P.P.E.j.%X3X0X0X<X;X&X:X;.;.] ",
"1.;.A.,X9XeX8XqXtX5X&X;.-XwX7Xo.0 % - s k b b v z l h : % t ' uXxXzXkXc.,   o z x.v.%.k e Q B.fX!.E.E.P.0.d.3XwXtXtX5X5X=XC.{ ~ ",
"R ~ ` A.eXlXlXlXqX-XC.=X<X8X,X] 9 . - x b b h u 1 1 1 * 9 Q Q.xXzXzX(.' w . $ k %.&.&.s * 0 *.kXkX(.P.o._ } %XwXrXjXrXtX:XZ.o.^ ",
"y R ^ V.8XlXlXiX:X;X=X4X5X5XS.~ 9 % - x m v - X o . . * f ' !.hXzXjX(.' q . & p s b b e * 0 *.`.xX/.t._ W  .u.<X0XrXvXiX7XZ.q.<.",
"~ ^ ^ X.:XiXiXeX8X5X5X8X9X4XV.Q * . % e r e w > r w > f / t.Z.E.hXzXgX' 9 . % - * X ; % % 0 X.(.(.!.e.` } } ..+.&XqXlXlXwX1XP.p.",
"r.o.o.q.F.=X5XrXeXeXeXzX7XY.q.Q * % . % % 0 n ' c.c.3.' 3.e.t.U.dXjXzX*.9 % % % . . . . . 0 B.`.gXI.N.q.Z.a.o...X.=XiXzXhX7X1XU.",
",XA.u.u...O.*X5XqXeXeX8XQ.A.q.] s 0 9 9 9 s o.!.kX(.(.!.B.` 1.J.,XeXfXM.s 9 9 9 w w - * 9 x e.W.I.J.N.E.1XY.q.^ { ;.4X8X8X6X>Xa.",
":XQ.S.+.....u.=X=X&X=X=XA.N.9.B.c.*.] ! ] o.*.F.Q.9X9X!.N.<.) >.a.,X,XM.' ] ' ] ( ( c.:./ ( B.P.t.e.Z.E.6XU.o.^ ~ { ;.D.=XD.u.u.",
"D.=XD.X.{ [ ..@.C.+.+.V.V.t.B.B.`.`.K.~.Q.F.;.X.F.=XQ.A.K.1./ ~ } V.F.F.G.G.~.!.!.`.`.L.K.H.H.t.9.8.Z.1XQ.Z.o.~ Q ~ { V.F.+.+..."
};
