/* XPM */
static char *_4ud11738162115[] = {
/* columns rows colors chars-per-pixel */
"64 64 254 2 ",
"   c #1E1C07",
".  c #3B0D02",
"X  c #2D1B07",
"o  c #3B1202",
"O  c #371806",
"+  c #3B1C16",
"@  c #2F1C18",
"#  c #2B270B",
"$  c #3A250C",
"%  c #392514",
"&  c #3A341A",
"*  c #2B2F19",
"=  c #393725",
"-  c #363727",
";  c #123D29",
":  c #470E05",
">  c #451103",
",  c #491609",
"<  c #5D130C",
"1  c #561508",
"2  c #461A13",
"3  c #5A1813",
"4  c #5A0F0C",
"5  c #62130D",
"6  c #621A0F",
"7  c #681A15",
"8  c #741A15",
"9  c #7B1916",
"0  c #7A1B1B",
"q  c #781818",
"w  c #7C160E",
"e  c #45250D",
"r  c #432514",
"t  c #492A17",
"y  c #592919",
"u  c #47341A",
"i  c #692219",
"p  c #76261D",
"a  c #7C1921",
"s  c #453A25",
"d  c #583626",
"f  c #4F3329",
"g  c #692B24",
"h  c #772B26",
"j  c #71362D",
"k  c #2B511C",
"l  c #1D5829",
"z  c #1B4931",
"x  c #394629",
"c  c #245B2D",
"v  c #295A2D",
"b  c #254D35",
"n  c #3A4A36",
"m  c #2B5D33",
"M  c #2B543B",
"N  c #2B5C3B",
"B  c #265937",
"V  c #3B593C",
"C  c #36542A",
"Z  c #2C6333",
"A  c #2C643C",
"S  c #2D6C3B",
"D  c #296733",
"F  c #33653B",
"G  c #336B3C",
"H  c #3A6E3C",
"J  c #346636",
"K  c #33723D",
"L  c #3B733D",
"P  c #3B7739",
"I  c #2E6A33",
"U  c #20591E",
"Y  c #48472B",
"T  c #494936",
"R  c #564A37",
"E  c #465638",
"W  c #57573A",
"Q  c #4C522C",
"!  c #684B39",
"~  c #43763B",
"^  c #4E6B3A",
"/  c #64623C",
"(  c #47441C",
")  c #2B5C43",
"_  c #2A5B46",
"`  c #375B44",
"'  c #2D6344",
"]  c #2E644B",
"[  c #2E6A43",
"{  c #336545",
"}  c #3C6543",
"|  c #346B44",
" . c #3B6C44",
".. c #33644B",
"X. c #346B4B",
"o. c #3B6C4B",
"O. c #3C664C",
"+. c #357343",
"@. c #3B7443",
"#. c #3B7A44",
"$. c #36724A",
"%. c #3C744C",
"&. c #3D7A4B",
"*. c #357843",
"=. c #3C6D53",
"-. c #356752",
";. c #3C7252",
":. c #3D7655",
">. c #2F694A",
",. c #485B45",
"<. c #585A45",
"1. c #645A44",
"2. c #764C43",
"3. c #436B45",
"4. c #466848",
"5. c #576749",
"6. c #427445",
"7. c #447B44",
"8. c #42734C",
"9. c #437C4C",
"0. c #4B7D4C",
"q. c #4B7547",
"w. c #55784A",
"e. c #446D53",
"r. c #427554",
"t. c #437B53",
"y. c #4B7D54",
"u. c #457C5B",
"i. c #4A7C5C",
"p. c #487558",
"a. c #567956",
"s. c #596954",
"d. c #656647",
"f. c #65774B",
"g. c #667856",
"h. c #6F6C55",
"j. c #517D60",
"k. c #6E7C64",
"l. c #8C1D1C",
"z. c #841817",
"x. c #901A18",
"c. c #86231B",
"v. c #972A1C",
"b. c #8C1D23",
"n. c #931F22",
"m. c #872925",
"M. c #9D2C25",
"N. c #9D2C2B",
"B. c #942B28",
"V. c #89342B",
"C. c #94332D",
"Z. c #9B322D",
"A. c #9B3026",
"S. c #9C2A31",
"D. c #8A3833",
"F. c #9C3432",
"G. c #973936",
"H. c #A42C2B",
"J. c #AB2E2C",
"K. c #A12D24",
"L. c #A4322D",
"P. c #AC322D",
"I. c #AA3427",
"U. c #B1312E",
"Y. c #AC2F31",
"T. c #A22D31",
"R. c #B02F33",
"E. c #A53432",
"W. c #AC3332",
"Q. c #AC3339",
"!. c #A63938",
"~. c #B13333",
"^. c #B43439",
"/. c #9B4139",
"(. c #87443C",
"). c #A5423C",
"_. c #9C554A",
"`. c #904A45",
"'. c #A8564C",
"]. c #A95752",
"[. c #B65A55",
"{. c #AF4D47",
"}. c #B6655C",
"|. c #AA6359",
" X c #B06B62",
".X c #946C5B",
"XX c #C2665D",
"oX c #C56D66",
"OX c #3F8543",
"+X c #45834B",
"@X c #4B834D",
"#X c #4C8B4B",
"$X c #478545",
"%X c #54864D",
"&X c #52944E",
"*X c #468153",
"=X c #4B8453",
"-X c #4D8A53",
";X c #4C835B",
":X c #4D8A5A",
">X c #478358",
",X c #548454",
"<X c #528C54",
"1X c #52845B",
"2X c #528B5B",
"3X c #5B8757",
"4X c #539254",
"5X c #55925C",
"6X c #5A945C",
"7X c #599959",
"8X c #4D9151",
"9X c #668658",
"0X c #68925D",
"qX c #6F8854",
"wX c #4C8362",
"eX c #4E8A64",
"rX c #528562",
"tX c #548B62",
"yX c #5A8C65",
"uX c #569364",
"iX c #599363",
"pX c #5B9866",
"aX c #688C66",
"sX c #639767",
"dX c #759569",
"fX c #778B67",
"gX c #63A365",
"hX c #5FA15B",
"jX c #B4877C",
"kX c #8B8D6D",
"lX c #CC8A7C",
"zX c #D68B7D",
"xX c #BCA391",
"cX c #919B82",
"vX c #CC8B83",
"bX c #D68B82",
"nX c #D29489",
"mX c #E18982",
"MX c #C9A897",
"NX c #E7AC9D",
"BX c #EEAE9E",
"VX c #E8ADA3",
"CX c #EAB4A6",
"ZX c #F5B9AB",
"AX c #F4B6AB",
"SX c #D8B4A1",
"DX c #FAC4B7",
"FX c #FFDCCD",
"GX c #FFD6C7",
"HX c #FED2C7",
"JX c #FEE1CE",
"KX c #FFE3D3",
"LX c #FFE9D8",
"PX c #FFF1DC",
/* pixels */
"S S *.&.wXeXeXeXwXu.eX;X:.*.[ S K S | >.{ ..-.-.-.` ..o.+.$.:.:.=X#X3X7X0X7X#X#.S S S S A ' ....| ..{ { F } e.r.i.i.;XeXpX7X8XOX",
"*.#.$.&.OXu.u.wXwXwX;X&.*.[ *.*.#.#.&.X.X...` -.e.=.r.&.$.| +.$.+X-X6X7X7X5X+XK *.*.OX:.>.+.X.| ' | | o.8.8.o.o.o.%.t.eXpX7XOXOX",
"-X-X*X&.+.| %.u.eX:X&.*.[ +.*.OX=X:Xy.;.-.] _ X.p.rXrXu.%.[ D K #.#X6XiX7X@X#.K OX>X:X;X>X:.$.' ' { ;.;XtXi.o.A N A +.=XuX5X*XOX",
"pXpX-X&.G I +.+XeX:X&.S S $.OXwXiXiXtX;Xr.| { O.j.yXpX2X>X$.S G 7.-X6X6X:X+X@.K >XuXuXpXeXwX:.' ' X.r.yXyXyXy.A D Z | @X5X2X#.K ",
"pXpX5X=X#.L OX#X7X4X$XL #.=X:X5XyXtXyXtX1X%.{ X.i.tXiXyX2X>X#.&.+X4X7X4X+X@.@.&.:XiXuXpXuX;X:.| { X.r.wXyXyX2X0.#.@.@.+X2X-X .Z ",
"2X2X-X@X-X@X$X&X7X<X$X~ +X5X2X2Xy.y.y.=X;Xy.8.&.t.u.*X;X2X5X5X4X8X8X-X+XL K &.=X-X=Xt.9.*X*Xt.t.:.8.r.&.t.;X2XiX6X<X#X%X@X7.J v ",
" .H @.9.4X7X7X&X#X$X$X$X@X<X=X9. .G  .8.y.=X2X=X$.S F *.9.1XpXgX4X8X+XP I L @X=X9.H G I +.&.=X;X1Xy.%.{ A @.=XiXsXgX7X<X$XH m v ",
"c c Z L 6XgX0X&X#X$X$X$X-X=X9.| F Z G *.0.2XuX=XF l l B Z 9.sXsX7X#X7.P K 6.=X1XL Z Z I G 9.-X2XiX1X .v l m 9.5XgXgXgX6X@XH J v ",
"Z c c K 8XhXhX&X&X&X#X#X-X7.G F F K 9.*X=X-X:X*XS c c c m J q.6X7X7X$XOXL 0.1Xy.~ v J L @X2X<X1X1Xy.| m c c G #.-XpXgXhX8X+XK G ",
"%.| G K OX8X7X7X&X&X&X#X@X9. .{ | 9.=X-X=X=X*X9.%.@.| F J m J q.&X&X#X~ 9.%X,Xy.3.H 7.%X<X<X,X=X@X0.6.@.$.| S D *.#XuX7X5X*X9.6.",
"uX;X*X*.K P $X8X&X&X8X+X9.9.8.&.y.*X*X9.9.OXt.9.;X2X1Xu.3.F m J $X&X#X$Xy.y.y.y.9.q.=X0.9.9.9.:.9.q.y.tXtXu.| c c K OX5X2X=X7.@.",
"sXpXeXOXS D #.-X&X4X+X#.#.t.;X;X;X*X*.| %.:.:.&.tXiXyX2X,X3.m Z P #X#X9.8.6.3.r.a.1X=X@.Z F | :.8.p.rXsXpX2X*.c l D OXeX1X9.@.F ",
"uXuXuX>X+.S #.-X5X-X@.I  .t.1XtX;Xt.| [ X.X.$.:.;X2X2X1X1X9.F G $X-X-X9.O.A { r.1XrXy.| B Z >.;.;.r.rXyXtX=X&.S D D &.;X=X8.| N ",
"=X-XuX:X9.*.9.:X5X@XG Z G y.tXiX2X:.[ ' >.X.X.$.;.:.*X;XtX;X6. .+X5X2X*.N B B =.wXrXt.[ B N -.-.=.=.p.i.t.9.9.*.S +.u.eXy.o.N b ",
"#.+X8X:X*X9.*X;X2Xt.A m G y.yXyXeX;.' ) ] -.-.>.>.| 9.=XuX2X:.&.=X:X>X| ) B B -.wXeXu.] ' _ ] -.-.-.-.X.| @.0.+X#.8.;XrXp.{ M b ",
"K *.*X>X*Xu.y.>Xy.%.F A  .p.;X1X>X$.' ' ] ] ] ) A A o.*X:X:Xt.;.OX:.:.>.' ) _ -.u.j.=.-.' _ ] ] -._ _ A N | 9.t.r.t.j.wXe.O.` M ",
"[ +.$.:.OXu.u.;.o. .| | o.;.:.r.$.$.X.>.' ] ] ] ) ' | ;.:.:.$.$.:.$.>.-.-.-.>.-.=.:.;........._ _ _ _ ` ' | o.:.=.r.u.i.u.-...` ",
"+.| >.>.:.=.=.-...|  .o.o.X.] ] A | $.$.;.X.' ) ] ] -.>.>.>.[ [ $.$.-.:.:.:.;.-.-...] ] ..=.=.] _ _ ` _ ' ] X.| ..X.=.r.p.:.=.o.",
":.OX:.>.| >.>.X.X.;.;.X.{ ' N B B A %.u.:.;.' _ X.;.:.$.+.' [ [ >.X.;.:.wXu.;.] _ B B ] :.u.:.] _ _ _ -.=.;.| ] ] ' ' ;.u.u.r.o.",
":XOX>X:.[ ' ' X.:.:.;.| A N ' B Z ' :.wXwX:.] ] =.u.eXu.:.+.[ >.*.:.u.wXu.:.O.` ) ) N { :.u.:.X._ _ -.e.j.u.;.| ' ' ' ;.u.i.;...",
"pXuX5X*X+.D | %.*Xt.%.| A | | | [ +.u.wX;Xr.{ O.i.yXiXyX-X9.L L %.9.;X;Xt.X...{ '  .| o.r.t.&.| _ ' o.i.eXeXu.=.o.{ { =.i.i.-._ ",
"pXpXuX-X@.S G &.u.t.$.| *.9.=X=X*X*X*Xt.r.o.} o.a.yXsXaX3X,X@X%X9.y.=Xy.e.} o.8.i.i.1Xy.t.8.o.| | X.u.rXyXyXwXu.r.8.o.e.e.=._ _ ",
"uX5X;X@X7.6.6.7.t.9.%.&.*X2X5XiXuX:Xy.8.O.O.} 4.a.9X9X9X9X3X%X%Xa.w.q.4.` E e.j.aXyXaXrXa. . .{ | r.i.rXrXwXj.j.y.y.p.8.e.O._ _ ",
"t.&.6.6.@X,X%X+X7.&.&.*X:XuXiXiXyXrXp.4.} ,.4.5.s.5.E Q C Q C Q x C x * ; n s.aXdXdXaXyXy.4.H F o.r.rXi.p.p.i.i.1X1X1Xy.e.O.` ` ",
"` _ N 4.1XaXsX,X#.@.t.eXtXeX;X>Xi.j.e.,.,.,.s.s.<.,.- @ $ # # # # # # X   - s.k.k.g.a.a.w.3.} } e.e.j.=.....O.y.;X2XsX3X@X6.3.6.",
"z b b { a.sXsX-X9.#.u.;X;Xr.%.3.4.,.,.n n f f n f @ + + R ! ! R R R R R R 1.1.1.T Y T n V E E ,.,.-.-._ _ B { r.1X2X6X4X@X@X0.7.",
"; z M o.y.1X,X0.6.6.9.0.8.H F { ,.,.- @ @ @ + + @ + f `.jXMXMXxXxXxXxXMXMXxX2.2 O # $ # * = T ,.,.` ` n b M { &.9.@X-X#X-X-X#X$X",
"z N o.8.6.@.9.7.7.0.y.w.4.V x - - - + + + 2 2 @ 2 2 j |.nXDXGXJXKXKXKXKXZXvXj : > o O # X $ & - - n ` ,.4.4.} | G K @.+X%X&X#X$X",
"| %.9.9. .J ~ 0.a.3Xa.5.W Y % X X 2 f j j j g g a g D.`.|.nXDXJXKXKXFXHXnX_.D.j p y y y f t + . @ - <.h.k.a.4.V m c S +X4X4X$X$X",
"5X5X2X=XL Z  .a.qXqX/ Y ( u r 2 2 3 j (.D.`.]. X X].(.D.h '.lXNXVXCXVXvX_.D.D.D.(./._.jX X.X2.f + t ! 1.d.f.5.4.V m S 0.6X4X~ I ",
"7X5X5X-X@.3.q.3XfXh.Y $ , y g h h V.G.G.G.].vXVXVXvX_.a m./.'.}. X|.}.].G.C.F.C.(.'.lXVXSXSXMXcX2.g t t & Y 5.g.a. .6.0.%X&XP U ",
"+XOX@Xt.y.1Xa.fXg.W e . > i D.`.{.F.F./.].vXAXHXHXAXvX]./.G.V.D.D.G.C.F.F.F.F.G.'.lXZXGXFXKXLXAX Xj 3 : o t R 5.9Xg.3X%X%X$XP U ",
"c c J  .y.dXdXh.R e , 6 i V.G.!.!.L.F.[.bXZXDXGXJXGXDXzX'.V.v.A.B.B.A.A.L.A.A.[.zXDXDXJXJXJXKXZX XV.p h i y e ( / qXhXqX&X$X^ I ",
"l l v 3.a.qXh.W e > 5 p m.C.C.F.L.N.Z.'.bXZXFXJXJXDXDXzX'.C.A.L.M.N.A.B.v.v.A.{.zXZXJXJXJXJXJXCX XV.V./.(.i 1 e ( / qXdX0X$X~ ~ ",
"+.A G q.w.5.Y t , 5 6 h V.G.S.F.E.L.F.!.].lXDXGXJXDXlX].).Z.S.F.Z.F.C.C.A.A.A.).'.lXDXFXJXJXJXNX[.C.C././.(.g t & ( / dX0X%X$X$X",
"-X=Xa.5.Q s % > 3 7 7 V.'.}.}.]./.C.C.B.V.'.lXCXNXlX'.V.C.Z.S.G.].}.}.[.|.'./.C.m._.lXVXCXCXBXzX[.C.m./._. X X.X/ Q ^ ^ %X9X%X~ ",
"uXpX9X5.u $ , 3 i 8 h _.vXAXCXvX'.C.B.Z.C.!.'.}.}.'.G.A.S.D.D.'.vXCXCXCXNXlX|.V.m.G.'.|.}.}.}.[.{.C.V._.lXVXCXSXMXkXR x 5.9Xy.%.",
"uXsXqX^ % . , 7 p V.'.bXDXLXLXDXlX]./.!.Z.L.C.C.C./.E.A.Q.Q.].bXDXKXKXKXJXBX}.V.B.C.C.G.C.C.F.C.G.G.].lXZXKXPXPXPXMXR # V a.r.| ",
"4X9XfXd.r . < 8 B.{.lXZXHXFXLXGXZXzX'.Z.N.L.K.N.M.N.W.L.T.{.bXAXGXKXKXJXJXBX}./.B.F.F.S.C.Z.B.B.F.{.bXZXFXKXKXLXLXMX! X R s.4.) ",
"~ 3XfXh.y 4 7 m.B.[.zXBXVXVXVXCXBXzX[.L.J.W.J.P.W.J.W.J.Y.[.mXBXVXSXNXCXBXzX'.C.F.E.E.E.F.E.E.B.C.'.bXAXCXVXNXCXBXjXj f R 5.` M ",
"m w.qX.Xg 7 m.F.F.).XXXX}.}.}.}.XX[.{.E.E.Y.E.J.W.W.Q.Y.W.{.[.XX[.[.}.}.}.{.!.L.W.Q.Q.W.E.E.E.L.F.).[.XX}.[.[.}.}.].(.j 1.<.` b ",
"C Q d.! j p Z.W.~.P.I.L.Z.A.C.B.Z.L.E.E.E.Y.W.W.Q.W.Y.P.J.J.L.Z.N.C.F.F.E.H.P.J.J.~.Q.W.W.W.W.E.L.E.E.Z.F.Z.S.S.F.G.(.2.! T n n ",
"k & u t 7 m.N.W.^.P.K.K.K.v.K.H.K.J.E.W.E.E.E.Q.W.E.W.W.W.P.J.K.N.N.N.N.J.J.J.U.R.R.~.Q.Y.W.W.~.!.I.H.H.N.H.H.H.B.F.`.(.f + n ` ",
"= # # o 1 c.N.W.~.~.J.J.J.J.J.~.W.W.Y.E.T.E.W.E.W.W.E.L.E.P.P.U.W.W.W.J.U.~.~.U.U.J.Y.W.Q.Y.Y.W.P.P.J.J.Y.Y.Y.Y.Y.!.G.h 2 @ T s.",
"Y & X . 1 c.A.P.R.R.Y.P.W.W.P.L.L.J.J.L.Q.W.W.P.Y.~.W.W.P.L.J.J.P.P.J.J.J.U.U.U.Y.J.W.W.W.T.E.W.U.U.P.P.W.W.P.Y.S.Q.Q.h 2 @ R h.",
"5.Y $ o < c.Z.P.J.T.Y.Q.^.~.P.I.J.W.W.W.W.W.W.P.W.W.W.W.W.W.Y.J.J.P.~.P.J.I.U.~.~.W.Y.W.W.W.Y.W.P.J.J.J.P.P.W.W.Q.Q.`.j 3 + R s.",
"fXs.& O 1 p K.P.R.^.^.^.^.~.P.L.L.J.P.W.P.P.P.W.W.P.P.E.W.E.J.E.J.~.~.U.J.J.U.P.W.W.R.~.Y.~.Y.J.P.P.I.P.Y.Y.R.Q.Q.Q.`.a 3 2 f s.",
"cXh.u o 1 c.L.W.R.R.R.~.R.Y.P.P.W.Q.W.W.P.P.P.P.P.P.J.P.W.W.W.Q.~.~.P.J.U.I.J.J.W.~.Y.Y.Y.Q.R.Q.P.W.W.P.E.Y.Y.Q.S.!.S.D.2 @ f R ",
"kXh.r . 4 h S.Q.Q.W.P.P.U.~.P.W.R.R.Q.Y.Q.W.P.P.U.U.W.J.W.P.P.P.W.W.U.P.U.U.P.I.E.Y.W.Q.Q.~.R.J.W.~.~.Y.P.L.W.W.E.)./.j 3 O s s ",
"k.1.% . 3 h S.S.W.W.P.P.P.P.W.W.Q.R.R.Q.J.P.J.I.P.U.U.W.Y.W.L.W.~.W.P.P.P.P.P.E.W.E.W.W.Q.Q.~.Q.J.W.~.Y.W.W.W.W.W.L.D.p e $ s <.",
"W Y % o 3 q l.n.J.Y.W.W.W.W.W.W.Q.Q.Q.Y.U.P.I.I.I.P.~.W.Y.T.Q.T.~.W.E.P.P.W.W.E.W.L.E.W.W.~.Q.Y.W.P.J.J.P.~.W.W.W.A.m.6 : $ R d.",
"x = @ o 3 q 0 z.B.H.H.J.!.Q.W.W.Q.Q.~.Q.P.I.I.I.I.P.~.W.Y.Q.Q.Q.!.!.W.W.P.!.W.W.W.E.E.E.W.W.Q.W.~.W.P.~.W.W.J.K.K.B.c.1 . + <.k.",
"* * X . 3 7 9 x.l.l.l.b.L.!.E.Q.Q.Q.Q.Y.I.I.I.I.I.U.P.P.W.Q.Q.Q.W.!.Q.E.W.E.E.W.!.!.W.E.Y.W.W.W.W.W.W.W.W.L.M.x.x.c.9 1 . % W aX",
"n n s t y 8 9 z.z.z.z.b.B.Z.N.S.S.H.N.N.K.v.K.v.K.K.M.M.N.T.S.S.S.S.S.S.H.N.N.N.Z.L.C.N.B.N.N.N.N.N.N.H.B.B.z.w z.w p y t Y ,.s.",
"a.s.s.1.d i 7 8 q q q 0 m.b.b.l.l.b.l.x.c.x.x.x.v.c.c.x.b.b.b.b.b.b.m.b.l.z.l.l.c.l.b.l.b.l.b.b.c.l.l.c.c.c.9 w w 8 i j ! <.5.F ",
"i.k.k.h.d , 1 1 4 5 7 8 8 q 9 q 9 9 z.z.z.z.w w w z.z.w 0 z.z.b.a a a z.9 9 9 9 z.9 9 9 z.z.z.z.z.z.0 0 0 7 5 5 4 1 , d d.g.4.C ",
"` e.a.5.& X o > : : 6 i i p 8 p q q 0 0 0 9 q q 8 8 8 8 q a q q a a a a 7 8 8 q 8 p 8 8 8 q 0 0 q q a p i 7 1 : : > O u W w.} B ",
"b M ` E Y u u t t e e 1 1 < 5 5 5 5 5 5 5 5 5 3 5 < < 5 4 5 5 7 4 3 4 3 4 4 4 < 6 6 5 < < < 5 5 3 3 3 3 3 2 r t t t & Y 3.q.} m ",
"z z b E ^ f.f.h./ Q e O o > > > > : : : : 4 : : : > > , : : : , : . . : > > > > > > : > > : > : : : : o O % s R / 1.d.g.a.6.G F ",
"M b M 4.3XfXdXkXkXd.( u $ $ e e e t y t t t t 2 r % $ r r 2 2 t t f t t t t t e $ e t t t t t r t 2 + % % = W f.g.fXdXdX0X,X6. .",
"O.O.} 3.y.9XaXdXdXqXf.^ W Q Q Q W 1.d.1.1.1.W W W W W T Q Y s T / / / / / / / Q Q Q / / d.1.1.<.<.f ,.<.,.,.4.4.q.a.aXdXsX3Xy.6.",
"p.a.q.} 3.~ @X%X9X0XqXqX3X5.5.5.g.9XqXg.g.g.f.w.w.a.a.w.5.,.,.<.f.qXqXf.qXqXqX/ w.^ qXqXg.g.g.g.s.s.s.s.g.a.E Z J H ,X6X6X3Xw.q.",
"a.a.p.3.J Z P 7.$X%X%Xw.w.q.} 8.,X%Xw.w.w.w.q.q.0.,X,Xy.e.V V ` q.%XqX$X^ $X%X$X~ w.w.0.q.3.q.q.4.4.s.j.rXp.{ l v v L 0.$Xq.q.^ ",
"a.a.y.6.m c I ~ ~ $Xq.~ @.G { o.0.7.L H 6.6.J G 7.=X=Xy.8.) M M J ~ ~ ~ ~ C ~ ~ ~ 7.~ P v m H  .{ o.e.rX1Xr.A l U U I ~ ~ P ^ V "
};
