/* XPM */
static char *_4ud31738162116[] = {
/* columns rows colors chars-per-pixel */
"64 64 256 2 ",
"   c #3B0B00",
".  c #391605",
"X  c #371E12",
"o  c #2E1805",
"O  c #37250C",
"+  c #392914",
"@  c #37371B",
"#  c #2F3011",
"$  c #3B3B25",
"%  c #2F3C20",
"&  c #1A3B26",
"*  c #4A0A04",
"=  c #550904",
"-  c #481609",
";  c #57170D",
":  c #481B13",
">  c #591A14",
",  c #630C08",
"<  c #63140E",
"1  c #681815",
"2  c #731915",
"3  c #7B1915",
"4  c #7B1A1A",
"5  c #771817",
"6  c #43240C",
"7  c #472716",
"8  c #4F2B16",
"9  c #69271B",
"0  c #73281A",
"q  c #6D301E",
"w  c #463926",
"e  c #553A28",
"r  c #502E26",
"t  c #6B2A23",
"y  c #772D27",
"u  c #683428",
"i  c #753326",
"p  c #7B3831",
"a  c #1D592A",
"s  c #1A472C",
"d  c #394628",
"f  c #25592B",
"g  c #254E39",
"h  c #285838",
"j  c #395938",
"k  c #364D2C",
"l  c #28612C",
"z  c #2C6638",
"x  c #346C3C",
"c  c #3B6C3B",
"v  c #356638",
"b  c #35723C",
"n  c #3C743C",
"m  c #3B783B",
"M  c #326A2D",
"N  c #0F481C",
"B  c #4C431D",
"V  c #444828",
"C  c #574A2B",
"Z  c #444B35",
"A  c #594B33",
"S  c #475637",
"D  c #575837",
"F  c #4A552A",
"G  c #694C34",
"H  c #655637",
"J  c #704E32",
"K  c #47673C",
"L  c #566539",
"P  c #45763D",
"I  c #5C753E",
"U  c #6A673A",
"Y  c #385C44",
"T  c #2D6745",
"R  c #346343",
"E  c #346C42",
"W  c #3B6C43",
"Q  c #3B6C4B",
"!  c #386749",
"~  c #3B7344",
"^  c #3C7A44",
"/  c #3C744B",
"(  c #3D7A4B",
")  c #357346",
"_  c #386A51",
"`  c #3B7553",
"'  c #2F7141",
"]  c #495B43",
"[  c #595844",
"{  c #665B45",
"}  c #765443",
"|  c #476748",
" . c #576746",
".. c #437A44",
"X. c #4A7C45",
"o. c #43744C",
"O. c #437B4B",
"+. c #4B7C4C",
"@. c #477448",
"#. c #547C4C",
"$. c #577449",
"%. c #4A6A52",
"&. c #437553",
"*. c #457C54",
"=. c #4B7C53",
"-. c #4B7D5A",
";. c #497857",
":. c #577B56",
">. c #586954",
",. c #676647",
"<. c #667858",
"1. c #6C704E",
"2. c #6D7D64",
"3. c #5A7B60",
"4. c #861B1C",
"5. c #911E1C",
"6. c #8A201D",
"7. c #87271B",
"8. c #891D22",
"9. c #911D21",
"0. c #8A2826",
"q. c #9C2D2C",
"w. c #972A28",
"e. c #89362C",
"r. c #9C322C",
"t. c #95342B",
"y. c #9B2C31",
"u. c #8C3C33",
"i. c #9C3332",
"p. c #963836",
"a. c #A32C2B",
"s. c #A92D2B",
"d. c #A4332D",
"f. c #AB322E",
"g. c #A23B2D",
"h. c #AD2E31",
"j. c #A32F31",
"k. c #B12E33",
"l. c #B02E38",
"z. c #A53333",
"x. c #AB3333",
"c. c #AB343A",
"v. c #A73936",
"b. c #B13335",
"n. c #B0323B",
"m. c #88463A",
"M. c #97433D",
"N. c #984D36",
"B. c #A7433B",
"V. c #866A3B",
"C. c #99564B",
"Z. c #AA564B",
"A. c #A95955",
"S. c #B75852",
"D. c #AF4D47",
"F. c #8D7252",
"G. c #B8645A",
"H. c #B27658",
"J. c #AA6C58",
"K. c #997C66",
"L. c #B86662",
"P. c #AA7863",
"I. c #B07264",
"U. c #C7645D",
"Y. c #C1635A",
"T. c #45823F",
"R. c #3F8248",
"E. c #45814C",
"W. c #4B834C",
"Q. c #4D8A4D",
"!. c #468446",
"~. c #57874C",
"^. c #57954C",
"/. c #4C8453",
"(. c #4C8A54",
"). c #4B835B",
"_. c #4C8B5A",
"`. c #458456",
"'. c #528354",
"]. c #538C53",
"[. c #53845B",
"{. c #548B5B",
"}. c #5A8D5B",
"|. c #5C8656",
" X c #55925C",
".X c #599457",
"XX c #4F9354",
"oX c #65885A",
"OX c #77875B",
"+X c #649859",
"@X c #688951",
"#X c #578963",
"$X c #5B9362",
"%X c #589665",
"&X c #4B8761",
"*X c #658764",
"=X c #778A65",
"-X c #669A67",
";X c #74936B",
":X c #64A265",
">X c #60A261",
",X c #95835E",
"<X c #A4835D",
"1X c #A8915F",
"2X c #8E8E6A",
"3X c #A78669",
"4X c #B89A78",
"5X c #B18E6E",
"6X c #B4A279",
"7X c #8EA57B",
"8X c #CC8F78",
"9X c #D2A97B",
"0X c #E19D7E",
"qX c #B9A685",
"wX c #B7B396",
"eX c #AE9D89",
"rX c #D68A84",
"tX c #C99685",
"yX c #CF9088",
"uX c #C7A988",
"iX c #D8AD88",
"pX c #D9B288",
"aX c #DBB896",
"sX c #CDB093",
"dX c #E3AB87",
"fX c #E6B789",
"gX c #E8AC9C",
"hX c #EEBE9B",
"jX c #E8B896",
"kX c #F2BE9A",
"lX c #F2B496",
"zX c #E9B4A5",
"xX c #F6B9A8",
"cX c #F3B0A9",
"vX c #D4BAA4",
"bX c #EDC395",
"nX c #EDC39B",
"mX c #E9C598",
"MX c #F3C395",
"NX c #F2C39B",
"BX c #F8C79B",
"VX c #ECC8A3",
"CX c #F3C5A2",
"ZX c #F2CCA4",
"AX c #F8CAA9",
"SX c #F7D2AA",
"DX c #F6D6B4",
"FX c #F1CBB0",
"GX c #D3CEAC",
"HX c #FCDBC8",
"JX c #FFE4D2",
"KX c #FFE9D7",
"LX c #FFF4D8",
"PX c #FEE3CC",
"IX c #FFF0E1",
"UX c #BEC69F",
/* pixels */
"v x ) ( ).&X[.).`.`.`.`.*./ T T _ _ T Y T ! _ _ Y ! ! _ _ ` &.;.(.Q._. X%X%X_.R.x x T ' T T _ _ T T T T _ _ ` ` &X&X`.&X%XXXXXT.",
"^ ( ( ( ( *.-.).`.).`.*./ Q ) ) _ ` &.&.%._ Y %.%.%.%.&.Q ! Y ! ^ O./.{.:X%X`.( o.O.*.` ` _ _ T T _ _ _ ` ` T T T ` `.&X%X%XXXT.",
"XX(.E.) b x o./._._.( ) v W / -.&X#X3.%.%.] ] %.2.2.2.:.>.Y g Y | X.|.+X-X|.@.| $.:.*X2.3.%._ Y _ _ _ -.&X-.) z T T ' `.-X.X!.m ",
"%X%X_.( v z n '.#X_.( ' R @.[.*X;X2.%.] Z w w w [ { { >.=X=X2.3.=X7X7X;X1.S V d D [  .>.<.3.>.%._ _ -.#X%X&X` x T z ' `.|..X!.M ",
":X%XXX`.R.b P ].%X{.O.c | #.oX;X;X<.w X X X X : : : : [ eXGXvXUXUXGXGXeXH O o O 7 7 + A 1.2.>.] ] %.;.3.#X#X/.O...~ ^ +.'./.n z ",
"_._.XXXX!.!.Q.]..X].'.#.'.<.$. .{ A r X : : * * *     e 3XHXKXIXLXLXLXvXJ - * ; : :   7 A [ [ Y g Y %.>.3.-.}.oX}.{.'././...M f ",
"' ' R.R.XX+X.X@X~.#.:.oXOX1.F + + 8 u u p y t t t > t p C.yXFXJXLXLXPXjXC.q 0 0 y y t r : : + # X $ ] >.| | oX-X-X-X$X X`.b l f ",
"z a a ' ^.:X+X+XOX$.L D H A 8 . . > p m.m.C.A.J.L.I.I.C.m.C.yXgXjXjXlX8XZ.t.t.p.p.C.A.A.} r : X X : r $ @ d  .oX;X-X-X}.(.) z l ",
"z a a M ^.+X+X;XOX,.C X - 8 9 q 0 i N.m.m.Z.yXzXzXzXzXtXC.u.C.L.G.G.G.Z.N.g.g.g.t.J.yXzXsXI.} u e t 8   o + D >.oX-X:X-X_.( x E ",
"( ' x b X.^.+XOX1.A -   * ; i u.m.e.t.7.e.J.zXJXLXKXJXcXL.p.0.0.0.0.7.7.r.r.s.7.e.L.cXIXIXzXI.m.u.e.2 - - . + V | |.*X$X#X_.O.~ ",
"&X_.E.^ n X.~. .C 6 - ; 1 9 e.m.m.t.t.e.e.J.xXPXKXKXJXcXL.e.0.w.w.0.7.7.t.g.g.r.y.L.cXIXKXcXH.m.t.i.e.0 q 7 o # d @.'.}.#X/.@.W ",
"%X%X{.+.n K F V O - ; J C.I.G.J.G.A.v.t.t.Z.8XzXzXzXcXrXA.0.0.v.Z.Y.H.Z.M.t.r.t.p.A.rXcXcXrXS.p.r.r.p.M.A.F.{ d d k @.[.[.;.| v ",
"%X%X$X'.K k % # X : 9 C.tXzXzXgXgXU.Y.p.t.v.Z.G.G.G.L.S.D.0.e.C.yXlXcXyXZ.e.i.c.y.M.A.L.L.S.B.i.d.w.t.A.yXvXvX2X$ & ] 3.[.&.R j ",
"`._.#X}.<.S # o - e C.yXDXJXJXJXHXcXL.y.t.i.y.t.t.y.y.t.i.p.A.yXFXJXKXxX8XZ.p.i.y.c.y.y.y.y.z.q.d.g.Z.8XFXIXIXUXZ # ] 2.3.%.h h ",
"~ +.<.*X<.Z O   - m.rXcXHXHXHXKXHXcXL.p.y.i.r.q.q.a.a.w.q.Z.rXxXHXJXJXHXxXrXA.p.y.y.y.y.w.i.z.r.s.D.8XxXHXKXIXvXG O [ 2.3.Y Y s ",
"z @.oX<.,.e : - 1 M.rXcXcXgXgXgXgXrXA.p.y.i.c.j.h.h.h.j.r.S.rXcXcXgXgXzXcXrXS.y.c.c.c.y.j.z.z.q.d.S.rXlXgXzXzX5XJ + A } >.] Y Y ",
"! | >.[ r : > 2 0.v.S.U.U.G.S.S.Y.B.B.g.s.f.f.f.f.f.f.d.d.B.S.Y.G.S.G.Y.U.S.D.z.j.j.c.j.z.f.x.g.a.B.S.Y.L.L.A.A.} t > r [ >.%.Y ",
"o.| ] $ X * 1 0.i.z.i.z.a.d.s.w.g.f.s.g.s.f.f.f.f.k.f.f.d.d.d.q.t.t.q.q.s.j.a.h.l.c.c.c.v.v.x.f.f.g.g.g.y.t.p.p.p.p > > e [ [ %.",
":.| $ X : > 1 0.y.c.d.a.a.a.w.w.s.s.s.f.f.f.f.f.f.f.f.k.x.f.a.w.r.q.q.w.a.a.s.k.c.h.h.z.x.h.f.f.d.d.w.r.t.w.r.r.c.p.p r : r ] >.",
"=X[ @ o : t 1 8.w.x.v.x.s.s.f.f.s.s.f.f.f.f.f.f.k.k.k.k.k.h.f.x.j.z.h.h.k.s.k.h.h.h.h.h.z.f.f.f.f.g.g.d.g.v.c.x.j.v.p.p : X g >.",
"=X,.@   > 5 5 8.y.x.c.x.x.x.l.x.f.f.f.f.f.f.k.k.k.k.k.k.k.f.k.f.h.h.h.h.b.k.k.k.l.h.x.h.f.f.f.f.f.d.d.d.d.x.b.f.c.c.c.p : X Z Y ",
"2X1.8 . > 1 5 8.w.z.z.v.x.x.x.h.b.b.b.f.f.f.f.f.k.k.k.k.k.k.k.b.c.b.l.h.b.b.x.b.x.x.x.x.f.f.f.f.f.f.d.v.g.f.x.x.n.n.M.y : X r Z ",
"2X[ 7   > 5 4 8.q.v.c.v.j.a.x.x.x.x.x.f.f.f.f.f.n.n.l.k.k.k.b.b.x.x.x.b.x.b.x.x.x.x.x.d.f.f.f.h.f.f.f.f.d.d.f.x.c.j.0.1   X g Z ",
"<.A + . > 5 5 8.w.z.v.v.v.z.c.z.c.c.f.v.v.v.x.b.c.n.n.n.n.b.b.x.b.b.n.l.b.n.x.x.x.x.x.x.f.x.f.k.f.f.x.x.x.x.b.x.j.w.4 >   X $ ] ",
"[ d O   > 1 4 4 8.w.q.z.c.c.v.l.c.c.c.z.d.v.g.v.c.c.c.c.c.c.x.x.x.x.f.f.g.x.x.v.h.j.x.x.v.x.k.h.f.s.f.x.x.c.l.j.9.8.2 ; o # V $.",
"d % # X : > 9 4 4 8.0.y.j.a.q.q.y.y.q.q.q.t.q.q.q.y.j.y.y.q.a.q.a.r.a.w.q.q.r.w.a.w.q.a.a.q.a.9.a.a.r.q.q.i.j.w.8.5 < - O V K ~.",
"& d k w : - 1 9 4 3 4.6.4.5.5.5.8.9.0.4.4.6.4.4.8.8.8.8.4.6.6.6.6.6.6.6.6.6.6.6.4.5.9.4.9.9.9.9.5.5.4.6.6.6.4.0 2 > * 7 D ,.<.~.",
"s j ] [ w O - ; ; < 2 2 5 3 4.4.4.4 5 5 3 3 4.4 4 4.4 4 4 3 3 2 3 3 3 3 3 5 5 4 3 3 4.4.4.5 5 4.3 4.4.2 2 < < ; : : : V 1.OX~.P ",
"W @.:.>.S @ . .   - < 0 2 2 3 5 2 2 2 2 5 5 5 5 5 5 3 3 5 2 2 2 2 2 2 5 2 5 2 5 4 2 4 3 4 5 5 4 3 5 2 1 9 > -   . O V [ OX+X@XP ",
"#X$X*X:.| V @ + 8 8 6 ; ; < < < 1 < < = , ; , , , , , , , , , , 1 < < , = 1 1 < , = , , 1 1 1 1 < 1 > > ; 7 7 7 + w F $.oX@XX.v ",
"*X$X*X|.$.K S  .,.D 8 . - - - - * * * * * * = = = = = = = = * * = = * * * = * = = = = = = = = * * * - * . 6 C ,.L L  .~..X~.K l ",
"+.=.+./.'.#.|.oX2X1.B O O 6 - - : > 9 i t 0 9 0 2 t 0 0 0 0 9 1 * * > y u > : * 1 t y 1 * * * r r r X X o w { 2.OX:.#.'.'.!.M l ",
"h h v W /.@X-X+X@X@XI L D S V w e J F.I.I.J.H.G.H.1XY.<XH.I.H.m.: : } P.3X} X * m.I.5XN.q 8 u } { D Z $ d k | :.oXoX+X}.].!.m M ",
"h g h E W..X+X^.^.@X~.~.~.$.D S C F.5XiXlXlXdXdX0X0X9X0X9XfXjXH.: r K.FXHXK.: : P.xXkX8XF.J } ,.<.>.%.] ] Y ] W +.|.+X-X].!.^ m ",
"Q R j E o.Q.^.Q.^.@X+X+X|.#. .F w J 5XgXxXkXkXkXMXMXMXfXMXBXAX5Xr r 3XHXHXeXr : P.AXSXkXdX3XH A  .$.%.;.=.o.R v v X..X.X XQ.E.O.",
"#X[.@.o.b n T.Q.^.^.^.].W.@.P k # C <XfXxXCXAXxXBXBXMXMXBXSXSX5XX X 2XHXHX3XX X 5XSXAXSXSXuXH @ k | #.=.[.*.x l f n +..X.X]./.O.",
"$X}.{.O.b x ^ Q.~.].^.XXQ.+.X.k 6 B 1X9XkXCXCXCXBXMXMXMXBXSXSX3X7 : 3XHXHX2X: 7 3XAXSXSXAX9XH + k X.[.{.$X`.E f f z ^ {.#X{.*./ ",
"-X}.}.E.b x ) (.Q.Q.(.Q.Q.W.$.F B B 1XfXNXNXCXCXBXBXMXMX9XfXBX8X} J 4XDXFX5XJ J P.aXxXAXVX4XG # k $.}.-X%X(.b l f z .._.&X).&.! ",
"XX X}.(.~ z ( _.}.(.E...T.~.~.L 6 J 5XMXNXNXNXkXMXBXMX9X8X5XiXaXtXtXaXVXFXaXtX5XI.8XdXAXAX4XJ @ F #.|.$X%X/.( z l x O.).).&.R h ",
"~ `.$X#X/ E ( /.$X].^ c P I $.L F V.9XBXAXMXhXkXBXBXBX9X5X8XiXCXFXFXxXVXhXCXFXgX8X8XdXAXAXuXF.A F K $.=././.*.~ v ~ ;.).-.Q Y g ",
"z ` &X#X*.^ o./.-X'.c M K K F F V.9XbXMXBXBXMXMXkXNXNXfXpXpXjXCXAXAXFXhXVXCXAXzXpXiXlXAXCXaXsX2XD d j | W ^ =.-./ / -.&X;.! T s ",
"a T ;.#X).&.+.].}.W.c v K k d C 1X9XMXBXMXMXNXnXnXNXMXMXNXNXNXCXCXVXVXhXmXVXVXVXVXCXCXCXmXFXFXqX{ @ % j j | *./.o.&.&X&X&.! T g ",
"s h o.;.-.;./.[.|.=.c v K S % A 1X9XBXBXMXNXNXbXnXbXbXNXNXNXCXVXVXnXhXVXnXmXmXnXCXCXCXjXmXSXDXuX{ @ % j j Q &.-.&.;.`.-.` T T h ",
"N s j o.=.-.[.#X'.@.c | $.S d C ,X9XBXBXBXMXbXnXNXNXNXMXmXbXnXCXhXnXnXhXnXmXnXmXVXnXNXkXmXSXFX6XH % d S W R Q Q o.&.&.` ` ` _ T ",
"f f f v o.-.).-.o.o.W +.$.S w C <X9XMXBXMXbXbXbXNXNXbXMXNXNXNXkXhXNXkXhXhXbXnXNXCXhXhXkXNXSXZX6X[ @ d ] | v R R ! ! Q ` ` ` ` ` ",
"c c | W W Q / &.` *.&.@.K k @ A 1XpXmXBXMXbXmXbXNXjXbXMXNXNXNXkXjXNXCXhXjXnXbXNXCXkXkXkXMXZXZX6XG $ Z %.%.&.! j T Y R _ `.&X` ) ",
"]..X|./.) z E / *.&.o.! j d @ A ,XpXbXbXMXmXmXmXnXNXMXkXMXNXxXNXMXMXkXkXNXbXMXbXhXhXkXkXNXZXZX6XH @ Z >.3.:.;.W Y Y R _ -.*.` T ",
"-X-X%X/.~ z x ) /.*.W v | k $ A 1XaXbXbXbXbXbXmXbXbXbXMXNXNXkXkXNXNXNXNXNXMXbXMXhXNXNXCXbXSXSX6XH @ S :.*X*X#X;.Q ! R Q *./ T a ",
"%X%X#X*.( ) ) ^ ( ) ~ ..#.D d A ,XpXmXnXNXNXnXmXmXmXmXbXNXNXNXCXmXmXMXMXbXbXbXMXNXCXVXVXmXSXSX6XD % | oX3.#X#X-.;.;.o./ ~ E h h ",
"&X&.` ` `._.(.R.) m ..'.}.$.S F F.5XaXZXAXnXnXbXmXmXmXbXbXbXnXnXBXBXmXmXbXbXbXbXnXnXhXVXFXGXsX2XD j | :.;.;.;.-.[.{.].E./ E z z ",
"T T z ' _.$X}.(.^ ^ E.}.*X<. .Z C F.uXAXAXCXnXbXbXbXbXmXMXbXmXmXmXbXMXmXmXmXbXbXMXNXmXSXDXsXF.D j ] %.%.W v E `._. X$X X(.( ) ) ",
"a a a z /.%X}.'...^ E.'.).$.| V + H qXDXDXCXjXbXbXbXbXMXmXmXmXmXbXbXmXBXmXmXbXbXbXNXZXmXqX,XC @ k ] | j h h z ( E.{. X}.].Q.E.E.",
"N N a v O.[.'.+.@.+.O.O.@.W j d @ ,.qXFXZXmXbXbXbXbXmXnXbXnXmXmXZXmXmXmXMXMXMXMXMXBXZX9XF.F d d ] Y Y g g a z b R.E.!.Q.(.Q.E.W.",
"a z W ^ @...@.X...E.O.^ ~ W R ] [ 1.7XsXaXmXNXbXbXBXNXZXZXZXSXSXZXZXSXSXBXBXBXMXMXBXmX6XH B V K Y Y Y R ! ) ) ) ^ ^ ^ R.Q.Q.!.P ",
"/ *.)./...n ..W.].(.O.~ o.o.:.:.:.>.,.F.uXZXBXbXbXNXCXSXSXZXVXmXZXZXZXZXBXBXBXMXbXbXpX1XU L | | ] Y _ &.`.).`.R.R.m T.!.Q.!.m M ",
"-.3.#X{.Q.X.!.~..XQ.( ^ O.[.$X*X*XD @ A 4XVXSXmXSXmXuX8X4X6X6X6X6X4X4X4X9X9X9XfXfXmX9X6XOX,. .@._ %.&.-.&X&X_._.XXQ.!.!.Q.T.M f ",
"Y _ =.'.^.^.^.^.^.Q.R.R.`._.{.'.>.k # A 6XSXSXSXFXiXF.J H H H A D H J J J V.8X0X9XfX9X1X@X~.#.-.-.&.` _ T ` &X%X%XXXXXQ.!.m M f ",
"g g v @.^.+X+X^.^.Q.R.R.`.XX+...v d # A 6XDXDXVXsXK.A O O @ $ d B B B 6 6 C 1X9X9X9X1XF.U I =.{.#X*.) T h T `. X:X>X>X.XQ.n v f ",
"& s f ~ ^.>X>X^.^.Q.Q.Q._.E.~ v j % # D qXDXDXsXF.C w $ @ k ] [ L U F w O B 1X9X9X1XU F I I ~.$X%X&XQ h h h Q /.%X>X:X%X/.@.x v ",
"Y g z m ^.^.+X^.^.XXXXXX(.O.c v | j F ,.7XvXGX2XD % V S S ] >.3.OXOX<.L B D ,X9X6X,XC F I ^.].(.[.-.) T T T T W `. X:X>X.XW.o.Q ",
"Y _ T _ ..Q.^.^.^.^..X.X(.^ ~ ~ @.#.$.@XOX2X2X1. .S  .| ] ] %.:.oX=X@X1.I 1.,XOXOXU I $.@X}.(.E.( ../ / o.Q v v W E..X$X}.{.=.+.",
";.;.&.! x c X.~.^.^.XX^.E.^ ) @.+.}.oX@X:.I P K $.#.:.@.| Y Y Y W.@X|.#.~.~.~.~.K K #.@X'.W.E.^ b ~ o.=.-.;.W h v ~ '.}.}.{.=.@.",
"=.-.;.Q v M P ~.~.W.Q.T.m b x ~ E.Q.X.X.#.K v K =.|.:.;.o.Y h j @.X.!.!.X.!.T.P P K +.#.c n m ~ x x o.'.}.=.v f f f @.+.W.@.@.P ",
"'./.*.E z k M P P P P m b z T ) !.m K c @...c c +.'.=.;.| j g g v n P m m M m m ~ ..O.b f l b ~ x x ..=.:.;.j k f f v ..@.P c M "
};
