/* XPM */
static char *_4up1738162116[] = {
/* columns rows colors chars-per-pixel */
"64 64 253 2 ",
"   c #030400",
".  c #0B0301",
"X  c #0B0B02",
"o  c #070B06",
"O  c #130402",
"+  c #1C0402",
"@  c #130B03",
"#  c #1C0A03",
"$  c #150A0A",
"%  c #0C1303",
"&  c #091708",
"*  c #111405",
"=  c #18170B",
"-  c #0C1915",
";  c #1B1B14",
":  c #171819",
">  c #180C10",
",  c #220503",
"<  c #230A03",
"1  c #290805",
"2  c #370D08",
"3  c #26140B",
"4  c #3A150D",
"5  c #261915",
"6  c #381714",
"7  c #370A11",
"8  c #18260D",
"9  c #0D2319",
"0  c #192717",
"q  c #19331B",
"w  c #0A2E0F",
"e  c #232313",
"r  c #2B2215",
"t  c #2C241C",
"y  c #26281C",
"u  c #352519",
"i  c #26351B",
"p  c #303017",
"a  c #192722",
"s  c #193824",
"d  c #152E2A",
"f  c #282826",
"g  c #322B22",
"h  c #372825",
"j  c #283827",
"k  c #3D3424",
"l  c #32332C",
"z  c #3C342B",
"x  c #3D392D",
"c  c #343827",
"v  c #2A3735",
"b  c #383935",
"n  c #2D2C31",
"m  c #231E21",
"M  c #481A19",
"N  c #5D1714",
"B  c #5C1A15",
"V  c #551C1C",
"C  c #5B1C1A",
"Z  c #571817",
"A  c #41110D",
"S  c #621614",
"D  c #631A14",
"F  c #6C1D1B",
"G  c #651A18",
"H  c #7C1F1B",
"J  c #781D18",
"K  c #48231B",
"L  c #54221D",
"P  c #592419",
"I  c #69241E",
"U  c #7A2216",
"Y  c #75221D",
"T  c #7C221C",
"R  c #772519",
"E  c #551D21",
"W  c #4E1E22",
"Q  c #7D1F22",
"!  c #661E20",
"~  c #492624",
"^  c #522322",
"/  c #592825",
"(  c #43352C",
")  c #473928",
"_  c #443B32",
"`  c #493C32",
"'  c #5F3020",
"]  c #672827",
"[  c #762421",
"{  c #7B2222",
"}  c #762B25",
"|  c #783229",
" . c #793534",
".. c #6B322F",
"X. c #16471A",
"o. c #1A4727",
"O. c #1C542B",
"+. c #1E4D33",
"@. c #27462B",
"#. c #34482E",
"$. c #23582C",
"%. c #34572C",
"&. c #284735",
"*. c #364837",
"=. c #245C33",
"-. c #2C5D3A",
";. c #295735",
":. c #375738",
">. c #26642D",
",. c #2B6335",
"<. c #2C643C",
"1. c #2D6A3C",
"2. c #286736",
"3. c #32653C",
"4. c #336B3C",
"5. c #386639",
"6. c #34723B",
"7. c #3A743C",
"8. c #3A783A",
"9. c #2F7138",
"0. c #234F1E",
"q. c #4B422D",
"w. c #55452C",
"e. c #484538",
"r. c #554837",
"t. c #4C503D",
"y. c #654D34",
"u. c #644E30",
"i. c #44703D",
"p. c #2B5C44",
"a. c #2B5846",
"s. c #365C47",
"d. c #364E48",
"f. c #2D6343",
"g. c #2E6A43",
"h. c #2F674B",
"j. c #336444",
"k. c #3B6444",
"l. c #346B43",
"z. c #3A6C44",
"x. c #34644A",
"c. c #3B644B",
"v. c #346B4B",
"b. c #3B6C4C",
"n. c #357244",
"m. c #3B7444",
"M. c #3D7B44",
"N. c #35724A",
"B. c #3C744B",
"V. c #3D794C",
"C. c #3D6D51",
"Z. c #396653",
"A. c #3C7352",
"S. c #3E7A52",
"D. c #3A7655",
"F. c #2E7041",
"G. c #474243",
"H. c #564C43",
"J. c #485846",
"K. c #5B5647",
"L. c #465B52",
"P. c #615851",
"I. c #426D4C",
"U. c #446747",
"Y. c #52674C",
"T. c #417545",
"R. c #427C45",
"E. c #42744C",
"W. c #437B4C",
"Q. c #4A7B4D",
"!. c #4A7549",
"~. c #486B54",
"^. c #536A55",
"/. c #447453",
"(. c #4B7454",
"). c #447B53",
"_. c #4A7C54",
"`. c #457C5A",
"'. c #4B7C5B",
"]. c #47745A",
"[. c #557B58",
"{. c #51794D",
"}. c #656F5A",
"|. c #587964",
" X c #536F66",
".X c #747265",
"XX c #821E17",
"oX c #83221B",
"OX c #8B251C",
"+X c #87251A",
"@X c #93261B",
"#X c #96271E",
"$X c #882B27",
"%X c #942722",
"&X c #87312B",
"*X c #843634",
"=X c #84796F",
"-X c #46863C",
";X c #3E8043",
":X c #448345",
">X c #498544",
",X c #4B8B45",
"<X c #45824B",
"1X c #4A844D",
"2X c #47894A",
"3X c #4C8B4D",
"4X c #478944",
"5X c #518D4C",
"6X c #528447",
"7X c #53944C",
"8X c #579A4C",
"9X c #458154",
"0X c #4B8454",
"qX c #4D8B52",
"wX c #46825A",
"eX c #4C835B",
"rX c #4E8A5A",
"tX c #528555",
"yX c #528C54",
"uX c #53845B",
"iX c #538B5B",
"pX c #5A8D5B",
"aX c #5A8556",
"sX c #539354",
"dX c #55925B",
"fX c #5A935D",
"gX c #5C9A5C",
"hX c #599855",
"jX c #4E9153",
"kX c #638A5B",
"lX c #619A5C",
"zX c #5FA159",
"xX c #63A459",
"cX c #4D8462",
"vX c #4C8763",
"bX c #548462",
"nX c #548B63",
"mX c #5A8C64",
"MX c #5B8767",
"NX c #5B9364",
"BX c #5B9567",
"VX c #638968",
"CX c #649866",
"ZX c #6A9470",
"AX c #5EA364",
"SX c #64A366",
"DX c #68A071",
"FX c #8A8672",
"GX c #A09A8A",
"HX c #ACA599",
"JX c #C8BBB3",
"KX c #CDC0B8",
"LX c #E8DED4",
/* pixels */
"O.$.-.b.'.MXMXnXcXwXvXwXS.D.C.v.k.z.l.l.l.x.Z.Z.Z. X XP.G.3 + + , , 1 1 1 2 1 , # c ~.(.C.h.f.v.x.j.k.j.c.s.x.v.D.`.9X9XjXjXsXzX",
"$.-.z.E.(._.`.wX`.wXwX9XS.N.v.b.B.!.E.B.l.h.Z.~.Z.d.G.G.z 6 7 2 2 2 2 A A A 2 2 5 g *.I.'.`.v.v.j.l.j.x.b.Z.A.C.A.N.N.n.<XjXsXAX",
";.z./._.E.k.4.4.W.0XwXV.B.l.l.E._.tXeX).B.C.Z.Z.d.n m m 6 W / / ] ! E / ] G ! / ~ 5 0 s.bXMX'.C.j.j.j.b.'.bX'.`.v.1.2.2.6.2XdXAX",
"3.m.eXeXT.,.,.6.R.0XqX<Xn.6.m.).iXfXnXeX`./.c.:.j 5 > , 4 ] y. .}  . .&X|  . . ./ 6 5 b ^.|.bX`.z.-.3.I.cXMXMXwXB.1.2.2.9.;XsXzX",
"4.m.tXiXQ.6.5.8.4XjX3X;XM.M.<XqXNXNXNXnXeX_.U.#.y r p P P |  .&X&X$X&X&X&X&X*X*X ./ h 5 j J.aXuXB.f.f.B.eXnXnXuX9XN.M.F.n.;XjXhX",
",.z.Q.yXtX1X>X,X5X,X,X4X4X2XyXiXqX<X9XrXbXuXU.i u K ' | | $X&X&X$X$X$X$X$X$X$X&X*X .^ # X #.|.MX_.B.B.B.E.).0XeXnXdXjXqX2X2X2X4X",
"$.,.4.W.yXgXlXlX8X,X,X4X4X3XjX3X;X9.1.W.bX[.t.c u P R | OX&X#X%X%X%X%X%XOXOX%XQ }  .] 1 O g ~.uXeXeX0X).n.g.l.W.rXBXDXAXhXjX;X8.",
"o.o.;.m.iXSXSXlXhX,X-X,X2XjX3XM.9.>.2.v.I.^.t.u A ' R +XOX#X#X%X%X%X%X%XOXXXXXH T } I 4 < y t.Y.uXmXrXW.l.$.=.4.0XBXAXAXAX7X-X9.",
"o.o.$.l.qXCXSXlXhX8X5X,X5X1XM.6.>.>.n.).k.j e u P R | OX@X#X#X%X%X@X@XOX+XXXJ XXJ T Y V 4 e i :.[.CXiXB.<.,.=.<.N.qXdXBXAXdX4X;X",
"O.$.-.n.Q.yXsXyXsX7X5X5X3X:XM.9.9.M.jX'.*.% O 4 P | $XOX@X#X#X%X@X@XOXXXoXXXXXJ XXU R ] K # * j !.pX0XW.N.v.l.l.f.n.V.qXgXgX,X,X",
"<.j.b.B.B.m.M.R.1XyXsX5X1XW.M.7.M.0XpX[.@.  + 2 I &X%X@X@X#X@XXXOXXXXXXXoXU U U U U R | P < . j Y.aX_.).wXeX'.].<.-.2.n.qXsXsX3X",
"j.E._._.m.2.<.6.R.yXyX1X<XW.R.<XrXtX[.U.g 3 1 Z I $X%X@X@X#X@XXXXXXXH Q T T U U U R R } P 1 # c Y.[.(.'.nXBXBX'.z.=.O.9.<XyXsXtX",
"3.E.tXeXB.2.,.6.Q.tXtXQ.W.T.W.rXnXuXk.i r u L F R $X$X+XOXOXXXXXXXH H { T T U U U U R | P 2 # p K.[.^.'.nXBXMXeXB.2.O.1.S.rXeX0X",
";.m.tXnX).l.l.m.0XyX1XT.M.T.9XiXMX(.j * 3 /  .| R +XoXU oXT H XXXXH Q { T J F R U R } R P 2 1 p J.Y.^.(.'.cXbX_./.l.1.n.wXrX'.!.",
"$.5._.iX0XB.B.).uXeX_.m.4.T.eXpXVX(.j @ 1 P | } T oXU oXJ J F Q Q Q Q { T T R R U U R Y I P 4 r g *.L.I.I.B.b.!.'.W.B.D.wXcX).I.",
"0.,.).iXeXV.)._.eX_.!.z.5.z.eXmXVX(.j * 1 P | T U XXoXU T J J Q Q oXQ Q T R T R R R R I ] ..K 3 $ 0 d.c.x.j.3.B._.eX).S.eXcX/.k.",
"o.=.v._.wX).).).'.E.b.k.v.b.].|.VX^.c @ 1 P R R H XXXXH H Q Q Q { H H H { T T Y Y { [ [ ..../ 3 . ; *.s.p.p.f.l.S.S.9XD.wX`.D.v.",
"O.=.l.B.S.B.A.A.A.I.b.c.j.b.C.(.^.J.g # 2 P R U H XXXXH H T Q { Q H H { T [ Y Y [ ! Q ! ] ../ 1 @ 0 d.s.p.p.f.v.N.N.h.D.D.D.B.B.",
"O.=.g.N.v.v.v.v.v.Z.Z.b.v.j.k.:.b j r 3 K I } R XXXXH H { Q Q Q H H T { { [ { } { F F F ] ] W 1 $ 0 *.s.p.j.l.N.g.g.h.h.v.D.`.).",
"O.2.B.A.v.f.f.x.Z.I.Z.b.v.v.j.&.0 = 3 ~ / ] Y T oXoXH J T { { Q Q { { T [ [ [ Y { F S G C E W 3 O : d.s.b.B.A.A.h.2.2.h.v.D.`.vX",
"<.z.'._.b.p.p.f.Z.A.C.C.z.z.j.%.0   > / ..[ Y T T T U R { { { Y [ F J F F F F J F F S S N E M 1 O 0 &.c./._.eX_.N.F.<.1.f.v.vXvX",
"4.!.uXuX/.j.f.f.b.~./.B.l.b.E.U.f $ 3 ^ ..} [ { T J U Y Y { [ Y F F F G S N N N D D S S C ^ M 1 $ 0 *.~._.nXbXnX9XD.g.g.g.N.`.vX",
"k.E.[.tX_.T.b.B./././.E.B.).iX(.v * 3 W ] } } { R F F J F F J F ! S N N N N N N N N S C C ^ M < . a J.(.uXbXmXnXwX9XV.n.n.N.D.D.",
"3.5.I._.[.eX_.).).W.T.W.<XiXZXuX*.@ 1 W ..} } [ U F D S D D S D S C S C B B N N N N N N V K M < o a U.[.uXbXuX'.vXvXwX).<XV.N.N.",
";.;.:.I.[.NXNXuXtXQ.T.0X0XNXCX[.j X < ^ ..! F ! F G S S N N N S C S N N N N Z C B B B Z L ^ u < . a ~.[.'.!.b./.`.wXnXiXrX0XM.6.",
"o.o.;.k.'.NXNXfXqX_.Q.0XeXiXnX(.j % 3 ~ ] E G G ! C D N D N N D S N N N N N B C B C B L L L K # X q U.(.I.k.p.s.Z.'.uXNXgXyX<XM.",
"s +.&.k.(.uXiXqX0X1XQ.<XwX).).U.@.8 e u W V Z C Z C C C D B B N S D G C C Z Z C C C C C M M 6 = = j :.I.b.c.j.j.z.b.).0XsXsXjX,X",
"&.;.k.E.E.B.m.m.R.9XQ.W.B.l.b.b.U.q.p 3 4 M E E Z V L G B B B N S S S C N C C V V V V ^ M 3 3 = i &.s.b./.`.].C.j.<.3.6.R.3XsXhX",
";.p.I./.z.<.2.4.R.Q.Q.V.n.<.z.E.aXY.i * # K / W E E Z E Z N N N D D N N Z C ^ ^ W W W ^ u 3 @ 8 #.:.j.b.`.vXbX).3.=.$.,.4.:XhXAX",
"-.v.(._.z.>.>.9.M.9X1Xm.6.1.l.!.kXaXq.* @ u / E E E E Z Z Z B D D D B C C E W W W K ~ ~ u # X 0 :.s.x.C.cXmXMX'.3.$.O.=.1.:XgXSX",
"-.U.[.tXm.2.2.6.R.1X1XR.8.7.T.6XkXkXi.p 3 3 u M Z M E E Z Z B P P B C C M M A 6 6 7 6 6 5 y q &.s.c.v.A.`.nXBXtXT.4.1.2.g.;XdXAX",
"-.T.tXtXQ.7.6.8.<X3X3X:X:XW.1XyXfXkX[.i.@.< , 1 7 M E W M V L B Z P C ^ M 7 , 1 , O O + = c t.^.~.b.x.v.`.nXmXiXeXQ.V.M.N.;XjXgX",
";.3.~._.uX0X9X<XjX3X3X3X1X<X0X1X5X6XkXkX*.$ . O > 1 6 6 6 6 4 4 4 6 6 6 6 3 < O > 6 h $ . b |.ZX[.~.b.b.B./.).0XeXiXqX0X0X<X2XjX",
"s @.-.I.eXiXdXsXjXsXjXjX2X<XW.M.8.i.6X}.e.*   . + + @ + , , , , + + , , < 5 5 O 5 P..X~ X c |.ZXbX'._./.z.3.j.l.V._.rXdXgXdX3X2X",
"q o.$.j.Q.iXfXsXsXsXsXsX3X<Xm.4.9.i.tXkX:.X   > ; # O O # $ < + + + @ # 5 h f . f =XHX=Xx #.U.[.uXbX'.E.j.-.-.<.3.B.9XdXBXgXqX2X",
"o.&.-.k.T.Q.<X4XjX7XsXsX3XW.7.4.7.R.VXVX#.% X p z 5 5 5 g t t r r r 5 u f z y X 5 =XJXJXFXt.j ;.(.uXW.b.B.N.v.f.<.3.n.<XfXgXsX3X",
"-.s.I.!.T.4.7.8.4XjX7XsX5XW.m.7.T.uXVX^.*.c e.K.r.u y z _ _ z k k k ) _ ( z 5 o 5 .XKXLXHXJ.w q !.[.T.b._.eXcXD.h.,.2.m.qXdXhXyX",
"3.I._.eXT.4.4.7.;X2XsXjX3X<XM.R.tXaXU.@.*.}.FX=XK.t 5 x r.e.( k q.q.e.e._ x y   ; .XJXLXJXJ.& q U._.E.R.bXBXBXS.1.2.O.g.W.iXpXsX",
"5.T.[.uXE.1.,.m.R.qX3X3X3X:XR.:XpX{.j 9 e.FXHXFXy.u 5 ) r.q.) ) q.q.w.q.x ) f X > H.GXGX.Xt.9 i T.Q.!.wXmXBXBXvXg.=.O.1.W.tXiXyX",
":.T.tXuXW.3.3.n.Q.qXqX2X3X>X>X3XpXQ.s & q.FXFXFXt.r 5 z w.w.w.w.w.q.) ) ) _ g @ . : n *.c j j :.U.E./.'.nXBXmXvXN.=.=.l.E.eXuXeX",
"$.5.Q.uX_.j.3.B.9XyXqX<X:X:X<XyXpX!.o.& s }.=X=XH.6 > u ) w.u.u.w.) ' ) ( k r ; o & - % - q :.c.Z.I./.).eXrXwX).N.F.1.l.wXeX'./.",
"0.5.Q.uXQ.m.l.W.0X0XQ.M.M.R.3XsXpXE.q & y ^.FX.XH.m $ > u ) u.u.w.w.w.) g 5 ; 0 j *.*.j s @.:.c.Z.b.c.b.S.B.B.V.9XV.n.D.cXbX].b.",
"X.>.M.eX_.T.R.W.0X0XW.m.m.M.0XnXmX(.@.9 y J.}.P.G.h $ . 3 ) u.u.y.w.r.` g $ o d L. X|.].c.p.a.h.c.x.p.j.f.f.<.N.9X9XS.).bXbXA.x.",
"w X.4.W._._.)._.tX9XR.n.m.W.eXnXuX(.:.v s f f g f n m $ < ) u.y.u.w.` ` f o - v ^.VXMX Xv.f.p.a.Z.s.p.p.f.-.<.n.S.9X9XS.cXcXA.x.",
"w X.,.B.Q.).9XtXqX_.m.m.B.).wXvX].].U.s.j - & o f b n > 3 ) y.u.w.) ( ( f $ - v ~. X].v.v.h.h.h.a.a.a.a.f.<.f.n.V.).V.).wX`.S.A.",
"X.$.5.m.E.E.W._._._.W.z.N.B.A.D.Z.I.~.~.s.j d f v b n > 5 ( y.w.w.) ( z n : - d a.s.Z.h.v.v.N.Z.h.x.a.a.p.v.b.B.B.m.l.l.B.B.S./.",
"$.9.T.Q.T.j.k.E.E.).S.B.l.l.f.g.f.f.B._.|.].^.L.d.v a 0 f k q.w.` ) ( b n f a d d a.a.f.h.N.D.].Z.h.a.a.h.A.`._.B.l.<.2.<.m.).eX",
",.m.'.uXB.<.-.z.B././.N.<.<.f.=.=.<.k.eXVXVX|. Xd.v a f l l k ) ) ( _ z l n a - 9 +.a.p.f.v.'.'.].h.a.h.v.`.nXcXV.g.<.=.,.n.qXnX",
"k.(.MXmXE.,.-.,.m.m.W.B.1.2.f.l.F.F.N.wXiXbX|. Xd.9 9 n b b x k ( _ _ ( _ e.l - & v x.v.v.b.).eXD.h.f.h.A.eXnXnX9XN.j.<.<.m.Q.rX",
"c./.MXbX(.4.1.4.M.T.T.B.B.B.).9XwX9X9XwX)./.~.~.v 9 : v G.*.l c z ` ` H.H.H.z - & &.'.bXwX).).E.Z.Z.f.D.wXcXvXdXwX9XR.B.7.m.M.W.",
"a.Z./.'._.).W.R.T.R.m.R.1XiXfXNXBXnXwXS.l.f.x.s.v 9 d n G.b n f g ` H.H.H.H.) * w :.CXDXNX9XV.l.l.l.N.wXcXrXwX0XwX0XtX0XW.M.7.6.",
"d.a.s.C.uXmXiXiX9XW.W.Q.tXdXgXfXdXjX9XN.<.p.j.s.v 9 : d b n m : 5 ( r.` r.r.x = & ;.fXCXdX1Xm.l.<.g.A.wXwXB.m.l.R.0XiXpXyX3XM.7.",
"+.v ;.j.eXBXNXdXtX9XQ.1XqX5X>XR.<X;XN.F.<.f.Z.c.a.- - a f f : $ > h ( ( ( ) g * & 0.i.6X1XR.m.l.f.h.B.B.B.g.<.2.4.W.iXpXfXyXqX:X",
"s o.&.5._.mXNXiX0XqX9X1XR.R.8.6.n.F.F.2.f.j.b.c.v 9 & : m m : . $ 5 ~ ( k z t X * 0.%.i.6.6.l.g.f.l.h.v.f.=.=.-.k.T.9XtXiXsXqX<X",
"w 0.;.z.)._.9X).9X1X<XR.8.7.5.6.n.F.F.F.g.h.b.c.&.9 & ; a f > $ $ ; t g g y ; o & j 5.7.4.1.g.h.v.h.f.f.f.f.x.z.T.T.W.W.<X9XqXqX",
"O.>.T.Q.W.V.M.R.<XR.Q.>X8.6.8.i.;XV.V.S.N.B.E.U.d.- & ; m f : > .   $ > = * X   & @.!.aXW.B.N.v.v.v.h.f.v.A.'.'.(._.W.m.M.;XqXdX",
"%.i.{.iXQ.m.M.R.:X3X3X:XR.W.Q.0XrXwXqXwXwXS._.U.%.8 * ; t g 5 @       o o o o   9 :.bXBXbXeX`.`.C.v.x.v.`.'.bXbXbXeX_.R.M.R.qXsX",
"%.5.!.aXtX1X>X>X,X5X,X>X>XqXrXiXeX9X9X9XeXwX[.{.%.8 = p x z f * X 9 i q w 9 9 q j U.|.bXwX`.'._.S.S.A.A.D.`.'.uXmXmXpXqXW.<X2XqX",
"@.;.5.Q.yXhX8X8X8X5X,X>X1XyXiXeXW.B.B.W.9X9XtX{.t.8 8 ) t.H.g * 8 #.!.Y.:.#.:.k.~.(.].B.b.z.B.9XeXiXwX).C.h.l.B.tXNXCXgXsX3X:X;X",
"s q @.7.aXxXxXxX8X8X,X>X3XqX0XW.4.1.4.m.<X1XpX[.%.i e q.P.K.c * 8 U.ZXkXQ.T.{.tXMX(.k.-.<.l.W.9XiXdXrX).l.=.=.3._.gXCXlXAX7X4X;X",
"9 s o.3.tXlXxXzX8X7X,X,X1X0X<X6.3.,.6.M.Q.>XaXkXt.i p q.K.K.z * e i.CXkXQ.-X1XaXuXE.3.3.z.T._.1XqXiXtX).l.=.=.1.m.qXfXlXzXgX,X8.",
"o.o.;.k.0XyXhXsX7X7X7X7X3X<XM.l.4.z.W.1X1X1X5XkX%.8 8 c H.G.g % 8 i.kX6X-Xi.R.5XeXT.j.z.V.qXqXqX1X1X1XW.l.l.1.3.4.7.>XyXgXgX7X4X",
"@.;.:.!.R.W.:X2X,X7XhXhXjX<Xm.l.B.Q.yXyXjX3X5X{.%.8 8 p _ x e X 0 7.lX8X-X-X-XyXyX).m.Q.0XiXyXiX1XR.M.B.B.S.S.m.,.,.7.4XsXhXsX5X",
"%.t.I.(.M.n.n.;X2XjXhXhXsX<Xm.n.W.0XgXgXhX5XpX{.%.8 = t l g =   w U.kXxX-X-X>X5XiX_.W.rXdXiX0XtX1XT.m.m.).wXwXW.,.>.>.i.5XyXdXsX"
};
