/* XPM */
static const char *NjRqbnl4eTI__679a3fcd8675a[] = {
/* columns rows colors chars-per-pixel */
"64 64 256 2 ",
"   c #390C01",
".  c #291704",
"X  c #391706",
"o  c #32190B",
"O  c #2B240B",
"+  c #38220C",
"@  c #392815",
"#  c #37371A",
"$  c #2E3214",
"%  c #393922",
"&  c #0B3F19",
"*  c #4C0201",
"=  c #490C04",
"-  c #520501",
";  c #5B0A08",
":  c #471809",
">  c #55170C",
",  c #4B1B14",
"<  c #571A14",
"1  c #5B0E12",
"2  c #630B0A",
"3  c #661915",
"4  c #771C16",
"5  c #69120F",
"6  c #492917",
"7  c #582618",
"8  c #473619",
"9  c #4F2B12",
"0  c #69261A",
"q  c #76221B",
"w  c #483A24",
"e  c #563726",
"r  c #512F23",
"t  c #692723",
"y  c #7D2322",
"u  c #782B25",
"i  c #673A28",
"p  c #793629",
"a  c #783A35",
"s  c #7B1F20",
"d  c #17461B",
"f  c #1C4D2D",
"g  c #384A29",
"h  c #25572A",
"j  c #36552A",
"k  c #295A36",
"l  c #385A37",
"z  c #2E4B33",
"x  c #28652A",
"c  c #2B6235",
"v  c #2D633C",
"b  c #2C6937",
"n  c #33643C",
"m  c #3C643A",
"M  c #346B3C",
"N  c #3B6B3C",
"B  c #356734",
"V  c #3B733D",
"C  c #36743A",
"Z  c #347132",
"A  c #235720",
"S  c #49421D",
"D  c #48482B",
"F  c #55492B",
"G  c #494B34",
"H  c #584A34",
"J  c #475838",
"K  c #575838",
"L  c #4A542A",
"P  c #664A32",
"I  c #764833",
"U  c #675637",
"Y  c #6C4C30",
"T  c #45673B",
"R  c #56683C",
"E  c #46763B",
"W  c #5B783E",
"Q  c #656E3D",
"!  c #375A43",
"~  c #2C5D40",
"^  c #2E6742",
"/  c #346444",
"(  c #346C43",
")  c #3B6C45",
"_  c #346B4A",
"`  c #3B6D4C",
"'  c #3A6447",
"]  c #3C7343",
"[  c #3D7943",
"{  c #3C744B",
"}  c #387448",
"|  c #3D7652",
" . c #3D6951",
".. c #4B5A44",
"X. c #575C43",
"o. c #665A44",
"O. c #705241",
"+. c #436D43",
"@. c #486846",
"#. c #566846",
"$. c #437344",
"%. c #4B7344",
"&. c #437C44",
"*. c #43744B",
"=. c #4B744B",
"-. c #447B4C",
";. c #4B7B4C",
":. c #4B7B44",
">. c #56764B",
",. c #456C54",
"<. c #437354",
"1. c #447B53",
"2. c #4B7C53",
"3. c #4B7C5C",
"4. c #497656",
"5. c #537C53",
"6. c #597956",
"7. c #576B53",
"8. c #666747",
"9. c #62774A",
"0. c #656A56",
"q. c #677957",
"w. c #777959",
"e. c #776E4A",
"r. c #537C62",
"t. c #6C7762",
"y. c #852726",
"u. c #972D2C",
"i. c #8D342D",
"p. c #873429",
"a. c #93332C",
"s. c #9A322E",
"d. c #943627",
"f. c #893A34",
"g. c #943433",
"h. c #9B3432",
"j. c #983A35",
"k. c #9E2F32",
"l. c #A72E2B",
"z. c #A5332D",
"x. c #AB322D",
"c. c #A8382D",
"v. c #AD2D34",
"b. c #AB2E38",
"n. c #A43433",
"m. c #AB3334",
"M. c #A23935",
"N. c #A5343A",
"B. c #AA333A",
"V. c #A43B3A",
"C. c #AA3937",
"Z. c #B13336",
"A. c #B12F34",
"S. c #841F1C",
"D. c #99443B",
"F. c #884534",
"G. c #A14039",
"H. c #8A584A",
"J. c #955247",
"K. c #A7554B",
"L. c #A75952",
"P. c #AD554F",
"I. c #976458",
"U. c #8B7055",
"Y. c #A86559",
"T. c #B4645A",
"R. c #AA785B",
"E. c #987064",
"W. c #AC7266",
"Q. c #A13F40",
"!. c #3B803F",
"~. c #47823C",
"^. c #3F8142",
"/. c #45824B",
"(. c #4B824B",
"). c #488749",
"_. c #54874C",
"`. c #4C8353",
"'. c #4D8A53",
"]. c #4C845B",
"[. c #488659",
"{. c #528354",
"}. c #538A54",
"|. c #53835B",
" X c #5B855B",
".X c #548B5B",
"XX c #5B8B5C",
"oX c #5B8754",
"OX c #5B935C",
"+X c #579557",
"@X c #519153",
"#X c #66865A",
"$X c #76865A",
"%X c #61995A",
"&X c #70894E",
"*X c #5D8B63",
"=X c #558763",
"-X c #5C9363",
";X c #599665",
":X c #4E8562",
">X c #668963",
",X c #778765",
"<X c #649766",
"1X c #769167",
"2X c #779172",
"3X c #66A269",
"4X c #5CA16A",
"5X c #878C5B",
"6X c #848768",
"7X c #8D936A",
"8X c #AB8677",
"9X c #B99A78",
"0X c #B08C6D",
"qX c #99A07B",
"wX c #B5B17E",
"eX c #B3815E",
"rX c #CA8979",
"tX c #C9977C",
"yX c #D48F7B",
"uX c #B39B84",
"iX c #B7B887",
"pX c #B5AD89",
"aX c #C89583",
"sX c #D09089",
"dX c #DBB597",
"fX c #CFAD90",
"gX c #E7A89C",
"hX c #EABC96",
"jX c #F3BE99",
"kX c #E8AF92",
"lX c #D9B2A5",
"zX c #EAADA2",
"xX c #E3B3A4",
"cX c #F2B5A9",
"vX c #BBC394",
"bX c #D6CB9B",
"nX c #ECC196",
"mX c #E5C39C",
"MX c #ECC39A",
"NX c #E5C89B",
"BX c #F3C49B",
"VX c #F5C49B",
"CX c #E2D39C",
"ZX c #D6CEA8",
"AX c #EBCBA3",
"SX c #E9C8A3",
"DX c #F3CAA3",
"FX c #F7C8A7",
"GX c #E7D3A7",
"HX c #FBD5B8",
"JX c #F2CDB1",
"KX c #FFD5C8",
"LX c #FED6C6",
"PX c #FBD6CA",
"IX c #FFE7D5",
"UX c #FEE9D4",
/* pixels */
";.{.-X-X.X].].1.1.` _ _ _ ^ / /  . ./ ~ ( ( b C ^.).+X%X+X@X'.).1.{ } ( ' _ ' ! ` ` / _ _ ^ ` _ ^ _ ( { [.[.1.]..X.X.X`.-.} _ _ ",
"(.}.-X<X.X1.{ } { } { | ` _ / / ! '  .` 1.1.[ C C ).+X+X+X@X@X&.] ( ( } ) | <.` / / ' ` ` _ | 1.} ( ^ _ | [.].].].`.-.[ } { | | ",
"&.`.-X-X`.] v v n { ].|.3.{ ' / k ' <.3.=X=X`.[ Z C ).+X+X+X@XV B k ( 1.1.].:X3._ k ^ _ { 1.].|.`.] M v } [.].`.`.[ M C [ [.[.[.",
"M *.XX-X`.M c c n -.=X-X=X1.) v n ` 3.=X*X<X-X`.C Z &.@X+XOX}.E N n ] ].=X;X;X].( k ( { 3.*X*X*X.X-.] M ( `..X'./.C b C /.[.;X;X",
"c ] .X-X`.] ] $.*.`..X.X|.1.) n ( { =X*X*X<X>X.X;.C V (.+XOXoX;.;.*.`..X=X;X;X1._ v { ]. X<XXXXXXX{.(.] C /.;X;X'.[ Z C /.@X;X4X",
"k v -.`.`.`..XXXXX.X`.-.-.-.*.{ 1.1.3.2.4.4.3. X{.$.N ] (.{.oXXXXX<X<X.X2.2.1.1.{ -.`.{.2.;.=.5.oXoX}.(.] &.'.+X@X).).).).).'.'.",
"k c ] -.}.-X<X<X<X`.V M M { `..X.X].-.) ' ' @.6.6.5.$.N $.;.oX>X<X<X X=.) n n +.{.*X X2.$.m m E :._.}._./.&./.'.@X+X+X+X/.C Z b ",
"c b ] -.OX3X3X<XOX&.x h c ] `.;X.X].;.+.@.J J @.6.>X5.T T %.6.#X#X6.T l l j j @.6.1X>X6.>.T l l B :._._.'.)./.'.+X4X3X@XC x x x ",
"] [ -.`.-X3X<X}.&.M h h h M `.].]..X X6.7.....#.q.,Xq.#.#.>.q.#Xq.#.J g j g l #.q.,Xq.q.6.>.T l j T %.(.}.'.).@XOX3X<X).Z x x x ",
"[ -.`..X-XOX(.V x c M ] ] *.].|.{.oX>Xq.#.g % G J X.K #.w.7XqXqX7X6X,X8.G # % D G X.X.X.#.#.#.#.R R %.oXoX}.}.OXOXOX}.[ b b C [ ",
"] -.`.OXOX(.N h h B ;.XX#X6.>.>.>.6.7.J % $ O @ @ @ + K uXZXZXZXZXZXZXuXH . . @ @ # O O $ g #.w.9.#.#.>.>._.oX%XXX;.V N [ (.}.}.",
"n ] -..X}.&.B h B E oX1X1Xq.J g g L # O O O + o o X X U lXUXUXUXUXUXPXuXH . . + o o . . + 8 H o.K K 8.#.R >.#X#X{.$.B N `.-X-X-X",
"k n *.|.{.-.N B m %.q.$Xw.8.8 O O . . O w w e e i 7 0 I.dXIXIXIXIXJXuXH.i e r e r r r e i e r o + 8 U 8.K #.#X#XoX%.m +.{. X*X-X",
"h k ) 2.|.2.*.T >.>.q.8.8.P 9 6 F P H U U.E.W.I.H.F.F.Y.aXxXxXxXxXaXH.P H.E.E.E.E.E.E.E.H.a 7 = : 9 P U F K q.$X#X>.@.=. X*X.X`.",
"h k / <.3.3.=.@.q.8.8.U U Y i I 8XfXfXfXfXxXxXsXL.f.f.D.L.Y.Y.I.Y.H.I H.aXxXlXlXlXxXxXsXY.a u t u a I Y S D 8.$X#X>.=.5.*X*X2.$.",
"k k ' <.r.r.6.#.J D H P Y I p I.sXJXKXPXPXHXcXrXK.i.i.g.p.p p p p p p Y.xXKXPXPXKXLXcXsXL.f.f.f.f.a I i 8 8 F #.9.6.6.6.5.=.$.V ",
"/ ' ,.,.7.6.0.J % $ w Y I F.F.F.Y.sXcXKXLXcXrXK.j.h.h.i.p.p.p p p.p.p.T.zXKXKXLXKXcXrXK.D.j.f.F.F.I I i e 6 + S K q.6.=.=.+.) N ",
" .,.,.7.7.#.J G D U U.U.F.p.d.d.u J.rXgXgXrXK.i.s.s.a.D.K.Y.Y.L.D.d.i.K.sXgXgXxXgXrXK.y.i.J.L.Y.I.Y.Y.H.I 9 X + w K #.=.+.m ) $.",
" .4.r.t.0.G @ H 6XfXdXaXL.i.d.a.a.j.K.T.T.J.j.h.h.s.i.K.rXgXgXrXK.d.d.G.P.T.Y.Y.Y.K.D.y.y.K.sXzXgXxXgXrXJ.0 > : + @ G #.@.+.*.*.",
"! 7.t.t.X.% o O.lXIXIXzXY.p.a.n.V.M.j.a.i.a.h.M.M.s.i.T.gXLXLXgXT.d.d.h.h.h.i.i.g.j.h.u.i.T.gXKXKXPXLXgXY.p 0 < : X @ G 7.6.|.{.",
"! ..0.0.w @ 6 I.xXIXKXzXT.a.s.C.z.z.s.a.s.s.n.h.M.h.i.T.zXLXKXgXT.d.u.s.u.s.u.s.h.s.n.u.s.T.gXLXKXKXLXzXT.p.4 3 < , o w 0.>X>X<X",
"z ..0.o.@ X e I.sXzXgXyXP.s.h.m.Z.x.z.n.M.M.N.N.n.h.g.P.sXgXgXrXK.d.z.z.l.n.n.n.M.n.C.n.a.K.sXgXxXgXgXsXL.i.y.y t < X @ 8.2X1X2X",
"z ..0.H + X i J.Y.Y.L.K.D.h.M.N.m.x.z.C.C.n.n.b.B.b.h.Q.P.T.T.K.M.z.z.C.m.n.n.s.h.s.n.n.h.Q.L.L.W.Y.Y.L.D.g.g.p.u < X + K w.,X,X",
"..J H e 6 7 p F.f.p.i.a.j.V.V.l.m.z.n.n.n.N.B.B.B.b.N.k.s.s.s.s.z.c.c.c.m.n.M.M.h.n.N.N.n.h.j.g.p.f.f.g.j.J.D.f.u > , 6 e o.8.0.",
"#.X.w 6 e a F.D.j.i.a.g.M.V.B.B.m.m.n.M.n.N.B.b.b.B.B.B.z.u.l.l.l.z.x.x.z.z.n.n.n.n.m.m.m.n.s.u.a.a.a.s.h.j.j.p.u 0 7 9 6 w F K ",
"w.H + : i F.D.j.D.j.M.M.N.m.B.B.m.m.B.N.N.N.B.b.b.b.m.B.m.z.x.x.x.x.x.x.x.z.m.m.m.m.m.m.m.m.m.m.n.n.n.N.M.V.h.i.q 0 0 > X X @ w ",
"w.H + , p D.D.j.j.M.M.n.n.m.m.m.v.B.N.N.N.N.b.b.b.b.m.n.z.l.l.x.m.m.x.x.x.x.m.m.m.v.A.v.v.v.m.m.m.m.n.n.n.C.N.s.S.q q < : X o 8 ",
"w.H 6 : 0 p.i.g.s.h.M.n.n.m.Z.Z.m.B.N.N.B.B.B.b.B.B.B.n.z.z.l.l.m.m.z.x.x.A.A.v.A.A.A.Z.Z.Z.m.m.m.z.m.m.N.m.n.u.S.4 3 > : : 6 w ",
"w.H + X 7 u u y.g.h.M.M.n.m.m.v.v.B.N.N.N.N.B.B.N.N.M.M.n.n.z.x.z.l.z.z.m.Z.A.A.v.v.b.Z.Z.B.m.z.z.z.C.C.N.k.y.S.4 4 0 > X + F o.",
"8.D + X , 0 q y i.g.j.V.V.C.m.m.m.N.N.n.M.M.N.N.n.M.M.M.M.N.m.m.n.n.n.z.m.m.Z.Z.m.B.b.N.B.C.m.n.M.M.M.M.u.y.S.4 4 q 0 >   @ o.6X",
"K D O . : < 3 q y y.g.j.V.V.m.m.m.m.M.M.M.M.M.M.V.V.V.V.M.M.B.B.C.M.M.M.C.C.C.C.V.N.N.h.h.M.M.M.M.M.h.s.y.y q 4 0 0 7 X . @ #.6X",
"J g # w F i 7 > 1 3 u f.g.a.u.s.h.s.s.s.a.a.a.s.g.g.g.g.a.u.n.n.s.h.h.h.h.s.u.u.g.g.g.g.i.i.a.a.a.a.a.i.y 3 3 > > 7 e w @ % ..t.",
"T T T 8.w.o.6     > t u u u y y.y.y.y.y.q q y.y y.y.y.y y.y.y.y.y.y.y.y.y.4 y.y.s y.y.y y y y y.y.q u q 0 7 =   X 8 o.8.G g z J ",
"E :.oX1X7Xw.F o X : , , < < 1 3 5 5 5 2 2 ; - 1 5 3 1 ; ; ; 5 5 5 2 ; 2 2 2 2 ; ; 2 ; ; 2 2 5 5 5 > > > > 7 6 6 @ D 0.q.#.l z z ",
"(.(.oX#X,Xq.K D w 6 o     = = = - - - * * - * - 1 1 * * * * ; ; - * - - * - - - - - * - - - - - = =     X 6 P o.8.#.#.>.@.@.@.@.",
"&.(._.oX#X6.#.K K G w 6 6 6 6 : : > 0 p p p p t = > t a a t > = 0 p p p u p p.p p p p p u 0 > = : 9 9 6 @ F e.6Xw.>.@.T +.2. X=X",
"V &.{.oX X>.T l J ..#.8.8.o.U e : i R.aXtXtXaXI.< < I.sXfXI., , I.aXtXrXrXrXyXrXrXrXrXrXW.J.0 < e P U U K 8.w.$X#X%.N V -..X*X*X",
"M [ ;.{.|.*.n l l @.q.2X6Xw.e.H 9 I aXHXHXHXLX0X7 , 8XIXIXuX, 6 W.LXHXHXJXFXFXFXFXFXFXFXxX0XI e P e.w.q.#X#X#XoXoX%.B M /.OX<X<X",
"h n -.].=X1./ k n 4.6.1X,Xw.0.F 8 U 9XJXHXHXHX0X6 6 8XIXIXuX6 6 8XHXHXHXFXFXFXFXFXFXHXHXJXtXY e U w.q.>.5.5.XXXX{.&.Z V '.OXXXoX",
"h k ) 2.=X1._ / { 2.4.6.6.7.0.D @ P 9XmXhXdXdXeXI I uXLXLXuXO.U 9XSXdXdXdXDXBXjXVXBXDXFXJX9XP 8 K $Xq.+.+.+.{.OX}.-.C [ '..X{.;.",
"f k ' 3.=X3.` { 3.3.' @.@.#...D @ U 9XdXtX0XR.eX0XaXdXJXJXfXuXfXdXdXtX0XfXDXBXnXBXjXBXAXAX9XU S Q $X6.+.B N .X*X.X-.[ -.'.{.$.N ",
"z k ' 3.=Xr.<.<.3.3./ l l J J D K 5XfXdXtXeXR.tXkXFXJXhXmXSXDXJXSXdX9X9XkXBXBXBXBXnXBXAXGXwXe.F R 9.>.+.l n 2. X.X;.[ /.}.(.m h ",
"! !  .4.r.r.4.4.3.3.*.l z g g K U.fXmXmXkXfXyXkXjXFXFXmXmXSXDXFXDXkXfXfXnXBXnXBXhXnXMXmXNXfX9Xe.K J #.+.n n 2.*X X`.;.`.`.$.h d ",
",.,.,.,.4.4.<.| ` *.+.l l g $ X.pXGXJXSXjXVXFXjXVXDXMXmXmXnXhXBXjXjXVXVXBXnXnXnXhXBXBXBXSXNXbX7XL # J %.) ) *.3.|. X{.;.] c h d ",
",.,.4.4.,.` ` ' n / ' @.@.g $ X.pXGXJXFXBXjXVXVXVXBXMXmXMXAXBXVXVXVXVXBXnXMXBXhXhXBXVXDXAXNXbX5XF $ l =.*.*.*.<.|.|.2.] c h h A ",
" .<.3.3.` / k k v ) 4.>.@.g $ #.uXHXJXAXVXjXjXVXjXMXMXMXMXDXBXjXVXjXjXnXnXnXnXhXjXBXBXBXMXNXdX7XF $ j T $.1.2.2.2.*.] M M C M M ",
"^ ` 3.3.` v v v / 2. X X#.g $ K pXHXJXhXhXVXjXVXVXmXmXNXmXmXMXDXjXBXVXBXmXnXnXMXBXDXjXjXFXMXfX0XF $ g l B ] 1.2.*.M c C /.'.@X@X",
"k ^ 1.3.) / ) } -.|.*X>X6.J g K 6XfXSXFXBXVXVXBXMXmXNXSXmXhXMXjXjXVXBXnXnXmXmXMXBXBXjXjXFXdX9XU.K L l m B ] 1.`.] n c C '.;X4X3X",
"k v ) ` ) *.2.`.`.`..X*X X>.@.J H U.fXJXDXBXVXVXMXMXSXSXmXMXDXjXhXBXBXMXmXmXmXMXnXBXBXDXDXaXe.K 8.#X>.;.-.] | | { ( ] -.;..X-X-X",
"v ^ ) *.-.{..X.X].| } { 5.>X6.J % H U.fXSXDXBXMXDXSXSXSXmXMXDXMXMXBXMXmXNXNXmXMXMXhXhXDXAX9XU S >.1X>XoX`.[ { } -.`..X`.$.] -.`.",
"_ } -.`.XX-X-X.X1.} ^ n *.6.6...D w F U.fXDXFXFXAXSXSXAXAXSXmXnXnXNXNXNXNXNXNXNXMXNXMXNXfX0XQ K R #X#XXX'./.[ [ '.-X-X(.N c c M ",
"| -.`..X-X-X.X1.} v k k k ! @.@.K w @ P 9XDXHXDXJXGXGXGXGXAXNXNXNXCXGXGXGXGXGXGXAXGXGXNXfX0Xe.K L T E (.'./.[ [ '.-XOX;.N h f f ",
"/.`.`.}.`.`.`.-.{ v k k k z ! ..X.D @ e 8XSXJXAXGXGXbXbXCXCXCXCXGXCXbXbXZXZXZXZXZXGXGXZXfX7XQ L j j B &.'./.C C /.}.}.;.( h d & ",
"[ /.'.}.-.[ [ { { { ` / ! ! ! l J G K 8.U.8X9XpXpXiXiXiXiXiXwXwXwXiXiXiXvXvXvXiXpXwXwXiXbXqXQ L j T E V [ /.^.^././.&.&.*.) k f ",
"b V '.}./.[ -.-.1.].:X3.<.,.' l g J w.6Xe.H H Q w.5X$X$X7X7X5X5X&X$X5X7X7X7X7X,X$XQ R 5XiXpXR # T 5.;.V V /.'.).).V C $.].=Xr.<.",
"x Z &.(././.`..X=X].].3.3.3.,.l g #.,X$XK $ # D J R R R W &XW W _._.>.>.>.>.>.#.R L g R 1X1XR j %.XX{.-././.@X@X@X/.&.{.=X=X:X3.",
"h b [ /.'.OX;X;X;X].-.` *.4.4.>.%.#.R J L g g J #.%.m B E E _._.#X#XoX%.+.m l @.#.#.R T R J J l =. X X(./.).).@X@X@X}..X|.3.,. .",
"h b V /.OX<X3X3XOX1.n k n $.5. X#X%.j g j J @.>.5.5.N B V :.oX%X<XXX_.N l k k m 5.>X#X%.j d j T +.2.|.{.(./.).@X+X3X3X-X<.~ f f ",
"b Z [ (.-X3X<X-X`.] k h k ] {.XX#XoX%.T T m m +.{.}.&.C E (.OX%X<X{.$.k h h k ' |.>X X%.m m m m ' *.2..X}.(.).@X+X3X3XOX) k f f ",
"] $.(.OX<X<XOX-.] M v c M $.;.{._.oX XoX;.N m $.{.oX_.&.&.'.OXXX{.$.B k k l n +.2. X X{.{.5.=.m ' ) -..X}.'.}.+X%X%XOX`.) k f f ",
"*.(..X<X<X-X/.] M M ) ] ] ] $.;.;.oXXX#XXX;.$.$.}.OX}.(.(.}.<XXX-.n n ' *.*.*.*.;.{.{.XXXXoX X=.) ) ;.{.XXOX%X+X%X+X).[ ] ) ' ' ",
"$.;..XOXXX`.( c k ( <.`.2.{ ] ] ;.5.{. X*X5.=.$._._._.(.(.}.XX;.) k l ) 4.5.2.;.$.&.-.}.oXoX X5.+.) $._.}.OX%X_._.E Z Z ] 1.3.3.",
"+.$.;.(.-.] c h h n 2.=X].*.( M $.+.T +.=.2.=.:.E E E :.:.;.;.N k k l ) 4.|.{.;.V V &.(.&.$.;.;.+.B N :.:._._.~.~.Z x Z ] -.3.3.",
"B N $.$.$.M k f h n 1.=X].{ _ M *.T l l +.=.$.m E E E E E E %.B h h m *.4.5.5.$.N Z Z Z N E ;.;.$.B N E E E E E Z x A x V `.|.3."
};
