/* XPM */
static char *_4wall1738162219[] = {
/* columns rows colors chars-per-pixel */
"64 64 252 2 ",
"   c #1C2B1C",
".  c #2C2D1E",
"X  c #192F2A",
"o  c #2B2524",
"O  c #2A2925",
"+  c #332C25",
"@  c #35292A",
"#  c #2A3827",
"$  c #363628",
"%  c #213935",
"&  c #1F1D21",
"*  c #472E29",
"=  c #5A3836",
"-  c #4A3630",
";  c #653D3A",
":  c #1C4C39",
">  c #27492B",
",  c #37482A",
"<  c #2B562C",
"1  c #36582C",
"2  c #284A38",
"3  c #394B34",
"4  c #2B5433",
"5  c #2D5B33",
"6  c #2D5239",
"7  c #2C5C3B",
"8  c #255436",
"9  c #325C34",
"0  c #3A5C33",
"q  c #335C3B",
"w  c #375537",
"e  c #34632C",
"r  c #376A2D",
"t  c #3C742D",
"y  c #3C792C",
"u  c #2E6238",
"i  c #336334",
"p  c #356B33",
"a  c #3B6C34",
"s  c #34643B",
"d  c #3B643B",
"f  c #356A3B",
"g  c #3B6B3C",
"h  c #3B6336",
"j  c #3C7433",
"k  c #3C733C",
"l  c #3B7736",
"z  c #2E672D",
"x  c #494837",
"c  c #574A38",
"v  c #475738",
"b  c #575839",
"n  c #4A4B2C",
"m  c #664839",
"M  c #7A4A3D",
"N  c #734B3B",
"B  c #695438",
"V  c #77593E",
"C  c #417B2E",
"Z  c #466839",
"A  c #53693A",
"S  c #437434",
"D  c #437C34",
"F  c #42743D",
"G  c #437A3D",
"H  c #4B773C",
"J  c #4A6E36",
"K  c #63633B",
"L  c #1C4B41",
"P  c #264C46",
"I  c #2C5C44",
"U  c #2A554A",
"Y  c #2C5B4C",
"T  c #285445",
"R  c #315D41",
"E  c #325C4B",
"W  c #345744",
"Q  c #2B5851",
"!  c #315D53",
"~  c #354D40",
"^  c #2D624C",
"/  c #2F6143",
"(  c #336444",
")  c #3B6544",
"_  c #346B45",
"`  c #3C6C44",
"'  c #33634B",
"]  c #346A4B",
"[  c #3A6D4A",
"{  c #39654A",
"}  c #3C7443",
"|  c #3C734C",
" . c #3D7948",
".. c #336452",
"X. c #376B52",
"o. c #3C7653",
"O. c #2F6951",
"+. c #475D43",
"@. c #595945",
"#. c #5B4945",
"$. c #774A44",
"%. c #655745",
"&. c #785847",
"*. c #6E4D46",
"=. c #436A46",
"-. c #586745",
";. c #427443",
":. c #437C44",
">. c #43754C",
",. c #437B4B",
"<. c #4A7C4B",
"1. c #497B45",
"2. c #597747",
"3. c #447A53",
"4. c #427453",
"5. c #4F6753",
"6. c #696844",
"7. c #786747",
"8. c #73714F",
"9. c #83513E",
"0. c #875748",
"q. c #985948",
"w. c #8D5D52",
"e. c #A35E49",
"r. c #876749",
"t. c #9A664B",
"y. c #896551",
"u. c #986852",
"i. c #897953",
"p. c #9C7553",
"a. c #A7664D",
"s. c #A76953",
"d. c #B66B58",
"f. c #A97457",
"g. c #B87558",
"h. c #AE6C4F",
"j. c #C6775C",
"k. c #CE7758",
"l. c #CA7C62",
"z. c #D47E63",
"x. c #3E8229",
"c. c #3F8330",
"v. c #43832D",
"b. c #458A2C",
"n. c #4A8D2D",
"m. c #48862B",
"M. c #4C922E",
"N. c #4F9D2D",
"B. c #55982E",
"V. c #458433",
"C. c #498534",
"Z. c #468B32",
"A. c #4A8C33",
"S. c #4B833C",
"D. c #4B8A3A",
"F. c #45813B",
"G. c #528B37",
"H. c #4D9233",
"J. c #4D9437",
"K. c #539433",
"L. c #549B33",
"P. c #5A9D34",
"I. c #599939",
"U. c #518B2B",
"Y. c #649E39",
"T. c #5CA334",
"R. c #5DAB34",
"E. c #5DA339",
"W. c #59A539",
"Q. c #5DA830",
"!. c #65AC2D",
"~. c #6CB42D",
"^. c #6CB82D",
"/. c #73BC2E",
"(. c #76BB2C",
"). c #63AC34",
"_. c #69AC34",
"`. c #64AC3B",
"'. c #66A738",
"]. c #73AE36",
"[. c #64B234",
"{. c #6BB433",
"}. c #6BB33B",
"|. c #6BB737",
" X c #73B433",
".X c #73BB34",
"XX c #74BB3A",
"oX c #77B838",
"OX c #7CC32D",
"+X c #79C72E",
"@X c #7CC333",
"#X c #7CC439",
"$X c #3F8046",
"%X c #458244",
"&X c #4B8444",
"*X c #45834B",
"=X c #4B844B",
"-X c #4C8B4B",
";X c #4B8B46",
":X c #538C4D",
">X c #528947",
",X c #4E9249",
"<X c #54944B",
"1X c #569849",
"2X c #4C8B52",
"3X c #4B8554",
"4X c #528D52",
"5X c #548B56",
"6X c #559852",
"7X c #4B9057",
"8X c #6B8750",
"9X c #5CA24B",
"0X c #5BA252",
"qX c #69AD45",
"wX c #82BA3D",
"eX c #85CB2D",
"rX c #8BCD2C",
"tX c #87C829",
"yX c #8ED12D",
"uX c #8FD223",
"iX c #94D426",
"pX c #94D42D",
"aX c #98D72C",
"sX c #9CDB2D",
"dX c #98D929",
"fX c #82C532",
"gX c #84CB33",
"hX c #8ACE33",
"jX c #85CB3A",
"kX c #88C83A",
"lX c #92CF34",
"zX c #8DD232",
"xX c #89D138",
"cX c #92D433",
"vX c #96D932",
"bX c #9BDB33",
"nX c #95D538",
"mX c #90CF28",
"MX c #A2DE2C",
"NX c #A5DE29",
"BX c #A2DE33",
"VX c #A6E226",
"CX c #A9E427",
"ZX c #A6E12B",
"AX c #A9E22B",
"SX c #A4E131",
"DX c #A9E332",
"FX c #C9825E",
"GX c #D98466",
"HX c #C38167",
"JX c #E58464",
"KX c #96AC4C",
/* pixels */
": L Q ..X.3.7X3X4.,.%X;X2Xo.O.Q U U U U Q Q U Q T P L : 8 I u f k a a r l G } _ I T P P U U Q ! ! ! Q U U U Q X.o.*X-X*X*X*X=X2X",
"T I ..O.] X.o.3.,.*X;X-X*X| O.O...' Y U U U 7 q R R R R =.=.%XD.D.G.G.G.G.>X;Xl f 9 T T P U E E ! Y ! Q ....! O.] |  .:.*X*X2X<X",
"| o.o.X.' I ^ | *X,X<X,X ._ ] [ 4.[ ( s 9 i r S H 2.>XI.9X]._. X].].].].oX].'.K.C C a p u s ( ' ..E X.X.3.3.| ] ^ O.]  .=X-X<X<X",
"=X5X5X4.] / ( | *X<X6X,X| ] | >.=X:.l l D C U.U.Y.].oXwXkXlXlXpXcXlXpXlXlXkXfX X!.P.K.G.l l a f R E [ 3.3X5X3Xo.] ^ ] ,.-X1X2X-X",
"4X4X:X=X<.;.k :.,X1X6X*X| | ,.&XS.C.C.U.P._..X@XrXlXnXBXBXBXAXAXVXZXDXDXBXBXvXlX+XeX(.oX'.K.C.S i 7 [ 3.5X5X4X=X3.| } =X1X1X;X%X",
",.,.=X4X<X:X>X1X,X,X-X ._ _ :.C.n.U.B._.oXkXnXbXBXBXDXDXDXDXAXCXCXAXAXAXDXDXDXMXSXbXnXxXkX X'.K.D g h _ } 3X=X-X5X2X=X>X>X;X$Xf ",
"' ' [ *X4X1X1X1X1X;X ._ _ g D n.P._.oX@XlXcXBXSXDXAXAXAXDXAXAXAXZXAXAXAXAXDXDXAXDXAXSXbXxXkX.X_.K.C.S e s f k &X6X1X9X1X,XF. ./ ",
"T P I | =X6X9X9X0Xc.k f f S U.P.{.@XkXnXvXaXMXAXAXCXCXCXAXAXAXAXZXAXAXAXAXAXAXAXCXZXZXSXbXnXhX@XoX'.U.S i u u k >X1X9X9X,X$X ._ ",
"U U Q ^ ] 3X6X1X,X;Xl S V.K.].oXhXzXcXvXsXZXZXZXVXAXAXVXVXCXAXAXZXAXZXZXAXCXNXAXCXCXNXNXSXbXcXzXkXkXoX'.G.r 5 u } =X0X0X<X*X,.3.",
"X.] ^ ^ ^ o.*X-X;Xc.C A.Y.oXkXhXaXdXsXsXsXZXZXVXZXZXZXVXAXAXAXAXAXAXAXZXNXCXCXAXCXCXNXAXDXSXsXpXcXnXkXwXqXA.p < 7 } :X6X:X-X=X3X",
"&X%X4.] Y ^ X.:.l x.m.Q.oXkXlXpXdXdXsXNXZXZXZXCXZXAXZXZXVXZXBXBXSXZXSXVXVXNXVXAXAXAXAXAXAXZXNXsXaXbXvXnXkX'.V.5 8 u  .-X-X-X-X4X",
"1X,X=Xo.^ Q E } y b.B.{.kXcXaXiXiXdXVXVXCXCXAXAXAXZXVXMXMXbXaXcXvXvXvXdXsXsXNXAXAXAXNXAXVXAXVXNXsXbXvXcXxXoXI.j z 7 } *X;X-X-X-X",
"1X<X2X,.E U I [ D I.`.#XxXnXpXdXaXMXNXAXCXNXAXAXNXAXMXMXsXpXlXhXyXyXuXuXaXdXsXZXAXDXAXNXAXAXAXNXMXpXbXnXnXjX}.U.t r a &X;X=X=X:.",
"%X-X-X3XX.I ( ` S.].qXkXnXpXpXpXMXBXDXAXCXNXAXAXAXNXNXMXMXpXmXtXeXtXrXyXiXdXZXZXDXAXAXAXAXAXAXNXMXbXpXcXcXlXkX_.U.y D %X=X3X .} ",
"_ 3.3X3X3._ i S Y. XkXcXvXvXcXpXbXMXAXAXNXNXAXDXNXAXAXMXMXaXvXyXrXyXuXdXaXsXZXZXNXAXAXAXNXAXNXNXMXsXaXcXpXcXcXjX_.n.V. .%X3._ _ ",
"I [ 3.3.<.} j U.Y.oXgXcXvXbXcXpXaXBXNXAXNXCXNXNXDXAXZXVXZXBXsXpXpXpXsXbXSXZXSXZXNXAXNXNXNXAXNXNXdXaXpXaXcXvXvXzX(.B.C.l }  .^ Y ",
"T ' 4.3.>.l A.P.|.#XjXzXvXvXpXyXpXiXsXMXNXZXAXVXAXAXNXAXAXNXDXMXMXMXMXZXZXAXZXAXCXAXAXAXAXMXMXsXiXpXyXlXzXcXyXzX+X[.n.j u ] ^ ..",
"T I [ | g l K._.#XxXjXgXyXpXpXpXpXdXsXMXNXAXAXVXAXAXAXNXNXAXAXZXAXAXAXAXAXMXVXNXNXAXNXAXMXMXMXsXpXpXcXhXzXyXyXzX#X{.L.j p ( ..X.",
"^ ^ _ u u r K.}.#XxXxXzXyXuXyXpXaXaXBXMXMXZXVXAXZXAXZXVXAXVXAXAXAXAXAXAXZXZXAXAXAXAXAXNXMXMXMXsXaXpXpXrXrXgXrXgXjXXX'.C.p s [ 4.",
"X.o.| ( z a K.].#XxX+X+XeXrXyXpXbXbXbXMXBXMXZXAXZXVXNXVXNXAXZXAXAXAXZXZXDXZXNXZXAXNXNXMXMXMXsXdXsXdXpXpXyXgXeX+X#X#X'.K.F.k 4.3.",
"*X*X*X} p D I.qX#X#X#XzXrXrXyXpXbXbXsXsXMXMXZXDXZXZXNXNXVXZXVXZXAXAXZXMXMXNXNXNXAXAXNXAXMXsXdXiXdXpXdXyXzX+X+X@X(.XX X9X;X*X4.4.",
",X4X-X%XS D I.oXXX+X+XxXzXpXcXcXpXcXaXbXsXBXBXDXDXZXMXNXMXZXZXZXVXMXMXZXMXMXMXMXDXBXAXBXsXdXiXiXiXiXyXyXvXxX#X.X.X{._.I.I.:.[ ] ",
"4X4X>XS.D V.I.'.|.^.+X+XzXzXcXcXmXyXpXaXaXsXMXMXDXsXsXVXMXVXZXMXMXMXMXBXMXdXsXMXMXBXBXMXdXaXpXuXyXyXyXzXzXxX+X+X~._.R.K.F.k u / ",
"<.<.1.F t C K.P.[.^.+X+XxXzXcXhXrXpXpXpXmXmXaXsXsXsXBXsXsXsXZXZXsXsXMXMXdXaXdXsXsXMXaXdXdXpXyXpXyXyXzXzX+XxX+X+X!.!.P.A.j f u / ",
"! W R d l c.Z.N.W.|..X+XOXgXjXhXhXpXpXpXdXuXuXiXaXsXbXsXaXdXaXsXsXsXbXsXaXdXvXiXiXiXaXaXvXpXyXzXhXzXgX@X#X+X/.^.~.).P.A.t p _  .",
"% % 2 i l c.Z.N.R.`.{.~./.@X@XgXhXlXzXyXyXyXcXvXpXvXpXbXpXaXaXpXsXsXsXaXaXvXpXaXmXmXpXcXcXcXyXzXhXgX@XOXOX^.~.!.}.`.I.C.t p %X-X",
"  X > 8 l c.J.J.E.).).!.~. X.X@XgXzXzXyXyXzXcXbXvXpXpXyXyXyXyXyXsXbXaXpXvXvXcXyXtXmXzXcXcXzXhXgXxXjX@X.X~.~.!.[.`.`.I.Z.y l &X<X",
"X % > i l Z.J.W.W.E.)._._.{./.+XgXgXgXeXzXnXvXbXcXpXrXlXyXrXrXyXvXpXpXyXvXcXzXpXhXzXcXnXcXhXgXgXjX@X.X^.~.).).`.E.P.H.Z.v.V.D.>X",
"5 9 h a C Z.H.J.H.L.T._.}.{.^./..XOXOXOXrXzXcXvXcXyXyXcXvXzXrXeXcXpXpXyXhXzXhXcXnXnXxXlXhX+X@XOX.X/..X{.|.{.).P.N.M.m.v.c.V.&X;X",
"<.<.1.S.C.Z.Z.Z.b.M.E.}.qX_.!.~.^././.+XxXnXcXyXrXrXyXzXnXzXzXzXyXvXpXhXrXrXhXcXlXnXhXhXgXOXOXOX/./..X.XqX}.E.H.x.x.x.x.y l } :.",
">.<.=X;XD.A.C.v.v.M.Q.}.}.).!.!.{. X/.OXjXxXzXyXtXtXrXyXxXzXzXyXrXpXcXlXrXtXgXhXrXtXgXfX@X@XOX/..X.X.X.X}.`.W.M.x.x.x.c.j f _ _ ",
"s ) ;.:.S.C.V.x.v.M.T.).R.Q.R.).XX.X.X.X#XxXxX+XOX+X+XtXeXxXxXyXtXeXcXhXfX(.fXfX(.OX(.(.@X/././..X{.{.{.).W.J.b.v.x.c.x.p z / / ",
"% 2 q _ g D V.v.b.M.L.P.P.L.T.[.XX.X^.|..XoX#X@X^.+X/.+XfXfX@XfXOXfXkX#XoX.X.X X X/..X/./.^..X.X.X{.!.B.P.N.H.H.A.D.V.l r z ( { ",
"X X 2 6 5 p D C.b.b.A.J.M.M.T.|.XX.X|.^.{.{.{. X|.|.|.XX X X/./.(.(.#XXX_._.{.{.{.^..X.X X^.{..X.X{.Q.M.M.M.b.J.D.D.F.l p p ` >.",
"> > 2 6 8 i D D.Z.b.Z.v.n.K.E.`.}.|.[.[.!.~.!.].~.|.XX|.{._.!.!.{..XXX{.!.!.).{.^.|.^.XX{.{.`.`.}.).K.n.b.b.b.Z.J.D.l l j F <.5X",
"Z d ) I 4 5 g S.Z.Z.b.v.m.H.I.E.W.R.[.R.[.).!._.~.[.|.|.{.).R.Q.{.|.|.|.Q.Q.[.{.}.[.|.{.}.}.).T.T.P.H.n.Z.Z.b.b.D.V.l p k 1.:X5X",
"1.<.>.) 4 8 9 S l c.b.Z.A.K.K.n.H.L.T.W.`.`._.!.[.[.[.[.[.).).`.R.[.`.[.!.!.[.[.).).R.).qX`.P.N.H.M.Z.Z.Z.D.A.V.c.y p p k ,.>X5X",
"=X5X5X>.5 8 9 i j v.Z.H.A.J.n.m.b.H.J.L.R.9X'.R.).R.R.[.`.}.}.`.).R.[.).[.R.[.R.).E.P.W.E.E.K.M.M.M.Z.J.J.J.A.v.y z z z k :.=X>X",
"*X=X:X1.f > 6 9 j C Z.Z.Z.A.b.b.A.A.H.J.L.W.P.L.W.W.W.Q.R.)._._.T.T.R.'.).R.R.E.E.P.L.K.K.K.n.m.b.b.J.Z.Z.A.A.D r z e a k :.;.} ",
"_ ,.>X&Xg 4 6 4 i t D v.V.v.x.b.G.A.b.c.M.H.K.L.T.W.N.N.L.R.E.B.B.L.P.W.P.T.W.P.L.K.H.A.n.b.n.A.Z.Z.V.V.C v.D D p p p g :.} | ( ",
"6 E 1.&X;.9 4 4 z r t C r C v.Z.A.C.v.b.b.n.M.M.K.M.M.M.M.M.M.U.M.n.K.B.K.B.M.M.H.M.Z.c.v.v.v.A.C.V.y t t t j S g ` g ` :.>._ I ",
"X 2 ) >.=.h 7 9 e z e e e r t D C.V.C x.v.m.M.M.M.n.n.n.Z.Z.v.v.v.v.U.n.K.K.M.M.M.b.Z.b.V.V.C y j j j z e e i d ` ` ;.=.` [ ' ' ",
"& % P =.=.d 9 < < 1 < 1 v a Z S l j t t v.A.U.M.H.n.m.U.J.D.D S S C D S.G.K.M.b.H.Z.Z.Z.D.c.y r r i z < > < 9 d =.=.[ ) ( ] ' ..",
"X X ~ E d h e 9 i 5 1 1 0 v h h i e e S D D.A.A.A.m.C C S.G J h 1 Z H H G.D.A.A.J.J.J.D.F.D p p z 5 < < < > 4 0 ` ` ) R 7 I ] 4.",
"# 2 q q q 5 i h 9 q 0 q 0 w w w 1 < 1 h J 1.G.C.v.C S C J Z 3 > , 1 v Z H S C C.D.A.G.D D H g h 4 q 4 4 4 4 4 q ) ( I 7 q ( | 3.",
"=.=.>.) q 5 9 q s d q 0 w 3 > > 3 , , n Z H H G S S v 1 n 1 $ # $ n v v 0 e a D S.C.C C S Z =.` q 2 4 > < 9 q q q R 7 7 ( | 4.3.",
",X<X4X,.d 4 6 w R d e < > > 4 3 w v x b b Z Z S Z 1 , , $ $ @ @ + $ x x , , 1 a S D D S Z Z Z v w 2 > < i h d ) R R 7 u ` ,.4.o.",
"<X6X6X-X=.q 6 R d i < > > > 4 w v v b b b b Z v 1 , . + $ $ @ @ + + $ $ $ # , 1 h Z A A J A v w 3 > > < 1 e h ) =.{ u f } >.| ] ",
"7X7X2X .;.q 0 q q 4 < > # 4 9 h v A 6.6.%.%.b c , $ . . o O @ @ + + $ + + # $ , 0 v A K K A +.W 6 6 4 < < < 9 d } ,.} f ] | _ { ",
"| _ X.| ) g Z 0 5 < < < > 8 i 0 v b 6.r.0.&.&.#.n $ . o o o o o o + @ + + + $ , x b B V 7.6.+.W ~ 8 5 5 8 > 4 q ;.=X .k ] | ` [ ",
"2 P U Y / f i 5 5 5 9 u < 9 9 3 n B r.u.r.q.w.&.c - @ @ o o o & o o o o o O # , 0 b B 0.r.7.%.x v q 7 7 P 2 2 6 F =X=X} _ ] ,.<.",
"% % P U ^ _ f 5 4 9 i d i 9 0 n B r.u.a.q.q.t.0.m * @ @ @ @ @ % @ @ @ o o # $ 1 v b B V r.y.r.7.@.+.w 6 P % P ~ d 1.%X} }  .%X4X",
"  # ~ ! E ..] _ q i d d 9 0 c &.s.h.g.a.9.q.u.r.#.* o o @ * - #.x - - $ o . . n v b V 9.r.s.f.f.u.&.x 3 ~ U ~ T { [  . .$X%X,X1X",
", 0 =.=.' E ..[ d h g h v x &.f.l.z.j.h.a.t.p.7.c + & o * = #.%.%.m #.= . . . * v A V 9.t.f.FXFXHXu.%.#.+.E R R W ( ] $X-X,X<X1X",
"S H 2.3.[ ' ' ] g Z Z b #.0.t.j.GXGXj.a.e.t.i.V c $ . . * ; *.&.$.$.; ; * * . n n K r.r.t.f.FXGXGXg.q.&.6.2.Z s T I ]  .,X1X<X-X",
"H >X:X=X4.[ [ } g F A %.0.t.h.j.k.k.e.e.a.p.p.r.b * * * = ; $.$.$.$.$.; = * * * B r.p.p.t.t.g.j.l.g.d.u.r.2.J d ( ( } *X,X<X4X,.",
"=.>.*X2X7X2X;X .:.H 6.8.p.f.g.f.a.q.q.q.d.j.j.h.V = = *.N $.$.$.0.M $.$.$.; = ; 9.h.g.g.t.q.9.h.s.f.f.f.y.6.A F <.,.F.;X1X,X$Xo.",
"> 4 ( *X6X0X9X1XS.2.A 8.i.p.i.8.N N 9.q.d.k.JXz.a.0.*.*.$.0.0.&.$.0.0.&.$.*.M q.h.j.GXj.a.q.9.M 7.i.y.y.7.@.Z =.:X1X9X9X,X%X] O.",
"  X 2 ) -X6X9X9X<XS.H 2.8X8X8XA v c $.a.d.k.JXz.d.q.w.*.0.w.w.y.r.y.r.r.7.&.0.a.j.z.GXk.d.0.N m b 6.6.@.x 3 W [ -X6X0X9X,X%X} _ ",
"  # 2 (  .2X1X9X1X<X1.1.=X:X:.d v c w.d.k.k.z.z.d.y.&.5.%.&.8.y.y.i.i.8.7.&.r.t.l.z.z.z.j.a.9.B -.2.=.W 2 P ~ { :.<X0X9X1X;X<.:.",
", w q ( ^  .*X<X1X<X-X-X5X7X| ) @.*.s.l.FXFXg.s.y.7.-.5.5.@.5.5.2.8X8X8X2.K 6.7.u.g.l.l.z.d.q.&.-.1.` ( O.O...{ [ ,.6X6X<X>X>X>X",
"Z =.=.{ ^ ^ | *X4X,X;X*X2X3X| ) @.&.u.g.f.f.i.7.6.-.2.3.4.{ Q E <.:X:X:X&XH H K %.r.u.f.d.d.t.0.@.=.| | o.o.X.' I _ *X2X;X>X=X>X",
";.1.<.[ Y T Y =.=X&X%XF.%X,.[ =.%.&.0.0.7.6.A b Z H =X*X,.] T U ] | 3X<.:.G H H =.b c N 0.0.w.*.@.W ` :.=X*X>.{ T I ) *X%XF.1.1.",
"H &X<.[ U P U { ;.1.G k G ;.) +.%.&.M N b v w q d G -X*X,._ T 8 7 _ | ,.} } :.:.d > # * = 0.0.&.@.+.d 1.&X=X>.s T U R } k G G ;."
};
