/* XPM */
static char *_4walkl11738162116[] = {
/* columns rows colors chars-per-pixel */
"64 64 256 2 ",
"   c #3A0E01",
".  c #381905",
"X  c #2D1A05",
"o  c #39280D",
"O  c #392A12",
"+  c #363B17",
"@  c #2F2F0D",
"#  c #383C23",
"$  c #183D1E",
"%  c #4B0802",
"&  c #530400",
"*  c #580C07",
"=  c #471709",
"-  c #55170B",
";  c #471C11",
":  c #561914",
">  c #620A09",
",  c #671815",
"<  c #7B1914",
"1  c #741A1A",
"2  c #7C1A1A",
"3  c #781815",
"4  c #68140D",
"5  c #44220C",
"6  c #472616",
"7  c #582617",
"8  c #443519",
"9  c #543413",
"0  c #67251A",
"q  c #722B1D",
"w  c #6D311D",
"e  c #582A23",
"r  c #4B3B26",
"t  c #593624",
"y  c #682A24",
"u  c #653627",
"i  c #78372A",
"p  c #7A2F2A",
"a  c #721D20",
"s  c #38421B",
"d  c #2C4619",
"f  c #1D5528",
"g  c #1B4A2A",
"h  c #284B2B",
"j  c #394A26",
"k  c #25592B",
"l  c #38532A",
"z  c #284E34",
"x  c #295836",
"c  c #365A37",
"v  c #3E4C33",
"b  c #2B6537",
"n  c #34633C",
"m  c #3B633B",
"M  c #336C3C",
"N  c #3C6C3C",
"B  c #366635",
"V  c #36733C",
"C  c #3B733D",
"Z  c #3A783B",
"A  c #2C6B31",
"S  c #154D1D",
"D  c #48441C",
"F  c #494728",
"G  c #544927",
"H  c #47552C",
"J  c #58522C",
"K  c #4B4C35",
"L  c #574935",
"P  c #475A36",
"I  c #585838",
"U  c #7A4939",
"Y  c #665736",
"T  c #6B4D32",
"R  c #48663B",
"E  c #56653B",
"W  c #42773E",
"Q  c #6C6239",
"!  c #69461A",
"~  c #355B42",
"^  c #2D6547",
"/  c #336343",
"(  c #356C44",
")  c #3C6C43",
"_  c #3B6C4B",
"`  c #376749",
"'  c #3B7443",
"]  c #3C734B",
"[  c #3A7747",
"{  c #3D7453",
"}  c #376B51",
"|  c #575B43",
" . c #455F44",
".. c #705744",
"X. c #436C43",
"o. c #476948",
"O. c #576846",
"+. c #437344",
"@. c #4B7444",
"#. c #427B45",
"$. c #44734C",
"%. c #4B744A",
"&. c #437C4B",
"*. c #4B7B4B",
"=. c #4B7B46",
"-. c #56784A",
";. c #437553",
":. c #447B54",
">. c #4B7C54",
",. c #4C7C5B",
"<. c #497855",
"1. c #577B55",
"2. c #526D55",
"3. c #646746",
"4. c #65764B",
"5. c #667957",
"6. c #727151",
"7. c #4E7E61",
"8. c #717C67",
"9. c #8A1E1B",
"0. c #831D1B",
"q. c #88221B",
"w. c #811C20",
"e. c #862823",
"r. c #9B2D2A",
"t. c #972C29",
"y. c #88342A",
"u. c #93332D",
"i. c #9B312D",
"p. c #94372A",
"a. c #9D2B32",
"s. c #8B3A34",
"d. c #9A3432",
"f. c #963A34",
"g. c #A52D2D",
"h. c #A5332D",
"j. c #AB322D",
"k. c #A23228",
"l. c #AC2E33",
"z. c #A52D34",
"x. c #A53432",
"c. c #AB3334",
"v. c #A43934",
"b. c #AC3439",
"n. c #A83937",
"m. c #B13234",
"M. c #B23239",
"N. c #B12F34",
"B. c #894539",
"V. c #934439",
"C. c #A3423B",
"Z. c #8A6A3B",
"A. c #975649",
"S. c #995D52",
"D. c #8F4B49",
"F. c #A6564B",
"G. c #B2534E",
"H. c #A85B54",
"J. c #B65B56",
"K. c #AA4844",
"L. c #8C6D51",
"P. c #B4635A",
"I. c #A76C57",
"U. c #9B7362",
"Y. c #AD6E63",
"T. c #C1625D",
"R. c #C16363",
"E. c #AD3F40",
"W. c #45823F",
"Q. c #458244",
"!. c #45814C",
"~. c #4B834C",
"^. c #4D8B4D",
"/. c #488645",
"(. c #518B4D",
"). c #55844C",
"_. c #458254",
"`. c #4C8352",
"'. c #4B845B",
"]. c #4C8956",
"[. c #538353",
"{. c #5B8454",
"}. c #538B55",
"|. c #5B8B54",
" X c #54845C",
".X c #548C5B",
"XX c #5B8C5B",
"oX c #5A855A",
"OX c #5B935C",
"+X c #589457",
"@X c #52904E",
"#X c #678859",
"$X c #758557",
"%X c #61975C",
"&X c #6C8A57",
"*X c #4D8661",
"=X c #578763",
"-X c #5C9464",
";X c #5B9666",
":X c #668964",
">X c #788865",
",X c #659A65",
"<X c #6E926D",
"1X c #67A366",
"2X c #3C8340",
"3X c #97825B",
"4X c #A6855D",
"5X c #8C8F6B",
"6X c #A58769",
"7X c #B79A79",
"8X c #B18B71",
"9X c #A5A579",
"0X c #C98B7A",
"qX c #CE8C7B",
"wX c #B89983",
"eX c #B5AB88",
"rX c #C99585",
"tX c #D38B83",
"yX c #C8A986",
"uX c #DCB48B",
"iX c #D7B694",
"pX c #CFAE91",
"aX c #E7A79C",
"sX c #E7BB97",
"dX c #F1BF9D",
"fX c #D8BBAA",
"gX c #E8ACA2",
"hX c #F2AAA3",
"jX c #E8B6A6",
"kX c #F3B7AA",
"lX c #F2BDB1",
"zX c #BDCB9E",
"xX c #EAC297",
"cX c #ECC49B",
"vX c #E9C69C",
"bX c #F2C39C",
"nX c #F1C99E",
"mX c #D2C9A8",
"MX c #ECC4A1",
"NX c #EDCBAB",
"BX c #EBC9A4",
"VX c #F2C3A2",
"CX c #F3CAA4",
"ZX c #F3CDAB",
"AX c #FACAA9",
"SX c #F6D2AB",
"DX c #F8CCB6",
"FX c #FBD5B8",
"GX c #EBD2B2",
"HX c #E8E0B9",
"JX c #FFD8CA",
"KX c #FFDED1",
"LX c #FFCFC3",
"PX c #FFE7D8",
"IX c #F6EDCA",
"UX c #FFF0E2",
/* pixels */
"Q.^.+X+X].].]._.{ { } ~ ~ c / ` } } ^ ^ ` b b A 2X2X+X;X+X@X).~.&.$.] ] ( ^ ^ ^ ` } } ` ` } } } ^ ( } { _.'._._.*X*X]._.[ [ ^ [ ",
"/.}.+X+X].!.[ ( [ [ { { } ` o./ ^ ` } ] { { [ 2X2X2X+X+X+X@X(./.' M ( _ ] { { { } _ ~ } } } { { ] ( ( [ _._._._._._._.[ [ [ [ [ ",
"[ ]..X+X^.' A x b _ ,.=X7.;./ ~ / } <.7.'.*X*X[ A 2X^.+X%X%X(.W.B x N %.7.*X*X{ ` ~ / _ { :.*X*X_.[ ( ( ' &._.]._.2XM [ _._.].].",
"V &.].OX~.N A b b { '.;X=X,._ x n _ 7.=X;X;X;X'.[ [ 2X@X+X%X).W B B X.>.=X=X;X*Xo.~ ` ;.,.*X;X;X=X!.[ M M #.}.+X_.Z A ^ _.*X;X;X",
"b ' `..X!.#.Z #.&.[. X-X=X,.` ~ ) X.1.=X=X:X=X=X[ [ ] >.|.#X|.).=.=.`.|.oX:X:X,.o.o.o.1..X*X-X-XOX].#.Z V =.+X+X^.#.C [ _.].;X;X",
"f b &._.`.^.|.%XXX{.>.<.<.<.;.;.<.*.1.oX7.7.8.=X*X{ o.P W -.).|.|.{.{.#X1.1.1.-.O.2.1.1.[.*.*.`..X@X(./.W W.(.+X}.(.^.`.!._.'.;X",
"f b [ !..X-X,X,X,X[.) b / } 1.=X#X1.o.X.| | 2.5.:X2.2. .R E 4.$X&X&X&XE O.P I O.4.5.5.1.-.X.m m =.).(.(./.W./.(.@XOX;X+X[ V [ [ ",
"b b ' !.OX1X1X,XOX%.l h x o.8.<X<X5.H # + # r K | 8.8.8.5X$X5X9XeX9X6.H F + + F | ..3.| O.O.P v R ).|.)././././.+X1X1X+X[ b f b ",
"N ' +.}.;X,X,X}.*.N c h c  .5.>X8.| # X X X X . X ..wXmXmXzXmXGXHXiXL.G O . X o 6 ; O r 3.8.| | R R -.).).(.^.@X+X1X%X^.V k k k ",
"+.&.`.OX,XXX~.N c X.o. .K j K | | r O . . . = =   L wXHXPXPXIXIXBX7XI.u :     = ; ; O e L ..| r + H E 4.{.|.+X+X+X+X^.#.V V C [ ",
") *.[.XX-X[.X.x l o.5.6.r @ O O O 6 r t t u p y y p S.rXGXPXIXZX0XS.B.! u e y e e y p e e ; 6 O X + E 5.&X{.|.|.+X~.C V [ _.}..X",
"B X.~.oXoX%.c c c | 3.| r .   ; e ..L.U.U.S.A.V.D.D.i S.0XjXsX0XA.y.y.A.S.Y.Y.S.D.D.D.s.e ;   . . 8 G I Q 4.#X%X+XZ N V #..X;X,X",
"x c %.oX1.%.o.P | I r t r t y ..8XfXfXfXfXrXS.B.s.s.e.s.F.I.P.F.V.e.p H.rXjXlXtXP.D.s.s.p y y p u t 6 8 K 3.$X>X{.@.N ) ~..X-X-X",
"z c o.1.8.-.F j K G 6 5 y i V.Y.jXPXPXPXKXjXY.y.e.d.u.y.e.y.y.y.p.y.y.I.kXPXUXkXH.a.a.D.D.D.s.B.U u 5 . 8 J O.3.5.-.@.@.oXXX].!.",
"z ~ o.2.5.O.# O r T u u i s.s.P.lXPXKXKXKXjXY.s.y.f.u.u.q.e.e.y.i.i.p.P.gXKXKXjXY.s.a.a.a.s.s.s.B.i 7 5 6 8 # F O.4.1.1.XX.X_.[ ",
"~ ~  .2.2.I K | ..U.U.U.V.s.y.J.tXgXgXgXgXrXS.y.p f.F.P.P.P.J.G.C.i.f.F.tXhXhXtXH.a.a.s.s.s.H.P.I.A.T 0 7 . . O F O.O.1.oX>.] M ",
"~  .2. .# L 5XfXfXfXfXrXH.u.u.C.G.P.F.P.P.F.V.y.p D.tXgXhXgXgXtXG.u.u.K.G.T.J.G.C.v.f.u.i D.0XjXgXwXD.y : 7 6 ; O # | 1.<.%._ / ",
"2.2.2.# X K wXUXUXPXKXgXP.s.u.d.p.p.p.p.p.p.p.V.F.0XkXJXJXKXJXgXR.u.u.v.h.g.g.r.v.d.d.V.H.tXlXKXPXNXrXS.i y : ; X O K O.o.` _ _ ",
"2.2.8. .X L fXUXUXPXKXhXP.u.r.x.p.t.k.k.p.p.p.F.tXhXLXKXJXKXKXgXJ.d.t.v.r.r.r.g.c.d.d.K.qXkXLXJXKXLXkXtXA.p 0 :   . K o.o.$.] { ",
"| | | e ; L Y.fXgXgXgXtXF.a.x.x.j.k.k.k.k.k.C.C.tXhXgXaXaXgXgX0XG.d.t.h.c.x.b.x.c.g.x.T.R.hXhXaXaXhXhXtXJ.u.a 0 -   6 K O.,.].;X",
"| r 8 6 e U D.R.P.P.J.G.n.x.z.j.k.k.j.k.k.k.k.C.J.R.R.P.P.P.P.G.n.v.x.h.g.c.c.l.c.c.z.n.J.T.J.H.J.R.T.J.M.v.i.e.0 - . D O.:X;X;X",
"r r 6 e s.D.s.s.s.u.y.d.x.c.l.b.j.j.j.j.k.j.c.n.a.a.a.a.d.d.t.i.v.v.x.h.c.c.c.m.c.b.b.b.z.r.t.t.t.a.k.g.x.n.C.i.q.- = O E &X,X;X",
"L u y i s.D.a.a.t.t.t.r.c.b.l.m.j.j.j.j.j.M.M.c.z.a.a.a.z.z.k.j.x.k.k.x.b.b.l.M.M.M.b.l.l.g.h.g.r.g.g.g.j.c.v.t.q.4 - 9 E &X%XOX",
"L U ..D.s.s.C.a.v.x.x.c.b.b.b.c.m.j.j.m.c.M.M.m.z.M.z.b.N.z.m.j.j.g.j.c.m.l.N.N.N.N.m.m.l.b.c.j.g.N.g.N.c.j.j.i.q.0 0 t I O.%.*.",
"......s.V.V.k.k.C.v.v.j.l.c.b.z.m.j.m.l.l.l.m.b.N.z.z.z.j.j.j.j.j.j.m.m.j.j.N.N.l.c.b.l.l.c.c.c.m.m.c.h.z.n.x.a.q.0 e e L  .~ ~ ",
"S...U i B.C.k.k.k.j.v.j.x.c.c.b.c.m.c.j.l.c.b.c.b.z.z.b.C.j.j.j.j.N.m.N.N.N.N.N.c.l.j.z.j.c.j.c.c.c.l.z.x.n.z.d.q.0 e t r v h h ",
"L...u i y.V.C.v.v.x.x.n.c.z.c.b.l.l.l.b.c.c.b.b.b.b.b.b.m.j.j.j.j.j.N.N.m.l.j.m.b.l.g.h.x.x.c.j.j.j.z.z.z.n.b.d.w.1 y u L K h $ ",
"L.U t 0 q p.v.v.v.v.n.b.b.c.b.b.c.c.b.m.b.b.c.c.b.M.c.c.n.j.j.j.j.N.N.j.c.c.c.b.n.n.x.x.c.n.b.c.x.c.x.x.x.n.d.a.w.1 , u ..| v h ",
"L...t - 0 e.p.C.v.v.d.b.b.b.l.b.b.m.j.l.j.l.j.j.n.b.c.c.x.x.j.v.n.x.l.l.c.x.x.x.n.n.n.v.c.j.x.j.c.x.x.v.v.d.e.a 1 , 7 u ..6.2. .",
"..T 9 5 - w e.p.f.p.u.t.a.r.r.g.g.g.g.g.g.k.k.9.r.i.r.r.t.t.r.r.u.t.r.r.t.r.r.t.p.p.p.i.t.k.r.r.i.t.i.d.d.u.e.1 0 : = 7 ..8.>X5.",
"T r 5 = - w q q q p q.e.9.9.9.9.9.9.9.9.9.9.9.9.9.9.9.9.9.9.9.9.0.9.9.9.9.9.q.q.q.q.q.q.q.q.9.9.w.0.e.q q q 0 0 0 = . 8 3.8.>X:X",
"L G 8 O 5 5 - - - 4 , 1 1 2 2 2 0.< 0.< < < < < 3 < 0.2 2 2 < 3 2 0.0.< < 0.< 2 < 3 < 3 3 < 2 0.2 2 1 , : - - 5 5 5 O r 3.5.5.1.",
"I I I J o X     % % : a a a 1 1 3 3 3 3 3 1 , a 3 1 1 1 2 1 3 2 3 2 2 2 2 3 3 1 q 3 1 1 1 1 1 1 1 a , : % .   . X o L 3.2. .~ z ",
"%.-.#X3.F O o . ; ; : : > , > 4 > > > * * * , > > * * * * > > , > > > > > > > * > * > > > > 4 4 , : : ; 6 8 8 O o G 3.5.o.c z z ",
"1.1.#X5.3.I K F r e O   % = % - & & & & & % * : % & % % % & * : & & & & & & & & & & * - * & * - % % . 6 J ..3.E E E 4.1.o.c ~ _ ",
"*.1.{.:X:X5.O.I | K r e 6 ; = ; y i p i p y % ; 0 i i i p y % * 0 y.p p e.i i p w w w q.q 0 - % . o 5 G 6.$X5X>X&X-.@.R N $. X=X",
"X.;.oX:X:X1.o.v v | O.6...L 6 u U.rXrXrXrXS.6 : S.rXrXrXrXS.: : I.qXqXqXqXqX0X0XqX8X4X0XT.Z.w - 9 J J Q &X&X&X&X#X=.B B $..X;X;X",
"n _  X=X:X%.c l z O.8.5X5X..r Y rXFXFXFXLX8Xe e 8XDXFXDXLXwXe e 8XAXSXAXAXAXnXSXSXnXdXqXuX4X! D T 6.$X|.).).|.|.).W A M ~..X,X-X",
"b ` ;.'.7.<.m x c 2.8.<X>X3.r Y eXFXFXJXJX8Xe e 8XFXLXFXLXwXe e 8XAXFXAXAXAXAXSXSXnXSXnXuX4X! ! Y $XQ Q W ).|.+X}.#.M Z ].OX=X.X",
"z x _ ,.*X:.) ( _ <.2.1.6.I + T 7XGXSXSXGXU.6 6 6XNXFXFXGX6X6 ; 6XAXnXbXnXxXnXxXnXnXnXnXqXI.! D Q $X&XW E Q.]..X].#.' #.}.oX~.=.",
"g x } :.*X<.;.$.:.<.o.o.O.G 8 J 8XNXSXSXGX6XO 6 U.DXFXSXGX6X; 6 Y.nXAXxXnXxXxXxXxXvXnXxXuX4X! ! Q 6.4.R B ' '.;X_.&.[ !..X[.+.B ",
"g ^ ` <.7.*X:.;.'.>.R l F F I L.eXBXBXSXNX7XY U 7XCXCXSXBX7X..U 7XnXnXnXnXvXvXvXvXxXnXnXxX7XZ.! Q 4.O.R c ( _.*X'._.{ _.].!.B k ",
"^ ^ ^ ;.7.*X:.:._.:.N j s I 3XyXvXMXvXvXBXiXrXwXuXcXbXnXBXiXwXwXuXnXnXbXnXvXxXvXnXnXxXxXxXqX9XZ.J H E R n ( ,.*X*X]._._._.' k S ",
"} } } } { :.{ ] ] _ R h + I eXGXZXvXcXcXvXNXGXSXcXbXxXbXvXBXNXDXMXbXbXxXxXxXxXvXxXxXnXnXnXxXuX4XJ s P o.) ( ;.*X*X*X'._.[ A d S ",
"{ { ;.;._ _ ( ^ b / ) l + E eXZXSXdXcXbXvXMXZXZXbXbXbXsXvXBXZXZXCXxXxXxXxXcXnXxXxXxXbXbXbXbXxX4XJ + l @.$.] ;.:._.'.'.] b f k f ",
"} { 7.:._ / b b b ) %.P s Y yXGXSXdXbXxXvXvXvXBXxXdXbXbXcXjXMXdXcXcXbXxXxXcXxXxXxXbXxXbXbXbXxX4XJ + l R X.;.:.:.:.{ [ ( M M M C ",
"^ } ,.7.] n b ^ ( >.1.E F I 7XFXAXVXbXbXcXvXvXvXxXbXbXbXjXcXMXcXcXcXcXnXcXxXxXxXbXxXbXbXbXnXxX4XG + d m n ] :.,.{ ( n M :..X.X.X",
"z ~ <.,._ / ( ( ;.oX:X-.H Y 4XpXkXdXCXVXcXvXxXvXbXbXdXkXMXcXcXxXsXcXcXcXnXxXcXcXbXbXbXbXqXxX7XZ.E H l R m ] :.'._ n b ' }.,X,X,X",
"z ~ ` $.$.$.&._.`. X1.1.4.O.Y L.qXSXSXnXnXnXxXcXkXdXdXVXcXMXbXxXxXxXcXxXxXxXbXnXbXbXnXnXuX8XZ.J 3.#X5.%.+.' &.&.] ' +.+.>.oX-X,X",
"/ c ) $.&.]..X.X`.&.%.-.6.I 8 Y 7XSXSXnXnXnXbXkXbXbXdXMXxXxXcXcXvXvXvXcXbXxXxXbXbXbXnXnXuX3X! D 4.&X<X{.`.&.[ [ &.[. X*.+.+.%.'.",
"$.X.$.`..X.X.X].!.) n c %.v + J 9XCXSXnXnXVXAXdXcXkXkXcXnXnXnXnXBXvXcXcXcXcXxXsXbXbXSXnXiX3X! + E #X#X{..X&.Z [ `..X-X`.N x b M ",
":.:.'..X-XOX^.!.] M k x c l # I 5XyXiXvXbXsXVXAXZXAXAXZXCXSXnXnXSXZXZXSXSXCXnXbXbXxX7X9X4X3XG s j R @.[..X!.Z [ }.OX,X~.M f f g ",
":.:.].}.^.^./.Q.( n x z c l v j J L.9XiXiXiXsXCXAXZXCXCXCXZXnXnXBXBXNXZXSXAXCXCXnXqX3X! ! J F F l l R #.^.#.' V !.^.}.~.M k S $ ",
"] &.].^./.W W [ [ ] ^ / c ~ m j s D L.4XrXiXiXvXyXrX7X7X7X7X7X7X7X7X7X7X7X7XBXFXSX7XL.D @ 8 H E R B N C ' Q.2X2XQ.Q.#.[ [ ) x f ",
"V [ ^.]./.Z W #._.'.7.7.$.X.m c H H J Q 6XiXiX7XL.Y Y Y Y Y J J T Y Y T Q L.7XHXHXvX7X3XD s E 5.-.*.=.+.C Q.@X^./.2XC #.'. X:.{ ",
"k ( !./.W.W./.|.=X*X7.7.,.$.X.@.E P s H 6.6X6XL.F X @ + s s D D D F F @ + J 5XyXmXHXHX9XE s P 4.%XoX[.#.Z Q.^.+X^.Q.#.~.oX=X'.,.",
"k b C Q.(.%X%X,X-X*X{ } _ $.*.>.{.-.P F F J G D @ @ d F H H E E O.O.I H F D F $XeXIXHXzXE d j -.[.}.oX^././.(.@X@X@X+X}.[.<.$.` ",
"x b C ~.%X%X,X,X=X<./ x c ] [.oX{.{.-.E s s d d j j H R E -.&X>X>X:X1.O.P d + H 9XzXzX1XE d l B +.&.].`.~.W./.(.+X1X1X.X$.c z h ",
"b ( +.|.%X1X,XXX1._ x z x ) ).XX[.|.-.-.R s j H E W @.@.).).#X%X,X#Xo.m l s d H $X5X5X$X=.R P c n ' `.}.(.=.~.(.+X1X1X+X) z $ $ ",
"] ] *.%X,X%X}.*.' ) ~ c n +.*.oXoX[.{.{.-.W R E ).#X1.*.*.(.OX#X[.$.c c B c B R E ).).{.{.-.=.m B N *.}.|.(.@X+X%X1X+X].) z z ~ ",
":.>..X,X,X+X!.N M _ _ $.$.+.$.*.[.oX{.{.{.).@.@.{.#XXX[.).oX%XXX;._ c / +.@.@.@.@.-.W ).#X%X{.%.( ) &.}.XX%X%X%X+X+X_.[ ) ( ` o.",
"$.`.}.XX.X`.C b b ) >.,.<.X.X.+.*.~.[.(.|.).-.@.).|.[.>.[.oX{.<.) c ~ o.<.1.1.@.W W -.).}.oX X>.X.) +.1.}.#XXX+X@X2XZ [ _ ;.<.,.",
") #.!.`.!.Z k f k / >. X,.%.) N R Z N R =.*.W W @.*.@.+.*.[.>.X.c z ~ <.1.1.1.+.W N #.=.#.*.>.>.' m N %.*.).^.Q.2XV A A ] ;.7.7.",
"M M ' [ [ A k f k b ;. X,.$.( n N B A A N W N C +.+.) R R @.X.m z z ~ o.<.<.1.$.N N +.Z M ) &.>.) N m +.+.@.*.2XV A f b ( <.7.7."
};
