/* XPM */
static const char *NjRqbnl4eTM__679a3fcd87073[] = {
/* columns rows colors chars-per-pixel */
"64 64 256 2 ",
"   c #391905",
".  c #381C11",
"X  c #341101",
"o  c #38280B",
"O  c #3A2916",
"+  c #373818",
"@  c #2C3110",
"#  c #3C3C22",
"$  c #490901",
"%  c #540400",
"&  c #5B0804",
"*  c #461807",
"=  c #57180A",
"-  c #591A12",
";  c #461D13",
":  c #660B09",
">  c #66170D",
",  c #681C14",
"<  c #731915",
"1  c #48250C",
"2  c #482816",
"3  c #592715",
"4  c #473519",
"5  c #542B10",
"6  c #692616",
"7  c #762719",
"8  c #682C18",
"9  c #463A26",
"0  c #583924",
"q  c #4F2A23",
"w  c #7C2523",
"e  c #693528",
"r  c #773729",
"t  c #793D32",
"y  c #6C342F",
"u  c #38451B",
"i  c #1A4F2C",
"p  c #3A4928",
"a  c #265729",
"s  c #2C5A34",
"d  c #285836",
"f  c #375B38",
"g  c #334C31",
"h  c #2B6334",
"j  c #2B6639",
"k  c #346B3B",
"l  c #37663A",
"z  c #39733B",
"x  c #32692B",
"c  c #194514",
"v  c #44471D",
"b  c #484828",
"n  c #57472B",
"m  c #47562B",
"M  c #57562A",
"N  c #564B34",
"B  c #485837",
"V  c #5C5C3A",
"C  c #555937",
"Z  c #474D36",
"A  c #674A36",
"S  c #774836",
"D  c #655838",
"F  c #765338",
"G  c #684E2C",
"H  c #46663B",
"J  c #55643A",
"K  c #46763B",
"L  c #54743E",
"P  c #67673C",
"I  c #2C6746",
"U  c #346443",
"Y  c #346B43",
"T  c #3B6C44",
"R  c #3C6C4C",
"E  c #376748",
"W  c #3C7344",
"Q  c #3C734B",
"!  c #397748",
"~  c #366852",
"^  c #3A7753",
"/  c #3B5C47",
"(  c #4D5744",
")  c #685844",
"_  c #755945",
"`  c #654E40",
"'  c #446D44",
"]  c #476948",
"[  c #586845",
"{  c #427443",
"}  c #437B44",
"|  c #43734C",
" . c #447C4B",
".. c #4B7C4B",
"X. c #4B7547",
"o. c #577649",
"O. c #447652",
"+. c #4A7554",
"@. c #447B54",
"#. c #4B7C54",
"$. c #4C7D5A",
"%. c #457859",
"&. c #537C54",
"*. c #537E5A",
"=. c #5B7854",
"-. c #4B6D53",
";. c #666748",
":. c #776849",
">. c #64754B",
",. c #766A56",
"<. c #677957",
"1. c #757756",
"2. c #76744E",
"3. c #567C62",
"4. c #7C7562",
"5. c #86261F",
"6. c #89321E",
"7. c #862825",
"8. c #942D2B",
"9. c #992C29",
"0. c #8C342B",
"q. c #873528",
"w. c #94332D",
"e. c #9B332D",
"r. c #98382A",
"t. c #972E31",
"y. c #883B33",
"u. c #943432",
"i. c #9A3332",
"p. c #933A32",
"a. c #9A3A35",
"s. c #A42D2C",
"d. c #AB2E2C",
"f. c #A4332E",
"g. c #AB312E",
"h. c #A2392E",
"j. c #A52E32",
"k. c #AD2D32",
"l. c #B22E34",
"z. c #A53433",
"x. c #AB3334",
"c. c #A33934",
"v. c #AA3935",
"b. c #AA3539",
"n. c #A73939",
"m. c #B13234",
"M. c #B23738",
"N. c #B1312D",
"B. c #881C20",
"V. c #8A4337",
"C. c #964237",
"Z. c #86553A",
"A. c #A8433B",
"S. c #9A5647",
"D. c #915248",
"F. c #AA564C",
"G. c #A95752",
"H. c #B35954",
"J. c #AB4C47",
"K. c #856A55",
"L. c #906C53",
"P. c #AC6959",
"I. c #B4685B",
"U. c #AC7759",
"Y. c #B47359",
"T. c #B07364",
"R. c #887262",
"E. c #C26D64",
"W. c #3E804C",
"Q. c #45824C",
"!. c #4B834C",
"~. c #498647",
"^. c #52844C",
"/. c #56884D",
"(. c #4C8453",
"). c #4D8A54",
"_. c #4D825A",
"`. c #488757",
"'. c #538455",
"]. c #5C8253",
"[. c #548B53",
"{. c #53845C",
"}. c #548B5B",
"|. c #5B8C5C",
" X c #5B8857",
".X c #5B935A",
"XX c #599358",
"oX c #4F9351",
"OX c #668459",
"+X c #64985D",
"@X c #728358",
"#X c #5B8C63",
"$X c #578663",
"%X c #5B9463",
"&X c #5A9566",
"*X c #4A8562",
"=X c #678964",
"-X c #788766",
";X c #669866",
":X c #72956D",
">X c #69A168",
",X c #90865A",
"<X c #998B66",
"1X c #88896D",
"2X c #B6866A",
"3X c #AC9E77",
"4X c #B69B77",
"5X c #AF8C6E",
"6X c #B4A379",
"7X c #AEA174",
"8X c #C69779",
"9X c #CF877C",
"0X c #C8A37E",
"qX c #B6AA88",
"wX c #CA8B83",
"eX c #D39285",
"rX c #CAA789",
"tX c #D8AB88",
"yX c #D6B48A",
"uX c #C9AB96",
"iX c #D3B090",
"pX c #E6AA8B",
"aX c #E6AA9A",
"sX c #ECBD9B",
"dX c #E7B796",
"fX c #F2BD9A",
"gX c #EFAA9A",
"hX c #D3B5A3",
"jX c #E7ACA3",
"kX c #E9B5A7",
"lX c #F5BAA7",
"zX c #F4B4AB",
"xX c #DBC699",
"cX c #EDC39C",
"vX c #EAC599",
"bX c #F3C49C",
"nX c #F3C69A",
"mX c #ECC3A2",
"MX c #EDCBA5",
"NX c #EBC8A8",
"BX c #F3C4A3",
"VX c #F2CBA4",
"CX c #F3CCAB",
"ZX c #F9C8A8",
"AX c #EBD2A9",
"SX c #FBCCB5",
"DX c #EDD7B6",
"FX c #FAD4B8",
"GX c #F2D2AA",
"HX c #DDC7A0",
"JX c #FFCEC2",
"KX c #FFD5CB",
"LX c #FFD9C9",
"PX c #FFDBD1",
"IX c #FFE1CF",
"UX c #FFE4D5",
/* pixels */
"~.oXoXoXoX).(. .| R T E E I I ~ ~ ~ ~ / E l k k W.oX.X+X X[.).!.&.| | Q I I I E ~ E I I I Y Y T R Y Y W `.`.Q.Q.`.).}.`.^ ! I I ",
"~.~.XXXX).Q.! W W Q | Q R ~ ~ ~ ~ ~ -.-.+.| W z z ~..X;X|.[.[...' T T Q ^ ^ ^ ~ E E I I Y Q @.O.Q Y Y ! @.Q.Q.Q.(.Q.Q.Q ^ ^ ^ ^ ",
"z ~.XX%XQ.k j h h T #.{.$.^ E I I E O.$.*.{.(.} x z ].;X+XOX XX.H f T @.#._.*XO.E f U ! Q @._.{.#.! k k z Q.).).!.W k Y Q `.*X*X",
"l  ..X%X(.k h h k ..}.#X$X%.~ I I Q $.$X=X=X|.^.H H o.=X:X:X=Xo.] H | &.$X;X=X*.T f U O._.$X#X#X$X(.W k k } [.[.!.z h k  .}.&X&X",
"s T {.#X(.W W {  .'.=X#X*X%.R U Y Q $.|.=X=X=X XX.H [ >.<.-X-X<.<.o.=.OX=X:X=X=.] H ] *.$X#X=X=X|.'...{ z Q.XXXX^.K z { (.|.&X&X",
"d l O._.(.(.}.|.}.}.'.#.+.+.+.O.&.&.&.o.o.<.OX@X<.[ B m B C J C B B C J [ [ o.>.o.o.=.=.=.=.=.=.OX|. X..} !.[..X/./.!./.[.).`.`.",
"d f | #.{.%X;X;X;X'.' f U -.3.=X=X<.o.J C C [ <.2.V + @ @ @ @ @ o O + + + + b ;.1.1.1.>.;.[ C [ >.OXOX].X.X.~./.XX.X+XXXQ.W z z ",
"d U | $.|.;X>X;X|.X.f g B ] -.[ C C Z b b b N ;.,.D 4 o 0 A N N A n 2 o o o 4 n :.K.,.;.) N # 9 b J >.OXOX].^./..X>X>XXXz h a h ",
"R | | '.;X>X;X XX.H g B Z Z # @ @ O n N n N A A _ S e F 5XrXrXrXuX5XF 3 0 0 0 G A F F _ F n 2 X   4 ;.1.@XOX XXX;X>X.X~.k a a h ",
"R O.{.%X;X.Xo.H B B p b 9 9 O O 9 A K.R.R.K.S A S t S L.eXBXZXlXkXeXP.t e S D.L.L.L.F S S e 2 * * 2 n V J o.OX;X+XXX/.} k h k W ",
"Q Q #.}.}.^.K m B Z + . . . q _ 5XuXuXhXhX4XL.t y.y.y.S.P.T.I.I.E.I.S.q.r S.8XaXaX2XD.r t S r y y 3 5 1 o m >.OXOX..{ W { (.}.}.",
"Y T #.}./.o.H p p + O ; ; - y T.kXPXIXIXIXNXwXG.V.0.p.a.p.0.w.p.0.0.p.p.S.9XlXJXKXzX9XG.C.y.y.V.V.r 3   X o m >.<.o.H l '.;X;X&X",
"d U ..'.].o.J b O O q y y y t T.kXPXIXLXLXFXlXeXG.a.0.a.p.8.7.7.7.8.u.F.eXzXJXJXJXSXzXeXG.u.p.C.V.V.t 8 1   o n ;.>.J H &.=X#X#X",
"i s T o.OX>.m o o ; e D.y.t y.P.jXKXPXLXLXFXlX9XG.p.7.0.u.u.i.8.i.w.u.G.eXzXJXKXKXSXzXeXG.u.a.a.y.V.y.r e * X o n ;.[ o.OX|.{._.",
"i f ' o.OX[ +   2 e t D.D.y.p.H.gXJXKXLXLXNX9XS.C.p.p.p.u.u.u.i.a.w.u.C.G.wXzXKXPXzXwXG.a.u.u.a.0.y.y.t 8 3 * * 1 9 V >.=XOX#.| ",
"d f B ] [ C N D K.T.P.S.D.p.w.F.9XjXjXaXaX8XS.q.q.C.G.P.I.I.H.H.J.i.u.u.q.S.wXkXaXeXG.7.u.i.i.J.G.P.I.G.r 6 6 = *   b ;.<.=.+.Y ",
"U E ] B + N <XuXhXkXjXwXG.0.w.A.H.I.P.P.I.F.r.6.0.G.9XjXjXjXgX9XF.a.e.9.8.C.F.I.I.S.C.0.u.i.u.G.wXjXjXwXS.8 6 6 = * o 9 [ -.R U ",
"R -.-.Z + ) uXUXUXIXLXjXI.w.9.z.i.w.q.6.6.0.r.r.0.I.jXKXKXKXKXgXI.r.e.v.z.c.0.6.0.r.a.a.a.t.u.I.kXPXPXzXI.q.7 6 8 =   o Z ] ] | ",
"] -.<.( b K.hXIXPXKXKXzXI.w.e.e.9.8.w.0.6.r.r.8.w.I.kXPXKXPXKXgXI.9.9.g.s.f.e.8.7.r.c.z.n.9.8.H.zXKXKXgXI.0.0.q.7 > * 4 N [ =.=.",
"] -.<.,.) L.rXjXaXaXaXeXF.i.z.s.z.z.c.r.r.r.h.f.w.G.wXaXaXjXgXeXH.s.s.m.N.g.f.h.h.h.f.f.z.j.i.H.eXgXgX9XF.r.e.e.7.7 6 0 D ,.<.=X",
"( ( ,.,._ D.P.P.P.I.I.H.J.z.z.k.j.v.h.e.h.f.f.v.z.J.G.P.P.P.H.H.A.v.g.g.N.g.s.f.h.h.z.z.z.z.z.n.J.I.I.H.A.c.c.h.a.7.6 e _ R.-X-X",
"g Z ` ) S t t q.q.y.0.w.c.z.x.m.s.v.z.h.v.g.s.j.b.n.u.q.y.0.5.9.f.x.d.s.N.g.g.x.v.f.v.z.z.z.z.e.8.w.w.i.z.v.v.c.a.q.7 e F ,.1.-X",
"( 9 O q y V.V.p.0.w.8.8.z.x.k.k.s.f.e.f.f.g.x.M.j.j.t.8.8.e.9.f.s.v.v.m.g.d.g.s.g.f.f.z.z.b.b.z.e.w.8.9.h.z.z.c.c.p.7 3 2 n ;.1X",
"( 9 . ; e V.p.r.a.e.e.f.j.k.k.k.g.f.c.v.f.f.x.k.x.b.b.z.s.v.g.g.v.f.g.x.d.g.M.g.g.v.z.z.v.z.i.c.c.e.f.z.z.z.z.c.c.p.w = X O N 2.",
",.` . * e C.p.r.e.c.z.z.x.k.l.m.x.f.z.f.f.j.k.k.k.x.b.x.x.d.N.N.g.f.g.g.g.g.g.g.g.f.z.z.z.z.z.z.v.f.f.v.z.z.z.z.i.u.w = X . 9 V ",
"4.` 2 * r C.C.a.h.c.v.z.x.x.l.k.x.x.x.x.x.k.k.k.k.x.x.x.x.x.N.N.x.v.v.x.x.m.m.m.x.x.z.z.z.z.z.z.x.d.f.z.z.z.z.z.n.u.w - * . O 9 ",
"R.` 2 * r C.C.a.c.h.f.z.x.x.k.k.k.x.x.x.x.x.x.x.k.j.j.z.x.x.d.d.d.g.x.x.x.N.N.l.k.k.x.x.x.x.x.x.m.m.x.x.x.z.b.b.n.t.w - *   O 9 ",
",.A 2 * 8 y.C.a.A.c.z.z.x.x.x.m.l.l.k.x.x.x.x.x.j.j.z.z.z.z.z.x.x.x.x.x.x.x.l.l.l.x.x.x.x.x.m.l.l.m.x.x.z.b.n.n.i.7.w - * . 9 N ",
",.A 2 * = 7 y.C.C.c.c.z.z.j.x.m.m.x.k.x.x.b.x.z.z.z.v.z.z.z.z.z.x.x.x.z.z.x.x.m.x.x.x.z.z.x.l.l.l.x.x.z.z.c.c.i.8.7 , - ; 2 N ) ",
"_ 0   X * 8 q.q.0.w.a.c.z.z.z.b.M.b.x.x.b.b.b.z.z.v.z.z.z.z.z.b.x.z.z.z.z.z.x.x.x.x.z.z.z.x.m.l.m.M.v.h.w.w.8.7.7 < 6 - X O ) 1X",
") 0   X * 8 7 7 7 7.i.n.n.n.z.b.z.n.n.n.z.z.z.z.c.v.x.x.x.x.b.b.z.c.c.c.c.c.v.z.b.n.n.n.c.v.M.m.x.b.c.e.5.7 7 7 , , 8 ; X O ;.1X",
"N n 4 2 1 3 6 , > 7 7.u.u.i.9.9.8.t.i.i.t.8.w.w.e.e.e.9.s.j.t.t.9.8.w.u.w.w.w.i.i.u.u.u.w.9.s.s.e.e.e.q.7 > > , 6 - 3 2 O # ( <.",
"C V V n 0 3 3 3 6 , w w w w 7.7.7.w 7.7.w 7 w w 7.7.7.B.B.B.7.7.5.5.7.w w 7.7.7.w w w w 7.5.B.8.7.7 w 7 6 6 > - 3 3 4 4 # p g ( ",
"[ <.1.2.D 0 0 0 8 3 - = = - & , , > : & & : > > > : : : : : : : : : : & & : : & & & : : : : : : > & = = * 3 8 r G e 0 b Z ( f g ",
"' o.OX@X1.;.D n n 0   X $ $ $ $ $ $ & % % % $ % % % & & % % % % % % % % & % % % % % % % % % & & % $ $ * X 5 F K.:.) V C ] ] ] ] ",
"....].=X-X1.[ N N N 4 2 2 2 2 * $ $ 6 6 8 7 8 7 7 7 7 7 7 7 7 7 7 7 7 7 7 7 7 7 6 8 8 7 7 6 & $ = 1 1 1 4 n :.R.2.2.[ [ ] +.*.$X",
"Q @.{.=X=X=.] B B C [ ;.;.) D 4 1 3 Z.P.Y.Y.Y.U.P.Y.Y.Y.Y.P.P.P.Y.Y.Y.Y.I.I.I.Y.P.Y.U.T.T.D.8 = 0 G G M V ;.1.-X1.[ H ' #.{.#X#X",
"Y Q _.$X{.] f g f ] <.:X-X4.,.D F L.8XdXdXpXdXdXdXdXpXpXpXpXdXsXfXdXpXpXpXpXpXpXdXdXtXtXtX2XZ.F F :.2.>.<.OX@XOX<.X.l T (.&X&X#X",
"U Y O.{.$X+.U s f ] *.=X-X<.;.1.<XrXdXBXBXfXZXZXZXBXfXfXfXBXVXZXZXZXbXfXfXfXfXbXbXnXsXdXyX0X5X,XK.2.2.>.o.].].OX].{ l W ).%X%X}.",
"d d R $.{.#.R U R +.+.&.<.[ C 1XqXDXCXVXSXdX8X2X2X8XdXZXZXdX8X2X2X8XdXZXZXbXbXnXnXnXnXvXyXyXrX7X,X>.>.o.l { {.=X}.{ k ! ).|.(.} ",
"i d U O.$X$.| O.%.$.+.] ] B B 1.qXDXGXCXSXtXZ.3 3 F rXFXFX0XF 1 3 Z.rXSXZXnXnXnXnXnXnXvXvXyXyX7X,X@XL H l l {.#X{.} z  .).).} z ",
"d f U | {.$.%.%.*X_.R f f g p 2.qXAXCXmXdX2X8 * * Z.rXFXFX8XF 5 5 S 2XpXtXyXsXnXnXnXnXcXvXxXyX7X,XP L H h h {.#X{...!  .(. .l a ",
"d U E Q _._.@.@.*X%.E d f g + ;.qXAXCXdX8XP.Z.Z.L.8XdXmXCXiX4X2X2X2X2XU.U.8XdXnXnXnXnXnXvXMXxX7XP b H H l j _.#X}.(. .!.!.{ a c ",
"U R R O.#.@.Q Q ^ ~ E U f g + V 3XAXSXdX8XT.2XeXdXCXBXkXmXmXCXFXFXdX8XU.U.8XyXcXnXbXbXcXvXGXAX7XM + B X.' T | _.{.{.'.!.W l a c ",
"^ O.O.O.Q Y Y Y I E E E ] g @ V 3XAXCXsXaXpXaXdXmXCXmXBXmXcXCXCXZXBXtXtXtXtXdXbXBXbXbXbXvXGXGX6XD + m X...| R #.$.{.{.} j a a a ",
"R O.$.#.W j s d I R O.+.] p + V 6XAXBXlXlXZXSXZXmXcXsXBXcXcXBXcXBXnXbXbXcXvXcXBXbXbXbXbXcXVXGX4XD + p H | Q | $.#.| W k k l l z ",
"f R $.$.| l j s E %.$X3.=.Z + V 3XMXVXZXBXBXBXcXmXmXmXcXcXcXsXcXsXfXcXnXVXVXbXcXsXBXlXlXBXCXCX4XD + p f l T #.#.| k h k (.}.|.|.",
"d U O.#.{ l T Y O.$X=X=X=.B + D 6XMXMXbXfXsXBXBXmXMXMXdXcXbXdXnXnXnXnXvXvXcXVXcXsXBXfXfXBXVXCX4XD @ p ' l T _.@.! k h W ).%X>X>X",
"d d Y W W | @.#.$.*.$X=X<.C + C 6XAXMXcXvXbXbXVXmXmXmXmXcXvXdXcXnXbXcXvXcXMXVXcXsXfXsXfXVXCXNX4XV u B &.| Q Q W.! ! ! ! (.}.&X;X",
"j j k Q  .(.}.}.{.#.| -.=.[ p ;.qXDXAXvXvXcXcXbXmXmXmXmXcXvXcXcXcXcXcXmXMXmXcXsXsXfXbXbXcXMXAX6XP m [ =X{.@.Y ! W.`.).!.! W @.$.",
"! ! ! (.}.%X%X(. .W l l ] H m 1.qXDXAXvXvXcXsXbXbXsXmXmXmXVXnXcXsXcXcXmXMXMXcXcXbXfXnXbXvXmXHX3X>.J o.=X#X%.! ! `.%X%X(.k h j U ",
"@.Q.`.}.|.%X}. .W j s s f f B >.1XqXxXvXcXnXbXBXbXcXVXCXCXCXVXnXVXVXVXCXGXVXcXcXbXbXBXVXMXyX7X2.J H X.&.{.`.! ^ `.XXXXQ.k d i i ",
"Q.`.).).(.(.(. .W h s a a f f B C 2.3XxXvXnXnXbXbXBXBXVXVXVXVXcXMXMXGXGXCXMXmXsXsXcXcXmXxX7XP b p f ' ' #.#.! ! ! ).}.Q.Y d i c ",
"! Q.).). .} } { W k T T f l l g u b :.3XyXdXdXdXdXdXrX4X4X4X4X4X6X3X4X4X4XrXdXmXmXVXvXyX6X2.M u p H ' T Q  . . .} } ! ! Q R I d ",
"j ! `.).Q.} }  ...#.'.{.| T l f B b b :.5XyXyXyXtX8XL.G G D G D D M D M n L.iXCXSXSXAX6X2.M M [ o.&...{ W  .(.[.!.} z W _.$X$.%.",
"h k  .(.!...'.}.|.|.&.$.{.O.T ' [ B + n <XyXtXyXtX5XG o 4 v + v v u v + o _ uXFXFXFXFX3XM @ B OX=X|.'...{ } [.XX^.Q. .(.$X$X3.$.",
"a j W (.[.|.%X;X=X}.| T | | | &.=.B + b <XrXrXyXrX5XD 4 v m J [ [ [ J b b :.qXDXDXDXDXqXM @ p o.'.}.}.!.K } /.XX/.XX[.}._.%.R E ",
"a j W !.}.;X:X:X#X#.l d f T #.#XOX[ m C 2.,X<X<X<X,XP C J o.OX=X:X=X<.J B ;.1XqXqXqXqX1XV u p l {  ./.^.} ~./.[.+X+X;X.X .j i i ",
"h k { (.%X>X;X;X&.' s a s T _.#X=X=.o.[ M M M M M M J L o.].OX;X=X{.] B B B C ;.D V V J J B B f l z ~./.^.^./.[..X;X;X|.W a i i ",
"z } !.}.;X;X|...| U l l l ' $.'. XOXOXo.m u u + u m J o.o.]..X|.(.| l f B p p u u u u m [ =.o.' l k } [.[.[.XXXX.X;X%X).Y s a d ",
"} !.[..X;X%X(.T l U ] ] | ' | ..&. XOXOXo.H m m H L >.].]. X;X[.O.T l ' ] H B m m m H [ OX=X].X.W z } [..X.X.X.XXXXX). .W U U T ",
"K ~./.XXXX).W h d U +.{.#.| W W { &.&.].OX].X.X.o.].].o...[.XX .l s f ' X.o.=.o.L L o.].OX|. X#.W k W !. XXXXX[.~.} W z Q @.#.&.",
"z z ~.~.Q.z h i i E $.$X{.| l k { { l H &.&.X.X.o.o.X.X.X...!.W j d f ] X.=.].o.K K K X.X...(.(.W k k { !.^.^.~.Q.z j k Q #.&.&.",
"x x z z ! j a i d E +.*.*.| l k { l s s l | X.H K H H K { K z k s i f | X.].].L x x K K z z } } W k k k z } ~.} z j h h T #.*.*."
};
