/* XPM */
static char *closed_door[] = {
/* columns rows colors chars-per-pixel */
"32 32 256 2 ",
"   c #020301",
".  c #0C0000",
"X  c #010B00",
"o  c #0E0C02",
"O  c #010B09",
"+  c #0D090A",
"@  c #130200",
"#  c #190402",
"$  c #120B01",
"%  c #1B0D00",
"&  c #100C0B",
"*  c #041105",
"=  c #09160B",
"-  c #0F0D10",
";  c #171917",
":  c #151108",
">  c #260903",
",  c #3D0D02",
"<  c #360C05",
"1  c #2C140C",
"2  c #2C1705",
"3  c #331304",
"4  c #3B1204",
"5  c #33140B",
"6  c #3B140C",
"7  c #3C190C",
"8  c #381C05",
"9  c #2D1611",
"0  c #271F1C",
"q  c #331512",
"w  c #3B1712",
"e  c #351912",
"r  c #3C1B13",
"t  c #381519",
"y  c #18241A",
"u  c #03360D",
"i  c #3B2100",
"p  c #3E201B",
"a  c #3C2116",
"s  c #0E3D26",
"d  c #252422",
"f  c #28282A",
"g  c #2B2E31",
"h  c #3A3934",
"j  c #393839",
"k  c #363634",
"l  c #2E302F",
"z  c #470700",
"x  c #430B00",
"c  c #490B01",
"v  c #431202",
"b  c #42150B",
"n  c #4C1709",
"m  c #431B0B",
"M  c #4B1B0C",
"N  c #461C05",
"B  c #53160A",
"V  c #441C14",
"C  c #4A1C11",
"Z  c #401F1A",
"A  c #4A2400",
"S  c #472105",
"D  c #58270D",
"F  c #452115",
"G  c #4F2515",
"H  c #5C2B15",
"J  c #5D2B1B",
"K  c #572C1C",
"L  c #5D3518",
"P  c #56360F",
"I  c #61330C",
"U  c #652913",
"Y  c #6B2B14",
"T  c #642B1C",
"R  c #6C2A1A",
"E  c #682618",
"W  c #70271B",
"Q  c #712A1B",
"!  c #69311F",
"~  c #683319",
"^  c #75321E",
"/  c #743D1F",
"(  c #502F2A",
")  c #5B3223",
"_  c #5E392B",
"`  c #5C352B",
"'  c #433A3C",
"]  c #5B3B36",
"[  c #622D22",
"{  c #6D2F23",
"}  c #623023",
"|  c #6C3424",
" . c #623A2B",
".. c #6A3B29",
"X. c #7A3425",
"o. c #793B25",
"O. c #733A2B",
"+. c #793B2A",
"@. c #743526",
"#. c #653A32",
"$. c #124214",
"%. c #27462C",
"&. c #32462C",
"*. c #26582D",
"=. c #375428",
"-. c #3A473C",
";. c #275A31",
":. c #285837",
">. c #38543D",
",. c #244E38",
"<. c #2B6439",
"1. c #32643D",
"2. c #376938",
"3. c #38743C",
"4. c #2D692B",
"5. c #57410B",
"6. c #4B7207",
"7. c #75691F",
"8. c #554925",
"9. c #4B4724",
"0. c #6D5F22",
"q. c #694037",
"w. c #704235",
"e. c #44773E",
"r. c #527231",
"t. c #1E5E50",
"y. c #3C4742",
"u. c #365943",
"i. c #346A43",
"p. c #39664A",
"a. c #356A4A",
"s. c #376547",
"d. c #3D7541",
"f. c #3C724B",
"g. c #3D794A",
"h. c #377542",
"j. c #3B6553",
"k. c #3D6A55",
"l. c #3E7455",
"z. c #4C4B4A",
"x. c #454744",
"c. c #45534B",
"v. c #48584B",
"b. c #4D5854",
"n. c #555454",
"m. c #535B54",
"M. c #5B5C5B",
"N. c #565959",
"B. c #554E4E",
"V. c #645E5D",
"C. c #685D57",
"Z. c #456C45",
"A. c #44634C",
"S. c #466B4A",
"D. c #437C49",
"F. c #4B7C4B",
"G. c #457549",
"H. c #58744D",
"J. c #57794A",
"K. c #436A52",
"L. c #4A6E57",
"P. c #5D625C",
"I. c #4C7E53",
"U. c #4D7C5B",
"Y. c #477855",
"T. c #557C55",
"R. c #527559",
"E. c #557C5A",
"W. c #5B7C5A",
"Q. c #507353",
"!. c #6A615E",
"~. c #66625F",
"^. c #5E5F61",
"/. c #635962",
"(. c #5D6563",
"). c #5E6D67",
"_. c #557E61",
"`. c #646463",
"'. c #6B6A66",
"]. c #6C6D6C",
"[. c #676664",
"{. c #6C766C",
"}. c #6C7A6E",
"|. c #647668",
" X c #6F7473",
".X c #737572",
"XX c #777979",
"oX c #746464",
"OX c #857A7E",
"+X c #42843C",
"@X c #7B922F",
"#X c #4B8344",
"$X c #4B8B4D",
"%X c #468549",
"&X c #4C835D",
"*X c #488557",
"=X c #558456",
"-X c #528C52",
";X c #56835B",
":X c #598D5D",
">X c #57895B",
",X c #59945D",
"<X c #599D5B",
"1X c #589C4F",
"2X c #648657",
"3X c #60955F",
"4X c #68A75E",
"5X c #5A8765",
"6X c #5A9664",
"7X c #668968",
"8X c #68946C",
"9X c #66976A",
"0X c #6B8C71",
"qX c #6B8979",
"wX c #7A807C",
"eX c #758479",
"rX c #769579",
"tX c #689473",
"yX c #A39C32",
"uX c #8D8E4A",
"iX c #9CA44E",
"pX c #B7BF48",
"aX c #8F807B",
"sX c #809A7F",
"dX c #ACBC73",
"fX c #BABD7A",
"gX c #93B078",
"hX c #B4C46C",
"jX c #C3C571",
"kX c #7F7E83",
"lX c #7F8384",
"zX c #779784",
"xX c #7CA583",
"cX c #6DB699",
"vX c #60AEAE",
"bX c #848484",
"nX c #848C8B",
"mX c #8A8C8C",
"MX c #898587",
"NX c #839C89",
"BX c #859787",
"VX c #93988E",
"CX c #8C8E91",
"ZX c #999796",
"AX c #819691",
"SX c #A89F98",
"DX c #85A688",
"FX c #8CA792",
"GX c #98A99C",
"HX c #93B09A",
"JX c #9E9EA0",
"KX c #A4A3A3",
"LX c #A7A6AB",
"PX c #B0B6B2",
"IX c #D7D7D7",
"UX c #E3E1E2",
/* pixels */
"h.f.&X&X&X*Xl.a.S.2.A.j.j.K.j.K.U.;X8XI.i.i.a.p.p.p.p.K.&X&X6X$X",
"6X%X<.g.&Xg.<.*X:XW.A.u.lXzXzX5XrXrXrXE.xXtXU.p.s.U.6X1.*.h.6Xg.",
"6X-X%X%X<X3.$X,X5XrXv.c.b.zXkXlX|.|.|.|.m.u.FXL.s.Y.&X$X+X+X*X<.",
";.<.<X<X%X%X-X=X_.7Xy d kXLX(.JXMXMXMXKXn.y.}.HX7X1.;.,X4X1Xg.:.",
"1.;.,X1X$X-XDX%.  O (.P.^.P.bXM.[.M.^.].ZXJX- y zXu.:.i.$X<X%XG.",
"tXT.4.F.<X=X    ^.ZX  `.V.V.V.`.C.!.VXKXKXz.XXlXc.GXzXu.;.$X2XZ.",
"-X:X2.8XDXX ; N.V.V.SX. @ . . . @ @ . . @ l n..Xz.O O A.E.;XY.:.",
"3.:XU.xXX PXmX  oX. @ 5 V F p q Z r a a q # . V.z.CXLX.XzX5Xk.,.",
"i.f.5X= (.M.ZXOX> < #.x +.T } 4 C C b V 6 5 .   d M.MXXXBXQ.f.a.",
"&Xl.L.* g [.0 > ..O.O.c X.U { x | M B C b 3 9 $ : '.OX/.c.FXU.f.",
"6XxXeXk g x.1 4 O.@.@.c o.U T , J n n C 4 V 5 # @ B./.z.g ).FX>.",
"=XxX   X].. #.x W ^ O.z / I ~ 4 L H H C 6 w 7 e 9 . f n.nXx.-.-.",
",.qXO (.m.. ` x Y Y @.4 P # . o @ @ A m 6 6 F 8 9 . j M.CXn.&.H.",
"s A.|.= P..  .x Y Y ..3 % jXdXdXdXfX5.i 4 V m 3 1 @ h P.XXy.&.H.",
"T.E.|.X   . #.x Y U } # jXdX$.s u gXfX@ 2 7 7 r 9 . z.bXd   %.Q.",
":XDXX y P.. ` x Q R K % pX6.cXvXY.$.@X2 # > Z 5 q . - -   .X7X:.",
"%.0X  P.N.  #.x W E 3 0.pX@X*Xt.;.e.iX7.8 3 w 6 1 @ z.CXf {.W.e.",
"R.rXX '.m.. ` x W E L # yXhX=.>.=.uXuX> 3 6 V 4 1 . k .Xf {.7XG.",
"7XBX  PX0   #.x W R J 4 A 5.8.9.8.i A I b b m 4 5 . h ].0 {.W.D.",
"W.DX  x.IX. _ x Q E ~ , / I P 4 L | Y U M 6 M m e @   f ; }.R.;.",
">.DX  V.lX. ) v R E J v o.Y T x R ^ ^ R v m N m q # k x.  }.K.,.",
"%.zX  n.UX. ) v { E [ x @.R { z W X.^ B x b N m t # k (.; |.L.s.",
":.0XX N.n..  .x R E } , +.Y T c E X.{ B 4 6 V V t @ ' [.mXm.A.K.",
"tXDX  ].j . #.x R ! J , o.U T , B ^ T M 6 w F 6 q # ' [.; }.|.>.",
"5XzX    ; . #.z W Q [ x +.E ~ , n @.~ M 5 r r 5 q . - - - '.VX>.",
":.lX  bXZX. ` c W X.T x X.R H v n ! H S 3 r V 7 5 . z.lXmX'.B.GX",
"zXg n.MXZX.  .z W X.T x ^ Q } , n U M M 6 7 m 4 1 @ j (.M.lXBXnX",
"CXO /.V.n.. ` c +.| J , +.U } 4 m ) G m 5 b V 6 1 . j M.CXN.k b.",
"bX& ~.V.C.. ] 5 #.q.` 3 #.` ( e r r a p e w Z e 1 . k ).lXx.-.y.",
"wX* X * * * : . % $ $ $ $ $ $ . o o o o $ $ @ o o o * X X X u.A.",
"T.S.F.;X8X3XR.p.2X2X2XJ.J.H.v.A.8XJ.2X7XZ.7X0XR.G.G.T.u.Z.0X7XI.",
"I.D.;.3.D.g.f.2.#X4.e.2.#XD.A.,.e.e.3.d.3.D.*.G.1.&X*X;.&.Z.F.2."
};
