/* XPM */
static char *_8201_369bfe764385d4cf4e7839fb2f87dc300310377a85340a207c621249170ce036[] = {
/* columns rows colors chars-per-pixel */
"32 32 234 2 ",
"   c #3E3E18",
".  c #3C3829",
"X  c #3E3E32",
"o  c #572F19",
"O  c #4D361C",
"+  c #54331C",
"@  c #563616",
"#  c #4E352C",
"$  c #453C2B",
"%  c #4A3A26",
"&  c #543523",
"*  c #523922",
"=  c #573629",
"-  c #433B32",
";  c #433B38",
":  c #1C4219",
">  c #2F4A1F",
",  c #184627",
"<  c #1F5E31",
"1  c #144031",
"2  c #384129",
"3  c #225C2C",
"4  c #2A5B2D",
"5  c #385829",
"6  c #374635",
"7  c #245434",
"8  c #2D5337",
"9  c #2A5D36",
"0  c #2B5639",
"q  c #255B3B",
"w  c #2B5B3B",
"e  c #245B35",
"r  c #375A35",
"t  c #23493A",
"y  c #2B632D",
"u  c #33662C",
"i  c #256433",
"p  c #2C6434",
"a  c #2B633B",
"s  c #2E6C3B",
"d  c #276639",
"f  c #32643D",
"g  c #326C3C",
"h  c #386636",
"j  c #3C733D",
"k  c #38753C",
"l  c #2F703A",
"z  c #704E1E",
"x  c #5A4E36",
"c  c #4F5033",
"v  c #724B22",
"b  c #6D4A3C",
"n  c #635436",
"m  c #71503F",
"M  c #6A5329",
"N  c #476436",
"B  c #417B3D",
"V  c #4B783A",
"C  c #55743D",
"Z  c #5C6536",
"A  c #295947",
"S  c #375746",
"D  c #2D6243",
"F  c #2E6748",
"G  c #326445",
"H  c #336C43",
"J  c #3A6C44",
"K  c #3B674D",
"L  c #346A4B",
"P  c #3B6C4C",
"I  c #34644B",
"U  c #367442",
"Y  c #3B7544",
"T  c #3C7C44",
"R  c #3D734B",
"E  c #3E7B4B",
"W  c #34704A",
"Q  c #336552",
"!  c #3A6C54",
"~  c #3D7252",
"^  c #2F7246",
"/  c #435C43",
"(  c #405B52",
")  c #694B40",
"_  c #466A48",
"`  c #437644",
"'  c #427C44",
"]  c #43744B",
"[  c #437B4B",
"{  c #4A7C4C",
"}  c #4A7547",
"|  c #547443",
" . c #587A47",
".. c #466A52",
"X. c #437452",
"o. c #457B52",
"O. c #497D53",
"+. c #447A5A",
"@. c #497C5C",
"#. c #41735A",
"$. c #567D57",
"%. c #596958",
"&. c #4D7E60",
"*. c #8D3C2A",
"=. c #913B23",
"-. c #943B29",
";. c #973729",
":. c #A42E33",
">. c #A73332",
",. c #AA2C30",
"<. c #CD3738",
"1. c #D33737",
"2. c #BB412A",
"3. c #9C6E39",
"4. c #9B713F",
"5. c #90753E",
"6. c #A16C36",
"7. c #A47136",
"8. c #C1442F",
"9. c #C14432",
"0. c #CA3C43",
"q. c #9C6C48",
"w. c #8B764B",
"e. c #977647",
"r. c #9D6D51",
"t. c #9A7155",
"y. c #A46D45",
"u. c #3E853F",
"i. c #5C833B",
"p. c #47863F",
"a. c #3D8249",
"s. c #3F8244",
"d. c #3F8350",
"f. c #448345",
"g. c #4A8444",
"h. c #43834C",
"j. c #49834C",
"k. c #4E8C4D",
"l. c #518C4C",
"z. c #53934B",
"x. c #458353",
"c. c #4C8354",
"v. c #4E8C55",
"b. c #4C845B",
"n. c #4E8B5C",
"m. c #47865B",
"M. c #528C54",
"N. c #598E54",
"B. c #51855C",
"V. c #548C5B",
"C. c #5C8E5A",
"Z. c #548455",
"A. c #4E9255",
"S. c #549354",
"D. c #5B9454",
"F. c #55935C",
"G. c #58925C",
"H. c #5D9B5C",
"J. c #579A57",
"K. c #4A904A",
"L. c #67864D",
"P. c #698958",
"I. c #619C5A",
"U. c #728543",
"Y. c #66A35E",
"T. c #4C8162",
"R. c #4D8F69",
"E. c #538562",
"W. c #538B62",
"Q. c #5C8C62",
"!. c #588868",
"~. c #5C9263",
"^. c #5B9B62",
"/. c #579568",
"(. c #4F9561",
"). c #629A67",
"_. c #679570",
"`. c #66A365",
"'. c #BCB779",
"]. c #D08F4F",
"[. c #C6954C",
"{. c #CC944C",
"}. c #C99645",
"|. c #C88F56",
" X c #D38D59",
".X c #C5955C",
"XX c #CA9456",
"oX c #D2915A",
"OX c #D09247",
"+X c #D7B05F",
"@X c #DDAD65",
"#X c #DCAC6C",
"$X c #D6AE67",
"%X c #C9B76E",
"&X c #C8B56A",
"*X c #D4B264",
"=X c #DAB264",
"-X c #D3B16D",
";X c #DAB36B",
":X c #D7AE72",
">X c #CBB473",
",X c #CBBA74",
"<X c #D5B278",
"1X c #E6A76C",
"2X c #F5A26F",
"3X c #E1B26A",
"4X c #E5AA73",
"5X c #E7A675",
"6X c #C5C06C",
"7X c #EBCE7C",
"8X c #F3CE7C",
"9X c #EAD27D",
"0X c #FCBD86",
"qX c #FFBE91",
"wX c #DBD68C",
"eX c #D9D78D",
"rX c #DDD394",
"tX c #D2DC9F",
"yX c #C6D698",
"uX c #ECCE82",
"iX c #ECCE8B",
"pX c #E6CC81",
"aX c #FDC585",
"sX c #FEC38B",
"dX c #F3CA8B",
"fX c #F9CA8D",
"gX c #F4C887",
"hX c #ECD183",
"jX c #E6D287",
"kX c #F1D282",
"lX c #EACC94",
"zX c #F8C994",
"xX c #E5D094",
"cX c #E1DB95",
/* pixels */
"H R Z.v.h.m.R L R H Q Q D W P X.l.z.^.a.g H P K I I K X.@.b.^.s.",
"R.x.s k S.l H O.W.b.L D /.n.~ 3 j.D.F.i v.Q.b.G I &.!.a 9 Y F.s.",
"/.n.f.g.).T c.G.M.V.x.H W.W.n.A.S.D.U [ /.n.b.X.F @.V.M.g.' V.w ",
"d s Y.z.f.f.k.' 3 g j.F.e d Y `.k.k d V.H q g V./.a 3 S.`.I.R e ",
"s d J.J.K.A.x.f j M.{ c.f 7 w x.I.p.s.V.D E ).h.h.g a h v.`.h.[ ",
"_.c.y h.J.a.{ { c.j  .| P.P.| 2 i.i.C V  . .u | V Q._.w 3 x.V.U ",
"v.~.s x.F.i j C.c.h '.&XcXwXrXrXwXeXeXrXrXcX,X'.  2 $._ f b.X.8 ",
"U n.x.m.m.< ` C.} 5 %X3X0XaXkXuXdXzXuXpXhXhX-X<XO . / E.~ !...8 ",
"H H ~ #.H L ! _ yXeXjXaX8.2.aXdX*.*.dXpXpXhX@ & b b - X I +.~ P ",
"c.R G L ~ ! A 5 eXhXhXfX9.8.aXuX*.*.zXhXhXhXO % b b # X S F T.P ",
"H.V.f Y n.s k C &X$X;X#XsXsX+X+XzXlX-X*X*X>X& # m ) #   _ H @.0 ",
"B.{ j.[ E U V.P.,X#X4X5XsXsX2X1XsXzX4X#X;X<X+ # x ) c . Z.' P A ",
"A 0 /.A.U n.b.| rXzX;.:.0.<.1.<.>.:.>.-.fXxX& ; %...6 ..V.S.c.X.",
"1 I d.a.U c.H 5 xXzX*.:.0.0.1.<.,.,.>.=.iXxX% ; 8 w A ] Y h.V.j.",
"c.M.< E (.k p  .%X;XgXfXsX0X2X2X X XsXgXhXxX& ; S !.V.y 3 H _.Y ",
"V.V.' h.^.k j.L.%X+XhX7XfXaX3X1X X|.kXuXuXlX& ; / X.V.V.O.x.M.y ",
", a C.I.K.K.j.N %X=X=X4X=.-.#X4X;.;.zXhX=X:X* X $.G q L n.`.f.j ",
"T.W ` g.J.z.} N >X3X+X1X-.;.1X1X;.-.gXkX$X:X* . _ ] @.D g A.D.{ ",
"S.M.9 j.l.l.f.C 5.7.[.XX X X{.{.aXfX$X=X[..X+ - _ H./.d e b.B.Y ",
"g.D.H c.G.' f.L.e.6.XX[.|.].OX}.8X8X;X$X[..X+ $ %.Z.c.U p E.X.9 ",
"h C.Y d./.e k L.e.y.7.7.oX].OX}.}.}.|..X7.e.& - Q Q L W.U V.P 7 ",
": } +.n.Z.u V U.5.6.7.6.|.{.}.{.|..XoX.X3.q.O ; S A D O.] O...G ",
"4 7 +.c.yXeX6X&X-X3X#X@X3X=XuXdX@ o y.y.y.q.* . S Q J a F Q @.R ",
").).a h tXwX*X;X-X<X#X:X;X-XiXlX@ & r.y.q.t.$ 6 S ( /.~ F I E.a ",
"Q.[ a.' | Z w.3.v v v v v z e.4.3.r.& & & # %.S #.!.+.b.F.Y J 8 ",
"7 9 J.S.U P.w.w.n x n n x n w.e.w.5.c . $ 2 #.I ! ! q W A.H.Z.} ",
", G a.a.U { N r r r N S 4 r N N C  .P._ r r 7 S A q < ^ T f.Z.{ ",
"!.Q.Y h.^.j { V.W.T.&.G W.W.V.x.M.Z.T [ Q.B.E.X.K +.R.T.s.B N.u ",
"8 _ I.z.k.f.M.c.D o.h.V.S K { I.v.T g v.~ G R b.m.^ d V.Y.D.} r ",
": 4 Y.J.k.M.h.h f [ f.M.D 7 9 Z.^.' T n.H R c.M.n.H q Y N.Y.O.J ",
"o.Y [ M.J.D.O.J C.F.G.T h.E K I C.l.k.M.Y G.Z.$.] ] @.w h ~.~.j.",
"c.R e U f.B ] G g.u ' g s.x.Q t ] B j B j ' 5 _ u { E.w 0 ] ' u "
};
