/* XPM */
static char *a6bc8cfe93374ee99fefff8085272723dBSafNbxYShEpyZZ[] = {
/* columns rows colors chars-per-pixel */
"32 32 238 2 ",
"   c #010300",
".  c #0B0100",
"X  c #010A01",
"o  c #0E0A01",
"O  c #130100",
"+  c #1C0000",
"@  c #130C00",
"#  c #001200",
"$  c #0F1509",
"%  c #1B130C",
"&  c #1C1B12",
"*  c #240000",
"=  c #2B0000",
"-  c #320000",
";  c #23180F",
":  c #281D18",
">  c #311B12",
",  c #1F2216",
"<  c #2B200E",
"1  c #24231A",
"2  c #27241A",
"3  c #38201E",
"4  c #3B321B",
"5  c #282723",
"6  c #3A2C23",
"7  c #3B2B2B",
"8  c #3C3424",
"9  c #3A362E",
"0  c #393734",
"q  c #4B1A18",
"w  c #521C1D",
"e  c #711E1A",
"r  c #43220C",
"t  c #44281A",
"y  c #5E311E",
"u  c #5C2018",
"i  c #6A2B1C",
"p  c #78241C",
"a  c #62331F",
"s  c #501F22",
"d  c #451E21",
"f  c #4A2222",
"g  c #452723",
"h  c #592625",
"j  c #43352A",
"k  c #56382B",
"l  c #453B34",
"z  c #43383C",
"x  c #6B2824",
"c  c #693627",
"v  c #75302D",
"b  c #7E3526",
"n  c #683734",
"m  c #712620",
"M  c #10441D",
"N  c #164929",
"B  c #1B562C",
"V  c #1C5935",
"C  c #1A453B",
"Z  c #23592E",
"A  c #2B5A2E",
"S  c #235525",
"D  c #235535",
"F  c #245B34",
"G  c #2A5D34",
"H  c #2C5D3C",
"J  c #285539",
"K  c #335A39",
"L  c #3C433C",
"P  c #28612D",
"I  c #256233",
"U  c #2C6335",
"Y  c #26633B",
"T  c #2B643B",
"R  c #2E683B",
"E  c #236832",
"W  c #346536",
"Q  c #32643D",
"!  c #326B3B",
"~  c #396B3A",
"^  c #277338",
"/  c #347138",
"(  c #3C733C",
")  c #3C7A3B",
"_  c #357335",
"`  c #43402F",
"'  c #594A29",
"]  c #574937",
"[  c #5C583A",
"{  c #444C38",
"}  c #714739",
"|  c #62503C",
" . c #406F38",
".. c #41783F",
"X. c #427A38",
"o. c #3C4C42",
"O. c #2C5E44",
"+. c #275945",
"@. c #325E43",
"#. c #3A5646",
"$. c #2D5D52",
"%. c #365C56",
"&. c #234E44",
"*. c #2D6444",
"=. c #296647",
"-. c #336544",
";. c #346B43",
":. c #3A6D44",
">. c #34644B",
",. c #356B4A",
"<. c #3B6D4C",
"1. c #3A6547",
"2. c #347243",
"3. c #3C7442",
"4. c #3C7943",
"5. c #3B744A",
"6. c #3C784B",
"7. c #35714F",
"8. c #3C6D51",
"9. c #356654",
"0. c #3C7352",
"q. c #397955",
"w. c #2E6158",
"e. c #3A7063",
"r. c #534C4A",
"t. c #445D4D",
"y. c #5E5141",
"u. c #485756",
"i. c #675D5B",
"p. c #426C4B",
"a. c #486948",
"s. c #437344",
"d. c #437D43",
"f. c #437C4C",
"g. c #4D7D4B",
"h. c #477649",
"j. c #436E53",
"k. c #486658",
"l. c #586453",
"z. c #447253",
"x. c #447C53",
"c. c #4B7C54",
"v. c #467B5A",
"b. c #4B7C5B",
"n. c #487555",
"m. c #587853",
"M. c #527C4C",
"N. c #6A6A5E",
"B. c #555F61",
"V. c #4A7B64",
"C. c #5C7C64",
"Z. c #466061",
"A. c #71746D",
"S. c #6A7766",
"D. c #87261C",
"F. c #8C2525",
"G. c #8A2A28",
"H. c #942727",
"J. c #87342B",
"K. c #863536",
"L. c #827F70",
"P. c #AA7E78",
"I. c #44823E",
"U. c #3E8147",
"Y. c #3D8757",
"T. c #3F8561",
"R. c #438345",
"E. c #46824C",
"W. c #4A854C",
"Q. c #4E8B4C",
"!. c #4A8A45",
"~. c #518B4D",
"^. c #528946",
"/. c #59974C",
"(. c #458252",
"). c #4B8453",
"_. c #4C8B55",
"`. c #45835B",
"'. c #4C835C",
"]. c #4D8B5B",
"[. c #458B56",
"{. c #528454",
"}. c #538B55",
"|. c #53835E",
" X c #5A855A",
".X c #538C5B",
"XX c #598B5C",
"oX c #588453",
"OX c #4F9153",
"+X c #559455",
"@X c #56925B",
"#X c #5B915D",
"$X c #5D9B5C",
"%X c #599656",
"&X c #4E9048",
"*X c #65845A",
"=X c #619C55",
"-X c #629E5B",
";X c #64935F",
":X c #69A55D",
">X c #4D8664",
",X c #4D8961",
"<X c #468663",
"1X c #518564",
"2X c #558B62",
"3X c #598C65",
"4X c #59886A",
"5X c #5C9463",
"6X c #5C9864",
"7X c #5A946D",
"8X c #549564",
"9X c #568E73",
"0X c #658567",
"qX c #649B6D",
"wX c #659669",
"eX c #759264",
"rX c #5AA56D",
"tX c #66A36D",
"yX c #958673",
"uX c #B6856F",
"iX c #A18A76",
"pX c #B08370",
"aX c #B29077",
"sX c #978B82",
"dX c #939285",
"fX c #BB9B8C",
"gX c #BD9B9A",
"hX c #A8A998",
"jX c #B4A493",
"kX c #B5A79A",
"lX c #B6A48E",
"zX c #B9B7A9",
"xX c #BCAFA9",
"cX c #CB9D98",
"vX c #C89A8A",
"bX c #C4A598",
"nX c #C6B4AD",
"mX c #FFF7E3",
/* pixels */
"2.5.>X'.f.}.<.,.7.=.9.%.u.i.+ = * * = O a.,.=.,.>.O.5.6.x.].5XE.",
"6X(.T f.@X/ Q v.8X<X9.#.  O v v v v K.n   0X4X*.-.'.2XI I 2.6X3.",
"8X_.d.~.-X_ ).5X].,Xb.X c b K.G.G.F.F.J.n . 0Xf.R (.2X).[.U.}.W ",
"E / -X/.!.E.@Xf.U ~ m.. b D.F.G.F.G.D.p m + { XX.X! G }.tX6X3.S ",
"T P OX$X.X.X(.I W *X. c G.F.F.G.b = * a i a X  Xc.;.A ! Y.rX_...",
"qXW.^ U..Xx.(.). X[ * J.F.H.J.- * aXiX+ i y X m.z.3XwX! V [._./ ",
"^.@X^ Y.7XQ ) Q.m.. i G.e i = uXuXr t yX* q . a.j.b.|.:.Y '.v.J ",
" .5Xq.T.>XD 4.5Xm.. p p x * } pXvX} mXbX+ d 6 X #.@.>.1Xq.>X<.D ",
"1.<.0.7.*.8.,.8.t.. i m h + n cXcXh } cX* s f . #.@.9.9.8.x.,.:.",
"V.z.T z.v.*.*.J X j x u + gXcXP.P.cXbX* w w f . o.>.V.>.*.,.2X:.",
"wXXXQ ;.b.-.3.a.. k h q + bXfXbXbXfXbX* w q g   @.q.3Xh.-.Q |.A ",
"XXf.E.f.f.f.{.eXO q w h r O lXbXjXlX+ f w h 3 X j.`.x.XX2Xc.s.A ",
"D F +X+X/ }.|.a.O q w q t . O .   @ iX* w q g   p.5.J ;.).5XW.d.",
"N ;.U.R.) g.:.K   g f f . yXsXsXdXL.jX> + f 6 X K J H :.f.d.W.W.",
"f.).Y 6.+X_ U {.0XX 7 . l l jXkXkXkX; ; % o X #.@.1X8XY B s.tX..",
"@X@Xf.E.%XI.W..X{.0X  z 0   kXjX: 2   % 1   C.n.-.b.,X].).3.}.P ",
"B Z %X=X&XQ.).U ~ m.X % X , : 3 2 ,   zXnXX *XoX|.H H 6.Q.-XW.( ",
"x.4._ !./.OXE.! oX*XX dXX $ : 3 2 1   zXnXzXX h.2.x.b.Z _ ~.XX).",
"$X).! x..X@XW.d.XX# hXN.X 5 j g ; % . xXkXhXX C.:.7XqXT F '. Xp.",
"W.#X;.v.2X4.R.~.g.X l.A.    y.| j j .     X o.p.j.).(.6.D 1Xb.H ",
"T wX;.'.7XD d.+Xc.X S.A.  X ] ' [ 4   o.0Xp.J <.,.-.Q |.:.3X8.D ",
"N <.'.2X'.R ).}.:.1.X X u.  ] ' 4 8 X u.b.,.T *.+.O.-.x.h.b.8.O.",
"G T b.b.2.5.0.0.A M.a.l.B.  ] ] 8 { X t.+.=.x.*.&.w.7.=.O.8.b.z.",
"qX5XD :..X! D ,.W g.C.#.  0 l 6 l 9 L X <.Y x.v.$.e.9Xq.O.<.|.G ",
"|.c.f.f.:.5.8XtXqX<.%.Z.  0 l > ] ] r.X wX5Xc.@.j.4X`.`.'.x.3.S ",
"G Z .X6X6.]._.4.5.>.$.k.X & 1 . k ] 0 X s.( p.>.z.Q Z 6.}.#XE.R.",
"M ! }.d.! ).2.B I -.*.J X 1 5   6 8 9 X J *.V >.J H W W x.c.].U.",
"4X2X) I.%X4.6.7X2Xx.x.p.X 5 :   X X # # 9XV.>X0.-.b.{.g.{.f.].E ",
"&.z././.&Xd.].6.*.`.]. XX r.r.X *Xg.G |.j.-.4..X,X0.U #X=X/.f.F ",
"C H $X/.!.W..X2.T x.6.3X  l r.X wX) f.3XK :.W.E.,XY F s.^.:XW.:.",
"n.<.s.~.=X=XE.R .X5X.Xc.X 6 9 X ;X+Xd.#Xs. XwX).x.<.4XK ~ $X@XE.",
"c.c.F 3.X.X.( ! E./ E.W   O . X s...d.( s.h.Z 6.;.n.C.K S 3.4./ "
};
