/* XPM */
static char *b412934ad0c640dddcc5ad9c15102d5eDX7US6g9At0ePEMO[] = {
/* columns rows colors chars-per-pixel */
"32 32 237 2 ",
"   c #270000",
".  c #310100",
"X  c #340F01",
"o  c #2C1501",
"O  c #251B00",
"+  c #2C1B03",
"@  c #291A09",
"#  c #261905",
"$  c #331300",
"%  c #391505",
"&  c #37360C",
"*  c #333913",
"=  c #383817",
"-  c #4D0600",
";  c #490B00",
":  c #430A03",
">  c #540500",
",  c #510900",
"<  c #580800",
"1  c #401109",
"2  c #6F1B19",
"3  c #6C1C11",
"4  c #741D14",
"5  c #751C1B",
"6  c #791C1B",
"7  c #791716",
"8  c #70190F",
"9  c #45340E",
"0  c #482F16",
"q  c #5D2C1A",
"w  c #5B2715",
"e  c #502F0F",
"r  c #622514",
"t  c #6B2114",
"y  c #6C2219",
"u  c #742119",
"i  c #7F1B23",
"p  c #412F23",
"a  c #1A4E2A",
"s  c #3E4F2D",
"d  c #295B2D",
"f  c #25572B",
"g  c #265D35",
"h  c #2A5A35",
"j  c #2C5C3B",
"k  c #265837",
"l  c #3C5B3B",
"z  c #375834",
"x  c #2B4E2D",
"c  c #2A6431",
"v  c #2D633D",
"b  c #296531",
"n  c #346534",
"m  c #32623B",
"M  c #336B3C",
"N  c #3B683B",
"B  c #39753D",
"V  c #32692B",
"C  c #154E19",
"Z  c #44522B",
"A  c #474835",
"S  c #465637",
"D  c #575838",
"F  c #524D2C",
"G  c #694A35",
"H  c #7A4837",
"J  c #78442E",
"K  c #47673C",
"L  c #56693D",
"P  c #44773C",
"I  c #55733D",
"U  c #72633C",
"Y  c #395E41",
"T  c #295E40",
"R  c #2E6845",
"E  c #356642",
"W  c #366D44",
"Q  c #3A6C46",
"!  c #32664C",
"~  c #336A4B",
"^  c #3B6B4A",
"/  c #3E6548",
"(  c #3C7442",
")  c #3D7A43",
"_  c #3D734A",
"`  c #377949",
"'  c #3D7151",
"]  c #2F6B4F",
"[  c #555243",
"{  c #6F4D41",
"}  c #73584A",
"|  c #436A46",
" . c #4B664E",
".. c #486946",
"X. c #576647",
"o. c #437B46",
"O. c #43734D",
"+. c #447C4B",
"@. c #4B7E4C",
"#. c #497545",
"$. c #5D724C",
"%. c #557949",
"&. c #437451",
"*. c #467B53",
"=. c #4A7E55",
"-. c #4A7D5A",
";. c #487857",
":. c #517D5C",
">. c #577957",
",. c #746A4B",
"<. c #6B724B",
"1. c #65774B",
"2. c #746B58",
"3. c #677B57",
"4. c #757758",
"5. c #6B7149",
"6. c #4F7D60",
"7. c #757F65",
"8. c #6D7663",
"9. c #801819",
"0. c #8A3B2E",
"q. c #9C342D",
"w. c #9A3A2E",
"e. c #97382B",
"r. c #8B3E35",
"t. c #8D3D3B",
"y. c #9C3534",
"u. c #923B32",
"i. c #9B3B34",
"p. c #9B3A3B",
"a. c #943836",
"s. c #A52E2F",
"d. c #AC2E2F",
"f. c #A5342E",
"g. c #AB322F",
"h. c #A13A2D",
"j. c #B0302D",
"k. c #AB2D33",
"l. c #AD2E39",
"z. c #B02E35",
"x. c #A43533",
"c. c #AB3333",
"v. c #A33A34",
"b. c #A33539",
"n. c #AD343A",
"m. c #A63A37",
"M. c #B03335",
"N. c #B13438",
"B. c #8A4539",
"V. c #844536",
"C. c #944134",
"Z. c #984036",
"A. c #8E795A",
"S. c #A77459",
"D. c #A56F55",
"F. c #3A8149",
"G. c #45824C",
"H. c #4A824D",
"J. c #488746",
"K. c #568949",
"L. c #4C8455",
"P. c #4C8559",
"I. c #498658",
"U. c #528554",
"Y. c #538C54",
"T. c #54845B",
"R. c #5E855B",
"E. c #528B5B",
"W. c #5A895E",
"Q. c #5A8253",
"!. c #5B935C",
"~. c #56965A",
"^. c #5A934E",
"/. c #60804E",
"(. c #6B8454",
"). c #65855C",
"_. c #6D835B",
"`. c #658B59",
"'. c #758155",
"]. c #629A5C",
"[. c #67925D",
"{. c #4F8060",
"}. c #558462",
"|. c #5A8562",
" X c #538A62",
".X c #598B62",
"XX c #578B69",
"oX c #5A9563",
"OX c #5B926A",
"+X c #5A9A61",
"@X c #4F9467",
"#X c #628A63",
"$X c #688965",
"%X c #758764",
"&X c #659C67",
"*X c #70946E",
"=X c #68A168",
"-X c #838263",
";X c #BAAA7D",
":X c #C99D7A",
">X c #DC9D79",
",X c #D59A77",
"<X c #C1A97D",
"1X c #C9A379",
"2X c #D7A07B",
"3X c #BBA880",
"4X c #C0AE86",
"5X c #ECBE93",
"6X c #EDBE9B",
"7X c #E4BE97",
"8X c #F4BD96",
"9X c #F1BD98",
"0X c #E5BF8E",
"qX c #EABFA5",
"wX c #F5BFA3",
"eX c #DFC89C",
"rX c #EDC395",
"tX c #EDC39B",
"yX c #E6C69B",
"uX c #F4C396",
"iX c #F2C39C",
"pX c #F2C896",
"aX c #D9C8A7",
"sX c #E4C4A3",
"dX c #ECC3A3",
"fX c #ECC8A4",
"gX c #E8C9A8",
"hX c #F3C4A3",
"jX c #F7C7A6",
"kX c #FFC9B7",
"lX c #FFC5BB",
"zX c #FFCABD",
"xX c #FFC5B7",
"cX c #FFD2BD",
"vX c #FFCAC1",
"bX c #FFD1C3",
"nX c #FED7C8",
/* pixels */
"J.~.L.*.O.^ ! ! ] ! W M @.&XY.U.O.' ~ R ~ R ~ ' ~ W I.G.E.L.` ] ",
"( &XB f m .X-.! ! {..XU.n `.[.%.z O.}..Xj _ -.OX=.M B E.o.c I.@X",
"g E.G.H.E..X-.E O.Q.R.$X%..._._.3.3.$X)...>.#XT.`.@.) +XG.) E.oX",
"k &.!.=XW.x / $X_.S Z L 2.O O O + + O F -X<.D Z 1.(.#.J.~.=XB c ",
"O.U.=XU.K S [ @ o G G G V.V.cXcXzXV.V.J J H H $ o ,.(.`.&XY.f m ",
"^ T.K.x S @ % { nXbXbXB.u.u.C.u.i.0.0.zXxXr.t.r.V.$ O '.%.n .XOX",
"k *.3.D $ H t.t.zXbXzXvXZ.w.v.y.y.p.vXzXlXvXp.p.u.B.w $ 4.K W.P.",
"k | 4.+ H B.i.i.zXkXbX0.u.i.i.p.b.a.r.vXvXt.y.b.a.r.t w $ 5.#X_ ",
"/  .@ nXcXkXi.v.i.u.w.i.r.xXzXlXx.x.w.w.w.i.b.p.lXzXu.4 r $ X./ ",
" .8.{ bXkXkXx.x.q.v.q.w.u.vXzXvXx.g.f.h.f.x.x.i.zXxXq.i.u w X.>.",
"S 2.H C.C.w.n.k.x.q.f.f.m.e.y.q.g.g.f.x.x.x.x.x.q.v.c.x.y.r 4.%X",
"A @ B.e.i.q.k.l.s.x.c.g.b.b.f.c.g.g.c.c.c.x.c.c.c.f.g.x.m.t + 4.",
"2.X B.i.w.m.k.z.c.g.d.k.n.n.f.f.g.g.j.g.g.c.c.c.c.c.m.q.x.u X A ",
"} % C.w.h.x.c.z.k.M.c.c.k.k.c.f.c.c.j.g.g.c.c.c.c.c.f.m.y.2 % p ",
"} $ t w.v.x.s.M.N.s.n.x.c.c.s.c.x.c.c.c.x.x.c.z.M.g.f.q.7 y o 2.",
"F o w u 8 i.v.x.x.b.y.i.x.x.x.x.x.x.x.x.i.y.x.c.c.m.7 4 3 q @ 7.",
"L <.0 q r y 2 5 5 6 2 5 6 7 7 i 6 8 6 6 5 6 7 9.7 4 t r q 0 S x ",
"#.`.%XD G $ 1 : ; - , , < > > > > > , - - - < > ; X % A.,.X. .-.",
"_ |.>.z l %X7.} e :X,X>X,X>X,X,X2X>X,X,X2X2X,Xe U 5.1.(.%.z .XOX",
"j ;.}.j W T.|.X.aXfXiX8XuX5XrXuX8X8XuXrXpX0X1X<X<.%.P !.H.M oXL.",
"k E }.&. XE Y D gX6XhX. . fXfX  . wXhXtXrXpXrX;X'.#.d OX+.( Y.b ",
"E ^ :.' -.j l = sXhXS.S.qXsXsXdXjXD.S.iXrXtXtXeX* $.m  XP.L.+.C ",
"&.-.^ T T ^ ..= fX9XjXwXqXfXtXiX5XiX6X6XjX6XiXfX= X.O.^ =.+.d d ",
"j T.Q v ;.OX .= sX5X9XiXhXdX6XrXuXrXhXhX6XiX6XsX* S m  XM c &X*X",
"g M +.L.P.:.3.* eXtXiXiXdXtXtXrXiX6XhXdXtXrXrXeX* )._ ` F.G.+.|.",
"` I.+XY.( d ..L aXyX5XiX6XtXhXtX7XfXdXdXiXtXyX;XX.R.E.` ~.@Xg k ",
"I.P.o.o.M h h l = ;XtXiXhX6XdXyXgXyXdXdXtXyX<X& z E *._ ) +.v a ",
"v  Xo.@.T..X-.N X.& 1X1X:Xe 9 9 & & 0 gXdXsX& '.#X=.( !.G.) OXXX",
"d +.!.&X.Xm E T.>.= 3X<X4XF L (.*X$.D aXaXaX* S H.Y.P K.^.].O.k ",
"N H.&X!.| h m W.R.3.& & * L %.!.T.l s * = * $.N c J.K.K.].].h a ",
"J.~.!.W j :.O.( L.R._.K _.Q.Y.!.Y | #.%.I 1.$XT.M H.!.!.Y.) O.*.",
"V B ) f j :.@.n ( d #.K #.#.P o.x / @.K.V P N =.M M o.H.( c O.:."
};
