/* XPM */
static char *_764993629a74410944e8794c9630ba6DZUevb9AuFxN5WT1[] = {
/* columns rows colors chars-per-pixel */
"32 32 235 2 ",
"   c #1E0000",
".  c #1C1A01",
"X  c #260000",
"o  c #3B0C00",
"O  c #370E00",
"+  c #2C1401",
"@  c #231C03",
"#  c #2B1A04",
"$  c #2C1C0C",
"%  c #321401",
"&  c #3B1004",
"*  c #321906",
"=  c #3F2F18",
"-  c #2B3B17",
";  c #373816",
":  c #332909",
">  c #2F3C20",
",  c #4C0300",
"<  c #470904",
"1  c #510600",
"2  c #530902",
"3  c #6A1E18",
"4  c #741B16",
"5  c #741C1A",
"6  c #7A1C1B",
"7  c #7A1815",
"8  c #43330C",
"9  c #582A18",
"0  c #463415",
"q  c #4D2B0F",
"w  c #6C221B",
"e  c #642418",
"r  c #7E211A",
"t  c #731D20",
"y  c #1B4D1A",
"u  c #2B4116",
"i  c #164328",
"p  c #245C2B",
"a  c #2D5C2B",
"s  c #27572B",
"d  c #255B33",
"f  c #2A5A34",
"g  c #2C5E3A",
"h  c #285537",
"j  c #3D5B36",
"k  c #365737",
"l  c #2C4C30",
"z  c #256329",
"x  c #2C6334",
"c  c #2E633B",
"v  c #2B6A31",
"b  c #346533",
"n  c #35643C",
"m  c #3B663C",
"M  c #346B3D",
"N  c #3A6C3C",
"B  c #366834",
"V  c #2E743A",
"C  c #33743C",
"Z  c #3B783C",
"A  c #37752A",
"S  c #464B2E",
"D  c #4B5128",
"F  c #465536",
"G  c #515735",
"H  c #574C38",
"J  c #744B3E",
"K  c #784836",
"L  c #645639",
"P  c #476B3A",
"I  c #44723C",
"U  c #487B3B",
"Y  c #57733F",
"T  c #5C6D39",
"R  c #666338",
"E  c #305E41",
"W  c #2B5642",
"Q  c #2F6042",
"!  c #346444",
"~  c #346B45",
"^  c #3C6C42",
"/  c #3C6C4A",
"(  c #38664C",
")  c #3C7344",
"_  c #3B7B43",
"`  c #3B744B",
"'  c #3A7649",
"]  c #3F7552",
"[  c #376950",
"{  c #555943",
"}  c #475E41",
"|  c #685E47",
" . c #755543",
".. c #466C45",
"X. c #43644B",
"o. c #476948",
"O. c #576947",
"+. c #417546",
"@. c #437B42",
"#. c #43754C",
"$. c #4D744D",
"%. c #447B4B",
"&. c #4B7E4D",
"*. c #4B7743",
"=. c #537446",
"-. c #55764D",
";. c #446B54",
":. c #447B53",
">. c #4A7C52",
",. c #4A7C59",
"<. c #477458",
"1. c #587B53",
"2. c #556D57",
"3. c #646949",
"4. c #716645",
"5. c #677948",
"6. c #626F51",
"7. c #706B52",
"8. c #697B52",
"9. c #657757",
"0. c #747854",
"q. c #4D7D61",
"w. c #687966",
"e. c #787E64",
"r. c #8D392E",
"t. c #8B3A2F",
"y. c #9C342E",
"u. c #98372D",
"i. c #8A3D34",
"p. c #9C3532",
"a. c #943B32",
"s. c #9B3B35",
"d. c #973A36",
"f. c #982E2F",
"g. c #AB2F2D",
"h. c #A32F2D",
"j. c #A3342D",
"k. c #AB312C",
"l. c #AA2F33",
"z. c #A52F33",
"x. c #A43433",
"c. c #AB3333",
"v. c #A43935",
"b. c #AC3439",
"n. c #A73A38",
"m. c #B03434",
"M. c #B0332F",
"N. c #8B4134",
"B. c #864438",
"V. c #91403C",
"C. c #A0433C",
"Z. c #824942",
"A. c #807D5C",
"S. c #A8734E",
"D. c #A67453",
"F. c #428045",
"G. c #45824A",
"H. c #4C844C",
"J. c #4D894B",
"K. c #488546",
"L. c #528A4E",
"P. c #50864C",
"I. c #539249",
"U. c #4B8353",
"Y. c #4D845B",
"T. c #4D8C5A",
"R. c #468559",
"E. c #528254",
"W. c #528B57",
"Q. c #5A8C54",
"!. c #53875B",
"~. c #5A835D",
"^. c #548B5B",
"/. c #5A8D5C",
"(. c #598353",
"). c #5A9456",
"_. c #5A925C",
"`. c #54995C",
"'. c #589757",
"]. c #499054",
"[. c #618A5C",
"{. c #688458",
"}. c #619559",
"|. c #6E844F",
" X c #5EA059",
".X c #63A05B",
"XX c #4F8562",
"oX c #558D64",
"OX c #578667",
"+X c #5D9362",
"@X c #5D9867",
"#X c #688D64",
"$X c #758464",
"%X c #69986A",
"&X c #7D9565",
"*X c #5CA462",
"=X c #66A267",
"-X c #6EA470",
";X c #BDA67D",
":X c #908C6F",
">X c #C2A67F",
",X c #AFAE8F",
"<X c #B7AB82",
"1X c #D09A82",
"2X c #C2A685",
"3X c #EDBE96",
"4X c #E9BF9C",
"5X c #F4BE96",
"6X c #F1BF9A",
"7X c #F3BCA4",
"8X c #D7CB9A",
"9X c #D5D39C",
"0X c #CDCF9D",
"qX c #ECC297",
"wX c #E4C49A",
"eX c #ECC29B",
"rX c #E5C699",
"tX c #F2C29C",
"yX c #F2C99D",
"uX c #D8C8A6",
"iX c #D7D1A6",
"pX c #C8CFA6",
"aX c #ECCAA1",
"sX c #E8C4A4",
"dX c #F3C2A3",
"fX c #F6C4A8",
"gX c #E7C4B7",
"hX c #FFC2B6",
"jX c #FFC3BA",
"kX c #FFCBBC",
"lX c #FCD2BD",
"zX c #FFCAC2",
"xX c #FFD3C4",
"cX c #EBDDC3",
"vX c #F3E2C8",
/* pixels */
"H.+XY.:.` ~ ! ! ( ! ` C F. XI.J.#./ / ~ [ [ ! ` ~ ` R.R.!.U.] ` ",
") %X) d M oX,.! E q.@XT.v ).'.K.s #.oXoXg / ,.oX>.c ' T.) x R.oX",
"x ^.&.&.!.Y.U.~ :.oXY.@X' M ).L.!./.W.W.M ,.^.W._.H.Z @XK._ ].`.",
"d ) +X-X/.p M ^.^.n k X.~.m *.[.%X*.a s #X(.m a *.Q.@.K.'.*XV z ",
"' U.%XH.b x x !.>.%XO.F e.6.3.$XO.F S F 9.1.{.P b *.Q.J.=XW.p B ",
") W.U.p a #X#X..-.F @ # # + vXvXcXvX+ $ $ . @ 0.3.-.=.}.%.x W.+X",
"d #.Y.n =.8.4.# # + J K B.B.lXlXxXK  . .J J Z.< & 4.D {.E.M /./.",
"h / OXo.8.L K K xXxXjXjXr.a.N.B.i.B.zXzXkXjXi.V.B.K 0 0.1.>./.^ ",
"X.;.2.O.# K N.a.r.jXjXa.s.a.N.N.s.u.jXjXjXr.d.V.B.B.9 % O.$.m N ",
";.w.{ # lXkXu.j.v.u.y.p.v.p.hXhXv.y.s.a.s.d.r.jXjXkXt.e + F $.>.",
"k w.* K xXhXf.n.j.v.v.x.x.n.jXhXj.j.y.s.v.x.s.jXkXjXa.5 9 # $X%X",
"k | o N.i.r.n.h.c.x.c.x.b.f.s.y.j.c.v.j.x.x.v.s.a.d.n.s.w & 3.9.",
"3.# B.s.C.s.b.c.b.c.c.b.l.b.c.k.k.k.g.c.c.m.l.x.x.v.v.f.6 3 * S ",
"7.+ V.p.p.p.c.b.z.b.c.l.c.c.g.g.m.k.M.g.m.l.c.c.c.x.x.n.7 w O = ",
"3.% w 6 p.x.c.l.c.z.b.x.x.v.c.k.j.h.c.m.l.l.n.j.j.c.y.7 7 w % 7.",
"S @ 9 3 5 d.v.x.v.p.p.p.s.s.p.v.v.v.v.x.n.n.p.v.v.y.r 5 e 9 @ $X",
"P 5.:X+ o e 3 5 5 6 4 5 5 t 5 6 6 6 6 4 5 6 5 5 6 3 e O * e.k l ",
"K.Q.{.{ H * & < 1 1 1 1 < < , 2 1 , , 2 2 , 2 , < O % A.8.o.o.,.",
") !.E.a j $Xe.| q fX7XfXX gXgXX 7XhX7XfX7XfX1Xq 4.0.8.{.&.b /.+X",
"f :.Y.c / ~.9.O.8 4XdXdXX gXgX  sXeX6XtXtXdXeX8 0.=.I _.U.N ^.E.",
"l ;.OX~ XX! X.F 0 wXS.S.dXsXwXaXdXD.tXqXtXqXwX8 |.*.x oXU.) /.b ",
"( ;.q.] ,.! k > uXeXtX5XtXeXqXqX3X6XtXqX3XyXrX<X- $.g Y.Y.U.+.y ",
";.q.! ! g o.} ; uXaX5X5XtXeXeXaXtXtXqXqXtXtXtX>X; O.$.#.Y.` z p ",
"Q XX~ c >.#Xo.- uXsXtXtXqXeXeXeX3XtXqXqXtX3XqX2X; j n ^.M x +X@X",
"f ~ ` oXY.,.~.O.; sXdXtXqXeXeXeXtXqXeXeXqXeXaX: &XQ.' _ _ G.+.^.",
"#.E.@XT.' d #.o.G 0 sX4XaXrXaXrXrXrXsXsXrXwX;XR Y U.T.C `._.s d ",
"&.W.F._ ~ g h k { = 2XsX8X8X8X9X9X0XiXiXuXiX<XD s N G.C G.&.~ i ",
"x ^._ G.Y.OX,.X.- ,X; ; 3.T |.5.Y |.|.8.G ; pXu #X#.Z '.F.) OXOX",
"z _ ).=X^.c / 1.1.u F =.(.b *.Q.%X&.m k [.1.- j >.W.G.L.).%X#.W ",
"N &.=X/.) d M !.E.(.P b /._ _ _.U.c s x /.&.&.m n E.H.J..X_.h i ",
"U.+X+XM c ,.` +.&.[.#X../.P.L.}.n ! ,.>.+./.[.~.^ E.).}.I.Z #.<.",
"N %.+.s d XX:.x #.s -...I I U I s / >.>.B @.m 1.m ^ U U A z :.,."
};
