/* XPM */
static char *e12b8b579b0d4748e2be897618c4a0b95YXpestsMEEbMqCg[] = {
/* columns rows colors chars-per-pixel */
"32 32 231 2 ",
"   c #1F0000",
".  c #2A0500",
"X  c #3C0E00",
"o  c #300000",
"O  c #2D1201",
"+  c #241C02",
"@  c #291B00",
"#  c #2B180B",
"$  c #331401",
"%  c #381604",
"&  c #2F1812",
"*  c #38350B",
"=  c #323A12",
"-  c #383619",
";  c #3A2D1A",
":  c #393623",
">  c #4C0500",
",  c #4C0B00",
"<  c #430A05",
"1  c #520500",
"2  c #540800",
"3  c #401205",
"4  c #7B170E",
"5  c #731B14",
"6  c #7C1C13",
"7  c #791719",
"8  c #741A1B",
"9  c #7B1B1C",
"0  c #751618",
"q  c #462E0C",
"w  c #43340D",
"e  c #4C2D16",
"r  c #483318",
"t  c #572D11",
"y  c #66220E",
"u  c #6B2015",
"i  c #652518",
"p  c #7A201F",
"a  c #781D22",
"s  c #7F3F33",
"d  c #394017",
"f  c #174920",
"g  c #1A502D",
"h  c #2A592D",
"j  c #265A2B",
"k  c #3C542E",
"l  c #3C4D36",
"z  c #235333",
"x  c #2B5B34",
"c  c #2A5C3B",
"v  c #275839",
"b  c #385A39",
"n  c #284838",
"m  c #2B652F",
"M  c #2D6A34",
"N  c #2E6B3D",
"B  c #286339",
"V  c #33643A",
"C  c #356A3C",
"Z  c #37673A",
"A  c #36753D",
"S  c #3A783B",
"D  c #336C29",
"F  c #444C35",
"G  c #49583C",
"H  c #554F32",
"J  c #78493A",
"K  c #486738",
"L  c #44733D",
"P  c #45793C",
"I  c #546E3A",
"U  c #67683E",
"Y  c #2F5F45",
"T  c #385A44",
"R  c #2F6945",
"E  c #346B44",
"W  c #33664D",
"Q  c #346B4B",
"!  c #3B6A4B",
"~  c #396745",
"^  c #3C7444",
"/  c #3C744B",
"(  c #3E7C4A",
")  c #387845",
"_  c #376852",
"`  c #3B7353",
"'  c #3F7950",
"]  c #485A49",
"[  c #595244",
"{  c #476849",
"}  c #54654C",
"|  c #576844",
" . c #457C45",
".. c #44744A",
"X. c #437B4A",
"o. c #497848",
"O. c #567747",
"+. c #447B55",
"@. c #457D59",
"#. c #497A57",
"$. c #5A7450",
"%. c #537C5C",
"&. c #5B7953",
"*. c #446F53",
"=. c #666748",
"-. c #66794A",
";. c #6D6A55",
":. c #647D54",
">. c #677759",
",. c #777958",
"<. c #746B4E",
"1. c #467D60",
"2. c #677E61",
"3. c #871717",
"4. c #9D332D",
"5. c #9A3A2D",
"6. c #9C3532",
"7. c #9C3A34",
"8. c #963A36",
"9. c #853F32",
"0. c #A52D2C",
"q. c #AA2E2E",
"w. c #A92F24",
"e. c #A5342C",
"r. c #AA322E",
"t. c #A53A2E",
"y. c #A72F31",
"u. c #AB2E33",
"i. c #B02F33",
"p. c #A53434",
"a. c #AB3333",
"s. c #A23A34",
"d. c #A73238",
"f. c #AD3138",
"g. c #A23B39",
"h. c #AA3838",
"j. c #B13435",
"k. c #B2373A",
"l. c #84422F",
"z. c #8C4335",
"x. c #874538",
"c. c #974038",
"v. c #824243",
"b. c #8B7B5A",
"n. c #B16E5D",
"m. c #AB6F54",
"M. c #AE6C60",
"N. c #3E834C",
"B. c #468343",
"V. c #4A8344",
"C. c #4B814C",
"Z. c #468749",
"A. c #56844E",
"S. c #4E914A",
"D. c #52944C",
"F. c #458353",
"G. c #4D8354",
"H. c #4C8A52",
"J. c #4C855C",
"K. c #4C8B5A",
"L. c #45825A",
"P. c #528B56",
"I. c #52845D",
"U. c #5A855B",
"Y. c #528C5C",
"T. c #5B8B5B",
"R. c #598357",
"E. c #56945A",
"W. c #5C935B",
"Q. c #599756",
"!. c #62864A",
"~. c #648753",
"^. c #63895C",
"/. c #6A8756",
"(. c #61915D",
"). c #778656",
"_. c #5EA154",
"`. c #4D8561",
"'. c #558663",
"]. c #548C61",
"[. c #598C67",
"{. c #5C9363",
"}. c #589666",
"|. c #668965",
" X c #758263",
".X c #619C63",
"XX c #6A956B",
"oX c #64A262",
"OX c #6FA166",
"+X c #BCA97B",
"@X c #D39C6E",
"#X c #D79D79",
"$X c #D49D74",
"%X c #CA9B7A",
"&X c #C6A67A",
"*X c #D7A179",
"=X c #D8A176",
"-X c #C1AD8C",
";X c #EABB8E",
":X c #EABE97",
">X c #EEBE9C",
",X c #E7BD93",
"<X c #F3BF93",
"1X c #F2BE9C",
"2X c #F9B99D",
"3X c #EABCA7",
"4X c #F8BCA3",
"5X c #F5C38D",
"6X c #EDC294",
"7X c #E3C59D",
"8X c #EDC39B",
"9X c #E3C89B",
"0X c #F3C496",
"qX c #F2C39C",
"wX c #F6C59A",
"eX c #D9CAA2",
"rX c #DFC3B5",
"tX c #E6C5A2",
"yX c #EEC3A1",
"uX c #EBC9A3",
"iX c #E9C7A8",
"pX c #F2C3A1",
"aX c #F6C6A2",
"sX c #FFCEBE",
"dX c #FFC6BE",
"fX c #FFD1BE",
"gX c #FFCEC4",
"hX c #FFCAC5",
"jX c #FFD3C2",
"kX c #FFD8C9",
"lX c #FFD4C9",
/* pixels */
"Q ` J.I.F.G.Q Q ` Q W _ Q Q ` ` H.S..X .M E W _ W W Q / +.H.Q.B.",
"}.L.B ( Y.A N @.[.@.` c [.'.*.x C.W.T.m H.Y.'.W W 1.].V j A .XS ",
"}.P.S B.{.( V.E.K.[.X.C U.|.>.:././.{ o.{.Y.G./ R L.].Y.C.o.'.c ",
"m A oXQ.Z. .!.O.k G -.).F + @ @ @ @ + <.| k K /.|.~ z T.OXT.*.v ",
"B j H..XQ.~.<.O X x.x.x.l.z.z.sXjXfXz.z.s J J $ # [ T ~ H.oXG...",
"}.].Z O./.+ X z.8.6.7.dXgX5.6.g.8.7.4.e.c.gXlXlXv.< & G j H.I.Z ",
"P.T.Z -.$ y c.s.a.p.hXgXsXsXg.p.p.p.r.t.sXfXkXlX8.6.8.X G I.#.v ",
"^ ^.| $ y 6 7.s.a.y.8.gXjXz.4.p.7.7.p.7.9.jXjXgXp.a.t.l.@ 2.! z ",
"Q { $ u 6 7.gXgX7.d.p.e.5.5.a.p.sXjXhX7.s.t.5.s.a.p.sXjXkX# { Q ",
"`.} i 3.a.6.gXlX8.d.a.r.e.e.r.e.fXjXhXg.r.w.r.r.u.p.jXfXgXJ >.! ",
"|.,.u p.r.a.s.4.p.p.a.r.r.r.r.e.4.s.6.h.e.r.e.a.u.k.6.7.g.9.;.b ",
":.@ 5 j.q.r.r.a.a.a.a.r.r.r.r.r.a.a.a.a.e.r.r.0.u.u.0.r.e.c.# l ",
"F O p u.q.j.a.a.f.a.a.r.r.r.a.r.r.r.j.a.y.p.a.a.a.u.a.r.a.8.O ;.",
": & 8 y.k.a.a.a.f.a.a.r.r.r.a.a.r.a.a.q.f.a.a.u.a.a.a.a.p.8.% ;.",
";.O 5 3.e.r.r.a.i.u.a.p.r.r.a.a.a.q.j.a.a.a.0.j.a.0.r.a.e.5 $ =.",
" X+ i 5 6 4 p.p.a.a.s.s.s.p.p.p.p.p.p.p.p.p.p.p.p.p.s.4 6 i @ F ",
"n F e i i u 5 7 9 7 8 8 a 8 0 9 9 0 7 9 5 5 9 7 9 8 u i i r -.L ",
"#.{ | <.b.% X , 1 2 > > > 2 1 1 > 2 1 2 > , > > < 3 $ H H  X^. .",
"E.Y.V &.~.!.O.U t #X#X*X=X@X*X*X#X$X#X@X=X$X%Xe =. X|.b b %.].^ ",
"Z.E.N F.E.S V.-.&X=X;X0X5X5X<X<X6X8X6X0X<X0XaXeX| '.J.R B `.+.c ",
"M K.) N.{.h o.).&X6XqX6XqX1X2Xo   9XuX. o 4X<X7XG T E `./ I.! z ",
"f X.F.K.I.V $.= 9X8X8X8XpXm.m.aX7XtXtX3XM.n.wXtX: ] c +./ J.` R ",
"h h +.@./ ..} : uX8X,XaX>X1XqX,X8X8XyXpX4XaX;XuX; ] { c Y Q @./ ",
"XXXXc E I.V G - 7X6XqX>XqXqX8X8X6X8X8XpXqXqX8XtX- } |.+.R Q J.B ",
"'.+.F.( A ^ ^.= 9X6X8X8X8XqX6XqX6X8X8X8XqX8X8X9X= R.G.G.G.X.N x ",
"v x E.E.) P.T.I +X6X8XqX>X8XaX,X8XqX8X,XqX,XuXeXK L j ^ P..XJ.' ",
"f V ( ( ^ #.Z k * &X6X0X>XyX8XuX8XyX>XwXwXqX+X- b x x C X.X.I.L.",
"'.{.) Z.{.^ #.|.,.q 8XpXiXe q w w w t %X$X&X* | V @.[.I.o.X.].V ",
"v ..W.D.S.S H.C.Z = iX3XrX[ $.XX~.I H -X&X&Xd &.I.~ c [.oXD.X.x ",
"g v W._.S.S.Z.M Z $.- r - l b J.E.B.| = w * :.U.T.V v / E.oXC.C ",
"......P.Q.Q.G.^ P.(.:.O.O.o.! Y W.A.A./.K /.T.G.^ ..%.c E {.W.V.",
"C...x ^ B.P ~ ~ C.A  .D V.B.! n ..L L L L  .x ..Z o.%.c z / P D "
};
