/* XPM */
static char *ca285da1ab864957bb483264a518bb11[] = {
/* columns rows colors chars-per-pixel */
"32 32 229 2 ",
"   c #1B0000",
".  c #150000",
"X  c #1E1C05",
"o  c #220000",
"O  c #3D0D01",
"+  c #320E00",
"@  c #2B1B02",
"#  c #261704",
"$  c #321303",
"%  c #391201",
"&  c #331705",
"*  c #3F330C",
"=  c #3C350A",
"-  c #373715",
";  c #263C16",
":  c #333720",
">  c #4B0500",
",  c #410C03",
"<  c #4B0901",
"1  c #410700",
"2  c #510500",
"3  c #530A02",
"4  c #401101",
"5  c #7E130F",
"6  c #6B1D18",
"7  c #7C1513",
"8  c #751C16",
"9  c #741B1A",
"0  c #791B1B",
"q  c #7D1B15",
"w  c #4A2C0B",
"e  c #55290D",
"r  c #483104",
"t  c #452F12",
"y  c #562815",
"u  c #453515",
"i  c #63231B",
"p  c #6A241A",
"a  c #76211E",
"s  c #682723",
"d  c #0D4619",
"f  c #1B442C",
"g  c #1E5C2D",
"h  c #1B4B31",
"j  c #2C5B2D",
"k  c #29582B",
"l  c #254D39",
"z  c #255B35",
"x  c #285838",
"c  c #3C5739",
"v  c #3B5C3A",
"b  c #385A37",
"n  c #394835",
"m  c #2B6332",
"M  c #2C6239",
"N  c #296837",
"B  c #336236",
"V  c #316A36",
"C  c #33643D",
"Z  c #336B3C",
"A  c #3A6E3D",
"S  c #3B6A37",
"D  c #35733E",
"F  c #3C783D",
"G  c #3A753B",
"H  c #524C2D",
"J  c #564A36",
"K  c #475936",
"L  c #4C4636",
"P  c #794A39",
"I  c #6F4C38",
"U  c #4B6C3B",
"Y  c #556E3E",
"T  c #49783D",
"R  c #53763C",
"E  c #295642",
"W  c #345D42",
"Q  c #2E6043",
"!  c #2D6C45",
"~  c #356445",
"^  c #356C44",
"/  c #346549",
"(  c #326A4A",
")  c #3B6C4C",
"_  c #3A6645",
"`  c #337044",
"'  c #3A7444",
"]  c #3C7B42",
"[  c #36714E",
"{  c #3D764B",
"}  c #3C794E",
"|  c #366952",
" . c #3D7651",
".. c #4B5B43",
"X. c #535A45",
"o. c #426C4C",
"O. c #496946",
"+. c #566745",
"@. c #497644",
"#. c #457C43",
"$. c #43744B",
"%. c #447B4B",
"&. c #4A7D4D",
"*. c #497646",
"=. c #577947",
"-. c #457553",
";. c #447A5A",
":. c #4B7A55",
">. c #517E59",
",. c #547C52",
"<. c #4B6A52",
"1. c #6C6345",
"2. c #7A6448",
"3. c #66774E",
"4. c #67765A",
"5. c #737D5A",
"6. c #7A7C5B",
"7. c #736C52",
"8. c #757964",
"9. c #667E64",
"0. c #82170F",
"q. c #821514",
"w. c #841B16",
"e. c #85181A",
"r. c #9C342D",
"t. c #9D392F",
"y. c #9B3026",
"u. c #9D3533",
"i. c #923C34",
"p. c #9B3A33",
"a. c #983B3C",
"s. c #8D3738",
"d. c #A42D2D",
"f. c #AB2D2D",
"g. c #A92E27",
"h. c #A4312E",
"j. c #AC322D",
"k. c #A03A2E",
"l. c #AA2E33",
"z. c #A53433",
"x. c #AC3334",
"c. c #A23A33",
"v. c #AC353A",
"b. c #A1373A",
"n. c #B23434",
"m. c #B23833",
"M. c #B23230",
"N. c #884237",
"B. c #8D4239",
"V. c #854634",
"C. c #954139",
"Z. c #904446",
"A. c #3C8650",
"S. c #448343",
"D. c #45834B",
"F. c #4B834D",
"G. c #4A8A4B",
"H. c #4A8746",
"J. c #518D4C",
"K. c #57874E",
"L. c #56964E",
"P. c #438153",
"I. c #4B8353",
"U. c #4D8B52",
"Y. c #4C845B",
"T. c #4D8A5C",
"R. c #468755",
"E. c #538555",
"W. c #528B53",
"Q. c #5A8B53",
"!. c #53865B",
"~. c #528B5B",
"^. c #5A8858",
"/. c #549155",
"(. c #56945A",
"). c #5C935C",
"_. c #5A995B",
"`. c #589A52",
"'. c #4E9451",
"]. c #60804F",
"[. c #678657",
"{. c #609C5D",
"}. c #758255",
"|. c #55A15C",
" X c #65A35B",
".X c #4D8662",
"XX c #558664",
"oX c #548C63",
"OX c #5A8966",
"+X c #548D6D",
"@X c #599565",
"#X c #658A61",
"$X c #639768",
"%X c #789862",
"&X c #748A66",
"*X c #65A265",
"=X c #80856F",
"-X c #D59E7B",
";X c #CB9C73",
":X c #C6A57A",
">X c #D3A678",
",X c #CCA782",
"<X c #ECBD96",
"1X c #F2BE97",
"2X c #ECBEA2",
"3X c #E9BFA9",
"4X c #F5BDA4",
"5X c #CAD49F",
"6X c #EBC395",
"7X c #E5C39D",
"8X c #ECC39B",
"9X c #EFC896",
"0X c #F2C196",
"qX c #F2C39B",
"wX c #F2C99B",
"eX c #D7CEA4",
"rX c #E3C5A3",
"tX c #ECC3A3",
"yX c #E2C5A9",
"uX c #EFC1AA",
"iX c #F3C2A4",
"pX c #EEC1B1",
"aX c #FFCABD",
"sX c #FFD3BD",
"dX c #FFCCC3",
"fX c #FFD2C3",
"gX c #FDDBCA",
"hX c #FED7C7",
"jX c #F2E2C2",
/* pixels */
"D ` .X.XP.T.[ ( [ ( | | / ) [ } G.'.|.A.N ` ( | _ W )  .P.R._.H.",
"~.T.M { ~.D Z P.@X;.[ Q XXXX{ g S._.'.N T.oX.X/ W XXOXM g ] @X] ",
"+XR.] G.@XF S.(.~.~.&.Z XXoXT.G.J./.{ -.oXoX~.' ^ P.~.U.G.#.oXz ",
"! Z *X`.S.S.Q.@.j O.3.}.K K Y %X[.U K 8.+.c v [.OXM k (.*X).$.x ",
"M m W.{.'.J.@.K ..8.$ 4 1 < V.sXjXjXhX1 O % @ 7.4...b ^ F.*XE.@.",
"$XI.V F.Q.=.3.# $ O Z.s.C.i.p.p.aXfXi.a.C.N.P % $ # =Xb j E.~.A ",
"W.~.^ ,.&XH O B.i.p.b.a.fXfXp.u.p.p.r.u.i.dXgXhXB.N.4 1.K >.-.z ",
"' ).:.4.@ y p i.t.z.v.u.fXsXp.z.t.t.c.p.p.dXfXfXp.p.N.I X 9.o.x ",
"! ) <.# i p V.sXdXi.u.z.r.c.j.k.sXsXsXi.p.c.r.c.z.p.fXhXgX# <.) ",
"A.$.J O 0 b.aXfXfXdXz.x.j.j.j.r.sXsXfXdXz.x.M.g.x.u.dXfXdX% 4.<.",
"|.[.% 8 x.x.z.c.r.z.x.j.j.n.f.x.u.b.b.b.x.g.j.j.j.z.b.b.c.B.& L ",
"U.=.e w.f.M.n.d.x.x.x.n.x.x.x.x.n.l.v.l.x.n.j.j.h.x.n.f.x.p.P J ",
"E n s 7 x.x.z.v.d.x.x.f.x.d.m.g.j.j.l.l.x.f.x.x.z.z.l.n.f.p.P 2.",
"f X.s q.x.z.d.z.x.x.f.x.x.x.j.j.j.x.x.n.x.x.x.l.z.x.n.f.n.p.y 2.",
"&.5.6 7 e.v.z.x.h.x.x.x.j.x.x.z.c.y.j.x.d.x.j.x.z.z.z.z.z.8 y 2.",
"(.[.% 6 6 8 q 7 w.7 q.q.q.q.q.e.7 q w.5 w.q.0.0.q.e.7 0 6 i & H ",
"h v 6.# @ O i 9 9 9 9 0 9 0 0 0 9 9 9 a 9 8 8 8 9 9 i , + @ 3.U ",
";.~ *.].[.6.& O > 2 3 > 3 2 2 2 2 > < < > > < > < , & J X.4.^.F.",
"_./.j &.Q.K.3.1.e -X>X0XiXiX4X4Xo pXuX2Xo pX4XuXt 8.&Xv k !.oX^ ",
"H.(.` I.(.F =.3.r ;X9X6X7X6X8X8X  yX8XtX  yX2XtX- [.!.' m Y.;.x ",
"B oX{ %.oXB U }.r >X6X6X8XqX8X7X. yX8X8X  rX8X7Xu K b T.' !.-.l ",
"f $.Y.T..XC +.= :X9X8XqX8X6X9X7XrXrX<X0X7X8X8X8XrX- S ;.} Y.) / ",
"j j } P. .-.O.- :X0XqX<X8X6X6X8X7X8XqX0X8X6X8X8X2Xu O.z / / ;.} ",
"$X$Xm ! .X~ b - :X1X1XqX6X8XwX6X8X8X0X0X8X8XqX8XtX* #X;.Q ( oXz ",
"OX%.D.] { -.~.%Xr -X8X8XwX6X<XqX0XqX0X8X2XiXiXtXt 5.&.R.~.$._ z ",
"x z (._.A ~.I.U r :XtX8X<XqXtXiX0X<XiX2XiXiX<X7X- O.z { U.).Y.-.",
"d Z D.D.D %.A k H t e qXqXqX3X3X8XtXtXiX1X;X,Xu c x z ` ] D.W.%.",
"!.@X' S.(.F %.#X4.- rX7XrXw u * * * t w ,X:X= Y _ ;.+XT.S.F ~.V ",
"E o.{.L.J.S.U.&.v ; 5X5X: ..=.%X[.R K - - - Y K.!.^ Q ~. X`.%.z ",
"f x _. XH.H.U.V C ,.=.[.c x M F./.T @.].K O.F.I.~.C x ' J. XI.) ",
":.$.' /.{.).>._ E.).^.*.&.>.~ _ $XW.E.^.@.^.^.E.$.$.>.^ Z ).).&.",
",.%.m D #.@.o._ I.V %.Z %.&.o.l O.*.A %.S #.m $.B :.>.x g ' @.S "
};
