/* XPM */
static char *c1eb583f999649f8ffb57447cfb5fdeacijCgzQgKRyr4Oik[] = {
/* columns rows colors chars-per-pixel */
"32 32 233 2 ",
"   c #1E0000",
".  c #290200",
"X  c #330E01",
"o  c #3B0E00",
"O  c #3E0D08",
"+  c #231A04",
"@  c #291803",
"#  c #331502",
"$  c #331901",
"%  c #3D1303",
"&  c #3B340A",
"*  c #2C3C14",
"=  c #3D3211",
"-  c #323913",
";  c #3A3913",
":  c #353615",
">  c #213F27",
",  c #4C0600",
"<  c #4A0902",
"1  c #440705",
"2  c #530400",
"3  c #520901",
"4  c #6A1D17",
"5  c #7B1512",
"6  c #7B1A14",
"7  c #741B1B",
"8  c #771A18",
"9  c #7B140F",
"0  c #462D0D",
"q  c #4A3105",
"w  c #592817",
"e  c #433312",
"r  c #443719",
"t  c #4E2B12",
"y  c #672318",
"u  c #72211B",
"i  c #7A2017",
"p  c #6E1C22",
"a  c #632927",
"s  c #184E1C",
"d  c #184F27",
"f  c #20452A",
"g  c #2D552A",
"h  c #275C2D",
"j  c #34562A",
"k  c #295836",
"l  c #335D3A",
"z  c #395735",
"x  c #334931",
"c  c #1F642D",
"v  c #2C6333",
"b  c #2E623B",
"n  c #296837",
"m  c #35643B",
"M  c #336B3A",
"N  c #3B6C3D",
"B  c #396638",
"V  c #367339",
"C  c #3B793B",
"Z  c #2F612C",
"A  c #544B2E",
"S  c #4A532F",
"D  c #594834",
"F  c #425D35",
"G  c #475A35",
"H  c #535237",
"J  c #784B37",
"K  c #694F38",
"L  c #49683E",
"P  c #546A3D",
"I  c #566A3C",
"U  c #57743E",
"Y  c #71633E",
"T  c #335E42",
"R  c #326544",
"E  c #3B6243",
"W  c #336C44",
"Q  c #3B6B44",
"!  c #326A4B",
"~  c #3A6D4D",
"^  c #36664A",
"/  c #357145",
"(  c #3B7645",
")  c #3D7A43",
"_  c #3D734A",
"`  c #3B7844",
"'  c #3F7553",
"]  c #367352",
"[  c #2E6A48",
"{  c #475B40",
"}  c #575A45",
"|  c #7D5E48",
" . c #426E44",
".. c #486949",
"X. c #54674A",
"o. c #427444",
"O. c #427B45",
"+. c #4B7B44",
"@. c #43734B",
"#. c #4C774A",
"$. c #427B4B",
"%. c #4B7848",
"&. c #51724B",
"*. c #59784A",
"=. c #457554",
"-. c #4D7652",
";. c #457C53",
":. c #457D59",
">. c #4D7D5C",
",. c #4A7954",
"<. c #527C54",
"1. c #5B7A58",
"2. c #556852",
"3. c #686949",
"4. c #69784E",
"5. c #687858",
"6. c #757E5C",
"7. c #787759",
"8. c #717252",
"9. c #777A63",
"0. c #6D7B62",
"q. c #821916",
"w. c #82150E",
"e. c #9D342D",
"r. c #933B2D",
"t. c #98362D",
"y. c #8B3D33",
"u. c #873E3A",
"i. c #9C3532",
"p. c #943C33",
"a. c #9C3A34",
"s. c #923B3A",
"d. c #9A3737",
"f. c #AA2D2D",
"g. c #A32F2C",
"h. c #A3322D",
"j. c #AA322D",
"k. c #A4362A",
"l. c #AB2E33",
"z. c #A72D33",
"x. c #A53332",
"c. c #AC3334",
"v. c #A43A34",
"b. c #AA3935",
"n. c #AE3339",
"m. c #A03939",
"M. c #A13238",
"N. c #B23534",
"B. c #B2343A",
"V. c #834439",
"C. c #884437",
"Z. c #9B4135",
"A. c #894846",
"S. c #81795A",
"D. c #86644B",
"F. c #46833E",
"G. c #3E8446",
"H. c #448243",
"J. c #448248",
"K. c #4C834D",
"L. c #4A8549",
"P. c #528A4B",
"I. c #56894E",
"U. c #4C8353",
"Y. c #4D8955",
"T. c #4C845C",
"R. c #498457",
"E. c #538455",
"W. c #5B8455",
"Q. c #5C8B55",
"!. c #5B845B",
"~. c #538C5A",
"^. c #5B8C5C",
"/. c #538C53",
"(. c #549254",
"). c #5B945C",
"_. c #5B9B5C",
"`. c #599558",
"'. c #67885A",
"]. c #768355",
"[. c #62955E",
"{. c #60834D",
"}. c #62A05F",
"|. c #4E8561",
" X c #548563",
".X c #538C64",
"XX c #5B8A64",
"oX c #598A66",
"OX c #5C9562",
"+X c #599766",
"@X c #658963",
"#X c #7A8869",
"$X c #629865",
"%X c #76926A",
"&X c #6AA167",
"*X c #819565",
"=X c #C79D76",
"-X c #D39E7E",
";X c #C7A57C",
":X c #D5AA7D",
">X c #BDA684",
",X c #C4A983",
"<X c #E9BD98",
"1X c #F0BF9F",
"2X c #F5BE99",
"3X c #EEBCA4",
"4X c #F5BEA1",
"5X c #F2BEA8",
"6X c #EEBEB0",
"7X c #DFC29A",
"8X c #ECC296",
"9X c #E6C49C",
"0X c #ECC39B",
"qX c #EDC89D",
"wX c #E7C597",
"eX c #F2C39D",
"rX c #F2C399",
"tX c #DDC6A2",
"yX c #DBC9A4",
"uX c #CCD4A7",
"iX c #E5C4A4",
"pX c #EDC4A3",
"aX c #E7C6A7",
"sX c #F3C4A2",
"dX c #F3C1A9",
"fX c #FFC5BD",
"gX c #FFCBBD",
"hX c #FDD5BB",
"jX c #FFCBC2",
"kX c #FED2C4",
"lX c #FBDACA",
"zX c #EEDEC4",
"xX c #F2E2C1",
/* pixels */
"L._.Y.;.' ~ T ^ ! [ / n G._.(.K.@.~ ~ ! ^ ^ ! ] ! _ T.R.R.Y./ / ",
") OX` h b oX XT ^ |..X~.n /.`.L.h _  XoXR ~ :..XR.M / ~.` v T..X",
"v ~.O.P.E.!.>.Q @.!.XXoX=.@.Q.I.I.Q.!.!.E <.!.~.`.H.C _.L.O.U.OX",
"k _ ).$X^.g l @X@XG S X.0.{ P ].*XI S S 9.5.L j +.Q.F.H.).&XM M ",
"o.U.&XK.Q l { 5.8.@ # X X lXzXxXhXJ % o % X 9.} G *.I.(.$X(.v v ",
"Q ~.E.g z #X+ @ $ J V.C.C.V.kXhXC.C.C.C.u.A.O # @ 3.*.Q.K.M U.$X",
"k -.1.G 3.# V.V.lXlXjXu.p.r.r.r.p.p.kXjXs.s.s.C.V.$ A #X<.N ~.Y.",
"k ..0.+ K J p.p.jXgXjXy.p.a.r.r.v.t.fXjXd.m.d.p.C.w t @ 4.&.XX( ",
"..2.+ lXkXkXd.i.Z.r.a.p.y.gXgXgXa.x.v.e.v.a.y.gXjXV.y w @ 2...! ",
"X.5.# kXkXjXi.b.k.k.k.e.fXjXgXgXi.x.c.j.c.e.fXjXgXfXs.y o H ..:.",
"A # V.p.p.i.x.c.j.j.g.x.M.d.m.i.b.h.c.c.c.c.i.t.x.x.x.a.u $ '.OX",
"D J p.v.x.c.n.c.N.j.B.n.l.n.c.b.h.j.c.l.B.n.c.N.f.N.c.h.i w *.Y.",
"| J a.h.b.x.x.c.c.c.z.c.l.l.c.c.f.N.f.N.l.c.c.l.N.f.c.x.8 a x k ",
"D.w p.b.h.b.b.c.l.c.c.n.n.c.b.j.c.f.c.c.c.g.c.b.c.z.x.m.7 a } > ",
"| w u d.a.i.x.c.c.j.c.g.b.x.e.b.x.b.x.h.v.v.v.h.b.x.a.7 4 w 7.*.",
"A $ w 4 u 8 q.q.w.w.5 q.5 q.q.9 q.5 5 6 6 6 5 q.5 7 y y w $ ].'.",
"P 4.@ X o y p 7 8 6 8 4 u 7 7 7 7 7 7 7 u 7 7 7 4 y o $ + 6.z f ",
"<.'.5.H D # 1 < , 3 , , , , , 3 2 2 2 3 , 3 2 , o $ S.].4.&.E >.",
"Q XX!.j F #XS.t aXdX6X. 3X5XdX. 4X4XsX4XsX-X-Xt Y 4.{.Q.+.h ^.$X",
"k :.>.m Q !.6.= aXaXaX. pXpXaX. 0XrX8X8X8XqX=Xq 8.*.o.`.L.V ).K.",
"k '  X_ |.l H e 7XpXiX  8XsXaX  0X8XqXwXwX8X:Xq ]...b .X$.( ~.v ",
"R ~ |.' :.m : tX9XqXiXpX8X8XaXaX8XqXwX0XqX8XrX;X; &.b |.|.R._ s ",
"=.:.R R k L r iXeXeX9XqX8XsX9X9XeX8X0X0X<XrX2X;X; ..=.' :.$.h h ",
"k  XW b ;.'.= aX4XeX0X0XeXeX8X8X8XqX0X8XrXrX2X;X- z m .XR v OX$X",
"k Q @.~.U.#.6.e pXeXeX0X1X1XeX8XqX8X0XeXrX8X;X0 *X!.$.( ( ,.@.^.",
"=.E.$XY.( k ..: tX9XsXsX3XpX<XqXpX9XpX<XqX0X,X& &.E./.V ).).h k ",
"$.Y.H.) W k l z ; ,X=X1XdXiXiX9XaXaXpXpXpXq e S g N J.V J.J.R s ",
"n ~.C O.T.oX=.B I & >X,X0 e & & = r 0 tXtXyX; 5.@X$.C `.H.C oX X",
"h O.`.&XXXl Q E.W.P - - * G U '.%X*.G - uXuX* F ,./.H.P.(.$X@.z ",
"Q U.&XI. .k m !.E.<.L F W.+.+.Q.<.l g j '.*.*.B B E.P.P.}.OXk f ",
";.OX).M R >.@.@.E.Q.Q.+.'.W.E.$XE E <.#.+.W.[.E.Q E.[.[.(.` @.=.",
"N O.` d k >.,.B o.Z +.B #.N %. .x ..-.#.M O.M U.m  .%.+.V c ;.>."
};
