/* XPM */
static char *_86cfc4b714342098fa0236fbd7c758a[] = {
/* columns rows colors chars-per-pixel */
"32 32 232 2 ",
"   c #190000",
".  c #240000",
"X  c #3B0D01",
"o  c #2D1401",
"O  c #2B1B01",
"+  c #271806",
"@  c #331401",
"#  c #351307",
"$  c #2E1E11",
"%  c #301710",
"&  c #2A3B1C",
"*  c #373817",
"=  c #3B3305",
"-  c #353922",
";  c #382F26",
":  c #4C0400",
">  c #430B01",
",  c #4D0900",
"<  c #4E0609",
"1  c #520801",
"2  c #500607",
"3  c #6B1D15",
"4  c #751B1B",
"5  c #791B1A",
"6  c #781A16",
"7  c #47310B",
"8  c #4A2C1C",
"9  c #483213",
"0  c #4E2C12",
"q  c #652518",
"w  c #742016",
"e  c #671F20",
"r  c #11431D",
"t  c #294012",
"y  c #1C4A32",
"u  c #245F2C",
"i  c #27572A",
"p  c #3E4B3A",
"a  c #2C5B35",
"s  c #2B563A",
"d  c #2C5C3B",
"f  c #255836",
"g  c #3C5B3A",
"h  c #375738",
"j  c #254A34",
"k  c #2C652E",
"l  c #246433",
"z  c #2C643C",
"x  c #2C6636",
"c  c #326534",
"v  c #33643E",
"b  c #346B3D",
"n  c #3A6A38",
"m  c #2F723B",
"M  c #34743D",
"N  c #3C753C",
"B  c #3E793F",
"V  c #3B722F",
"C  c #45532C",
"Z  c #544D3C",
"A  c #45573A",
"S  c #52552E",
"D  c #7E4638",
"F  c #695532",
"G  c #447C3D",
"H  c #45753A",
"J  c #55713B",
"K  c #666338",
"L  c #34594D",
"P  c #2B6342",
"I  c #2D6A44",
"U  c #346344",
"Y  c #386545",
"T  c #346C44",
"R  c #3D6A45",
"E  c #356E4B",
"W  c #3C6B4B",
"Q  c #386348",
"!  c #3C7344",
"~  c #3D7B43",
"^  c #3C754C",
"/  c #3D7A48",
"(  c #357444",
")  c #3B6753",
"_  c #3E7450",
"`  c #485744",
"'  c #5E5544",
"]  c #7D4D41",
"[  c #466D44",
"{  c #486847",
"}  c #516B4B",
"|  c #58664A",
" . c #437645",
".. c #437C44",
"X. c #4A7C46",
"o. c #447D4A",
"O. c #4D7E4D",
"+. c #46744A",
"@. c #53764D",
"#. c #567447",
"$. c #416D53",
"%. c #426F58",
"&. c #447453",
"*. c #447C53",
"=. c #4B7C53",
"-. c #4A7C5A",
";. c #4A7458",
":. c #5E7B52",
">. c #527C50",
",. c #526A50",
"<. c #666545",
"1. c #65794B",
"2. c #6C6F50",
"3. c #667B54",
"4. c #737050",
"5. c #5D7661",
"6. c #841414",
"7. c #88191C",
"8. c #9D2D2D",
"9. c #9D332D",
"0. c #993A2F",
"q. c #853E35",
"w. c #9C3631",
"e. c #953C33",
"r. c #9C3B34",
"t. c #9B3B3B",
"y. c #AB2D2D",
"u. c #A22F2B",
"i. c #A5342D",
"p. c #AB322D",
"a. c #AA352A",
"s. c #A62F32",
"d. c #AA2E32",
"f. c #A53433",
"g. c #AB3334",
"h. c #A33934",
"j. c #AB3833",
"k. c #AC3439",
"l. c #A83A3B",
"z. c #B13233",
"x. c #B13636",
"c. c #B1382F",
"v. c #85443B",
"b. c #874334",
"n. c #924033",
"m. c #92433B",
"M. c #AD7150",
"N. c #42803D",
"B. c #47802F",
"V. c #3E824A",
"C. c #45814D",
"Z. c #4C834C",
"A. c #4A894D",
"S. c #488546",
"D. c #52844E",
"F. c #55884E",
"G. c #54944E",
"H. c #579349",
"J. c #4B8254",
"K. c #4C8B53",
"L. c #4B845B",
"P. c #4D8C5A",
"I. c #468556",
"U. c #518D54",
"Y. c #598C53",
"T. c #54835B",
"R. c #5B8559",
"E. c #538C5B",
"W. c #5B8B5B",
"Q. c #568355",
"!. c #4F925F",
"~. c #539255",
"^. c #55925A",
"/. c #5C945C",
"(. c #5C9B5C",
"). c #5B9853",
"_. c #658757",
"`. c #74865A",
"'. c #619C57",
"]. c #708648",
"[. c #63A25B",
"{. c #4C8261",
"}. c #4F8965",
"|. c #558C63",
" X c #598866",
".X c #5C9462",
"XX c #589766",
"oX c #4F9966",
"OX c #678B65",
"+X c #788061",
"@X c #679866",
"#X c #7B9661",
"$X c #63A462",
"%X c #69A466",
"&X c #BFA87C",
"*X c #8A906C",
"=X c #C2A67C",
"-X c #BCA98A",
";X c #D09984",
":X c #CAA087",
">X c #EEBD96",
",X c #EDBE9B",
"<X c #F2BF97",
"1X c #F1BE9A",
"2X c #FDBC9C",
"3X c #F2BFA2",
"4X c #ECBFBA",
"5X c #CFCF9D",
"6X c #D5CC9B",
"7X c #D6D199",
"8X c #ECC296",
"9X c #E6C39C",
"0X c #EDC39B",
"qX c #E6C89A",
"wX c #F1C397",
"eX c #F2C39B",
"rX c #DAC7A7",
"tX c #D4D3A1",
"yX c #ECC2A2",
"uX c #E7C8A5",
"iX c #F3C3A2",
"pX c #F9C5AB",
"aX c #FFC6BC",
"sX c #FFCABD",
"dX c #FFD1BE",
"fX c #E7C5B5",
"gX c #FFCBC2",
"hX c #FFC4C0",
"jX c #FFD2C5",
"kX c #FFD3C8",
"lX c #EADEC4",
"zX c #F2E4C8",
/* pixels */
"( ^ {.}.L.L.^ E ^ U ) ) I T ) ;.Z.H.(.V.m T U ) Q Y T ^ -.L..XS.",
"!.I.z ^ E./ x *.|.L.) d |.P.&.i S.).~.x P.XX{.U U -.|.b f ! @XN ",
"oXP.G S.@XB S.~.P.|.=.b P.P.~.U.K.^.M / XXL.|.*.T J.K.K.C.o.W.d ",
"l m [.).S...G.N.k v Q.OXa a G $XW. .n R.R d b P.E.b u ^.%X/.R a ",
"b u U.[.A.^...c n R.:.3.` p g } `.#.1.+XA ,.@XC.K.l z z A.$XA. .",
".XE.k ../.X.@.#.4.O + $ % + zXlXlXzXo @ o + A @.[ OXOXa u K.E.! ",
"P.^.b D._.C <.X : m.v.D D v.q.kXdXdXn.m.v.] o O @ 4.2.#.c L.&.s ",
"M E.=.:.4.9 D q.t.l.hXgXgXgXr.0.n.e.i.i.aXsXkXjXb.b.F 2.[  XW s ",
"T T ;.| X q b.b.t.r.w.gXsXgXw.h.n.n.9.i.i.aXgXe.w.e.D o | ;.$.W ",
"*.&.A o q e.sXsXgXw.h.r.e.e.f.h.sXaXh.g.p.i.w.h.p.f.gXjX% `  XE ",
"XX_.@ q 6 r.aXgXaXh.f.f.h.9.i.i.sXsXl.f.f.k.i.i.x.u.aXgXv.% 5.s ",
"Q.| > 5 f.f.r.r.h.f.g.g.f.j.c.i.0.r.8.k.s.g.p.j.y.x.9.w.e.> | s ",
"p $ 3 6.8.g.i.i.g.s.k.g.g.y.a.a.i.i.k.f.g.g.f.k.g.g.f.l.f.b.O | ",
"; # 4 6.l.f.p.p.g.g.f.g.y.z.a.c.y.y.f.f.d.g.k.s.k.s.f.f.u.e.o 2.",
"4.@ w 6.6.s.g.p.p.x.f.d.z.g.y.y.y.z.j.f.d.x.d.g.p.j.f.g.7.5 @ <.",
"+X+ q 3 4 7.w.f.h.9.f.f.f.k.f.k.g.f.h.h.f.f.f.h.h.w.w.5 4 q O C ",
"j h +XO @ q 3 5 5 6 5 6 4 5 5 6 5 5 4 4 4 6 4 4 4 4 e X o *X1.H ",
"-.W [ 3.`.O @ > : 1 : 1 1 : : , , : < 2 : : , , > X # Z { R.Y.S.",
"^.U.v =._._.3.<.0 ;XiX1XiX3XpXyX  fX4X. 3X3XpX0 <.OXOXg s L.U.N ",
"A.U.T L./.N X.3.7 yXiX0X0X0X,XyX  rXfX. 1XeX,X9 } T.E.^ P {.*.l ",
"v |.N Z.|.x  .`.7 ,X,XeX8XeXM.iX9X9XuXyXM.M.,X9 A Q U L.T |.%.j ",
"y +.Z.Z.L.d @.* =XwXeX>X8XeX1X>X8X8X8XwX2X2X1XrX- h U *.^ L.%.) ",
"u u ^ L._ ;.} * =XwXwXwX8X8X<XeXiX0X0XwXeX1XeXuX- ` { a I I -.&.",
"@X.Xx I }.v g * &X8X,XeX8X8XwX<X0X0X0X8XeX0X9XrX& { OX&.P E {.z ",
" X&.Z.B ( / Y.#X= uX0X>X0X8XwXwXeX0XeX0XeXyXfX* } T.=.J.U.! T f ",
"d f /./.M P.A.H K =X9X9XqXqXqXqXqXqX9XuX0XyX8 Z { ! f ! U..XL.^ ",
"r b O.Z.M C.b i S -XuXrXtXtX5XtX7X7X6X6XyX:X8 ' h f f E / o.U.S.",
"{..XN ../.~ o.OX* rX* S 3._._.J 1.].J <.* 9 -X* { -. XL.C.~ U.k ",
"L $.'.G.K.V.P.o.g & >.Y.d Q >.@XY.G c Q.+.A t :.T.E z P.$XG. .a ",
"y s (.[.S.A.K.z Y =.X.~.P f d J.(.~ ~ E.z b F.F.P.I f ! G.$XO.R ",
"&.+.N H.'.).J.R R._.W. .=.-.Y v /.F.D.W.[ OXW.O. .^ =.v b .X.XO.",
"J.o.u V B.G [ Y >.n +.n =.=.W i H G H H [ @.i  .c =.T.a f ^  .n "
};
