/* XPM */
static char *_59142241166477baf9d1e7b4b9d4705knIygva6KAYKeCci[] = {
/* columns rows colors chars-per-pixel */
"32 32 87 1 ",
"  c #1F1A25",
". c #1D1F29",
"X c #1C202E",
"o c #212025",
"O c #354B2F",
"+ c #2D4A3A",
"@ c #3E5B30",
"# c #497633",
"$ c #2B4747",
"% c #2C4F47",
"& c #2D534E",
"* c #355E4B",
"= c #264A56",
"- c #2A4D55",
"; c #275354",
": c #2C5454",
"> c #2E5A54",
", c #305653",
"< c #315D52",
"1 c #37624F",
"2 c #39654F",
"3 c #346A4D",
"4 c #3C6C4E",
"5 c #3D7346",
"6 c #3C744E",
"7 c #3D7B4E",
"8 c #2F6253",
"9 c #336452",
"0 c #386450",
"q c #356B51",
"w c #386C50",
"e c #367251",
"r c #397350",
"t c #42744C",
"y c #447C4B",
"u c #487E49",
"i c #518536",
"p c #61A63F",
"a c #63AC3F",
"s c #66B13E",
"d c #3E804D",
"f c #4D8647",
"g c #4E8B47",
"h c #43834C",
"j c #4A8349",
"k c #498549",
"l c #4D8448",
"z c #45894B",
"x c #4A8849",
"c c #488D4A",
"v c #4C8C48",
"b c #4D8C48",
"n c #508B46",
"m c #528F45",
"M c #4F9247",
"N c #4E9446",
"B c #4B9049",
"V c #4B9249",
"C c #4F9248",
"Z c #4B954B",
"A c #4D9548",
"S c #529343",
"D c #509347",
"F c #559345",
"G c #509547",
"H c #559644",
"J c #519846",
"K c #559845",
"L c #569844",
"P c #539C46",
"I c #579D44",
"U c #599A43",
"Y c #599C43",
"T c #589944",
"R c #509548",
"E c #529C49",
"W c #478B50",
"Q c #55A044",
"! c #58A143",
"~ c #59A243",
"^ c #5DA041",
"/ c #5AA542",
"( c #5DA542",
") c #5EA842",
"_ c #60A540",
"` c #60AB40",
"' c #62AD40",
/* pixels */
"=9rC4G7>::<<:-97btJr>::<<-:qhkyC",
"fy=qg/>4Dj6>tg6=eFI:tMuw<yMq-rUB",
"NRn6(h6JNAD1yJDf6)6yJNAg<hJDjy)q",
";9/_z8gc:<6Ie-e`^h9Fd:9yL9:7aUd9",
"*:q!HtJ>4!hg2<:e)guC>t!ub0<:7'ug",
"Sy>6GuP>UrIttG6:hmlB0Tr!2uDw:cjD",
"Zm=6L47hx:y6LPl=hD66ku:htLPt-cf7",
"9Gt6I<:Uh:996qJ4hH:<^6:q96eL9Bg:",
":Buk7>9g7>q<:>Aybq89Gw>q>:9GtM9q",
"3>>e<hq<>46><q><q<h9<>66:99>9q0h",
"gH2>gx>9:6L<<Hm09Gh:9:hD,9Lg<qL6",
"BcD47:t(Yh99gccg47:j/Yy92Dccg46:",
"&:7/6tN777>97::h!quA7y7:q6:>cI9g",
".9qx4Ir::-<<-:9ehtIq::-9<=:q7uyA",
"#x=qD!>tImy:uLy=eUP>jLm6>fL2-7^c",
"hAUt!7yJzzM46cDHt/qjJzzM2ycGmu/9",
"X9Iaz9gz:26Y6=9!ph9H7:26!q=6)^79",
"O:qJLtJ>t!kj92:q!njB:u!ju01:e)jm",
"Mh:eGyJ9UqItyLt:hglB9Lq!4kG4:cjm",
"dH-7Gykjh:64HNl-hDq6gy:76LJy-cf6",
"%EyqY9<Hh:99q9IthD:<^6:q9qqI2Ck:",
"oyyhM:9Y7:q9>8ctx99qbq>q>:9c6c>q",
"+->x6kr6<6y99q:>q2x9>>y6:9q:9q4z",
"L!t:gh:9<6G0<YL2<G7>w<yD<4!F00Lq",
"WdMy7:j)(k<9DhhMtr:g)^u<2Ghhg6q<",
"$:r/6uArer>9e::d/wlBeee>qq->zYqD",
"oqqh4!e:>-9<->qqytI9:>-9<-<qeyuA",
"ib-qY!8u/Lu:f!u-e^J>g!L6>m!6-7pc",
"5c(uLeuJd7bt4hC^yIqfA77M46hGUuP9",
" >Csxqmy:t4Y6=<JahqDe:t6!q=9!`74",
"@<9bLyJ>uQgy04>qJmjB:lIbt04>q!jm",
"bb:rGyN9H9JtkJu:hgjc4F8I4gJt:cjg"
};
