/* XPM */
static char *_53aa33fdd4f4d7394a3d6f5324473f6Ydq29qxLvsUeGxar[] = {
/* columns rows colors chars-per-pixel */
"32 32 130 2 ",
"   c #000000",
".  c #1C1816",
"X  c #28221F",
"o  c #273536",
"O  c #2C3A36",
"+  c #3A3B3D",
"@  c #5D1916",
"#  c #7C201C",
"$  c #413325",
"%  c #2D413B",
"&  c #4B593F",
"*  c #436639",
"=  c #4E613E",
"-  c #51643D",
";  c #536A3D",
":  c #4C7D3F",
">  c #59743A",
",  c #2A454C",
"<  c #2A4B4B",
"1  c #314E40",
"2  c #314E49",
"3  c #2E534A",
"4  c #315447",
"5  c #355D46",
"6  c #3B5E44",
"7  c #315349",
"8  c #325949",
"9  c #2A4E55",
"0  c #275156",
"q  c #2C5455",
"w  c #2E5B54",
"e  c #2C5C5A",
"r  c #305653",
"t  c #325D52",
"y  c #366347",
"u  c #3D6444",
"i  c #3D6C45",
"p  c #37644F",
"a  c #39674F",
"s  c #3B6C4E",
"d  c #3F7244",
"f  c #3C724E",
"g  c #3D7A4E",
"h  c #2F6254",
"j  c #336352",
"k  c #386654",
"l  c #366B52",
"z  c #396D53",
"x  c #356458",
"c  c #396A5C",
"v  c #377150",
"b  c #3A7353",
"n  c #3D7B54",
"m  c #367158",
"M  c #3A7258",
"N  c #455242",
"B  c #415E5A",
"V  c #426D42",
"C  c #437442",
"Z  c #487440",
"A  c #437942",
"S  c #497B43",
"D  c #41744C",
"F  c #437C4B",
"G  c #417450",
"H  c #4C7557",
"J  c #437D53",
"K  c #537C55",
"L  c #89211C",
"P  c #96251F",
"I  c #A52D27",
"U  c #4D843E",
"Y  c #50813D",
"T  c #64AD3F",
"R  c #478041",
"E  c #498443",
"W  c #4E8C47",
"Q  c #44834B",
"!  c #4A8449",
"~  c #468A4B",
"^  c #4B8B4A",
"/  c #508E47",
"(  c #538E4A",
")  c #4D9148",
"_  c #4F9348",
"`  c #4D924A",
"'  c #4F9448",
"]  c #4F9648",
"[  c #4D914E",
"{  c #4F984A",
"}  c #539345",
"|  c #539546",
" . c #559644",
".. c #509847",
"X. c #539946",
"o. c #539A46",
"O. c #549845",
"+. c #559A45",
"@. c #579C44",
"#. c #589D43",
"$. c #589C44",
"%. c #51914C",
"&. c #53944C",
"*. c #53974C",
"=. c #539B4A",
"-. c #529C4D",
";. c #468251",
":. c #458451",
">. c #468953",
",. c #498850",
"<. c #488C53",
"1. c #4C8C50",
"2. c #488D54",
"3. c #499055",
"4. c #569F52",
"5. c #57A144",
"6. c #5BA242",
"7. c #5BA443",
"8. c #5FAB41",
"9. c #56A34C",
"0. c #59A04B",
"q. c #5BA449",
"w. c #58A44B",
"e. c #60AA40",
"r. c #61AC40",
"t. c #9C896F",
"y. c #9C8A73",
"u. c #A38A6A",
"i. c #B9A68D",
"p. c white",
/* pixels */
"c M >.1.J >.m x z x x x x z m b ,.%.q.n z z x x x x k b J ,.4.E ",
"*.Q w g } z j ! O.! s w }           ] j W | ! j t ! | t q v 0.C ",
"-._ F ! 7.f ! O._ ] ! a   P P P P P     O._ _ D k ! _ / ! F [ 8 ",
"e l T #.Q F } g q k !   P P P P P P P P   q j _ | h 0 | T #.b 7 ",
"t q ] 7.} _ Q t s } Q   P P P P P P P P   F #.! ! t r j ~ r.^ C ",
"9.W j !  .Q F F W z   P     P P P P P P P   w F D O.5.r 0 ~ ^ V ",
"<.| l ! $.w f | Q w     u.u.    P P P P P   q z f ! Q D t ^ J 3 ",
"M ] F ! ^ 0 D O.g w     @ @ i.@   # # # P P   j t j j W f _ z < ",
"z z f f j z z s k l     I p.i.I p.  # # # #   j q w h s s g M i ",
"Q b w l f z w q 0 Q     L I i.L I   # # # #   s q k F j w j ,.i ",
"0.| j s ^ j s F f !   @   i.t.i.i.i.  @ @ # #   t F O.F a k :.4 ",
"2.F ! F g D } 7.@.f   @   i.i.i.i.i.  @ @ @ #   f W Q ^ W F z 7 ",
"9 0 O.| f _ ~ f f l   @ @   i.i.i.    @ @ @ @   z z 0 z _ @.;.: ",
"o z Q F D Q h q w q   @ @ @       u.  @ @ @ @   q 9 q z g F %.R ",
"U ~ w g  .z j ! @.! l   @   u.u.u.i.+     @   j t W O.q 9 v 0.A ",
"{ ..F Q 5.f ! O.^ _ ! a   i.i.i.i.+ + + +     D p Q _ / ! F [ 8 ",
"% q O.6.} ^       W ! W   X i.i.X X   + + +   ! ! t r z ^ e.~ V ",
"S z f ^  .  i.i.i.      X X X X X X X   + + .   s D ! w j ] *.: ",
"-.^ j Q }   i.y.i.i.i.  X X X X X X X       y.i.  | 5.r 0 ! ^ C ",
"Q O.k Q  .D     y.y.y.  X X $ $ X X X   _   y.i.  ^ ~ s w ^ J 3 ",
"5 { f Q O.q D O.            > - $ $   q | z   y.i.  h W s _ z < ",
"O g ! ^ ^ w F | f j l j w   ; = = $   l F k   i.i.  j F f ^ z y ",
"4 q F ! f g f a r F f j z   N N $ $   l q t F     j z w j l ;.C ",
"q.$.w k / t w j t ^ ! t         - $ $   j t F D r f O.F t k ^ 8 ",
"3.g ! F b D  .8.7.f w   K H H K + + $   8.#.F t f ] Q ^ W F z 2 ",
"q q ..O.f _ ~ b f l w   B + + + +       v f v j z z q v _ 5.;.: ",
"o j Q F s Q j q w q j   + X       X X           w 9 q z g F [ R ",
"_ ] D Q @.f F | _ ^   & X   ^ !   X X X X X X   p Q _ W F F [ 8 ",
"1 b 6.O.^ F W Q j   ; > X   F 7.|   X X $ $ X   W l w | e.O.n 7 ",
"O q @.7.^ W ^ j j   X X X   w ~ @.F       $ X   W j q f | r.;.V ",
"S z n ] $.=.Q k (           k x ..( W { b       G G ! w z =.*.: ",
"E S 3 i : S i u Y i S u U U u , C Z V A V : 3 C 6 : U 7 < d S * "
};
