/* XPM */
static char *xpm_[] = {
/* columns rows colors chars-per-pixel */
"32 32 235 2 ",
"   c #020401",
".  c #0C0200",
"X  c #010B01",
"o  c #0D0B01",
"O  c #0C0E0B",
"+  c #050C0C",
"@  c #130200",
"#  c #1B0101",
"$  c #170C06",
"%  c #031302",
"&  c #061405",
"*  c #181408",
"=  c #0C1412",
"-  c #181917",
";  c #230401",
":  c #2C0301",
">  c #250B03",
",  c #2B0B04",
"<  c #230F08",
"1  c #330400",
"2  c #3B0602",
"3  c #3C0C01",
"4  c #3A0D0B",
"5  c #340F04",
"6  c #2D1206",
"7  c #27130C",
"8  c #2C140D",
"9  c #24190D",
"0  c #261204",
"q  c #331106",
"w  c #3D1201",
"e  c #34140C",
"r  c #3B140C",
"t  c #331C0F",
"y  c #3B1A0C",
"u  c #3D1903",
"i  c #2B1712",
"p  c #2D1C14",
"a  c #281C19",
"s  c #331512",
"d  c #3D1511",
"f  c #341A14",
"g  c #3D1A13",
"h  c #381E19",
"j  c #380F13",
"k  c #18211C",
"l  c #2B231D",
"z  c #2B261E",
"x  c #39241B",
"c  c #36241B",
"v  c #1D2822",
"b  c #2A2924",
"n  c #272524",
"m  c #3B2B25",
"M  c #273428",
"N  c #3C312A",
"B  c #3C3532",
"V  c #3B3B34",
"C  c #363837",
"Z  c #2E3830",
"A  c #420B03",
"S  c #4C0903",
"D  c #430B05",
"F  c #510C03",
"G  c #45180B",
"H  c #431E14",
"J  c #4C1B14",
"K  c #431E1B",
"L  c #471815",
"P  c #561A16",
"I  c #462115",
"U  c #4C2311",
"Y  c #46261B",
"T  c #5E2D1F",
"R  c #552618",
"E  c #66291C",
"W  c #772414",
"Q  c #442E27",
"!  c #582622",
"~  c #4A352A",
"^  c #5A352E",
"/  c #593A2C",
"(  c #5A382B",
")  c #453B3C",
"_  c #463B33",
"`  c #5E3932",
"'  c #6B2A22",
"]  c #652C21",
"[  c #792C28",
"{  c #613122",
"}  c #67372B",
"|  c #74342E",
" . c #773429",
".. c #633B35",
"X. c #6C3B35",
"o. c #763237",
"O. c #28492C",
"+. c #285B2C",
"@. c #3B433B",
"#. c #3A4838",
"$. c #295736",
"%. c #36573A",
"&. c #2C4532",
"*. c #2D6536",
"=. c #39683F",
"-. c #376638",
";. c #2F6F36",
":. c #50412E",
">. c #4E4233",
",. c #48453D",
"<. c #59473A",
"1. c #51553F",
"2. c #654B38",
"3. c #655138",
"4. c #714C3A",
"5. c #436A3B",
"6. c #3C5B46",
"7. c #384C40",
"8. c #3A6343",
"9. c #3D6C44",
"0. c #3C6349",
"q. c #3B6B4D",
"w. c #366546",
"e. c #3B7747",
"r. c #4A4B47",
"t. c #46524A",
"y. c #445C4B",
"u. c #485B4A",
"i. c #58544A",
"p. c #4B5B51",
"a. c #4A5750",
"s. c #555654",
"d. c #5C5D5C",
"f. c #575A54",
"g. c #574646",
"h. c #615040",
"j. c #655B59",
"k. c #7E5D4C",
"l. c #446D45",
"z. c #44634A",
"x. c #486948",
"c. c #4B7445",
"v. c #4D7C4C",
"b. c #457748",
"n. c #53774C",
"m. c #58714A",
"M. c #426C52",
"N. c #4B6755",
"B. c #5C615E",
"V. c #546D58",
"C. c #4B7956",
"Z. c #537C5B",
"A. c #577856",
"S. c #73644E",
"D. c #67645A",
"F. c #62705F",
"G. c #74675A",
"H. c #635F60",
"J. c #5E6963",
"K. c #597A62",
"L. c #626462",
"P. c #686566",
"I. c #6A6B69",
"U. c #756867",
"Y. c #6C786B",
"T. c #667669",
"R. c #6E7A73",
"E. c #677D70",
"W. c #767876",
"Q. c #7B746C",
"!. c #89291B",
"~. c #8E2B25",
"^. c #962C26",
"/. c #8A312E",
"(. c #845749",
"). c #8A786B",
"_. c #A57970",
"`. c #3E8446",
"'. c #4B8349",
"]. c #4A8657",
"[. c #548554",
"{. c #548A51",
"}. c #5A825E",
"|. c #538C5D",
" X c #5C995D",
".X c #5D935F",
"XX c #68835B",
"oX c #5B8365",
"OX c #5C8B62",
"+X c #4F9360",
"@X c #5B9868",
"#X c #6C896A",
"$X c #64866A",
"%X c #708F6D",
"&X c #67976A",
"*X c #6C8572",
"=X c #6A8C74",
"-X c #75867A",
";X c #779479",
":X c #6E9374",
">X c #74A977",
",X c #85827F",
"<X c #948A7D",
"1X c #80937F",
"2X c #A5897A",
"3X c #B5897E",
"4X c #7A7F82",
"5X c #789983",
"6X c #7E8480",
"7X c #7DA88A",
"8X c #838584",
"9X c #838C89",
"0X c #888786",
"qX c #938C8A",
"wX c #84958A",
"eX c #87998A",
"rX c #889A93",
"tX c #999998",
"yX c #93908B",
"uX c #B39E97",
"iX c #AD948C",
"pX c #85A58B",
"aX c #8BA893",
"sX c #97AA9D",
"dX c #A9A29E",
"fX c #B4A298",
"gX c #9AAEA3",
"hX c #B4B6AE",
"jX c #C1978B",
"kX c #C9B09C",
"lX c #C9B5A7",
"zX c #D1B7A6",
"xX c #E2B2A8",
"cX c #D7D8D3",
"vX c #E2E2E2",
/* pixels */
";.e.`.+XC.].q.q.M.6.8.0.0.M.q.V.K.$X&X].q.q.w.q.w.w.=.e.v.].@X`.",
"+X`.*.e.+Xq.*.].oXZ.z.6.5X5X6XE.-X5X:XZ.7X=XZ.w.w.C..X*.+.e.@X`.",
"@X].'.'. X;.'..XoX7Xa.t.a.5X4X4XT.F.F.T.p.6.aXN.0.C.+X].`.`.].+.",
"w.;.@X@X{.b.{.[.K.R.k n 4XtXH.dX0X,XyXdXa.@.R.gX=X6.$.|.@X X`.+.",
"-.+..X@X{.{.1X+.+ + B.d.s.~ d 2 D j Q U.tXtXO n wX6.$.-.{.&X[.c.",
"&X'.*.v.&X[.X % d.tX  g.e J [ /.o.o.K U.dXr.W.-Xt.gX:X6.+.[.OXl.",
"[.OX=.&XaXX k B.d.H.uX; [ ^.^.!./.[ | : @ N s.W.t.  + 6.K.oXC.$.",
"e.OX].5XX hX9X  U.# # P ~.^.!.W F S ' P > @   f.r.wXgXR.5XK.q.$.",
"=.9.$X& J.f.tX0X; : D [ /.[ S u (.] J ! # i . . n d.9XR.wXV.M.q.",
"].M.C.% b P.l ; ..J P [ W A k.2X4.iX! 1 , i i $ $ U.).B.u.aXK.q.",
"=XpX-XZ Z ,.8 e 4.P F | J 1 _.iX(.xX^ 5 K ; f # # g.j.r.M Z.aX$.",
"oX5XX I.U.. ` D P S ' P J 3X3X3X3X(.4 Y d : L d i . b s.8X,.#.%.",
"$.*X% J.s.. ^ D R 2 ' D K iXzXkXzX:.2 R L : K e f . V B.qXi.V V.",
"M y.T.= B.. ..3 J 3 ! P s >.S.S.3.t P ! d , d s 8 @ C B.W.,.#.I.",
"'.A.E.    . ..3 U 5 T : <.<X_ _ S.).; K h ; s h p . r.0Xn   &.V.",
".XpXX k J.. ^ D E A r ; ) Q.lXlXqXg.7 8 ; > Y q p   O O   R.$X$.",
"O.*X  J.d.. ..A ' T # ~ a o Q.qXa O V * p q r g i . r.qXn Y.K.q.",
"C.;X  I.f.. ` D ' T < * . a i l n . - @ 8 q J q 8 . C W.n Y.=XC.",
"$XpX  hXa . ..3 { U 2.D.$ 9 x m l @ _ G.< y H r 8 . V I.- Y.Z.b.",
"T.eXX @.cX. ` 5 T G ).<X. 9 :.<.x @ j.fX6 u H I h .   b k T.A.+.",
"%.eX  D.,X. ^ w U 2.uXc Q 8 3.3.Y t t )._.> H y h @ B r.  Y.l.+.",
"O.1X  s.vX. ^ w Y 3.kXt Q 8 <.3.x Y q 2X2X> y y f # B H.- Y.V.%.",
"%.*X  s.s.. / w R J ` i i m 3.<.:.9 x ~ Q 6 x K h @ ) P.0Xa.u.N.",
":XpXX I.C @ ..A { ^ Y e $ ,.N Q >.l m f e e I q s @ ) P.k R.T.6.",
"oX5X+   - . X.D ] ] { > l ) $   B b c h q x y e s @ $ = = I.rX7.",
"7.=X  8XtX# ^ S ]  .R > ~ Z $ . z ,.< f q y I y e . r.6X9XI.a.gX",
"eXM s.0XtX@ o.A E  .{ > >.z p $ 0 >.8 y q H G q 6 @ _ J.d.6X9X9X",
"5X  P.H.h.@ ( 3  .} 5 Q i.9 x 0 $ ,.<.6 q y H y 8 . V f.9Xd.C a.",
"9X+ P.L.d.  :.6 :.2.> p z $ l p o l l # f f x p 9 X Z J.6Xt.@.#.",
"W.+ X X % % % o * $ o o   o o   X %     o o . o & % & X % X 1.z.",
"Z.l.n.oX#X#Xn.z.m.XXXXm.A.A.y.z.%Xn.XX#Xx.#X#XA.N.N.K.w.x.%X}.A.",
"'.c.+.9.C.v.9.=.{.5.5.5.n.n.x.O.l.v.5.c.l.c.%.M.-.[.C.%.O.l.n.-."
};
