/* XPM */
static char *opened_door[] = {
/* columns rows colors chars-per-pixel */
"32 32 256 2 ",
"   c #010101",
".  c #0A0202",
"X  c #010B01",
"o  c #090A04",
"O  c #040408",
"+  c #09070A",
"@  c #0D0B0C",
"#  c #040D0A",
"$  c #100604",
"%  c #140C0C",
"&  c #041202",
"*  c #0A1202",
"=  c #08170A",
"-  c #10140E",
";  c #140F12",
":  c #180D11",
">  c #0F1913",
",  c #121413",
"<  c #1C1B12",
"1  c #1C1C1A",
"2  c #1C1414",
"3  c #211916",
"4  c #152216",
"5  c #1E2015",
"6  c #25261E",
"7  c #1B2B20",
"8  c #1E2326",
"9  c #1A3E22",
"0  c #2A2225",
"q  c #292728",
"w  c #242829",
"e  c #262823",
"r  c #23312B",
"t  c #2D322E",
"y  c #323433",
"u  c #3A3533",
"i  c #333C37",
"p  c #37363A",
"a  c #3D3639",
"s  c #37383C",
"d  c #3B3B3B",
"f  c #3E3936",
"g  c #403E3F",
"h  c #1F4627",
"j  c #2C462F",
"k  c #284D2E",
"l  c #2A552B",
"z  c #235E28",
"x  c #2B582F",
"c  c #275C26",
"v  c #32572C",
"b  c #2B4731",
"n  c #354532",
"m  c #37473C",
"M  c #3C413A",
"N  c #384B3A",
"B  c #235636",
"V  c #285337",
"C  c #265930",
"Z  c #2E5B30",
"A  c #2B5638",
"S  c #2F583A",
"D  c #355334",
"F  c #3E5036",
"G  c #325C39",
"H  c #35573B",
"J  c #29612E",
"K  c #2F6338",
"L  c #296A34",
"P  c #306730",
"I  c #356539",
"U  c #366A3C",
"Y  c #3B693D",
"T  c #39633D",
"R  c #36703E",
"E  c #436A35",
"W  c #416C3E",
"Q  c #4A713A",
"!  c #483F42",
"~  c #3D4842",
"^  c #355646",
"/  c #3B5443",
"(  c #395D45",
")  c #3F574A",
"_  c #356245",
"`  c #3D6A44",
"'  c #356449",
"]  c #3A654C",
"[  c #3E6A4E",
"{  c #396844",
"}  c #3A7244",
"|  c #3C7944",
" . c #3E7449",
".. c #3D7A4E",
"X. c #3E6256",
"o. c #424B42",
"O. c #494A46",
"+. c #4E464A",
"@. c #4C4C4C",
"#. c #45554B",
"$. c #435E4B",
"%. c #4B5A4D",
"&. c #445945",
"*. c #4E5951",
"=. c #4F5555",
"-. c #5B5655",
";. c #5A5A55",
":. c #5B5D5B",
">. c #565556",
",. c #635D5C",
"<. c #446543",
"1. c #446F44",
"2. c #41654A",
"3. c #456B4B",
"4. c #4C6D4C",
"5. c #4A6D45",
"6. c #437446",
"7. c #4B7346",
"8. c #447C42",
"9. c #4D744A",
"0. c #457D4B",
"q. c #4C7C4D",
"w. c #44704D",
"e. c #527C4B",
"r. c #547145",
"t. c #456C53",
"y. c #4C6B55",
"u. c #4B6059",
"i. c #476354",
"p. c #506E56",
"a. c #5C675B",
"s. c #457454",
"d. c #4E7C54",
"f. c #4C7857",
"g. c #547354",
"h. c #547A57",
"j. c #5D7A54",
"k. c #51725B",
"l. c #557A5B",
"z. c #5A795C",
"x. c #5C725A",
"c. c #62625D",
"v. c #607D5F",
"b. c #695F60",
"n. c #635D61",
"m. c #5C6162",
"M. c #4C7D60",
"N. c #5C7C62",
"B. c #656463",
"V. c #6A6664",
"C. c #656A64",
"Z. c #686866",
"A. c #6D6C6A",
"S. c #656469",
"D. c #706665",
"F. c #706D68",
"G. c #627465",
"H. c #657A67",
"J. c #64766A",
"K. c #6A7B6B",
"L. c #6A7966",
"P. c #6E7772",
"I. c #6A7C71",
"U. c #767572",
"Y. c #787471",
"T. c #717870",
"R. c #787876",
"E. c #707578",
"W. c #7B7D7C",
"Q. c #44824B",
"!. c #498049",
"~. c #48884C",
"^. c #478144",
"/. c #4B8554",
"(. c #478852",
"). c #478658",
"_. c #538255",
"`. c #518A54",
"'. c #54845C",
"]. c #5B825C",
"[. c #548B5A",
"{. c #5D975B",
"}. c #5B995D",
"|. c #62835E",
" X c #6A845B",
".X c #5C8362",
"XX c #558D60",
"oX c #5A8E64",
"OX c #5C826A",
"+X c #578362",
"@X c #5D9C63",
"#X c #599869",
"$X c #648664",
"%X c #638965",
"&X c #67836C",
"*X c #6D846D",
"=X c #638B6B",
"-X c #6E8968",
";X c #70896B",
":X c #65966A",
">X c #6C926F",
",X c #699E68",
"<X c #649869",
"1X c #6F8175",
"2X c #6B8C74",
"3X c #648A75",
"4X c #71877A",
"5X c #7A847B",
"6X c #71897A",
"7X c #788D7C",
"8X c #699177",
"9X c #769579",
"0X c #7B9C7E",
"qX c #6FA66C",
"wX c #86837E",
"eX c #837E84",
"rX c #7D8B84",
"tX c #7D8D8C",
"yX c #709085",
"uX c #7C9B84",
"iX c #789488",
"pX c #7E9989",
"aX c #7FA785",
"sX c #7EA288",
"dX c #868583",
"fX c #8B8383",
"gX c #858986",
"hX c #848C8B",
"jX c #8B8C8A",
"kX c #868489",
"lX c #908C8B",
"zX c #889E87",
"xX c #8D9089",
"cX c #86978A",
"vX c #94938E",
"bX c #8E8E90",
"nX c #9A8F93",
"mX c #819892",
"MX c #8F9F94",
"NX c #979795",
"BX c #9C9493",
"VX c #A49B99",
"CX c #83A387",
"ZX c #8EA48F",
"AX c #89AF8A",
"SX c #85A68B",
"DX c #8CA794",
"FX c #8CAB97",
"GX c #94AA9C",
"HX c #9DA29C",
"JX c #A3A39F",
"KX c #9EA6A1",
"LX c #A8A7A5",
"PX c #AFB7AD",
"IX c #D7D5D6",
"UX c #E5E0E6",
/* pixels */
"R | (.(.).). .{ 1.T ] ] X.i.i.y.h.%X>Xd.` { ] ' ' ' { ..Q.(.#X).",
"oXQ.L | ).| K d.oXh.2.^ yXiX6XH.9X0X9XN.CX=Xl.[ ' M.oXK z | #X..",
":X[.0.Q.@X} '.=X=XuX$.&.u.rX4X5XG.G.J.G.i./ FXt.] M.'.`.^.^./.J ",
"K K @X}.~.0.'.+XN.K.> 7 rXKXc.KXgXhXgXKX*.m &XGX3X_ C [.qX}.Q c ",
"I z {.}.`.`.CXb X * B.;.,.:.fX;.V.:.,.D.NXKX= 7 pX( G U `.,Xq.6.",
"<X/.P !.@X].X X c.vX  V.B.c.c.V.,.b.nXLXJXO.Y.5X&.GX2XG l _.XX} ",
"'.XXU <XAXX 4 ;.,.,.VX$ . $     . $ . . . u -.R.@.  X $.z..Xs.B ",
"} oXd.0X& PXxX  D.. : .     O   .   .   . .   -.@.bXLXI.pXOX[ B ",
"R { =X= a.;.NXfX$ .                       .     0 :.kXP.cXk.t.[ ",
"_.w.y.X t D.0 : .                               : A.5Xm.#.FXN.2.",
"=XsX6Xi q +.2     O O O                   O       @.m.@.r C.ZXD ",
".XsXX A.Y.  .       O O           O                 w =.gXo.N F ",
"S &XX B.>..       O O                               g m.hX*.n x.",
"9 $.I.- ;.o     O                                 O p m.P.~ n x.",
"l..XG.X                     O O O             . . . +.kX8   j g.",
"OXSXX 4 C.                    O O                 . % :   K.&XD ",
"b &XX m.;.X         O   O                         + +.lXe K.z.w.",
"x.7XX A.:.            O O               .           f Y.6 L.2Xs.",
";XzXX PX1                                         o f F.5 L.l.s.",
"H.zXX M IX                                        ,   e < K.k.A ",
"G CX  ;.eXO                                       8 f O.X K.2.V ",
"h uXX >.UXO O                                 O   O t :.- J.k.( ",
"A 2XX ;.-.O O O                               + O   g V.lX*.$.y.",
"8XDX  A.a   O                               . +   O p V.1 T.J./ ",
".XiXX   < .   O O                             O     @ @ , A.MXN ",
"^ 6X  wXBX.                                 . @ O   @.kXdXC.%.GX",
"mXr *.fXVX.       O .                   .     @   O p S.:.W.hXiX",
"tXO B.,.;.    @ O   .             +           O O , p :.bX>.i *.",
"tX# c.c.;.    -   . 3 <                         , , i B.5XO.M ~ ",
"I.& & X * & & & * o * o * * o o * o & & & & & & # = & & X X &.%.",
"z.4.9.].>X%Xq.1.|. X Xr.j.4.$.$.;Xj.|.|.<. X-Xj.3.3.g.<.<.>X%Xh.",
"d.q.Z Y q.0.6.I e.E Q E e.e.3.k 5.9.W 8.1.9.v 5.T _.d.l l 1.9.Y "
};
