/* XPM */
static char *_b47bf2df65a415fda0a9972549c1511gOGWFbrNh3uS9Pq4[] = {
/* columns rows colors chars-per-pixel */
"32 32 239 2 ",
"   c #010400",
".  c #0C0100",
"X  c #000B00",
"o  c #0A0B00",
"O  c #010C08",
"+  c #140000",
"@  c #1B0000",
"#  c #001200",
"$  c #071800",
"%  c #131D15",
"&  c #220000",
"*  c #290000",
"=  c #281C17",
"-  c #321F19",
";  c #1E200B",
":  c #1A2416",
">  c #23241B",
",  c #2C221B",
"<  c #262517",
"1  c #302614",
"2  c #281F20",
"3  c #2C2523",
"4  c #2A2823",
"5  c #262421",
"6  c #3B2620",
"7  c #3B332C",
"8  c #3A362B",
"9  c #383C34",
"0  c #2F3825",
"q  c #53151F",
"w  c #4D1619",
"e  c #761F1C",
"r  c #4B251C",
"t  c #6F371C",
"y  c #5D1B26",
"u  c #6D1D20",
"i  c #4B2522",
"p  c #432223",
"a  c #562725",
"s  c #43332D",
"d  c #483C34",
"f  c #5D3F3F",
"g  c #6C2B24",
"h  c #792726",
"j  c #673626",
"k  c #743629",
"l  c #682932",
"z  c #673430",
"x  c #763934",
"c  c #184214",
"v  c #1C492A",
"b  c #1D5B2C",
"n  c #1D5738",
"m  c #28492C",
"M  c #235B2D",
"N  c #27552C",
"B  c #224D32",
"V  c #374335",
"C  c #245A33",
"Z  c #2B5C34",
"A  c #225439",
"S  c #2A563D",
"D  c #255C3B",
"F  c #2A5C3C",
"G  c #295135",
"H  c #325D3B",
"J  c #365638",
"K  c #24612F",
"L  c #2B6433",
"P  c #2B643C",
"I  c #2C6B3D",
"U  c #266436",
"Y  c #336B36",
"T  c #34623C",
"R  c #346C3C",
"E  c #3B6D3D",
"W  c #316336",
"Q  c #2F7439",
"!  c #2E783D",
"~  c #367B3E",
"^  c #38753B",
"/  c #376026",
"(  c #584838",
")  c #47573B",
"_  c #4B4E3B",
"`  c #6E4330",
"'  c #45683D",
"]  c #44773D",
"[  c #50793F",
"{  c #2C5541",
"}  c #2D5C43",
"|  c #265547",
" . c #335C43",
".. c #395647",
"X. c #3E5D52",
"o. c #365256",
"O. c #2C6442",
"+. c #2C6847",
"@. c #346445",
"#. c #3C6342",
"$. c #346B43",
"%. c #336149",
"&. c #39644B",
"*. c #356A4B",
"=. c #3C6B4C",
"-. c #396943",
";. c #2B7644",
":. c #3D7443",
">. c #3B7A43",
",. c #3C734C",
"<. c #3C7C4A",
"1. c #33764B",
"2. c #3A6451",
"3. c #3D6D53",
"4. c #326C58",
"5. c #366655",
"6. c #3C7454",
"7. c #397653",
"8. c #4D4C48",
"9. c #5B4A45",
"0. c #4B5B4B",
"q. c #445949",
"w. c #455D55",
"e. c #5A5446",
"r. c #605342",
"t. c #744347",
"y. c #43624B",
"u. c #496A4B",
"i. c #427344",
"p. c #427A45",
"a. c #42754B",
"s. c #4A734A",
"d. c #427D4C",
"f. c #4A7C4D",
"g. c #557A4B",
"h. c #436355",
"j. c #446B53",
"k. c #456959",
"l. c #576B57",
"z. c #447353",
"x. c #447C54",
"c. c #4B7C54",
"v. c #437A5A",
"b. c #4A7D5B",
"n. c #4A7556",
"m. c #527B55",
"M. c #55755D",
"N. c #53795A",
"B. c #5C7C5B",
"V. c #587654",
"C. c #52694F",
"Z. c #68785D",
"A. c #4B5C64",
"S. c #587A64",
"D. c #457A60",
"F. c #636F63",
"G. c #657C65",
"H. c #811A1B",
"J. c #88261B",
"K. c #96231B",
"L. c #961E22",
"P. c #892B25",
"I. c #942B25",
"U. c #86352A",
"Y. c #883533",
"T. c #952A30",
"R. c #3D8049",
"E. c #3E8546",
"W. c #3D8256",
"Q. c #44834C",
"!. c #4C8D4D",
"~. c #468647",
"^. c #52864D",
"/. c #458355",
"(. c #4C8453",
"). c #4C8A54",
"_. c #45825C",
"`. c #4B845B",
"'. c #4D8B5B",
"]. c #458955",
"[. c #518654",
"{. c #528B55",
"}. c #598A52",
"|. c #53855C",
" X c #5B8459",
".X c #548B5D",
"XX c #5B8C5C",
"oX c #4D9154",
"OX c #4F9A57",
"+X c #539355",
"@X c #5A9256",
"#X c #54935B",
"$X c #5D955B",
"%X c #569A5B",
"&X c #559C58",
"*X c #50934E",
"=X c #67835D",
"-X c #63965C",
";X c #70855E",
":X c #59A158",
">X c #64A15E",
",X c #4C8464",
"<X c #4D8D66",
"1X c #528564",
"2X c #5C8D66",
"3X c #598868",
"4X c #4D9363",
"5X c #549262",
"6X c #5C9262",
"7X c #5E936B",
"8X c #5C9A67",
"9X c #678564",
"0X c #679769",
"qX c #618F72",
"wX c #669676",
"eX c #74876B",
"rX c #64A369",
"tX c #9A8C7D",
"yX c #908D7C",
"uX c #A48C78",
"iX c #9B8A85",
"pX c #8F9080",
"aX c #918E84",
"sX c #B59D96",
"dX c #AB9286",
"fX c #ABA594",
"gX c #A8A996",
"hX c #B7A897",
"jX c #B1A88F",
"kX c #AFB3A2",
"lX c #AAADA2",
"zX c #C09F90",
"xX c #CA9F87",
"cX c #C3A78B",
"vX c #C2A386",
"bX c #D1A08F",
"nX c #C2A899",
"mX c #FFF3EC",
"MX c #FFEBEA",
/* pixels */
";.1.,X,XW.<X,.-.a.@.*.*.&.j.X.S.S.3XwXb.u.#.=.*.2.} =.,.x..X-Xg.",
"4XW.I x.4XI I c.7Xx.=.S G.G.o     X X ) B.0Xc.O.@.b.3XP U >.0X] ",
"7X).] ~.8X~ ~.#X`.2X(.'   & g g k g t @ ;X|.6Xp.L Q.5X).!.~.'.P ",
"H E >X*X~.~.+X~.K R s.  z Y.J.I.I.J.J.`   N W ).#XR K '.rX&X>.b ",
"H M #X%X!.!./.Z Y XXZ.+ h L.T.K.K.J.U.j . l.0X(./.$.C $.Q.rX!.^ ",
"0X(.L Q.+XQ.(.x.[.' . z T.L.J.I.P.Y.* @ 9.   .v.7.5X0XR M '.(.Y ",
"~.#XR `.5XP >.{.m.) & h I.I.U.k * @ dXiX  X | 4.6.c.).^ U `.D.| ",
"! 5Xa.b.1XC :.6XM.  k P.H.e g & r sXf 9.  O | 4.%.T Y ).,.,X5.| ",
";.1.6.=.@.3.3.k.X.o a h h e * mX` bXMXt.+   h.&. .} &.=.3.v.,.*.",
"_.7.P z.b.O.%.{ q.. l h u g @ ` j xXx z .   M.h.S @.n.@. .&.1X-.",
"8X5XT $.`.R 1.s.. a l y y & vXvXdXuXzX@ 6   M.z.O.].6Xi.-.@.S.{ ",
".Xd./.d.<.<.).0X. z q q i @ cXcXhXhXnX+ 6   S.F 1.'.d.{.XXc.=.S ",
"B C %XOXQ ).`.u.+ i w a p + + hXhXsX@ r p . y.@.,.*.n +.].%X~.>.",
"v -.R.E.~ R.$.J . p i i 6 . dX. . + r r 6   G O.P A O.7.<.E.oX~.",
"f.(.L <.5XI L m.eXo = .   9 sXiXtXuX+ 1 o =X1X+.P ,X3XH N :.rX~ ",
"$X.Xp.d.5Xd.(.XXB.    9 V 9 d hXhXjXhX. =X X|.z.@.S.B.B. X:.(.L ",
"B M +X:X!.).{.Z y.  9 9 9   - - hXfX,   0.u.9XX     ) ' }.0X(.:.",
"N.:.~ !.+X+Xi.#.  % V V   3 3 - = , , >   X X gXfXgX  J ^ {..Xc.",
"-X[.I <.@X^.B.X kXyX      < 3 2 3 = , <   lXgXhXtXgXX H C _.`.,.",
"^.6X$.`.XXg.V.  fXaX  0.o < 5 2 s s , =   aXaXpX  X N.z.F ,Xb.F ",
"H 7XI /.2XG   hXtX  0...J   4 d ( ( . .     X   w.2.2.b.R 2X&.A ",
"v ,.].'.1X..X gXgXX q.&.w.  d ( ( r.. 8.F.0...h.o.| 5.v.p.(.=.%.",
"M b /._.=.M.y.# X g.z.&.h.  7 7 _ _   w...X.N. .{ 2.3.} D *.v.6.",
"0X8XD *.3XH T #.T m.1X} X 9 7 9.    X X X. .b.z.} j.3Xv.O.+.<XD ",
"'././.a.i.:.+XrXwX2.5.w.  8 d 8 l.C.0.S.X qXv.+.3.7Xb.`.).<.,.n ",
"Z Z .X7X:.{.~.>.=.h.o.A.      V m V V F.X j.5.+.z.@.C <.oXoXx.c.",
"c E `.<.Y !.Q M X X O     4 >   X X < 9   q.S O.S P I I R.Q.}.[ ",
"=X Xa.d.%X~ >.0XX : > 4 3 > : # B.eX  = 8.  M.n.@.b._./.].>.}./ ",
"G a.-X@X@Xp.{.p.X > 8 7 5 : # wX2Xn.X = e._ X 9XS.z.Z #X&X+Xf.Z ",
"v Z $X-X^.[.{.E X : 0       #.z.2Xn.  > ; ; $ V.S.H C :.!.rX`.&.",
"f.E >.+X$X0Xc.T X # # u.B.n. .=.6X{.X #   X X B.z.a.|.W E 6X6Xd.",
"f.p.U >.p.i.a.#.B.) s.T g.c.j.B a.p.' u.C.l...j.@.x.b.Z N i.p.R "
};
