/* XPM */
static char *ce3228aca7d046e48402c01da9120c5a[] = {
/* columns rows colors chars-per-pixel */
"32 32 219 2 ",
"   c #360F00",
".  c #3C0D01",
"X  c #3C0E0B",
"o  c #2B1502",
"O  c #241D02",
"+  c #2A1A02",
"@  c #2E180A",
"#  c #331404",
"$  c #3F1203",
"%  c #331B00",
"&  c #371508",
"*  c #2A1711",
"=  c #371011",
"-  c #2E0D06",
";  c #252107",
":  c #273A1E",
">  c #193F30",
",  c #323F21",
"<  c #410E02",
"1  c #410E0A",
"2  c #411204",
"3  c #6D1A14",
"4  c #7E1614",
"5  c #741C14",
"6  c #731C1B",
"7  c #7B1B1B",
"8  c #7B1916",
"9  c #7F170A",
"0  c #5F2412",
"q  c #62241C",
"w  c #6A2318",
"e  c #752119",
"r  c #771C22",
"t  c #195323",
"y  c #1A4730",
"u  c #24562D",
"i  c #295B2D",
"p  c #255A2E",
"a  c #314E3B",
"s  c #245C33",
"d  c #2B5C35",
"f  c #2B553D",
"g  c #255A3C",
"h  c #27513B",
"j  c #3B543D",
"k  c #355B39",
"l  c #325231",
"z  c #1C622E",
"x  c #286328",
"c  c #3E6F2E",
"v  c #256233",
"b  c #2B6334",
"n  c #2D6A36",
"m  c #2B643C",
"M  c #2F6B3D",
"N  c #326B37",
"B  c #32653C",
"V  c #316B3D",
"C  c #396637",
"Z  c #3D743C",
"A  c #3B793B",
"S  c #32713B",
"D  c #454931",
"F  c #52493A",
"G  c #4A533F",
"H  c #7D483B",
"J  c #43683F",
"K  c #54653C",
"L  c #477A3B",
"P  c #265742",
"I  c #275843",
"U  c #2A5C44",
"Y  c #2D5546",
"T  c #355F48",
"R  c #2C6344",
"E  c #2D6449",
"W  c #2E6C45",
"Q  c #336443",
"!  c #346B43",
"~  c #396D46",
"^  c #32654B",
"/  c #3D674E",
"(  c #336B4C",
")  c #3B6C4D",
"_  c #3D6144",
"`  c #367243",
"'  c #3B7344",
"]  c #3E7A46",
"[  c #3A744B",
"{  c #387649",
"}  c #346552",
"|  c #336B50",
" . c #3A6D52",
".. c #3C6D58",
"X. c #3E7454",
"o. c #3A7453",
"O. c #475946",
"+. c #585B4A",
"@. c #585752",
"#. c #7C4741",
"$. c #406F4C",
"%. c #466649",
"&. c #5A614A",
"*. c #546948",
"=. c #427544",
"-. c #447C45",
";. c #487D47",
":. c #44744B",
">. c #4A764B",
",. c #437A4B",
"<. c #4A7C4B",
"1. c #487741",
"2. c #5A724B",
"3. c #58764B",
"4. c #446F53",
"5. c #5C6A54",
"6. c #427453",
"7. c #4A7553",
"8. c #447D53",
"9. c #4A7B53",
"0. c #447A5A",
"q. c #4A7C5A",
"w. c #46775A",
"e. c #567953",
"r. c #597859",
"t. c #6B7759",
"y. c #647755",
"u. c #747C5D",
"i. c #737758",
"p. c #6B6D51",
"a. c #497C62",
"s. c #617F65",
"d. c #797B64",
"f. c #84150E",
"g. c #841615",
"h. c #84141A",
"j. c #871717",
"k. c #8D3E2F",
"l. c #99362C",
"z. c #8E3E33",
"x. c #8F3D39",
"c. c #9D3631",
"v. c #943C34",
"b. c #9C3A33",
"n. c #953C3B",
"m. c #9B3C39",
"M. c #953731",
"N. c #AA2E2C",
"B. c #A42D2A",
"V. c #A4352E",
"C. c #AB322D",
"Z. c #A23A2D",
"A. c #AB3326",
"S. c #B3342F",
"D. c #A62E32",
"F. c #A53433",
"G. c #AC3333",
"H. c #A23833",
"J. c #AB3339",
"K. c #A73838",
"L. c #B23534",
"P. c #B03837",
"I. c #874438",
"U. c #934237",
"Y. c #827B5E",
"T. c #49803F",
"R. c #448342",
"E. c #4B8444",
"W. c #45834D",
"Q. c #4A854D",
"!. c #4C8D4D",
"~. c #568E4F",
"^. c #52934C",
"/. c #468253",
"(. c #4B8353",
"). c #4C855B",
"_. c #4C8B5A",
"`. c #488755",
"'. c #518255",
"]. c #528B55",
"[. c #52865B",
"{. c #548B5B",
"}. c #5D8755",
"|. c #4E9052",
" X c #539254",
".X c #55925C",
"XX c #5B945D",
"oX c #5C9A5D",
"OX c #579553",
"+X c #6F814E",
"@X c #6A8756",
"#X c #76865E",
"$X c #66965C",
"%X c #4D8462",
"&X c #538662",
"*X c #558B62",
"=X c #598B63",
"-X c #558A6C",
";X c #549261",
":X c #5B9564",
">X c #5D926A",
",X c #5C9A63",
"<X c #698961",
"1X c #768764",
"2X c #629363",
"3X c #649969",
"4X c #7D9770",
"5X c #5EA166",
"6X c #6BA76A",
"7X c #64A263",
"8X c #818864",
"9X c #838C71",
"0X c #FFCDBE",
"qX c #FFC5B7",
"wX c #FFD4BE",
"eX c #FFCCC2",
"rX c #FFC2C1",
"tX c #FFD3C4",
"yX c #FDD7C5",
/* pixels */
"S { %X%X)._.{ ! S ! } } ! ~ | o.(.OXoX] S ` R ( ^ ! Q 6.0.).,XR.",
".X/.m [ *XV M W.,X8.) R &X*X( v Q.XX].n _.;X%X( Q q.>XB s [ ,XA ",
",X].-.Q.3XA Q.XX[.*X(.V &X*X;XQ. X.X` 8.;X_.*X{ ) w.*X{.E.;.].b ",
"b N 7X^.E.R.].,.v B Q.,Xs b ' 6X!.A N {.! v n ].=XQ u XX6XoX=.u ",
"M v .XoX^.^.8.m ! {.W.(.b b d :.$XR.-.].b ,.oXQ.(.B n n `.5X(.=.",
"3X(.b W.OXR.8.8.).` /.{ :X{.7.u !.R.,.<.'.(.M ,.:.=X:Xv z _.(.' ",
"|.;XV `..Xx =.=Xq.R ( ( /.(.[.b |.W.U ^ *X' g  .) &X/.] v ).w.f ",
"` _.8.).).p :.=Xq.g | E m 8.>X[ `.{ P U -X( U ^ ^ Q Q ).' *X) h ",
"W ( X.X.Q )  . .! [ E E E ( | ( [ ! X.} ..} ^ E U T Q ) ( 0.6.~ ",
"/.[ R ^ 6.) U g s 8.a.U X.0.( R ) 0.a.^ I g q.[ P } w.^ R ^ %X) ",
"5X.XV ~ ).M ! ] ` ).w.Q =X2X(.] ,.&X( ( { ] ,.[ R q.=X,.) ) a.U ",
"(.,.,.-.,.[ .X:X>X$._ %.e.3.3.3.*.J j r.3X2X:._ 6.%X8.).e.9.) U ",
"Y f 2XoX` _.).X.4.O.O.@.F o + + + + O i.&.*.*.T / ..I ) ].oX;.;.",
"y / <.;.Z <._ j G * * = X #.tXtXtXtXyX$   o ; G T a Y ) ] R.~.E.",
"W.(.v :.@X*.F # . I.U.x.z.v.U.0XeXtXx.v.I.I.H # @ i.1XC u ' oXA ",
"OX X:.e.8Xo 2 I.n.m.M.eX0XM.b.b.m.v.H.c.U.0XeXtXH $ + i.e.,. Xx ",
"t i <X8X  w v.H.F.H.eXtXtX0Xb.V.c.H.V.Z.0XwXwXtXv.n.z.  i.$XE.A ",
"8.:.K o w 5 b.c.F.H.v.0X0Xz.c.V.b.b.l.Z.k.tXwX0Xc.F.v.I.O @X}.-.",
"oX}.# q e U.tX0Xv.c.H.H.c.H.F.m.tX0XeXv.M.b.m.n.m.z.0XyXyXO <X:.",
"Q.1X. r b.qXtXtXqXZ.F.G.C.G.J.rXtXtXeXb.F.J.F.F.c.eXtXtXeX# 5.f ",
"l Y.w F.C.G.c.c.F.F.F.F.G.G.F.F.l.b.F.B.G.G.G.F.V.H.c.c.K.I.+.a ",
", + 5 N.L.N.N.C.G.G.F.J.G.N.C.C.P.N.L.S.N.G.C.G.C.G.C.L.D.n.* O.",
"D o 5 C.N.G.L.C.C.G.G.C.G.G.G.C.N.C.N.C.G.G.G.N.C.B.L.N.G.n.- p.",
"9Xo e C.G.L.C.C.G.G.A.C.G.C.G.G.G.C.A.C.G.G.G.G.C.G.N.L.D.n.& F ",
"d.o 6 G.G.C.C.G.G.G.L.A.C.C.G.F.G.C.S.N.J.F.G.G.G.C.N.G.F.v.& D ",
"D # 6 h.F.G.G.G.J.G.A.A.A.G.F.F.J.D.C.G.F.F.G.G.G.C.G.F.V.5 o p.",
": + 3 h.j.g.F.F.J.G.A.A.C.G.G.J.D.J.F.F.J.F.D.G.C.C.F.f.j.5 + y.",
"s.d.q 3 6 5 8 g.h.h.f.9 g.4 j.h.h.h.4 4 4 4 g.g.g.g.7 5 5 q u.k ",
"f %.; %   0 w 5 7 7 5 5 6 6 6 6 r 6 3 5 e 6 6 6 6 6 q $ & O 3.d ",
"y k <X#Xi.%   2 . < < . . 2 . 2 .   $ .   2   . 1 X o &.t.4X9.! ",
"7.%.>.}.$X@Xy.O.#Xt.u.2.3.2.+.G 1Xy.+X+XK @X#Xt.&.5.r.k J $X2X<.",
"e.>.s ` T.L ~ ! <.Z >.N Q././ h =.L c L Z -.i :._ q.).s t Z 1.C "
};
