/* XPM */
static char *cc38ff061d3c4574ba34bd353c911d3d[] = {
/* columns rows colors chars-per-pixel */
"32 32 225 2 ",
"   c #1B0000",
".  c #220000",
"X  c #3D0B01",
"o  c #380E06",
"O  c #2B1501",
"+  c #241B03",
"@  c #271804",
"#  c #361201",
"$  c #3A1300",
"%  c #311802",
"&  c #38140C",
"*  c #142201",
"=  c #3E2F10",
"-  c #3B3315",
";  c #3A341A",
":  c #323818",
">  c #342B09",
",  c #203D21",
"<  c #4D0600",
"1  c #4A0802",
"2  c #430906",
"3  c #520700",
"4  c #441409",
"5  c #681D19",
"6  c #7D1515",
"7  c #741B16",
"8  c #7E1815",
"9  c #7F171B",
"0  c #751A1A",
"q  c #781919",
"w  c #443507",
"e  c #582613",
"r  c #453414",
"t  c #502F13",
"y  c #6C221C",
"u  c #682317",
"i  c #771D21",
"p  c #692124",
"a  c #11481E",
"s  c #1B4A31",
"d  c #3C4F2F",
"f  c #285C2D",
"g  c #264C34",
"h  c #265C35",
"j  c #2C5A34",
"k  c #28593C",
"l  c #3A5638",
"z  c #3E4A34",
"x  c #2B622B",
"c  c #2B6334",
"v  c #2E633C",
"b  c #266538",
"n  c #336336",
"m  c #326A33",
"M  c #33643C",
"N  c #336B3D",
"B  c #3A6A38",
"V  c #3B763B",
"C  c #2D7136",
"Z  c #454B3C",
"A  c #474E35",
"S  c #47573B",
"D  c #57563A",
"F  c #47693C",
"G  c #536D3C",
"H  c #44793D",
"J  c #6E5439",
"K  c #3C5D45",
"L  c #346344",
"P  c #346D42",
"I  c #3B6E42",
"U  c #34654A",
"Y  c #346B4C",
"T  c #3C6449",
"R  c #3C7343",
"E  c #3D7D43",
"W  c #3C754B",
"Q  c #367646",
"!  c #3A6A51",
"~  c #3C7853",
"^  c #2A6141",
"/  c #535C45",
"(  c #545F4F",
")  c #425A40",
"_  c #476748",
"`  c #546848",
"'  c #437643",
"]  c #427C46",
"[  c #43754B",
"{  c #437C4B",
"}  c #4A7C4C",
"|  c #487240",
" . c #5C764C",
".. c #597A49",
"X. c #556951",
"o. c #447553",
"O. c #4B7D53",
"+. c #4B7C59",
"@. c #4B7556",
"#. c #537D5D",
"$. c #5C785B",
"%. c #676847",
"&. c #657858",
"*. c #777859",
"=. c #656C50",
"-. c #4C7C61",
";. c #5E7F60",
":. c #7A7761",
">. c #6C7C61",
",. c #821615",
"<. c #82141A",
"1. c #841917",
"2. c #8D3E2E",
"3. c #9D362D",
"4. c #9D382C",
"5. c #953C2E",
"6. c #8B3C38",
"7. c #9C3533",
"8. c #953C34",
"9. c #9C3A34",
"0. c #973D3C",
"q. c #A4342D",
"w. c #AB322D",
"e. c #A4382C",
"r. c #AE2F32",
"t. c #A12C32",
"y. c #B12E33",
"u. c #B12F39",
"i. c #A53433",
"p. c #AB3333",
"a. c #A23A34",
"s. c #A5343B",
"d. c #AB3239",
"f. c #A93A36",
"g. c #B13033",
"h. c #8D4335",
"j. c #8C433C",
"k. c #844538",
"l. c #94413B",
"z. c #984233",
"x. c #806753",
"c. c #AB7452",
"v. c #4A813E",
"b. c #3F8257",
"n. c #4B8444",
"m. c #44834C",
"M. c #4B834B",
"N. c #4E8D4F",
"B. c #498A46",
"V. c #59854A",
"C. c #4F924D",
"Z. c #569449",
"A. c #4C8454",
"S. c #4D8B54",
"D. c #4C835B",
"F. c #4B8B5B",
"G. c #538355",
"H. c #528D54",
"J. c #538A5B",
"K. c #5A8E5C",
"L. c #578659",
"P. c #5C9553",
"I. c #56935C",
"U. c #5A925C",
"Y. c #579457",
"T. c #4B9051",
"R. c #63874A",
"E. c #678858",
"W. c #768256",
"Q. c #649858",
"!. c #63A156",
"~. c #4D8A62",
"^. c #5C8E63",
"/. c #558A64",
"(. c #5B9460",
"). c #5E9A61",
"_. c #579667",
"`. c #658865",
"'. c #768663",
"]. c #629A62",
"[. c #6D9361",
"{. c #65A166",
"}. c #86845B",
"|. c #D39C7A",
" X c #D79D76",
".X c #C2A373",
"XX c #CAA379",
"oX c #D8A177",
"OX c #D19E83",
"+X c #C7A687",
"@X c #F0BD8E",
"#X c #ECBE95",
"$X c #EEBE99",
"%X c #E3BD98",
"&X c #F4BC9D",
"*X c #F2BE94",
"=X c #EDBF8B",
"-X c #ECBFA3",
";X c #DEC79E",
":X c #ECC494",
">X c #ECC39B",
",X c #EDC899",
"<X c #E4C59B",
"1X c #F3C395",
"2X c #F2C39B",
"3X c #F7C59C",
"4X c #DCC7A7",
"5X c #DFD0A7",
"6X c #EBC5A2",
"7X c #E2CAA3",
"8X c #EAC6A9",
"9X c #E5C8A8",
"0X c #F5C3A2",
"qX c #F7C6A5",
"wX c #FFCCBD",
"eX c #FFD2BE",
"rX c #F0E2BF",
"tX c #EBE1BE",
"yX c #FFCBC4",
"uX c #FFC6C8",
"iX c #EEDFC2",
"pX c #FFD3C2",
"aX c #FED9C2",
"sX c #FFD0CE",
"dX c #F2E1C7",
/* pixels */
"P W D.D.b.F.W P Y U T T L P ! ~ A.S._.~ P P Y Y U Y Y ~ +.~.U.n.",
"_.{ c { ~.P M O.`.$.( Z '.&.X.l ..E.E.S &.'.#.L U -._.b b Q ).V ",
"_.I.H n.].R } [.*.O 4 2 2 X aXdXtXrX$ X 4 # :.X.K #.J.J.M.] G.n ",
"b C {.P... .W.+ # k.j.6.6.j.k.pXaXeX2.8.8.j.# @ + / d E.].].[ j ",
"N f Y.[.*.# 2 h.5.5.2.pXaXeXl.7.4.4.e.3.0.sXyXk.l.< # D G.{.A.R ",
"_.A.N  .# u h.8.a.4.z.wXpXpX9.i.9.4.e.a.0.uXyX8.e.a.k.@ d A.J.N ",
"J.J.F + e h.pXeXyX8.7.s.a.a.7.8.pXeX8.9.7.7.9.3.e.8.aXiX* `.@.k ",
"I `.=.# y wXwXpXwX9.s.d.r.p.i.yXeXaXwX7.f.i.p.q.e.wXeXaX% :.X.g ",
"T / o i 7.q.f.q.q.w.i.p.w.w.i.a.9.9.i.p.d.d.p.i.q.a.7.8.l.X =._ ",
"$.+ p <.p.w.w.w.w.w.w.w.w.w.w.p.p.p.r.r.r.p.p.p.p.q.i.p.t.0.@ X.",
"'.O u 8 i.p.i.p.p.w.w.w.y.y.y.y.y.y.y.g.p.w.w.w.w.q.i.p.p.0.& Z ",
"*.% y 8 i.d.i.p.p.p.w.p.d.u.g.g.p.p.p.p.p.p.w.w.q.p.q.p.w.q O A ",
"z @ 5 9 1.i.d.i.i.i.i.i.s.s.i.i.i.i.i.i.s.d.p.p.w.w.d.d.<.5 + ..",
", / & y 7 8 ,.1.9 q 8 8 9 9 8 8 8 8 8 8 <.<.<.1.,.,.6 7 y # W.H ",
"A.L.A @ $ u 7 q 0 0 7 7 q 0 0 7 7 0 0 0 7 7 0 q i 5 u $ @ ` [.' ",
"K.K.[  .}.% $ X 1 < < 3 3 3 3 < < 1 1 1 3 3 < 1 2 & @ *.&.| K.x ",
"g j U.Q.R.R. .S J OXOX|. XoX X|.. +X+X  |.oXe x.&.) l _ L.Q.M.V ",
"+.I E B.Z.Z.{ F = +X0X*X1X=X@X3X  9X4X  2X2X8X- _ W +.M m Y.H.{ ",
").S.c A.N.N.S.F w XX&X0X2X2X3X&X. 9X9X. &X&X-X= F I.(.c h O.^.R ",
"m.(.N O.I.V ] E.w 2X0X$X2X#Xc.&X-X8X6X>Xc.&X6Xr ` G.J.R v /.o.k ",
"v ^.[ } (.j | : .X1X2X>X2X2X>X>X>X>X<X:X#XqX>X4X: l M J.R J.! g ",
"s o.O.J.A.n X.- XX1X:X:X2X2X#X6X>X2X>X>X2X>X:X9X; S L o.[ +.Y U ",
"f x [ +.R @.` ; XX1X:X:X2X$X3X$X2X>X$X2X2X$X1X<X; / _ k T U D.W ",
"].(.v P F.M l ; +X#X,X:X:X2X2X2X2X2X2X2X$X2X2X<X; ` `.+.L U D.c ",
"~.~ m.] Q R `.: +X>X>X>X:X:X>X2X>X>X:X:X2X:X>X7X: /.#.D.A.{ P h ",
"h b (.I.R J.L.` r 8XqX>X:X:X:X>X>X>X,X:X:X>X9X- _ [ h W H.).A.{ ",
"a v { { R } L l A 4X%X:X3X:X:X,X>X:X:X:X1X<X- S K k h N E E N.n.",
"/.`.' M.U.R O.`.>.r <X2X>X<X7X;X7X<X>X2X*XXX=.@.L -./.F.m.E H.x ",
"k [ Q.Z.C.E S.O.S ; <X:X8Xr - ; - r e |.oX.XG G./.U ^ /.{.Y.] f ",
"s j Q.!.C.S.m.n S : 5X7X- A Z &.'.%.= +X.Xw V.S./.L k R Y.{.M.P ",
"o.[ ' H.P.P.A.P L.E.E.`  .X._ K E.V.R.E.G E.U.m.R [ #.j I (.^.M.",
"A.[ j H v.H P N M.m } n G.O.! g H H V V R { x ] n } G.j f [ [ B "
};
