/* XPM */
static char *up1737643087[] = {
/* columns rows colors chars-per-pixel */
"31 31 214 2 ",
"   c #020300",
".  c #0B0000",
"X  c #000A00",
"o  c #140000",
"O  c #1A0000",
"+  c #190903",
"@  c #081507",
"#  c #171706",
"$  c #041413",
"%  c #161C1A",
"&  c #2C0000",
"*  c #270000",
"=  c #251C19",
"-  c #0F3918",
";  c #2A2619",
":  c #21331B",
">  c #143728",
",  c #272424",
"<  c #332B23",
"1  c #3B3324",
"2  c #3C362C",
"3  c #3D392C",
"4  c #333227",
"5  c #393736",
"6  c #5B160F",
"7  c #4C1C12",
"8  c #471B1C",
"9  c #571616",
"0  c #5C1614",
"q  c #5C1914",
"w  c #59171A",
"e  c #551C1C",
"r  c #5C1C1B",
"t  c #541D16",
"y  c #621B16",
"u  c #641616",
"i  c #7D1E1D",
"p  c #791D16",
"a  c #6F180C",
"s  c #432C1E",
"d  c #46241C",
"f  c #52211D",
"g  c #5B2B1D",
"h  c #45341C",
"j  c #6A291B",
"k  c #6D271F",
"l  c #792114",
"z  c #75221C",
"x  c #7C221C",
"c  c #74291E",
"v  c #511C22",
"b  c #7D1F20",
"n  c #4B2122",
"m  c #422F26",
"M  c #592D26",
"N  c #453A2B",
"B  c #443727",
"V  c #583227",
"C  c #443834",
"Z  c #6D2729",
"A  c #6E2625",
"S  c #752224",
"D  c #7B2322",
"F  c #792E2C",
"G  c #6C372F",
"H  c #7A332E",
"J  c #683A38",
"K  c #1A431B",
"L  c #1B4B29",
"P  c #1D532F",
"I  c #204227",
"U  c #324029",
"Y  c #23592A",
"T  c #204234",
"R  c #3B403C",
"E  c #255C34",
"W  c #2D563C",
"Q  c #265D39",
"!  c #2C5B3C",
"~  c #2B5737",
"^  c #33573B",
"/  c #26612B",
"(  c #2B6235",
")  c #2D643D",
"_  c #2D6A3B",
"`  c #286536",
"'  c #356E35",
"]  c #34653D",
"[  c #336D3D",
"{  c #3B693D",
"}  c #366635",
"|  c #38763D",
" . c #4F402B",
".. c #5D482D",
"X. c #544D3C",
"o. c #5A4A36",
"O. c #604C31",
"+. c #51613D",
"@. c #42773B",
"#. c #3D3D40",
"$. c #373C40",
"%. c #2B5A47",
"&. c #3B5A43",
"*. c #3A5C4D",
"=. c #375745",
"-. c #2D6343",
";. c #2D6A44",
":. c #2A6646",
">. c #336444",
",. c #346B43",
"<. c #3A6D44",
"1. c #32634B",
"2. c #3B644C",
"3. c #326A4A",
"4. c #3B6B4D",
"5. c #357242",
"6. c #3D7444",
"7. c #3D7B44",
"8. c #3C744B",
"9. c #3E794C",
"0. c #357448",
"q. c #326451",
"w. c #3B6C51",
"e. c #3B6856",
"r. c #3C7354",
"t. c #584B41",
"y. c #4A5E45",
"u. c #585A4B",
"i. c #515A56",
"p. c #466A4A",
"a. c #437B44",
"s. c #43754B",
"d. c #49724C",
"f. c #437B4C",
"g. c #497E4B",
"h. c #467646",
"j. c #416E51",
"k. c #486556",
"l. c #447554",
"z. c #447C53",
"x. c #4A7C54",
"c. c #457C5A",
"v. c #4C7D5A",
"b. c #497557",
"n. c #567858",
"m. c #586049",
"M. c #6E6B5E",
"N. c #756C5D",
"B. c #517E62",
"V. c #6F7164",
"C. c #801E1A",
"Z. c #861C15",
"A. c #82241C",
"S. c #8A271D",
"D. c #93271C",
"F. c #8A2A25",
"G. c #862B26",
"H. c #932723",
"J. c #3F803E",
"K. c #46833D",
"L. c #3F8441",
"P. c #458444",
"I. c #468846",
"U. c #4D8E45",
"Y. c #44834B",
"T. c #4A854C",
"R. c #4D8B4B",
"E. c #468847",
"W. c #528C4D",
"Q. c #5A804F",
"!. c #53934C",
"~. c #56994C",
"^. c #468452",
"/. c #4B8454",
"(. c #4D8A53",
"). c #4B835B",
"_. c #4E8A5B",
"`. c #518752",
"'. c #538B53",
"]. c #53845B",
"[. c #59835B",
"{. c #538B5C",
"}. c #5B8C5D",
"|. c #5D8952",
" X c #4F9253",
".X c #559354",
"XX c #56935C",
"oX c #59945D",
"OX c #5C9C5B",
"+X c #599954",
"@X c #63814F",
"#X c #65845B",
"$X c #65955A",
"%X c #5CA151",
"&X c #65A35A",
"*X c #4E8360",
"=X c #4C8B60",
"-X c #538364",
";X c #538C63",
":X c #5A8C63",
">X c #578C69",
",X c #5B9263",
"<X c #5C9A62",
"1X c #579065",
"2X c #5F9271",
"3X c #658867",
"4X c #639A67",
"5X c #719D6A",
"6X c #5FA463",
"7X c #62A465",
"8X c #8E8576",
"9X c #A7A897",
"0X c #B6A7A0",
"qX c #C7BAA8",
/* pixels */
"Y <.-X-X).).r.3.<.<.4.e.i.u.O & & & & O y.w.;.3.*.2.4.r.L.=XXX",
"] ].) Q T.f._ f.XXx.w.*.$ o G H H H F J   3X*X>.>.v.>X-./ | 6X",
"[ {.a.K.!.I.Y.XX{.;Xv.: M H G.G.F.F.F.G.J   3X8.,.c.-X_.I.L.(.",
"L [ 4X&XU.K. XY./ _ n.; j S.H.H.H.H.Z.p Z o y.].{._ E XX7XOX| ",
"P ] {.oX.XW.Y._ [ {.  d F D.D.D.D.A.l l c g   n./._ >.>.^.OXR.",
"<.).) _ W.R.f.Y.XX+.o 9 S.D.D.Z.C.p A.l l j . n.l.;X2X) E (.`.",
"( }.[ 8.'.h.6.].x.X G G.x i C.A.i D p l c j o m.d.*Xv.8.( ;Xl.",
"Y ].z.z.[.>.6.:Xn.. k C.l i p G.D x D z l k M   y.=.-._.8.=X4.",
"P 4.r.r.j.2.3.j.y.o c p x i x D i x i z S Z M . =.%.;.0.r.r.8.",
"E r.) 1.4.w.3.W   M c D x i D b x x S S u r f . =.q.r.;.:.:.).",
"6.:X,.] l.8.[ h.. M S D p i D b u y 6 q u 0 n . &.x.;Xz.;.;.).",
"] s.[.x.z.s.XX3X. M Z S a 6 u w u q r q 0 r n . p.].c.=X_.9.,.",
"> W :X$X/.^.).d.  V w w r q q y y q 9 r q t m . p.4.%.4.{.<XP.",
"W l.<.[ Y.9.;.4.+.* n w e r q q q q e e e 7 + U &.l.B.! } | OX",
"} /.E _ E.a.[ h.$XX d v t 9 6 y q 9 8 n 8 m X &.1.*X,X} E [ 6X",
"] {.z.7.R.I.Y.oX|.@X. o 8 f f 7 t f O o o . n.l.>.c.].{./.9. X",
"> W {.XX~. X^.,.' #X  + o . . . o . 2 . qX. 3Xx.-X=.Q 6._.4XI.",
"W j.h.| R..XY.[ '.#X  u.= 3 N m 1 3 4   qXqXX [.<.l.c.` _ .XW.",
"} }.] <.T.W.E.9.}.X 9X8X# o.m m o.B 1   0X9XX x.s.{.,X` E ).{.",
"/ }.] 6.(.P.I.(.v.X M.N.# N O.O.h 1 2       ^ 8.8._._.5.` *Xx.",
"L [.f.s.{.5.7.{.n.X V.M.= . ....o.C   =.3X2.! q.%.e.-.).0.>Xw.",
"K <.f.x.).5.z.{.j.=.    5 . o...m 5   k.b.1.>.1.q.%.-.Y.r.^.w.",
"Y a.<.l.f.4.3.;.-.v.b.i.5 % N  .C 5 % > q.:.l.4.%.q./.,._ ;.).",
",.4X( ! s.s.Q ;.` -XB.k.$ =.2 2 C C 5 X 1.:.c.r.%.r.;Xf.) _ '.",
"*.b.x.g.7.6.oX<X<X9.%.1.$ $.5 ; t.o.t.X 5X<Xf.) 8.1X^.).'.a.[ ",
"T %.,XoXT.T.R.7.7._ >.2.$ , ,   m m B X @.@.8.) 0.3.Q <.'.oX/.",
"K { z.z.g.f.' ' 5.;.3.2.$ ; , . = < ; X { _ -.4.:.%.,.s.f.f.(.",
"} }.7.7.`.T.T.'._.=X9.d.# ; ;     X   X >X;Xv.r.;.v.>X-X/.7. X",
"I { $X~.~.K.(.).;.9.T.n.# o.t.X 3Xh.p.[.4.>.8.{._.3.Q ;X$X+X7.",
"- ~ OX%X~.U.^.5.` Y.P.Q.# X.X.X $XK.@.{.>.4.(.T.(.[ Q 8.!.&XP.",
"^ d.p.7.U.+XL.0.(.oX(.n.@ 1 4 X |.R.K..X6.{.(.T.6.8.).( ' .X.X"
};
