/* XPM */
static char *f16e7f6c10bb4373aaca365d4f2c5c17ScJrqqLCPTJCQv7J[] = {
/* columns rows colors chars-per-pixel */
"32 32 208 2 ",
"   c #1F1D1F",
".  c #1E1D27",
"X  c #221D23",
"o  c #2E2526",
"O  c #292824",
"+  c #222B2E",
"@  c #312827",
"#  c #342A2C",
"$  c #3A2B2C",
"%  c #293A28",
"&  c #35342A",
"*  c #393A2C",
"=  c #3E3F33",
"-  c #412E2D",
";  c #463E2E",
":  c #4B3834",
">  c #573A37",
",  c #2A4D2C",
"<  c #384F2F",
"1  c #2D552F",
"2  c #37572C",
"3  c #325D2E",
"4  c #2B4B35",
"5  c #28463C",
"6  c #3D4131",
"7  c #3C4838",
"8  c #2D5435",
"9  c #2F5C35",
"0  c #265038",
"q  c #2C523C",
"w  c #325431",
"e  c #335C34",
"r  c #3E5B33",
"t  c #34553A",
"y  c #345E3D",
"u  c #38632D",
"i  c #35692E",
"p  c #3A6B2F",
"a  c #3A772E",
"s  c #346432",
"d  c #396534",
"f  c #366931",
"g  c #3B6D35",
"h  c #36633C",
"j  c #39673A",
"k  c #3A6C3B",
"l  c #3C7332",
"z  c #3D7538",
"x  c #40402C",
"c  c #434534",
"v  c #5E463C",
"b  c #455D36",
"n  c #4F5739",
"m  c #5D5F36",
"M  c #5C513B",
"N  c #6A413C",
"B  c #764F3D",
"V  c #43792F",
"C  c #436433",
"Z  c #4E6436",
"A  c #426933",
"S  c #49653C",
"D  c #506034",
"F  c #447334",
"G  c #437A32",
"H  c #447A3A",
"J  c #6F6A3E",
"K  c #677C3E",
"L  c #243B43",
"P  c #284946",
"I  c #294B4C",
"U  c #2B5544",
"Y  c #2D5745",
"T  c #2C544B",
"R  c #2E5B4C",
"E  c #345B44",
"W  c #385A46",
"Q  c #325E4B",
"!  c #2A4D51",
"~  c #2B5353",
"^  c #2E5952",
"/  c #315E53",
"(  c #356343",
")  c #34634A",
"_  c #356A4B",
"`  c #3A6848",
"'  c #3B6C4B",
"]  c #377145",
"[  c #3E7141",
"{  c #3F7B47",
"}  c #3B724D",
"|  c #3C7A4C",
" . c #2F6157",
".. c #326453",
"X. c #356B52",
"o. c #396950",
"O. c #367352",
"+. c #387151",
"@. c #474B44",
"#. c #455342",
"$. c #5C5243",
"%. c #754944",
"&. c #7C4B44",
"*. c #6A5449",
"=. c #755544",
"-. c #7A5547",
";. c #416F44",
":. c #4D6A4A",
">. c #586941",
",. c #437542",
"<. c #447B43",
"1. c #41754C",
"2. c #437C4C",
"3. c #666045",
"4. c #7A6D46",
"5. c #7C7A43",
"6. c #864E47",
"7. c #875348",
"8. c #96564A",
"9. c #955B4D",
"0. c #865F52",
"q. c #A25C49",
"w. c #8E6949",
"e. c #98664B",
"r. c #91714A",
"t. c #8F6753",
"y. c #966D51",
"u. c #A6694D",
"i. c #B4664E",
"p. c #AC6451",
"a. c #A56C52",
"s. c #B76A52",
"d. c #B77657",
"f. c #C86D56",
"g. c #C87456",
"h. c #D27959",
"j. c #D97D5A",
"k. c #E17B5E",
"l. c #3F832F",
"z. c #3E8230",
"x. c #42852F",
"c. c #458A2E",
"v. c #488E2E",
"b. c #438432",
"n. c #4A8531",
"m. c #468931",
"M. c #4A8D32",
"N. c #49843D",
"B. c #508738",
"V. c #4D9233",
"C. c #529533",
"Z. c #599634",
"A. c #559B33",
"S. c #5A9A33",
"D. c #5CA333",
"F. c #61A634",
"G. c #63AC34",
"H. c #6AAE32",
"J. c #65AA39",
"K. c #67B034",
"L. c #6BB334",
"P. c #6FB935",
"I. c #73BC34",
"U. c #78BC33",
"Y. c #7EC42F",
"T. c #77C135",
"R. c #7CC332",
"E. c #3E814D",
"W. c #458145",
"Q. c #498145",
"!. c #478845",
"~. c #4D8B45",
"^. c #44844B",
"/. c #4A8449",
"(. c #47894C",
"). c #4C8B49",
"_. c #518E45",
"`. c #508F48",
"'. c #4E9246",
"]. c #4D9249",
"[. c #529545",
"{. c #559B45",
"}. c #5A9F42",
"|. c #5CA342",
" X c #5EA941",
".X c #83C72F",
"XX c #89CE2F",
"oX c #8ED12E",
"OX c #93D42E",
"+X c #99D72E",
"@X c #96D82E",
"#X c #9CDA2C",
"$X c #83C531",
"%X c #84CB32",
"&X c #89CE31",
"*X c #85D035",
"=X c #8CD130",
"-X c #93D530",
";X c #97D931",
":X c #A2DE2B",
">X c #A5DF2B",
",X c #A1DE2D",
"<X c #A6E12A",
"1X c #A6E12B",
"2X c #A8E22A",
"3X c #C88158",
"4X c #D3815A",
"5X c #E88260",
/* pixels */
"I ..O.(.1.~.E...^ ~ ^ ^ ~ I R ] <.;.N.| R T ~ / / ~ ~ ..| /.2.).",
"Q.2.~ ..).{.X.o.Q.j d g Z.F.$X$X$X$X$XH.n.G s _ / 1.).} ^ X.[.'.",
"~.].~.2.{.(.' !.b.C.U.OX#X1X1X1X1X1X2X>XOXXXH.M.y } ].'./.2.{.| ",
"~ X.{.|.]._ j n.H.&XOX1X2X2X2X2X2X2X2X2X2X,X+XT.D.d T } |.|.^...",
"Q ^ X.[._.G D..X+X+X:X2X1X1X1X2X1X2X1X1X1X1X2XOX@XR.C.q _ |.)./.",
"~.2.^ +.z S.-XOXOX1X2X1X1X1X>X,X:X,X:X1X1X1X1X:XOX@X$XG U ^.)._.",
"].).~ _ V.$X=X@X,X2X1X1X1X,X@X%X%XXXOX1X2X1X1X2X#XOX=XL.l W.).2.",
"..(.1.k H.&X#XOX#X2X1X1X1X1X>X@XoX+X>X2X1X1X1X1X#X@X-X@XF.z Q./ ",
"~ 2.[ Z.R.%X;XOXoX#X1X1X1X2X1X1X1X1X2X1X1X1X1X+XoXoXoX=XT.V ) ..",
"_ ..9 F.*X%XXXoX,X:X1X1X2X1X1X1X2X1X2X2X1X>X:X:X#XOXXX%XR.S.` | ",
"~.~.l H.T.&XXX-X@X+X:X2X1X:X1X1X>X1X,X>X1X>X,XoX@XOX=XT.I.G.B.} ",
").^.a D.L.T.;X=X=X+XoX,X,X#X,X1X#X>X+X#X:X#XOXOX-X&X=XR.G.A.k R ",
"P T b.c.K.L.T.%XoXOXoXoX@X#X@X@X,X+X@X+X%X-XOXoX&XR.T.K.K.V.f Q.",
". 4 b.A.G.G.L.U.oX%XoX#XOXXXOXXX+XoX+XoXXX@XOX%X&XI.K.G.G.V.G '.",
"F H b.V.m.L.L.L.I.U.oX@X=X@X@X%X-XOXXXOX-XoX.XR.P.I.L.D.x.x.a W.",
"{ !.M.x.b.K.G.D.I.I.-X%XR.%X=X=XXX-X%X%XT.Y.R.I.P.I.H.V.a b.i ) ",
"+ T f x.m.C.V.G.I.K.I.I.P.I.U.R.U.$XL.P.K.I.L.I.I.A.C.V.M.z.s ' ",
"< T 0 n.c.c.M.G.K.K.G.G.K.I.K.D.P.P.D.L.P.L.P.G.G.M.m.b.V.a ,._.",
"~./.4 f l.m.V.m.m.D.K.G.G.K.G.K.G.K.G.G.G.D.K.V.M.c.V.m.l s ,.).",
"| ~.t 0 l c.m.m.V.x.C.C.F.A.G.F.A.D.D.D.A.V.M.m.M.m.m.b.h j H ' ",
"5 W.j 8 u p p b.m.b.m.V.V.c.v.c.n.M.V.V.m.m.b.b.b.l i p ' k <./ ",
". ( j 3 3 w b p l g b.M.M.l.M.V A b.C.m.V.M.m.s s w 4 e ' j R X.",
"t ) q h e s 3 4 < c G b.G u C & c C C G M.z.F ;.q 8 8 e Q Y ( 2.",
"{.{.e P j w % q r M n A 2 & * $ # 6 & r l F Z C 4 , u A ` Y W.} ",
"2.| k u 9 4 , g b 4.-.M * o o @ @ & @ * r =.J W q 3 1 8 Q.k _ o.",
"L ! ) 3 8 j 9 8 $.u.7.e.: $ o O o O o 6 b &.w.$.W 9 P 5 { N.` (.",
"% ) ..} y g t -.h.s.8.r.;   : @.v > o * Z -.w.4Xa.@.R Y ) } /.].",
"B.~./ ..z D 6.f.5Xp.u.5.x @ > &.6.N - $ m e.w.j.k.8.K d T +.}.).",
"y 2.|._.H 4.d.y.7.6.g.4XB %.&.&.&.&.&.N u.h.8.7.w.d.9.S [.~.'.X.",
"X I (. X'.} ~.| 7 q.g.5Xi.%.0.t.y.y.-.e.k.j.i.v N.( L ^ ].J.(.} ",
"C o. .^.{./.{.X.*.g.3Xa.3.2.X...).[.Q.>.w.g.h.8.:.} 1.....{.`._.",
"<.<.I Q Q.,.<.) -.&.S y [ ~.,.I ) <.,.<.E = %.7.#.,.~.[ I } ,.,."
};
